<?xml version="1.0" encoding="utf-8"?>
<!-- Generator: Adobe Illustrator 22.1.0, SVG Export Plug-In . SVG Version: 6.00 Build 0)  -->
<svg version="1.1" xmlns="http://www.w3.org/2000/svg" xmlns:xlink="http://www.w3.org/1999/xlink" x="0px" y="0px"
	 viewBox="0 0 63.9 62.7" style="enable-background:new 0 0 63.9 62.7;" xml:space="preserve">
<style type="text/css">
	.st0{fill:#80F0F9;}
	.st1{fill:#FFFFFF;}
	.st2{fill:#198974;}
	.st3{fill:#47AD2F;}
	.st4{fill:#7A5C41;}
	.st5{fill:#5CC13A;}
	.st6{fill:#237C11;}
	.st7{fill:#3FA541;}
	.st8{fill:#10725F;}
	.st9{fill:#8DE00A;}
	.st10{fill:#938548;}
	.st11{fill:#498C44;}
	.st12{fill:#7BCE05;}
	.st13{fill:#54CC06;}
	.st14{opacity:0.56;fill:#7CBA04;}
	.st15{fill:#876D33;}
	.st16{fill:#C4B08D;}
	.st17{fill:#56C437;}
	.st18{fill:#49AD07;}
	.st19{fill:#359B3C;}
	.st20{fill:#E2E2E2;}
	.st21{fill:#72706F;}
	.st22{fill:#231815;}
	.st23{fill:#5F3813;}
	.st24{fill:#FCC047;}
	.st25{fill:#E8AF2E;}
	.st26{fill:#603008;}
	.st27{fill:#994405;}
	.st28{fill:#E6E6E7;}
	.st29{fill:#3B2314;}
	.st30{fill:#F0F1F1;}
	.st31{fill:#E0A246;}
	.st32{fill:#4F2B0E;}
	.st33{fill:#7BAD1A;}
	.st34{fill:#97FAFF;}
	.st35{fill:#5DC5EE;}
	.st36{fill:#DE97FF;}
	.st37{fill:#AC3EE5;}
	.st38{fill:#F8CDDB;}
	.st39{fill:#F95892;}
	.st40{fill:#D5FFBD;}
	.st41{fill:#58B431;}
	.st42{fill:#F9EFE5;}
	.st43{fill:#BDAA9A;}
	.st44{fill:#DDCCBF;}
	.st45{fill:#69311A;}
	.st46{opacity:0.43;fill:url(#SVGID_1_);}
	.st47{opacity:0.43;fill:url(#SVGID_2_);}
	.st48{opacity:0.43;fill:url(#SVGID_3_);}
	.st49{opacity:0.43;fill:url(#SVGID_4_);}
	.st50{opacity:0.43;fill:url(#SVGID_5_);}
	.st51{clip-path:url(#SVGID_7_);}
	.st52{clip-path:url(#SVGID_9_);}
	.st53{clip-path:url(#SVGID_11_);}
	.st54{clip-path:url(#SVGID_13_);}
	.st55{clip-path:url(#SVGID_15_);}
	.st56{clip-path:url(#SVGID_17_);}
	.st57{clip-path:url(#SVGID_19_);}
	.st58{clip-path:url(#SVGID_21_);}
	.st59{clip-path:url(#SVGID_23_);}
	.st60{clip-path:url(#SVGID_25_);}
	.st61{clip-path:url(#SVGID_27_);}
	.st62{clip-path:url(#SVGID_29_);}
	.st63{clip-path:url(#SVGID_31_);}
	.st64{clip-path:url(#SVGID_33_);}
	.st65{clip-path:url(#SVGID_35_);}
	.st66{clip-path:url(#SVGID_37_);}
	.st67{clip-path:url(#SVGID_39_);}
	.st68{clip-path:url(#SVGID_41_);}
	.st69{clip-path:url(#SVGID_43_);}
	.st70{clip-path:url(#SVGID_45_);}
	.st71{clip-path:url(#SVGID_47_);}
	.st72{clip-path:url(#SVGID_49_);}
	.st73{clip-path:url(#SVGID_51_);}
	.st74{clip-path:url(#SVGID_53_);}
	.st75{clip-path:url(#SVGID_55_);}
	.st76{clip-path:url(#SVGID_57_);}
	.st77{clip-path:url(#SVGID_59_);}
	.st78{fill:#FFFFFF;stroke:#FFFFFF;stroke-width:4;stroke-linecap:round;stroke-linejoin:round;stroke-miterlimit:10;}
	.st79{fill:#F4F1ED;}
	.st80{fill:#EFE2D5;}
	.st81{fill:#DDC8B6;}
	.st82{fill:#F9B9C7;}
	.st83{fill:#C1AA95;}
	.st84{clip-path:url(#SVGID_61_);}
	.st85{clip-path:url(#SVGID_63_);}
	.st86{fill:#FFFFFF;stroke:#FFFFFF;stroke-width:3;stroke-linecap:round;stroke-linejoin:round;stroke-miterlimit:10;}
	.st87{fill:#D8957B;}
	.st88{fill:#F1E3D8;}
	.st89{fill:#C3755E;}
	.st90{fill:#E6A389;}
	.st91{fill:none;stroke:#231815;stroke-width:0.25;stroke-linecap:round;stroke-miterlimit:10;}
	.st92{clip-path:url(#SVGID_65_);}
	.st93{fill:#6D362C;}
	.st94{fill:#F0CAAE;}
	.st95{fill:#8C4B38;}
	.st96{fill:#361A16;}
	.st97{fill:#44251F;}
	.st98{fill:none;stroke:#44251F;stroke-miterlimit:10;}
	.st99{fill:none;stroke:#44251F;stroke-linecap:round;stroke-linejoin:round;stroke-miterlimit:10;}
	.st100{fill:none;stroke:#6D362C;stroke-width:2;stroke-linecap:round;stroke-linejoin:round;stroke-miterlimit:10;}
	.st101{clip-path:url(#SVGID_67_);}
	.st102{clip-path:url(#SVGID_69_);}
	.st103{opacity:0.5;fill:#FFFFFF;stroke:#FFFFFF;stroke-width:4;stroke-linecap:round;stroke-linejoin:round;stroke-miterlimit:10;}
	.st104{opacity:0.3;fill:#FFFFFF;stroke:#FFFFFF;stroke-width:4;stroke-linecap:round;stroke-linejoin:round;stroke-miterlimit:10;}
	.st105{fill:#FABFBF;}
	.st106{fill:#F7A7AA;}
	.st107{opacity:0.5;fill:#F7A7AA;}
	.st108{fill:#F37B87;}
	.st109{fill:#943436;}
	.st110{opacity:0.3;fill:#F7A7AA;}
	.st111{clip-path:url(#SVGID_71_);}
	.st112{fill:#F4E4E4;}
	.st113{fill:#FF8788;}
	.st114{fill:#261D1D;}
	.st115{fill-rule:evenodd;clip-rule:evenodd;fill:#B7EAF0;}
	.st116{fill-rule:evenodd;clip-rule:evenodd;fill:#ABDEE4;}
	.st117{fill-rule:evenodd;clip-rule:evenodd;fill:#FFA137;}
	.st118{fill-rule:evenodd;clip-rule:evenodd;fill:#C55047;}
	.st119{fill-rule:evenodd;clip-rule:evenodd;fill:#FF9528;}
	.st120{fill-rule:evenodd;clip-rule:evenodd;fill:#39474B;}
	.st121{fill-rule:evenodd;clip-rule:evenodd;fill:#546C7E;}
	.st122{fill:#C55047;}
	.st123{fill:#39474B;}
	.st124{fill-rule:evenodd;clip-rule:evenodd;fill:#677980;}
	.st125{fill-rule:evenodd;clip-rule:evenodd;fill:#664241;}
	.st126{fill-rule:evenodd;clip-rule:evenodd;fill:#5A3534;}
	.st127{fill-rule:evenodd;clip-rule:evenodd;fill:#476071;}
	.st128{fill-rule:evenodd;clip-rule:evenodd;fill:#FFCA6F;}
	.st129{fill-rule:evenodd;clip-rule:evenodd;fill:#FDFDFD;}
	.st130{fill-rule:evenodd;clip-rule:evenodd;fill:#2D2D2C;}
	.st131{fill-rule:evenodd;clip-rule:evenodd;fill:#007E75;}
	.st132{fill-rule:evenodd;clip-rule:evenodd;fill:#3E3E3E;}
	.st133{fill:#2D2D2C;}
	.st134{fill-rule:evenodd;clip-rule:evenodd;fill:#009E94;}
	.st135{fill-rule:evenodd;clip-rule:evenodd;fill:#6B7386;}
	.st136{fill-rule:evenodd;clip-rule:evenodd;fill:#5F667B;}
	.st137{fill-rule:evenodd;clip-rule:evenodd;fill:#FFCC4E;}
	.st138{fill-rule:evenodd;clip-rule:evenodd;fill:#FFC040;}
	.st139{fill:#5F667B;}
	.st140{fill-rule:evenodd;clip-rule:evenodd;fill:#454D62;}
	.st141{fill:#4A5E64;}
	.st142{fill-rule:evenodd;clip-rule:evenodd;fill:#61BCDA;}
	.st143{fill-rule:evenodd;clip-rule:evenodd;fill:#73C8E5;}
	.st144{fill-rule:evenodd;clip-rule:evenodd;fill:#A9E1F4;}
	.st145{fill:#8CA4AD;}
	.st146{fill:#677980;}
	.st147{fill-rule:evenodd;clip-rule:evenodd;fill:#787F92;}
	.st148{fill-rule:evenodd;clip-rule:evenodd;fill:#F7B432;}
	.st149{fill:#FF9528;}
	.st150{fill:#FDFDFD;}
	.st151{fill-rule:evenodd;clip-rule:evenodd;fill:#AB362D;}
	.st152{fill:#EBEBEB;}
	.st153{fill-rule:evenodd;clip-rule:evenodd;fill:#384055;}
	.st154{fill:#FFD900;}
	.st155{fill:#1F1F1F;}
	.st156{clip-path:url(#SVGID_73_);}
	.st157{clip-path:url(#SVGID_75_);}
	.st158{clip-path:url(#SVGID_77_);}
	.st159{clip-path:url(#SVGID_79_);}
	.st160{clip-path:url(#SVGID_81_);}
	.st161{clip-path:url(#SVGID_83_);}
	.st162{clip-path:url(#SVGID_85_);}
	.st163{clip-path:url(#SVGID_87_);}
	.st164{clip-path:url(#SVGID_89_);}
	.st165{clip-path:url(#SVGID_91_);}
	.st166{clip-path:url(#SVGID_93_);}
	.st167{clip-path:url(#SVGID_95_);}
	.st168{clip-path:url(#SVGID_97_);}
	.st169{clip-path:url(#SVGID_99_);}
	.st170{clip-path:url(#SVGID_101_);}
	.st171{clip-path:url(#SVGID_103_);}
	.st172{clip-path:url(#SVGID_105_);}
	.st173{clip-path:url(#SVGID_107_);}
	.st174{clip-path:url(#SVGID_109_);}
	.st175{clip-path:url(#SVGID_111_);}
	.st176{clip-path:url(#SVGID_113_);}
	.st177{clip-path:url(#SVGID_115_);}
	.st178{clip-path:url(#SVGID_117_);}
	.st179{clip-path:url(#SVGID_119_);}
	.st180{clip-path:url(#SVGID_121_);}
	.st181{clip-path:url(#SVGID_123_);}
	.st182{fill:none;}
	.st183{fill-rule:evenodd;clip-rule:evenodd;fill:#BB9F68;}
	.st184{fill-rule:evenodd;clip-rule:evenodd;fill:#FCF2D1;}
	.st185{fill-rule:evenodd;clip-rule:evenodd;fill:url(#SVGID_124_);}
	.st186{fill-rule:evenodd;clip-rule:evenodd;fill:#FBFB99;}
	.st187{fill:#C4BC7A;}
	.st188{fill:url(#SVGID_125_);}
	.st189{fill:url(#SVGID_126_);}
	.st190{fill:#691200;}
	.st191{fill:url(#SVGID_127_);}
	.st192{fill:url(#SVGID_128_);}
	.st193{fill:url(#SVGID_129_);}
	.st194{fill:url(#SVGID_130_);}
	.st195{fill:url(#SVGID_131_);}
	.st196{fill:url(#SVGID_132_);}
	.st197{fill:#810003;}
	.st198{fill:#FFF35C;}
	.st199{fill:#997F62;}
	.st200{fill:#725D47;}
	.st201{fill:#F9F6F6;}
	.st202{fill:#F0A13C;}
	.st203{fill:url(#SVGID_133_);}
	.st204{fill:url(#SVGID_134_);}
	.st205{fill:#FFF9E1;}
	.st206{fill:url(#SVGID_135_);}
	.st207{fill:url(#SVGID_136_);}
	.st208{fill:url(#SVGID_137_);}
	.st209{fill:url(#SVGID_138_);}
	.st210{fill-rule:evenodd;clip-rule:evenodd;fill:url(#SVGID_139_);}
	.st211{fill:url(#SVGID_140_);}
	.st212{fill:url(#SVGID_141_);}
	.st213{fill:url(#SVGID_142_);}
	.st214{fill:url(#SVGID_143_);}
	.st215{fill:url(#SVGID_144_);}
	.st216{fill:url(#SVGID_145_);}
	.st217{fill:url(#SVGID_146_);}
	.st218{fill:url(#SVGID_147_);}
	.st219{fill:url(#SVGID_148_);}
	.st220{fill:url(#SVGID_149_);}
	.st221{fill:url(#SVGID_150_);}
	.st222{fill:url(#SVGID_151_);}
	.st223{fill-rule:evenodd;clip-rule:evenodd;fill:url(#SVGID_152_);}
	.st224{fill:url(#SVGID_153_);}
	.st225{fill:url(#SVGID_154_);}
	.st226{fill:url(#SVGID_155_);}
	.st227{fill:url(#SVGID_156_);}
	.st228{fill:url(#SVGID_157_);}
	.st229{fill:url(#SVGID_158_);}
	.st230{fill:url(#SVGID_159_);}
	.st231{fill:url(#SVGID_160_);}
	.st232{fill:url(#SVGID_161_);}
	.st233{fill:url(#SVGID_162_);}
	.st234{fill-rule:evenodd;clip-rule:evenodd;fill:url(#SVGID_163_);}
	.st235{fill:url(#SVGID_164_);}
	.st236{fill:url(#SVGID_165_);}
	.st237{fill:url(#SVGID_166_);}
	.st238{fill:url(#SVGID_167_);}
	.st239{fill:url(#SVGID_168_);}
	.st240{fill:url(#SVGID_169_);}
	.st241{fill:url(#SVGID_170_);}
	.st242{fill:url(#SVGID_171_);}
	.st243{fill-rule:evenodd;clip-rule:evenodd;fill:url(#SVGID_172_);}
	.st244{fill:url(#SVGID_173_);}
	.st245{fill:url(#SVGID_174_);}
	.st246{fill:url(#SVGID_175_);}
	.st247{fill:url(#SVGID_176_);}
	.st248{fill:url(#SVGID_177_);}
	.st249{fill:url(#SVGID_178_);}
	.st250{fill:url(#SVGID_179_);}
	.st251{fill:url(#SVGID_180_);}
	.st252{fill:#BCBEC0;}
	.st253{fill:#E6E7E8;}
	.st254{fill:#474747;}
	.st255{fill:#808080;}
	.st256{fill:#6E6E6E;}
	.st257{fill:#8F8F8F;}
	.st258{fill-rule:evenodd;clip-rule:evenodd;fill:url(#SVGID_181_);}
	.st259{fill-rule:evenodd;clip-rule:evenodd;fill:url(#SVGID_182_);}
	.st260{fill-rule:evenodd;clip-rule:evenodd;fill:url(#SVGID_183_);}
	.st261{fill-rule:evenodd;clip-rule:evenodd;fill:url(#SVGID_184_);}
	.st262{fill-rule:evenodd;clip-rule:evenodd;fill:#0080A8;}
	.st263{fill-rule:evenodd;clip-rule:evenodd;fill:#F3F5DD;}
	.st264{fill-rule:evenodd;clip-rule:evenodd;fill:#94966F;}
	.st265{fill-rule:evenodd;clip-rule:evenodd;fill:#EBE7D1;}
	.st266{fill-rule:evenodd;clip-rule:evenodd;fill:#C9C5B5;}
	.st267{fill:#C6C2B6;}
	.st268{fill:#F5FFD0;}
	.st269{fill:#FF8E00;}
	.st270{fill-rule:evenodd;clip-rule:evenodd;fill:#CA6F05;}
	.st271{fill-rule:evenodd;clip-rule:evenodd;fill:#FFD48F;}
	.st272{fill-rule:evenodd;clip-rule:evenodd;fill:url(#SVGID_185_);}
	.st273{fill-rule:evenodd;clip-rule:evenodd;fill:#DB9746;}
	.st274{fill-rule:evenodd;clip-rule:evenodd;fill:#2293BF;}
	.st275{fill-rule:evenodd;clip-rule:evenodd;fill:#B3F5FF;}
	.st276{fill-rule:evenodd;clip-rule:evenodd;fill:url(#SVGID_186_);}
	.st277{fill-rule:evenodd;clip-rule:evenodd;fill:#008BD6;}
	.st278{fill-rule:evenodd;clip-rule:evenodd;fill:url(#SVGID_187_);}
	.st279{fill-rule:evenodd;clip-rule:evenodd;fill:url(#SVGID_188_);}
	.st280{fill-rule:evenodd;clip-rule:evenodd;fill:url(#SVGID_189_);}
	.st281{fill-rule:evenodd;clip-rule:evenodd;fill:url(#SVGID_190_);}
	.st282{fill-rule:evenodd;clip-rule:evenodd;fill:#D68F47;}
	.st283{fill:#CE7A00;}
	.st284{fill-rule:evenodd;clip-rule:evenodd;fill:url(#SVGID_191_);}
	.st285{fill-rule:evenodd;clip-rule:evenodd;fill:url(#SVGID_192_);}
	.st286{fill-rule:evenodd;clip-rule:evenodd;fill:url(#SVGID_193_);}
	.st287{fill-rule:evenodd;clip-rule:evenodd;fill:url(#SVGID_194_);}
	.st288{fill-rule:evenodd;clip-rule:evenodd;fill:url(#SVGID_195_);}
	.st289{fill:#2293BF;}
	.st290{fill-rule:evenodd;clip-rule:evenodd;fill:url(#SVGID_196_);}
	.st291{fill-rule:evenodd;clip-rule:evenodd;fill:url(#SVGID_197_);}
	.st292{fill-rule:evenodd;clip-rule:evenodd;fill:url(#SVGID_198_);}
	.st293{fill-rule:evenodd;clip-rule:evenodd;fill:url(#SVGID_199_);}
	.st294{fill-rule:evenodd;clip-rule:evenodd;fill:url(#SVGID_200_);}
	.st295{fill-rule:evenodd;clip-rule:evenodd;fill:url(#SVGID_201_);}
	.st296{fill-rule:evenodd;clip-rule:evenodd;fill:url(#SVGID_202_);}
	.st297{fill-rule:evenodd;clip-rule:evenodd;fill:url(#SVGID_203_);}
	.st298{fill-rule:evenodd;clip-rule:evenodd;fill:url(#SVGID_204_);}
	.st299{fill-rule:evenodd;clip-rule:evenodd;fill:url(#SVGID_205_);}
	.st300{fill-rule:evenodd;clip-rule:evenodd;fill:url(#SVGID_206_);}
	.st301{fill-rule:evenodd;clip-rule:evenodd;fill:url(#SVGID_207_);}
	.st302{fill-rule:evenodd;clip-rule:evenodd;fill:url(#SVGID_208_);}
	.st303{fill-rule:evenodd;clip-rule:evenodd;fill:url(#SVGID_209_);}
	.st304{fill:#E5965E;}
	.st305{fill:#D17639;}
	.st306{fill:#B57240;}
	.st307{fill:#FFC78A;}
	.st308{fill:#C37E4A;}
	.st309{display:none;fill:#B57240;}
</style>
<g id="Layer_1">
</g>
<g id="Layer_2">
</g>
<g id="Layer_3">
	<g>
		<g>
			<g>
				<path class="st304" d="M56,22.8c0,0,8.7-8,1.8-14.2c-7-6.2-9.5-9-15.9-4.2C35.4,9.3,56,22.8,56,22.8z"/>
				<path class="st305" d="M53.7,5.1L53.7,5.1c-4.2-3.5-6.9-4.5-11.9-0.7c-3,2.3-0.1,6.5,3.9,10.3C45.7,9.9,47.1,4.4,53.7,5.1z"/>
				<path class="st306" d="M56,23.5c4.9-4.5,7.1-10.7,2.1-15.2C51.1,2.1,48.3-1,41.5,4C35.5,8.5,49.7,19.3,56,23.5z M42.1,4.9
					c6.1-4.6,8.4-2,15.3,4.2c4.4,3.9,2.5,9.1-1.5,13.2C50.9,18.8,37.2,8.5,42.1,4.9z"/>
			</g>
			<g>
				<path class="st307" d="M18.6,23.5c1.2,5.7,3.4,4.9,3.4,4.9s-1.6,4.1,3.3,7.9c0.7,0.5,1.6,0.7,2.4,0.5l0,0
					c-0.8,1.1-1.8,2.3-2.9,3.4c-2.5,2.6-5.4,4.8-8.2,7c-1,0.8-1.9,1.8-2.1,3c-0.2,0.9,0,1.9,0.3,2.7c0.4,1.1,0.9,2.1,1.7,3
					c1.2,1.3,3,2,4.8,1.8c3.9-0.3,7-5.3,9.1-8.2c2.1-2.9,3.4-5.3,5.4-8.3c2.5-3.8,6.4-5.8,8-6.4c0.9,0.2,0.7,0.3,1.1,0.8
					c2.8,3.2-0.5,8.9,4.4,14c4.9,5.1,11.1,4,11.7,1.4c0.6-2.6-6.1-5.1-4.9-9.2c1.1-3.9,6.4-21.9-1.6-28c-0.9-0.7-1.9-1.4-2.7-2.2
					C49,9.2,43.3,4.9,39.5,5.8C34.3,6.9,17.4,17.8,18.6,23.5z"/>
				<path class="st304" d="M18.6,23.5c0.3,1.3,0.6,2.3,1,3c0.7-1.9,1.9-4.3,3.8-6.7C27.1,15,40.6,7,48.4,8.9
					c-2.8-1.9-6.3-3.7-8.9-3.2C34.3,6.9,17.4,17.8,18.6,23.5z"/>
				<path class="st304" d="M21.8,31.4c2.2-5.9,7.3-10.6,7.3-10.6c-2.9,0.6-7.2,7.6-7.2,7.6s-0.1,0.7-0.3,1.6
					C21.7,30.4,21.7,30.9,21.8,31.4z"/>
				<path class="st304" d="M27.7,36.7c-0.8,1.1-1.8,2.3-2.9,3.4c-2.5,2.6-5.4,4.8-8.2,7c-1,0.8-1.9,1.8-2.1,3
					c-0.2,0.9,0,1.9,0.3,2.7c0,0,0,0,0,0c0.3-0.7,0.9-1.6,1.9-2.8c2.8-3.4,11.8-9.1,13.4-11c1.7-1.9,3.7-7,3.7-7L27.7,36.7
					L27.7,36.7z"/>
				<path class="st306" d="M18.2,23.5c0.4,1.9,1.3,4.9,3.2,5.3c-0.8,4.1,2.9,8.3,5.4,8.4c-6.9,9-14.5,9.3-12.4,15.8
					c1.3,3.8,4.1,5.3,6.9,5.1c3.8-0.3,6.7-4.5,8.8-7.5c6-8.6,8.7-13.2,13.2-15.2c0.5-0.2,1.1-0.1,1.4,0.4c0,0,0,0,0,0
					c2.5,3.1-0.8,8.8,4.2,14c5.2,5.4,11.7,4.2,12.4,1.2c0.3-1.4-0.9-2.6-2.3-3.9c-4-4-2.5-5-2.6-5.4c6.7-23.6-1.2-27.3-1.9-28.5
					C51,10.4,44.3,4.3,39.4,5.3C34,6.5,16.9,17.5,18.2,23.5z M39.6,6.2c4.2-0.9,11.4,5,14.7,7.8c8.4,6.5,1.5,26.9,1.5,27.6
					c-1.2,4.3,5.4,7,4.9,9.2c-0.5,2.3-6.3,3.2-11-1.6c-5-5.2-1-12.2-4.7-14.5c-0.6-0.4-1.4-0.4-2.1-0.1c-6.3,2.9-7.5,7.1-13.4,15.5
					c-2,2.9-4.8,6.9-8.2,7.1c-1.6,0.1-3.3-0.5-4.4-1.7c-1.2-1.2-2.2-3.8-1.9-5.3c0.3-1.6,1.8-2.6,3.1-3.7c7.7-6.2,8.1-7.2,10.6-10.5
					c-0.6,0.1-1.9,0.9-3.2-0.1c-4.6-3.5-3.3-7.2-3.2-7.4l0.3-0.8c-0.8,0.2-1,0.5-1.6,0.1c-0.5-0.3-1.5-1.3-2.1-4.4
					C17.9,18.1,34.4,7.3,39.6,6.2z"/>
			</g>
			<path class="st308" d="M33.9,32c-5.7,4.6-6.3,5.7-6.8,5.1C26.5,36.5,28.2,36.1,33.9,32z"/>
			<path class="st308" d="M29.3,20.5c-6.8,4.7-6.4,8.9-7.6,8.3C20.6,28.2,24.6,23.2,29.3,20.5z"/>
			<path class="st309" d="M9.5,52.8c-2.7-3.7-3.8-8.6-1.2-12.3c0.2-0.3,0.7,0,0.5,0.3C8.6,41.5,5.4,45.6,9.5,52.8z"/>
			<path class="st309" d="M11.1,52.8c-1.8-4.2-1.5-8.9,1.7-11.6c0.3-0.2,0.7,0.2,0.4,0.4C13.2,42,8.8,45,11.1,52.8z"/>
		</g>
	</g>
</g>
</svg>
