<?xml version="1.0" encoding="utf-8"?>
<!-- Generator: Adobe Illustrator 22.1.0, SVG Export Plug-In . SVG Version: 6.00 Build 0)  -->
<svg version="1.1" xmlns="http://www.w3.org/2000/svg" xmlns:xlink="http://www.w3.org/1999/xlink" x="0px" y="0px"
	 viewBox="0 0 653.1 89.9" style="enable-background:new 0 0 653.1 89.9;" xml:space="preserve">
<style type="text/css">
	.st0{fill:#D6D6D6;}
	.st1{fill:#80F0F9;}
	.st2{fill:#FFFFFF;}
	.st3{fill:#43CCDE;}
	.st4{fill:#32ABBA;}
	.st5{fill:#FF9D47;}
	.st6{fill:#4D4D4D;}
	.st7{fill:#34495E;}
	.st8{fill:#97F58F;}
	.st9{fill:#42CF25;}
	.st10{fill:#FFA6A6;}
	.st11{fill:#AB5C16;}
	.st12{fill:#FFDB8C;}
	.st13{fill:#D1D1D1;}
	.st14{fill:#72706F;}
	.st15{fill:#A05000;}
	.st16{fill:#693908;}
	.st17{fill:#C89D50;}
	.st18{fill:#4E9B34;}
	.st19{fill:#97C62F;}
	.st20{fill:#593968;}
	.st21{fill:#D5B3C3;}
	.st22{fill:#FCD22C;}
	.st23{fill:#FCDB94;}
	.st24{fill:#F3DAAE;}
	.st25{fill:#DBE1AC;}
	.st26{fill:#E4343A;}
	.st27{fill:#E3C6D3;}
	.st28{fill:#D2DB93;}
	.st29{fill:#FDE5AE;}
	.st30{fill:none;stroke:#F6D492;stroke-width:0.7714;stroke-linecap:round;stroke-linejoin:round;stroke-miterlimit:10;}
	.st31{fill:#CAB59F;}
	.st32{fill:#B41529;}
	.st33{fill:#D81F35;}
	.st34{fill:#F8BB00;}
	.st35{fill:#8DC21F;}
	.st36{fill:#951B08;}
	.st37{fill:#E6D8DF;}
	.st38{fill:#E5E5E6;}
	.st39{fill:#E5E4A9;}
	.st40{fill:#EFE9E9;}
	.st41{fill:#FBC8D1;}
	.st42{fill:#FBD4D9;}
	.st43{fill:#F9B9C7;}
	.st44{fill:#DD8CA5;}
	.st45{fill:#E8E8E8;}
	.st46{fill:#444343;}
	.st47{fill:#F4F1ED;}
	.st48{fill:#EFE2D5;}
	.st49{fill:#DDC8B6;}
	.st50{fill:#C1AA95;}
	.st51{fill:#FFCC57;}
	.st52{fill:#7E4A23;}
	.st53{fill:#FFF6B5;}
	.st54{clip-path:url(#SVGID_2_);}
	.st55{fill:#F99C15;}
	.st56{fill:#A2D063;}
	.st57{fill:#6FA536;}
	.st58{fill:#3D3D3D;}
	.st59{fill:#EFEFEF;}
	.st60{fill:#925D00;}
	.st61{fill:#F5B456;}
	.st62{fill:#E66B3E;}
	.st63{fill:#F7CC8C;}
	.st64{fill:#C77B00;}
	.st65{fill:#908F93;}
	.st66{fill:#E5C5DD;}
	.st67{fill:#6B6B6D;}
	.st68{fill:#F29700;}
	.st69{clip-path:url(#SVGID_4_);fill:#FEFEFE;}
	.st70{clip-path:url(#SVGID_4_);}
	.st71{fill:#670004;}
	.st72{fill:#B7B7BC;}
	.st73{fill:#E96D46;}
	.st74{fill:#F9EFE5;}
	.st75{fill:#BDAA9A;}
	.st76{fill:#DDCCBF;}
	.st77{fill:#4B6A76;}
	.st78{opacity:0.43;fill:url(#SVGID_5_);}
	.st79{fill:#F4E4E4;}
	.st80{fill:#FF8788;}
	.st81{fill:#261D1D;}
	.st82{opacity:0.5;}
	.st83{fill:#F7A7AA;}
	.st84{opacity:0.3;fill:#F7A7AA;}
	.st85{fill:#FABFBF;}
	.st86{opacity:0.5;fill:#F7A7AA;}
	.st87{fill:#F37B87;}
	.st88{fill:#943436;}
	.st89{fill:#F6A0A4;}
	.st90{fill:url(#SVGID_8_);}
	.st91{fill:url(#SVGID_9_);}
	.st92{fill:#E20E46;}
	.st93{fill:#EDEDED;}
	.st94{fill:#F9747E;}
	.st95{fill:#E44C5F;}
	.st96{clip-path:url(#SVGID_13_);}
	.st97{fill:#85C459;}
	.st98{clip-path:url(#SVGID_15_);fill:#FFFFFF;}
	.st99{clip-path:url(#SVGID_17_);fill:#F74F5C;}
	.st100{fill:#CCCCCC;}
	.st101{clip-path:url(#SVGID_19_);fill:#53BEE3;}
	.st102{clip-path:url(#SVGID_21_);}
	.st103{fill:#53BEE3;}
	.st104{fill:#00A1CC;}
	.st105{clip-path:url(#SVGID_23_);fill:#F74F5C;}
	.st106{fill:#534741;}
	.st107{clip-path:url(#SVGID_25_);fill:#F74F5C;}
	.st108{fill:#F74F5C;}
	.st109{fill:#706661;}
	.st110{clip-path:url(#SVGID_29_);}
	.st111{fill:#AAAAAA;}
	.st112{fill:#D82A3F;}
	.st113{clip-path:url(#SVGID_31_);}
	.st114{clip-path:url(#SVGID_33_);fill:#F74F5C;}
	.st115{clip-path:url(#SVGID_35_);fill:#F74F5C;}
	.st116{fill:#D8957B;}
	.st117{fill:#F1E3D8;}
	.st118{fill:#C3755E;}
	.st119{fill:none;stroke:#231815;stroke-width:0.25;stroke-linecap:round;stroke-miterlimit:10;}
	.st120{fill:none;stroke:#30373D;stroke-width:0.25;stroke-miterlimit:10;}
	.st121{fill:#E6A389;}
	.st122{fill:#D8957B;stroke:#FFFFFF;stroke-miterlimit:10;}
	.st123{fill:#F1E3D8;stroke:#FFFFFF;stroke-miterlimit:10;}
	.st124{fill:#C3755E;stroke:#FFFFFF;stroke-miterlimit:10;}
	.st125{fill:#E6A389;stroke:#FFFFFF;stroke-miterlimit:10;}
	.st126{stroke:#FFFFFF;stroke-miterlimit:10;}
	.st127{fill:none;stroke:#FFFFFF;stroke-linecap:round;stroke-miterlimit:10;}
	.st128{fill:#198974;}
	.st129{fill:#47AD2F;}
	.st130{fill:#7A5C41;}
	.st131{fill:#5CC13A;}
	.st132{fill:#237C11;}
	.st133{fill:#3FA541;}
	.st134{fill:#10725F;}
	.st135{fill:#8DE00A;}
	.st136{fill:#938548;}
	.st137{fill:#498C44;}
	.st138{fill:#7BCE05;}
	.st139{fill:#54CC06;}
	.st140{opacity:0.56;fill:#7CBA04;}
	.st141{fill:#876D33;}
	.st142{fill:#C4B08D;}
	.st143{fill:#56C437;}
	.st144{fill:#49AD07;}
	.st145{fill:#359B3C;}
	.st146{fill:#E2E2E2;}
	.st147{fill:#231815;}
	.st148{fill:#435780;}
	.st149{fill:#FF4960;}
	.st150{fill:#373934;}
	.st151{fill:#F6C267;}
	.st152{opacity:0.5;fill:#F99500;}
	.st153{opacity:0.2;fill:#C02529;}
	.st154{fill:#F2F0F3;}
	.st155{fill:#C02529;}
	.st156{opacity:0.41;fill:#435780;}
	.st157{opacity:0.59;fill:#C02529;}
	.st158{fill:#FCE0A4;}
	.st159{fill:#EAE27F;}
	.st160{fill:#A1A85B;}
	.st161{fill:#FCFBD2;}
	.st162{fill:#9E8A6A;}
	.st163{fill:#979C24;}
	.st164{fill:#D1C11C;}
	.st165{fill:#727235;}
	.st166{opacity:0.46;fill:#4F4E4D;}
	.st167{fill:#FFFA9C;}
	.st168{fill:none;stroke:#4D4D4D;stroke-linecap:round;stroke-linejoin:round;stroke-dasharray:5.893,5.893;}
	.st169{fill:none;stroke:#4D4D4D;stroke-linecap:round;stroke-linejoin:round;stroke-dasharray:6.0318,6.0318;}
	.st170{fill:#747F7D;}
	.st171{fill:#827E7F;}
	.st172{fill:url(#SVGID_36_);}
	.st173{fill:#B50016;}
	.st174{fill:url(#SVGID_37_);}
	.st175{fill:#FFFFFF;stroke:#FFFFFF;stroke-linecap:round;stroke-linejoin:round;stroke-miterlimit:10;}
	.st176{fill:#F4E4E4;stroke:#FFFFFF;stroke-linecap:round;stroke-linejoin:round;stroke-miterlimit:10;}
	.st177{fill:#FF8788;stroke:#FFFFFF;stroke-linecap:round;stroke-linejoin:round;stroke-miterlimit:10;}
	.st178{fill:#261D1D;stroke:#FFFFFF;stroke-linecap:round;stroke-linejoin:round;stroke-miterlimit:10;}
	.st179{fill:#B6E9FF;}
	.st180{fill:#6D362C;}
	.st181{fill:#F0CAAE;}
	.st182{fill:#8C4B38;}
	.st183{fill:#361A16;}
	.st184{fill:#44251F;}
	.st185{fill:none;stroke:#44251F;stroke-miterlimit:10;}
	.st186{fill:none;stroke:#44251F;stroke-linecap:round;stroke-linejoin:round;stroke-miterlimit:10;}
	.st187{fill:none;stroke:#6D362C;stroke-width:2;stroke-linecap:round;stroke-linejoin:round;stroke-miterlimit:10;}
	.st188{fill:#AD5A5C;}
	.st189{fill:none;stroke:#44251F;stroke-width:1.7887;stroke-linecap:round;stroke-linejoin:round;stroke-miterlimit:10;}
	.st190{fill:#AD3D3C;}
	.st191{fill:#FEFEFE;}
	.st192{fill:#5E2C00;}
	.st193{fill:#CDDA60;}
	.st194{fill:#F07F36;}
	.st195{fill:#F29038;}
	.st196{fill:#D4DA50;}
	.st197{fill:#67B44B;}
	.st198{fill:#6C4000;}
	.st199{fill:#7E4E00;}
	.st200{fill:#FFCD00;}
	.st201{fill:#FFBE00;}
	.st202{fill:#5A3200;}
	.st203{fill:#5F3813;}
	.st204{fill:#FCC047;}
	.st205{fill:#E8AF2E;}
	.st206{fill:#603008;}
	.st207{fill:#994405;}
	.st208{fill:#E6E6E7;}
	.st209{fill:#3B2314;}
	.st210{fill:#F0F1F1;}
	.st211{fill:#E0A246;}
	.st212{fill:#4F2B0E;}
	.st213{fill:#7BAD1A;}
	.st214{fill:#97FAFF;}
	.st215{fill:#5DC5EE;}
	.st216{fill:#DE97FF;}
	.st217{fill:#AC3EE5;}
	.st218{fill:#F8CDDB;}
	.st219{fill:#F95892;}
	.st220{fill:#D5FFBD;}
	.st221{fill:#58B431;}
	.st222{fill:#69311A;}
	.st223{opacity:0.43;fill:url(#SVGID_38_);}
	.st224{opacity:0.43;fill:url(#SVGID_39_);}
	.st225{opacity:0.43;fill:url(#SVGID_40_);}
	.st226{opacity:0.43;fill:url(#SVGID_41_);}
	.st227{opacity:0.43;fill:url(#SVGID_42_);}
	.st228{fill:#6D362C;stroke:#FFFFFF;stroke-miterlimit:10;}
	.st229{fill:#F0CAAE;stroke:#FFFFFF;stroke-miterlimit:10;}
	.st230{fill:#8C4B38;stroke:#FFFFFF;stroke-miterlimit:10;}
	.st231{fill:#361A16;stroke:#FFFFFF;stroke-miterlimit:10;}
	.st232{fill:#44251F;stroke:#FFFFFF;stroke-miterlimit:10;}
	.st233{fill:none;stroke:#FFFFFF;stroke-miterlimit:10;}
	.st234{fill:none;stroke:#FFFFFF;stroke-linecap:round;stroke-linejoin:round;stroke-miterlimit:10;}
	.st235{fill:#F4F1ED;stroke:#FFFFFF;stroke-linecap:round;stroke-miterlimit:10;}
	.st236{fill:#EFE2D5;stroke:#FFFFFF;stroke-linecap:round;stroke-miterlimit:10;}
	.st237{fill:#DDC8B6;stroke:#FFFFFF;stroke-linecap:round;stroke-miterlimit:10;}
	.st238{fill:#F9B9C7;stroke:#FFFFFF;stroke-linecap:round;stroke-miterlimit:10;}
	.st239{fill:#C1AA95;stroke:#FFFFFF;stroke-linecap:round;stroke-miterlimit:10;}
	.st240{stroke:#FFFFFF;stroke-linecap:round;stroke-miterlimit:10;}
	.st241{opacity:0.3;}
	.st242{fill:#FFAB24;}
</style>
<g id="Layer_1">
</g>
<g id="Layer_2">
	<g>
		<rect x="92.9" y="66.6" class="st6" width="30.3" height="2.5"/>
		<g>
			<g>
				
					<rect x="10" y="51.1" transform="matrix(-1 8.704828e-03 -8.704828e-03 -1 105.3592 128.3329)" class="st148" width="84.8" height="26.6"/>
				
					<rect x="7.4" y="44.1" transform="matrix(-1 8.704773e-03 -8.704773e-03 -1 105.5471 94.7051)" class="st149" width="90.3" height="7"/>
			</g>
			<g>
				<path class="st150" d="M65,76.3c0,6.8,5.5,12.3,12.3,12.3c6.8,0,12.3-5.5,12.3-12.3C89.5,69.5,84,64,77.2,64
					C70.5,64,65,69.5,65,76.3z"/>
				<path class="st151" d="M72.6,76.3c0,2.6,2.1,4.6,4.6,4.6c2.5,0,4.6-2.1,4.6-4.6c0-2.5-2.1-4.6-4.6-4.6
					C74.7,71.6,72.6,73.7,72.6,76.3z"/>
			</g>
			<path class="st150" d="M69.9,66.5c-1.7,2.1-2.6,4.7-2.6,7.6c0,6.8,5.5,12.3,12.3,12.3c2.7,0,5.3-0.9,7.3-2.4
				c-2.2,2.8-5.7,4.7-9.6,4.7c-6.8,0-12.3-5.5-12.3-12.3C65,72.3,66.9,68.7,69.9,66.5z"/>
			<g>
				
					<ellipse transform="matrix(0.1498 -0.9887 0.9887 0.1498 -50.6306 94.4741)" class="st150" cx="29.6" cy="76.7" rx="12.3" ry="12.3"/>
				<path class="st151" d="M25,76.7c0,2.5,2.1,4.6,4.6,4.6c2.6,0,4.6-2.1,4.6-4.6c0-2.5-2.1-4.6-4.6-4.6C27.1,72.1,25,74.1,25,76.7z
					"/>
			</g>
			<path class="st150" d="M22.3,66.9c-1.7,2.1-2.6,4.7-2.6,7.6c0,6.8,5.5,12.3,12.3,12.3c2.7,0,5.3-0.9,7.3-2.4
				C37,87.2,33.6,89,29.7,89c-6.8,0-12.3-5.5-12.3-12.3C17.4,72.7,19.3,69.2,22.3,66.9z"/>
		</g>
		<rect x="200.5" y="66.6" class="st6" width="30.3" height="2.5"/>
		<g>
			<g>
				
					<rect x="117.6" y="51.1" transform="matrix(-1 8.704828e-03 -8.704828e-03 -1 320.6018 127.396)" class="st148" width="84.8" height="26.6"/>
				
					<rect x="115.1" y="44.1" transform="matrix(-1 8.704773e-03 -8.704773e-03 -1 320.7898 93.7683)" class="st149" width="90.3" height="7"/>
			</g>
			<g>
				<path class="st150" d="M172.6,76.3c0,6.8,5.5,12.3,12.3,12.3c6.8,0,12.3-5.5,12.3-12.3c0-6.8-5.5-12.3-12.3-12.3
					C178.1,64,172.6,69.5,172.6,76.3z"/>
				<path class="st151" d="M180.2,76.3c0,2.6,2.1,4.6,4.6,4.6c2.5,0,4.6-2.1,4.6-4.6c0-2.5-2.1-4.6-4.6-4.6
					C182.3,71.6,180.2,73.7,180.2,76.3z"/>
			</g>
			<path class="st150" d="M177.6,66.5c-1.7,2.1-2.6,4.7-2.6,7.6c0,6.8,5.5,12.3,12.3,12.3c2.7,0,5.3-0.9,7.3-2.4
				c-2.2,2.8-5.7,4.7-9.6,4.7c-6.8,0-12.3-5.5-12.3-12.3C172.6,72.3,174.6,68.7,177.6,66.5z"/>
			<g>
				
					<ellipse transform="matrix(0.1498 -0.9887 0.9887 0.1498 40.8658 200.8823)" class="st150" cx="137.2" cy="76.7" rx="12.3" ry="12.3"/>
				<path class="st151" d="M132.6,76.7c0,2.5,2.1,4.6,4.6,4.6c2.6,0,4.6-2.1,4.6-4.6c0-2.5-2.1-4.6-4.6-4.6
					C134.7,72.1,132.6,74.1,132.6,76.7z"/>
			</g>
			<path class="st150" d="M129.9,66.9c-1.7,2.1-2.6,4.7-2.6,7.6c0,6.8,5.5,12.3,12.3,12.3c2.7,0,5.3-0.9,7.3-2.4
				c-2.2,2.8-5.7,4.7-9.6,4.7c-6.8,0-12.3-5.5-12.3-12.3C125,72.7,126.9,69.2,129.9,66.9z"/>
		</g>
		<rect x="306.1" y="66.6" class="st6" width="30.3" height="2.5"/>
		<g>
			<g>
				
					<rect x="223.2" y="51.1" transform="matrix(-1 8.704828e-03 -8.704828e-03 -1 531.7042 126.4772)" class="st148" width="84.8" height="26.6"/>
				
					<rect x="220.6" y="44.1" transform="matrix(-1 8.704773e-03 -8.704773e-03 -1 531.8922 92.8495)" class="st149" width="90.3" height="7"/>
			</g>
			<g>
				<path class="st150" d="M278.2,76.3c0,6.8,5.5,12.3,12.3,12.3c6.8,0,12.3-5.5,12.3-12.3c0-6.8-5.5-12.3-12.3-12.3
					C283.6,64,278.1,69.5,278.2,76.3z"/>
				<path class="st151" d="M285.8,76.3c0,2.6,2.1,4.6,4.6,4.6c2.5,0,4.6-2.1,4.6-4.6c0-2.5-2.1-4.6-4.6-4.6
					C287.9,71.6,285.8,73.7,285.8,76.3z"/>
			</g>
			<path class="st150" d="M283.1,66.5c-1.7,2.1-2.6,4.7-2.6,7.6c0,6.8,5.5,12.3,12.3,12.3c2.7,0,5.3-0.9,7.3-2.4
				c-2.2,2.8-5.7,4.7-9.6,4.7c-6.8,0-12.3-5.5-12.3-12.3C278.2,72.3,280.1,68.7,283.1,66.5z"/>
			<g>
				
					<ellipse transform="matrix(0.1498 -0.9887 0.9887 0.1498 130.6022 305.2437)" class="st150" cx="242.8" cy="76.7" rx="12.3" ry="12.3"/>
				<path class="st151" d="M238.2,76.7c0,2.5,2.1,4.6,4.6,4.6c2.6,0,4.6-2.1,4.6-4.6c0-2.5-2.1-4.6-4.6-4.6
					C240.2,72.1,238.2,74.1,238.2,76.7z"/>
			</g>
			<path class="st150" d="M235.5,66.9c-1.7,2.1-2.6,4.7-2.6,7.6c0,6.8,5.5,12.3,12.3,12.3c2.7,0,5.3-0.9,7.3-2.4
				c-2.2,2.8-5.7,4.7-9.6,4.7c-6.8,0-12.3-5.5-12.3-12.3C230.5,72.7,232.5,69.2,235.5,66.9z"/>
		</g>
		<rect x="499.2" y="66.6" class="st6" width="21" height="2.5"/>
		<rect x="408" y="66.6" class="st6" width="30.3" height="2.5"/>
		<g>
			<path class="st151" d="M604.2,62.2l12.6,0.1c6.9,0,12.6-5.5,12.6-12.5l0,0c0-6.9-5.5-12.6-12.5-12.6l-12.6-0.1L604.2,62.2z"/>
			<path class="st152" d="M612.9,60.6c6.9,0,12.6-5.5,12.6-12.5v0c0-4.4-2.2-8.2-5.5-10.5c5.4,1.4,9.4,6.4,9.4,12.2l0,0
				c0,6.9-5.7,12.5-12.6,12.5l-12.6-0.1l0-1.7L612.9,60.6z"/>
			<g>
				
					<rect x="569.8" y="34.3" transform="matrix(-1 -6.093280e-03 6.093280e-03 -1 1187.7537 101.5034)" class="st148" width="48.4" height="29.2"/>
				
					<rect x="524.2" y="17.5" transform="matrix(-1 -6.092899e-03 6.092899e-03 -1 1093.8093 84.1207)" class="st148" width="45.7" height="45.7"/>
			</g>
			<g>
				
					<rect x="601.2" y="20.7" transform="matrix(-1 -6.096177e-03 6.096177e-03 -1 1215.2772 68.0729)" class="st148" width="13" height="22.9"/>
				
					<rect x="597.4" y="16.5" transform="matrix(-1 -6.088246e-03 6.088246e-03 -1 1214.9292 43.4551)" class="st149" width="20.4" height="6.8"/>
				
					<rect x="601.4" y="23.3" transform="matrix(-1 -6.095846e-03 6.095846e-03 -1 1215.4589 52.8775)" class="st153" width="12.9" height="2.6"/>
				
					<rect x="524.3" y="21.6" transform="matrix(-1 -6.092884e-03 6.092884e-03 -1 1094.1289 49.1654)" class="st153" width="45.7" height="2.6"/>
			</g>
			
				<rect x="517.3" y="63.4" transform="matrix(-1 -6.093906e-03 6.093906e-03 -1 1146.8915 140.0494)" class="st149" width="112.6" height="9.7"/>
			<path class="st149" d="M519.6,21.6l55.4,0.3L575,7.5l-13.2-2.4c-9.3-1.7-18.9-1.8-28.3-0.2l-13.9,2.3L519.6,21.6z"/>
			<polygon class="st149" points="615.3,86.5 646,86.7 633.1,63.8 615.4,63.7 			"/>
			<path class="st154" d="M532.6,52.1l27.3,0.2l0.1-10.3c0-7.5-6-13.7-13.6-13.7h0c-7.5,0-13.7,6-13.7,13.6L532.6,52.1z"/>
			<path class="st151" d="M556.5,48.8l0-6.9c0-5.6-4.5-10.3-10.2-10.3c-5.6,0-10.3,4.5-10.3,10.2l0,6.9L556.5,48.8z"/>
			<path class="st155" d="M618.1,63.7l0,1c-0.1,10.1,8.1,18.3,18.2,18.4l7.6,0l2,3.6l-30.7-0.2l0.1-22.9L618.1,63.7z"/>
			<g>
				<g>
					<circle class="st150" cx="538" cy="73.9" r="15.5"/>
					<path class="st151" d="M532.2,73.8c0,3.2,2.6,5.8,5.8,5.9c3.2,0,5.8-2.6,5.9-5.8c0-3.2-2.6-5.8-5.8-5.9
						C534.8,68,532.2,70.6,532.2,73.8z"/>
				</g>
				<g>
					
						<ellipse transform="matrix(0.7071 -0.7071 0.7071 0.7071 112.9469 425.1638)" class="st150" cx="569.7" cy="76.2" rx="13.3" ry="13.3"/>
					<path class="st151" d="M564.7,76.2c0,2.8,2.2,5,5,5c2.8,0,5-2.2,5-5c0-2.8-2.2-5-5-5C567,71.2,564.7,73.4,564.7,76.2z"/>
				</g>
				<g>
					
						<ellipse transform="matrix(0.7101 -0.7041 0.7041 0.7101 119.9727 444.2489)" class="st150" cx="599.5" cy="76.4" rx="13.3" ry="13.3"/>
					<path class="st151" d="M594.5,76.4c0,2.8,2.2,5,5,5c2.8,0,5-2.2,5-5c0-2.8-2.2-5-5-5S594.5,73.6,594.5,76.4z"/>
				</g>
				<path class="st150" d="M528.8,61.4c-2.1,2.6-3.4,5.9-3.4,9.6c-0.1,8.5,6.8,15.5,15.4,15.6c3.5,0,6.6-1.1,9.2-3
					c-2.9,3.6-7.3,5.8-12.2,5.8c-8.5-0.1-15.4-7-15.4-15.6C522.5,68.7,525,64.2,528.8,61.4z"/>
				<path class="st150" d="M561.9,65.6c-1.8,2.3-2.9,5.1-2.9,8.2c0,7.4,5.9,13.4,13.2,13.4c3,0,5.7-0.9,7.9-2.6
					c-2.5,3.1-6.2,5-10.5,5c-7.4,0-13.3-6-13.2-13.4C556.4,71.9,558.6,68,561.9,65.6z"/>
				<path class="st150" d="M591.6,65.8c-1.8,2.3-2.9,5.1-2.9,8.2c0,7.4,5.9,13.4,13.2,13.4c3,0,5.7-0.9,7.9-2.6
					c-2.5,3.1-6.2,5-10.5,5c-7.4,0-13.3-6-13.2-13.4C586.2,72.1,588.4,68.2,591.6,65.8z"/>
			</g>
			<path class="st156" d="M575,34.2L575,34.2c-0.1,10,8,18.2,18,18.3l25.2,0.2l-0.1,11.1l-43.3-0.3l-5,0l0.1-11.1l0.1-18.1L575,34.2
				z"/>
			<path class="st157" d="M527.7,5.9c0.9,6.8,7.8,12.7,17.9,15.9l-26-0.2l0.1-14.4L527.7,5.9z"/>
		</g>
		<g>
			<g>
				
					<rect x="424.2" y="51.1" transform="matrix(-1 8.704828e-03 -8.704828e-03 -1 933.6956 124.7276)" class="st148" width="84.8" height="26.6"/>
				
					<rect x="421.6" y="44.1" transform="matrix(-1 8.704773e-03 -8.704773e-03 -1 933.8835 91.0998)" class="st149" width="90.3" height="7"/>
			</g>
			<g>
				<path class="st150" d="M479.1,76.3c0,6.8,5.5,12.3,12.3,12.3c6.8,0,12.3-5.5,12.3-12.3c0-6.8-5.5-12.3-12.3-12.3
					C484.6,64,479.1,69.5,479.1,76.3z"/>
				<path class="st151" d="M486.8,76.3c0,2.6,2.1,4.6,4.6,4.6c2.5,0,4.6-2.1,4.6-4.6c0-2.5-2.1-4.6-4.6-4.6
					C488.9,71.6,486.8,73.7,486.8,76.3z"/>
			</g>
			<path class="st150" d="M484.1,66.5c-1.7,2.1-2.6,4.7-2.6,7.6c0,6.8,5.5,12.3,12.3,12.3c2.7,0,5.3-0.9,7.3-2.4
				c-2.2,2.8-5.7,4.7-9.6,4.7c-6.8,0-12.3-5.5-12.3-12.3C479.2,72.3,481.1,68.7,484.1,66.5z"/>
			<g>
				
					<ellipse transform="matrix(0.1498 -0.9887 0.9887 0.1498 301.4825 503.9738)" class="st150" cx="443.8" cy="76.7" rx="12.3" ry="12.3"/>
				<path class="st151" d="M439.2,76.7c0,2.5,2.1,4.6,4.6,4.6c2.6,0,4.6-2.1,4.6-4.6c0-2.5-2.1-4.6-4.6-4.6
					C441.2,72.1,439.2,74.1,439.2,76.7z"/>
			</g>
			<path class="st150" d="M436.5,66.9c-1.7,2.1-2.6,4.7-2.6,7.6c0,6.8,5.5,12.3,12.3,12.3c2.7,0,5.3-0.9,7.3-2.4
				c-2.2,2.8-5.7,4.7-9.6,4.7c-6.8,0-12.3-5.5-12.3-12.3C431.5,72.7,433.5,69.2,436.5,66.9z"/>
		</g>
		<g>
			<g>
				
					<rect x="325.1" y="51.1" transform="matrix(-1 8.704828e-03 -8.704828e-03 -1 735.6125 125.5897)" class="st148" width="84.8" height="26.6"/>
				
					<rect x="322.6" y="44.1" transform="matrix(-1 8.704773e-03 -8.704773e-03 -1 735.8005 91.962)" class="st149" width="90.3" height="7"/>
			</g>
			<g>
				<path class="st150" d="M380.1,76.3c0,6.8,5.5,12.3,12.3,12.3c6.8,0,12.3-5.5,12.3-12.3c0-6.8-5.5-12.3-12.3-12.3
					C385.6,64,380.1,69.5,380.1,76.3z"/>
				<path class="st151" d="M387.8,76.3c0,2.6,2.1,4.6,4.6,4.6c2.5,0,4.6-2.1,4.6-4.6c0-2.5-2.1-4.6-4.6-4.6
					C389.8,71.6,387.8,73.7,387.8,76.3z"/>
			</g>
			<path class="st150" d="M385.1,66.5c-1.7,2.1-2.6,4.7-2.6,7.6c0,6.8,5.5,12.3,12.3,12.3c2.7,0,5.3-0.9,7.3-2.4
				c-2.2,2.8-5.7,4.7-9.6,4.7c-6.8,0-12.3-5.5-12.3-12.3C380.1,72.3,382.1,68.7,385.1,66.5z"/>
			<g>
				
					<ellipse transform="matrix(0.1498 -0.9887 0.9887 0.1498 217.2805 406.0486)" class="st150" cx="344.8" cy="76.7" rx="12.3" ry="12.3"/>
				<path class="st151" d="M340.1,76.7c0,2.5,2.1,4.6,4.6,4.6c2.6,0,4.6-2.1,4.6-4.6c0-2.5-2.1-4.6-4.6-4.6
					C342.2,72.1,340.1,74.1,340.1,76.7z"/>
			</g>
			<path class="st150" d="M337.5,66.9c-1.7,2.1-2.6,4.7-2.6,7.6c0,6.8,5.5,12.3,12.3,12.3c2.7,0,5.3-0.9,7.3-2.4
				c-2.2,2.8-5.7,4.7-9.6,4.7c-6.8,0-12.3-5.5-12.3-12.3C332.5,72.7,334.4,69.2,337.5,66.9z"/>
		</g>
	</g>
</g>
<g id="Layer_3">
</g>
</svg>
