<?xml version="1.0" encoding="utf-8"?>
<!-- Generator: Adobe Illustrator 22.1.0, SVG Export Plug-In . SVG Version: 6.00 Build 0)  -->
<svg version="1.1" xmlns="http://www.w3.org/2000/svg" xmlns:xlink="http://www.w3.org/1999/xlink" x="0px" y="0px"
	 viewBox="0 0 653.1 183.9" style="enable-background:new 0 0 653.1 183.9;" xml:space="preserve">
<style type="text/css">
	.st0{fill:#D6D6D6;}
	.st1{fill:#80F0F9;}
	.st2{fill:#FFFFFF;}
	.st3{fill:#43CCDE;}
	.st4{fill:#32ABBA;}
	.st5{fill:#FF9D47;}
	.st6{fill:#4D4D4D;}
	.st7{fill:#34495E;}
	.st8{fill:#97F58F;}
	.st9{fill:#42CF25;}
	.st10{fill:#FFA6A6;}
	.st11{fill:#AB5C16;}
	.st12{fill:#FFDB8C;}
	.st13{fill:#D1D1D1;}
	.st14{fill:#72706F;}
	.st15{fill:#A05000;}
	.st16{fill:#693908;}
	.st17{fill:#C89D50;}
	.st18{fill:#4E9B34;}
	.st19{fill:#97C62F;}
	.st20{fill:#593968;}
	.st21{fill:#D5B3C3;}
	.st22{fill:#FCD22C;}
	.st23{fill:#FCDB94;}
	.st24{fill:#F3DAAE;}
	.st25{fill:#DBE1AC;}
	.st26{fill:#E4343A;}
	.st27{fill:#E3C6D3;}
	.st28{fill:#D2DB93;}
	.st29{fill:#FDE5AE;}
	.st30{fill:none;stroke:#F6D492;stroke-width:0.7714;stroke-linecap:round;stroke-linejoin:round;stroke-miterlimit:10;}
	.st31{fill:#CAB59F;}
	.st32{fill:#B41529;}
	.st33{fill:#D81F35;}
	.st34{fill:#F8BB00;}
	.st35{fill:#8DC21F;}
	.st36{fill:#951B08;}
	.st37{fill:#E6D8DF;}
	.st38{fill:#E5E5E6;}
	.st39{fill:#E5E4A9;}
	.st40{fill:#EFE9E9;}
	.st41{fill:#FBC8D1;}
	.st42{fill:#FBD4D9;}
	.st43{fill:#F9B9C7;}
	.st44{fill:#DD8CA5;}
	.st45{fill:#E8E8E8;}
	.st46{fill:#444343;}
	.st47{fill:#F4F1ED;}
	.st48{fill:#EFE2D5;}
	.st49{fill:#DDC8B6;}
	.st50{fill:#C1AA95;}
	.st51{fill:#FFCC57;}
	.st52{fill:#7E4A23;}
	.st53{fill:#FFF6B5;}
	.st54{clip-path:url(#SVGID_2_);}
	.st55{fill:#F99C15;}
	.st56{fill:#A2D063;}
	.st57{fill:#6FA536;}
	.st58{fill:#3D3D3D;}
	.st59{fill:#EFEFEF;}
	.st60{fill:#925D00;}
	.st61{fill:#F5B456;}
	.st62{fill:#E66B3E;}
	.st63{fill:#F7CC8C;}
	.st64{fill:#C77B00;}
	.st65{fill:#908F93;}
	.st66{fill:#E5C5DD;}
	.st67{fill:#6B6B6D;}
	.st68{fill:#F29700;}
	.st69{clip-path:url(#SVGID_4_);fill:#FEFEFE;}
	.st70{clip-path:url(#SVGID_4_);}
	.st71{fill:#670004;}
	.st72{fill:#B7B7BC;}
	.st73{fill:#E96D46;}
	.st74{fill:#F9EFE5;}
	.st75{fill:#BDAA9A;}
	.st76{fill:#DDCCBF;}
	.st77{fill:#4B6A76;}
	.st78{opacity:0.43;fill:url(#SVGID_5_);}
	.st79{fill:#F4E4E4;}
	.st80{fill:#FF8788;}
	.st81{fill:#261D1D;}
	.st82{opacity:0.5;}
	.st83{fill:#F7A7AA;}
	.st84{opacity:0.3;fill:#F7A7AA;}
	.st85{fill:#FABFBF;}
	.st86{opacity:0.5;fill:#F7A7AA;}
	.st87{fill:#F37B87;}
	.st88{fill:#943436;}
	.st89{fill:#F6A0A4;}
	.st90{fill:url(#SVGID_8_);}
	.st91{fill:url(#SVGID_9_);}
	.st92{fill:#E20E46;}
	.st93{fill:#EDEDED;}
	.st94{fill:#F9747E;}
	.st95{fill:#E44C5F;}
	.st96{clip-path:url(#SVGID_13_);}
	.st97{fill:#85C459;}
	.st98{clip-path:url(#SVGID_15_);fill:#FFFFFF;}
	.st99{clip-path:url(#SVGID_17_);fill:#F74F5C;}
	.st100{fill:#CCCCCC;}
	.st101{clip-path:url(#SVGID_19_);fill:#53BEE3;}
	.st102{clip-path:url(#SVGID_21_);}
	.st103{fill:#53BEE3;}
	.st104{fill:#00A1CC;}
	.st105{clip-path:url(#SVGID_23_);fill:#F74F5C;}
	.st106{fill:#534741;}
	.st107{clip-path:url(#SVGID_25_);fill:#F74F5C;}
	.st108{fill:#F74F5C;}
	.st109{fill:#706661;}
	.st110{clip-path:url(#SVGID_29_);}
	.st111{fill:#AAAAAA;}
	.st112{fill:#D82A3F;}
	.st113{clip-path:url(#SVGID_31_);}
	.st114{clip-path:url(#SVGID_33_);fill:#F74F5C;}
	.st115{clip-path:url(#SVGID_35_);fill:#F74F5C;}
	.st116{fill:#D8957B;}
	.st117{fill:#F1E3D8;}
	.st118{fill:#C3755E;}
	.st119{fill:none;stroke:#231815;stroke-width:0.25;stroke-linecap:round;stroke-miterlimit:10;}
	.st120{fill:none;stroke:#30373D;stroke-width:0.25;stroke-miterlimit:10;}
	.st121{fill:#E6A389;}
	.st122{fill:#D8957B;stroke:#FFFFFF;stroke-miterlimit:10;}
	.st123{fill:#F1E3D8;stroke:#FFFFFF;stroke-miterlimit:10;}
	.st124{fill:#C3755E;stroke:#FFFFFF;stroke-miterlimit:10;}
	.st125{fill:#E6A389;stroke:#FFFFFF;stroke-miterlimit:10;}
	.st126{stroke:#FFFFFF;stroke-miterlimit:10;}
	.st127{fill:none;stroke:#FFFFFF;stroke-linecap:round;stroke-miterlimit:10;}
	.st128{fill:#198974;}
	.st129{fill:#47AD2F;}
	.st130{fill:#7A5C41;}
	.st131{fill:#5CC13A;}
	.st132{fill:#237C11;}
	.st133{fill:#3FA541;}
	.st134{fill:#10725F;}
	.st135{fill:#8DE00A;}
	.st136{fill:#938548;}
	.st137{fill:#498C44;}
	.st138{fill:#7BCE05;}
	.st139{fill:#54CC06;}
	.st140{opacity:0.56;fill:#7CBA04;}
	.st141{fill:#876D33;}
	.st142{fill:#C4B08D;}
	.st143{fill:#56C437;}
	.st144{fill:#49AD07;}
	.st145{fill:#359B3C;}
	.st146{fill:#E2E2E2;}
	.st147{fill:#231815;}
	.st148{fill:#435780;}
	.st149{fill:#FF4960;}
	.st150{fill:#373934;}
	.st151{fill:#F6C267;}
	.st152{opacity:0.5;fill:#F99500;}
	.st153{opacity:0.2;fill:#C02529;}
	.st154{fill:#F2F0F3;}
	.st155{fill:#C02529;}
	.st156{opacity:0.41;fill:#435780;}
	.st157{opacity:0.59;fill:#C02529;}
	.st158{fill:#FCE0A4;}
	.st159{fill:#EAE27F;}
	.st160{fill:#A1A85B;}
	.st161{fill:#FCFBD2;}
	.st162{fill:#9E8A6A;}
	.st163{fill:#979C24;}
	.st164{fill:#D1C11C;}
	.st165{fill:#727235;}
	.st166{opacity:0.46;fill:#4F4E4D;}
	.st167{fill:#FFFA9C;}
	.st168{fill:none;stroke:#4D4D4D;stroke-linecap:round;stroke-linejoin:round;stroke-dasharray:5.893,5.893;}
	.st169{fill:none;stroke:#4D4D4D;stroke-linecap:round;stroke-linejoin:round;stroke-dasharray:6.0318,6.0318;}
	.st170{fill:#747F7D;}
	.st171{fill:#827E7F;}
	.st172{fill:url(#SVGID_36_);}
	.st173{fill:#B50016;}
	.st174{fill:url(#SVGID_37_);}
	.st175{fill:url(#SVGID_38_);}
	.st176{fill:#FFFFFF;stroke:#FFFFFF;stroke-linecap:round;stroke-linejoin:round;stroke-miterlimit:10;}
	.st177{fill:#F4E4E4;stroke:#FFFFFF;stroke-linecap:round;stroke-linejoin:round;stroke-miterlimit:10;}
	.st178{fill:#FF8788;stroke:#FFFFFF;stroke-linecap:round;stroke-linejoin:round;stroke-miterlimit:10;}
	.st179{fill:#261D1D;stroke:#FFFFFF;stroke-linecap:round;stroke-linejoin:round;stroke-miterlimit:10;}
	.st180{fill:#B6E9FF;}
	.st181{fill:#6D362C;}
	.st182{fill:#F0CAAE;}
	.st183{fill:#8C4B38;}
	.st184{fill:#361A16;}
	.st185{fill:#44251F;}
	.st186{fill:none;stroke:#44251F;stroke-miterlimit:10;}
	.st187{fill:none;stroke:#44251F;stroke-linecap:round;stroke-linejoin:round;stroke-miterlimit:10;}
	.st188{fill:none;stroke:#6D362C;stroke-width:2;stroke-linecap:round;stroke-linejoin:round;stroke-miterlimit:10;}
	.st189{fill:#AD5A5C;}
	.st190{fill:none;stroke:#44251F;stroke-width:1.7887;stroke-linecap:round;stroke-linejoin:round;stroke-miterlimit:10;}
	.st191{fill:#AD3D3C;}
	.st192{fill:#FEFEFE;}
	.st193{fill:#5E2C00;}
	.st194{fill:#CDDA60;}
	.st195{fill:#F07F36;}
	.st196{fill:#F29038;}
	.st197{fill:#D4DA50;}
	.st198{fill:#67B44B;}
	.st199{fill:#6C4000;}
	.st200{fill:#7E4E00;}
	.st201{fill:#FFCD00;}
	.st202{fill:#FFBE00;}
	.st203{fill:#5A3200;}
	.st204{fill:#5F3813;}
	.st205{fill:#FCC047;}
	.st206{fill:#E8AF2E;}
	.st207{fill:#603008;}
	.st208{fill:#994405;}
	.st209{fill:#E6E6E7;}
	.st210{fill:#3B2314;}
	.st211{fill:#F0F1F1;}
	.st212{fill:#E0A246;}
	.st213{fill:#4F2B0E;}
	.st214{fill:#7BAD1A;}
	.st215{fill:#97FAFF;}
	.st216{fill:#5DC5EE;}
	.st217{fill:#DE97FF;}
	.st218{fill:#AC3EE5;}
	.st219{fill:#F8CDDB;}
	.st220{fill:#F95892;}
	.st221{fill:#D5FFBD;}
	.st222{fill:#58B431;}
	.st223{fill:#69311A;}
	.st224{opacity:0.43;fill:url(#SVGID_39_);}
	.st225{opacity:0.43;fill:url(#SVGID_40_);}
	.st226{opacity:0.43;fill:url(#SVGID_41_);}
	.st227{opacity:0.43;fill:url(#SVGID_42_);}
	.st228{opacity:0.43;fill:url(#SVGID_43_);}
	.st229{fill:#6D362C;stroke:#FFFFFF;stroke-miterlimit:10;}
	.st230{fill:#F0CAAE;stroke:#FFFFFF;stroke-miterlimit:10;}
	.st231{fill:#8C4B38;stroke:#FFFFFF;stroke-miterlimit:10;}
	.st232{fill:#361A16;stroke:#FFFFFF;stroke-miterlimit:10;}
	.st233{fill:#44251F;stroke:#FFFFFF;stroke-miterlimit:10;}
	.st234{fill:none;stroke:#FFFFFF;stroke-miterlimit:10;}
	.st235{fill:none;stroke:#FFFFFF;stroke-linecap:round;stroke-linejoin:round;stroke-miterlimit:10;}
	.st236{fill:#F4F1ED;stroke:#FFFFFF;stroke-linecap:round;stroke-miterlimit:10;}
	.st237{fill:#EFE2D5;stroke:#FFFFFF;stroke-linecap:round;stroke-miterlimit:10;}
	.st238{fill:#DDC8B6;stroke:#FFFFFF;stroke-linecap:round;stroke-miterlimit:10;}
	.st239{fill:#F9B9C7;stroke:#FFFFFF;stroke-linecap:round;stroke-miterlimit:10;}
	.st240{fill:#C1AA95;stroke:#FFFFFF;stroke-linecap:round;stroke-miterlimit:10;}
	.st241{stroke:#FFFFFF;stroke-linecap:round;stroke-miterlimit:10;}
	.st242{opacity:0.3;}
	.st243{fill:#FFAB24;}
	.st244{fill:#FFFFFF;stroke:#35B8EC;stroke-width:2;stroke-miterlimit:10;}
	.st245{fill:#E1F8FF;}
</style>
<g id="Layer_1">
</g>
<g id="Layer_2">
	<g>
		<rect x="92.9" y="160.6" class="st6" width="30.3" height="2.5"/>
		<g>
			<g>
				
					<rect x="10" y="145.1" transform="matrix(-1 8.704828e-03 -8.704828e-03 -1 106.1774 316.3293)" class="st148" width="84.8" height="26.6"/>
				
					<rect x="7.4" y="138.1" transform="matrix(-1 8.704773e-03 -8.704773e-03 -1 106.3654 282.7015)" class="st149" width="90.3" height="7"/>
			</g>
			<g>
				<path class="st150" d="M65,170.3c0,6.8,5.5,12.3,12.3,12.3c6.8,0,12.3-5.5,12.3-12.3c0-6.8-5.5-12.3-12.3-12.3
					C70.5,158,65,163.5,65,170.3z"/>
				<path class="st151" d="M72.6,170.3c0,2.6,2.1,4.6,4.6,4.6c2.5,0,4.6-2.1,4.6-4.6c0-2.5-2.1-4.6-4.6-4.6
					C74.7,165.6,72.6,167.7,72.6,170.3z"/>
			</g>
			<path class="st150" d="M69.9,160.5c-1.7,2.1-2.6,4.7-2.6,7.6c0,6.8,5.5,12.3,12.3,12.3c2.7,0,5.3-0.9,7.3-2.4
				c-2.2,2.8-5.7,4.7-9.6,4.7c-6.8,0-12.3-5.5-12.3-12.3C65,166.3,66.9,162.7,69.9,160.5z"/>
			<g>
				
					<ellipse transform="matrix(0.1498 -0.9887 0.9887 0.1498 -143.5693 174.3885)" class="st150" cx="29.6" cy="170.7" rx="12.3" ry="12.3"/>
				<path class="st151" d="M25,170.7c0,2.5,2.1,4.6,4.6,4.6c2.6,0,4.6-2.1,4.6-4.6c0-2.5-2.1-4.6-4.6-4.6
					C27.1,166.1,25,168.1,25,170.7z"/>
			</g>
			<path class="st150" d="M22.3,160.9c-1.7,2.1-2.6,4.7-2.6,7.6c0,6.8,5.5,12.3,12.3,12.3c2.7,0,5.3-0.9,7.3-2.4
				c-2.2,2.8-5.7,4.7-9.6,4.7c-6.8,0-12.3-5.5-12.3-12.3C17.4,166.7,19.3,163.2,22.3,160.9z"/>
		</g>
		<rect x="200.5" y="160.6" class="st6" width="30.3" height="2.5"/>
		<g>
			<g>
				
					<rect x="117.6" y="145.1" transform="matrix(-1 8.704828e-03 -8.704828e-03 -1 321.42 315.3925)" class="st148" width="84.8" height="26.6"/>
				
					<rect x="115.1" y="138.1" transform="matrix(-1 8.704773e-03 -8.704773e-03 -1 321.608 281.7647)" class="st149" width="90.3" height="7"/>
			</g>
			<g>
				<path class="st150" d="M172.6,170.3c0,6.8,5.5,12.3,12.3,12.3c6.8,0,12.3-5.5,12.3-12.3c0-6.8-5.5-12.3-12.3-12.3
					C178.1,158,172.6,163.5,172.6,170.3z"/>
				<path class="st151" d="M180.2,170.3c0,2.6,2.1,4.6,4.6,4.6c2.5,0,4.6-2.1,4.6-4.6c0-2.5-2.1-4.6-4.6-4.6
					C182.3,165.6,180.2,167.7,180.2,170.3z"/>
			</g>
			<path class="st150" d="M177.6,160.5c-1.7,2.1-2.6,4.7-2.6,7.6c0,6.8,5.5,12.3,12.3,12.3c2.7,0,5.3-0.9,7.3-2.4
				c-2.2,2.8-5.7,4.7-9.6,4.7c-6.8,0-12.3-5.5-12.3-12.3C172.6,166.3,174.6,162.7,177.6,160.5z"/>
			<g>
				
					<ellipse transform="matrix(0.1498 -0.9887 0.9887 0.1498 -52.0729 280.7967)" class="st150" cx="137.2" cy="170.7" rx="12.3" ry="12.3"/>
				<path class="st151" d="M132.6,170.7c0,2.5,2.1,4.6,4.6,4.6c2.6,0,4.6-2.1,4.6-4.6c0-2.5-2.1-4.6-4.6-4.6
					C134.7,166.1,132.6,168.1,132.6,170.7z"/>
			</g>
			<path class="st150" d="M129.9,160.9c-1.7,2.1-2.6,4.7-2.6,7.6c0,6.8,5.5,12.3,12.3,12.3c2.7,0,5.3-0.9,7.3-2.4
				c-2.2,2.8-5.7,4.7-9.6,4.7c-6.8,0-12.3-5.5-12.3-12.3C125,166.7,126.9,163.2,129.9,160.9z"/>
		</g>
		<rect x="306.1" y="160.6" class="st6" width="30.3" height="2.5"/>
		<g>
			<g>
				
					<rect x="223.2" y="145.1" transform="matrix(-1 8.704828e-03 -8.704828e-03 -1 532.5225 314.4737)" class="st148" width="84.8" height="26.6"/>
				
					<rect x="220.6" y="138.1" transform="matrix(-1 8.704773e-03 -8.704773e-03 -1 532.7104 280.8459)" class="st149" width="90.3" height="7"/>
			</g>
			<g>
				<path class="st150" d="M278.2,170.3c0,6.8,5.5,12.3,12.3,12.3c6.8,0,12.3-5.5,12.3-12.3c0-6.8-5.5-12.3-12.3-12.3
					C283.6,158,278.1,163.5,278.2,170.3z"/>
				<path class="st151" d="M285.8,170.3c0,2.6,2.1,4.6,4.6,4.6c2.5,0,4.6-2.1,4.6-4.6c0-2.5-2.1-4.6-4.6-4.6
					C287.9,165.6,285.8,167.7,285.8,170.3z"/>
			</g>
			<path class="st150" d="M283.1,160.5c-1.7,2.1-2.6,4.7-2.6,7.6c0,6.8,5.5,12.3,12.3,12.3c2.7,0,5.3-0.9,7.3-2.4
				c-2.2,2.8-5.7,4.7-9.6,4.7c-6.8,0-12.3-5.5-12.3-12.3C278.2,166.3,280.1,162.7,283.1,160.5z"/>
			<g>
				
					<ellipse transform="matrix(0.1498 -0.9887 0.9887 0.1498 37.6635 385.1581)" class="st150" cx="242.8" cy="170.7" rx="12.3" ry="12.3"/>
				<path class="st151" d="M238.2,170.7c0,2.5,2.1,4.6,4.6,4.6c2.6,0,4.6-2.1,4.6-4.6c0-2.5-2.1-4.6-4.6-4.6
					C240.2,166.1,238.2,168.1,238.2,170.7z"/>
			</g>
			<path class="st150" d="M235.5,160.9c-1.7,2.1-2.6,4.7-2.6,7.6c0,6.8,5.5,12.3,12.3,12.3c2.7,0,5.3-0.9,7.3-2.4
				c-2.2,2.8-5.7,4.7-9.6,4.7c-6.8,0-12.3-5.5-12.3-12.3C230.5,166.7,232.5,163.2,235.5,160.9z"/>
		</g>
		<rect x="499.2" y="160.6" class="st6" width="21" height="2.5"/>
		<rect x="408" y="160.6" class="st6" width="30.3" height="2.5"/>
		<g>
			<path class="st151" d="M604.2,156.2l12.6,0.1c6.9,0,12.6-5.5,12.6-12.5l0,0c0-6.9-5.5-12.6-12.5-12.6l-12.6-0.1L604.2,156.2z"/>
			<path class="st152" d="M612.9,154.6c6.9,0,12.6-5.5,12.6-12.5v0c0-4.4-2.2-8.2-5.5-10.5c5.4,1.4,9.4,6.4,9.4,12.2l0,0
				c0,6.9-5.7,12.5-12.6,12.5l-12.6-0.1l0-1.7L612.9,154.6z"/>
			<g>
				
					<rect x="569.8" y="128.3" transform="matrix(-1 -6.093280e-03 6.093280e-03 -1 1187.1809 289.5016)" class="st148" width="48.4" height="29.2"/>
				
					<rect x="524.2" y="111.5" transform="matrix(-1 -6.092899e-03 6.092899e-03 -1 1093.2366 272.119)" class="st148" width="45.7" height="45.7"/>
			</g>
			<g>
				
					<rect x="601.2" y="114.7" transform="matrix(-1 -6.096177e-03 6.096177e-03 -1 1214.7042 256.0712)" class="st148" width="13" height="22.9"/>
				
					<rect x="597.4" y="110.5" transform="matrix(-1 -6.088246e-03 6.088246e-03 -1 1214.3568 231.4533)" class="st149" width="20.4" height="6.8"/>
				
					<rect x="601.4" y="117.3" transform="matrix(-1 -6.095846e-03 6.095846e-03 -1 1214.8859 240.8757)" class="st153" width="12.9" height="2.6"/>
				
					<rect x="524.3" y="115.6" transform="matrix(-1 -6.092884e-03 6.092884e-03 -1 1093.5562 237.1637)" class="st153" width="45.7" height="2.6"/>
			</g>
			
				<rect x="517.3" y="157.4" transform="matrix(-1 -6.093906e-03 6.093906e-03 -1 1146.3186 328.0477)" class="st149" width="112.6" height="9.7"/>
			<path class="st149" d="M519.6,115.6l55.4,0.3l0.1-14.4l-13.2-2.4c-9.3-1.7-18.9-1.8-28.3-0.2l-13.9,2.3L519.6,115.6z"/>
			<polygon class="st149" points="615.3,180.5 646,180.7 633.1,157.8 615.4,157.7 			"/>
			<path class="st154" d="M532.6,146.1l27.3,0.2l0.1-10.3c0-7.5-6-13.7-13.6-13.7h0c-7.5,0-13.7,6-13.7,13.6L532.6,146.1z"/>
			<path class="st151" d="M556.5,142.8l0-6.9c0-5.6-4.5-10.3-10.2-10.3c-5.6,0-10.3,4.5-10.3,10.2l0,6.9L556.5,142.8z"/>
			<path class="st155" d="M618.1,157.7l0,1c-0.1,10.1,8.1,18.3,18.2,18.4l7.6,0l2,3.6l-30.7-0.2l0.1-22.9L618.1,157.7z"/>
			<g>
				<g>
					<circle class="st150" cx="538" cy="167.9" r="15.5"/>
					<path class="st151" d="M532.2,167.8c0,3.2,2.6,5.8,5.8,5.9c3.2,0,5.8-2.6,5.9-5.8c0-3.2-2.6-5.8-5.8-5.9
						C534.8,162,532.2,164.6,532.2,167.8z"/>
				</g>
				<g>
					
						<ellipse transform="matrix(0.7071 -0.7071 0.7071 0.7071 46.4789 452.6958)" class="st150" cx="569.7" cy="170.2" rx="13.3" ry="13.3"/>
					<path class="st151" d="M564.7,170.2c0,2.8,2.2,5,5,5c2.8,0,5-2.2,5-5c0-2.8-2.2-5-5-5C567,165.2,564.7,167.4,564.7,170.2z"/>
				</g>
				<g>
					
						<ellipse transform="matrix(0.7101 -0.7041 0.7041 0.7101 53.7894 471.4974)" class="st150" cx="599.5" cy="170.4" rx="13.3" ry="13.3"/>
					<path class="st151" d="M594.5,170.4c0,2.8,2.2,5,5,5c2.8,0,5-2.2,5-5c0-2.8-2.2-5-5-5C596.8,165.4,594.5,167.6,594.5,170.4z"/>
				</g>
				<path class="st150" d="M528.8,155.4c-2.1,2.6-3.4,5.9-3.4,9.6c-0.1,8.5,6.8,15.5,15.4,15.6c3.5,0,6.6-1.1,9.2-3
					c-2.9,3.6-7.3,5.8-12.2,5.8c-8.5-0.1-15.4-7-15.4-15.6C522.5,162.7,525,158.2,528.8,155.4z"/>
				<path class="st150" d="M561.9,159.6c-1.8,2.3-2.9,5.1-2.9,8.2c0,7.4,5.9,13.4,13.2,13.4c3,0,5.7-0.9,7.9-2.6
					c-2.5,3.1-6.2,5-10.5,5c-7.4,0-13.3-6-13.2-13.4C556.4,165.9,558.6,162,561.9,159.6z"/>
				<path class="st150" d="M591.6,159.8c-1.8,2.3-2.9,5.1-2.9,8.2c0,7.4,5.9,13.4,13.2,13.4c3,0,5.7-0.9,7.9-2.6
					c-2.5,3.1-6.2,5-10.5,5c-7.4,0-13.3-6-13.2-13.4C586.2,166.1,588.4,162.2,591.6,159.8z"/>
			</g>
			<path class="st156" d="M575,128.2L575,128.2c-0.1,10,8,18.2,18,18.3l25.2,0.2l-0.1,11.1l-43.3-0.3l-5,0l0.1-11.1l0.1-18.1
				L575,128.2z"/>
			<path class="st157" d="M527.7,99.9c0.9,6.8,7.8,12.7,17.9,15.9l-26-0.2l0.1-14.4L527.7,99.9z"/>
		</g>
		<g>
			<g>
				
					<rect x="424.2" y="145.1" transform="matrix(-1 8.704828e-03 -8.704828e-03 -1 934.5139 312.724)" class="st148" width="84.8" height="26.6"/>
				
					<rect x="421.6" y="138.1" transform="matrix(-1 8.704773e-03 -8.704773e-03 -1 934.7018 279.0963)" class="st149" width="90.3" height="7"/>
			</g>
			<g>
				<path class="st150" d="M479.1,170.3c0,6.8,5.5,12.3,12.3,12.3c6.8,0,12.3-5.5,12.3-12.3c0-6.8-5.5-12.3-12.3-12.3
					C484.6,158,479.1,163.5,479.1,170.3z"/>
				<path class="st151" d="M486.8,170.3c0,2.6,2.1,4.6,4.6,4.6c2.5,0,4.6-2.1,4.6-4.6c0-2.5-2.1-4.6-4.6-4.6
					C488.9,165.6,486.8,167.7,486.8,170.3z"/>
			</g>
			<path class="st150" d="M484.1,160.5c-1.7,2.1-2.6,4.7-2.6,7.6c0,6.8,5.5,12.3,12.3,12.3c2.7,0,5.3-0.9,7.3-2.4
				c-2.2,2.8-5.7,4.7-9.6,4.7c-6.8,0-12.3-5.5-12.3-12.3C479.2,166.3,481.1,162.7,484.1,160.5z"/>
			<g>
				
					<ellipse transform="matrix(0.1498 -0.9887 0.9887 0.1498 208.5439 583.8882)" class="st150" cx="443.8" cy="170.7" rx="12.3" ry="12.3"/>
				<path class="st151" d="M439.2,170.7c0,2.5,2.1,4.6,4.6,4.6c2.6,0,4.6-2.1,4.6-4.6c0-2.5-2.1-4.6-4.6-4.6
					C441.2,166.1,439.2,168.1,439.2,170.7z"/>
			</g>
			<path class="st150" d="M436.5,160.9c-1.7,2.1-2.6,4.7-2.6,7.6c0,6.8,5.5,12.3,12.3,12.3c2.7,0,5.3-0.9,7.3-2.4
				c-2.2,2.8-5.7,4.7-9.6,4.7c-6.8,0-12.3-5.5-12.3-12.3C431.5,166.7,433.5,163.2,436.5,160.9z"/>
		</g>
		<g>
			<g>
				
					<rect x="325.1" y="145.1" transform="matrix(-1 8.704828e-03 -8.704828e-03 -1 736.4308 313.5862)" class="st148" width="84.8" height="26.6"/>
				
					<rect x="322.6" y="138.1" transform="matrix(-1 8.704773e-03 -8.704773e-03 -1 736.6187 279.9584)" class="st149" width="90.3" height="7"/>
			</g>
			<g>
				<path class="st150" d="M380.1,170.3c0,6.8,5.5,12.3,12.3,12.3c6.8,0,12.3-5.5,12.3-12.3c0-6.8-5.5-12.3-12.3-12.3
					C385.6,158,380.1,163.5,380.1,170.3z"/>
				<path class="st151" d="M387.8,170.3c0,2.6,2.1,4.6,4.6,4.6c2.5,0,4.6-2.1,4.6-4.6c0-2.5-2.1-4.6-4.6-4.6
					C389.8,165.6,387.8,167.7,387.8,170.3z"/>
			</g>
			<path class="st150" d="M385.1,160.5c-1.7,2.1-2.6,4.7-2.6,7.6c0,6.8,5.5,12.3,12.3,12.3c2.7,0,5.3-0.9,7.3-2.4
				c-2.2,2.8-5.7,4.7-9.6,4.7c-6.8,0-12.3-5.5-12.3-12.3C380.1,166.3,382.1,162.7,385.1,160.5z"/>
			<g>
				
					<ellipse transform="matrix(0.1498 -0.9887 0.9887 0.1498 124.3418 485.963)" class="st150" cx="344.8" cy="170.7" rx="12.3" ry="12.3"/>
				<path class="st151" d="M340.1,170.7c0,2.5,2.1,4.6,4.6,4.6c2.6,0,4.6-2.1,4.6-4.6c0-2.5-2.1-4.6-4.6-4.6
					C342.2,166.1,340.1,168.1,340.1,170.7z"/>
			</g>
			<path class="st150" d="M337.5,160.9c-1.7,2.1-2.6,4.7-2.6,7.6c0,6.8,5.5,12.3,12.3,12.3c2.7,0,5.3-0.9,7.3-2.4
				c-2.2,2.8-5.7,4.7-9.6,4.7c-6.8,0-12.3-5.5-12.3-12.3C332.5,166.7,334.4,163.2,337.5,160.9z"/>
		</g>
	</g>
	<path class="st244" d="M619.8,97.3c0.3-0.6,0.4-1.3,0.4-2.1c0-2.9-2.3-5.2-5.2-5.2c-2,0-3.7,1.1-4.6,2.8c-1-0.9-2.3-1.4-3.7-1.4
		c-2.5,0-4.6,1.7-5.3,4c-2,0.2-3.6,1.9-3.6,4c0,2.2,1.8,4,4,4c0.5,0,0.9-0.1,1.3-0.2c0.8,2.6,3.2,4.6,6.1,4.6c2.7,0,5-1.7,5.9-4.1
		c0.7,0.6,1.6,1,2.7,1c2.2,0,4-1.8,4-4C621.9,99.2,621,97.9,619.8,97.3z"/>
	<path class="st244" d="M609.7,30.8c0.5-1.6,0.8-3.3,0.8-5.1c0-9.2-7.5-16.7-16.7-16.7c-8.5,0-15.5,6.4-16.5,14.6
		c-1.2-0.3-2.5-0.5-3.8-0.5c-8.1,0-14.6,6.5-14.6,14.6c-0.4,0-0.7-0.1-1.1-0.1c-7.7,0-13.9,6.2-13.9,13.9s6.2,13.9,13.9,13.9
		c0.6,0,1.1,0,1.6-0.1c1.9,3,5.2,5,9,5c2.1,0,4.1-0.6,5.8-1.7c2.7,2,6.1,3.2,9.7,3.2c7,0,12.9-4.4,15.2-10.6
		c0.8,0.1,1.5,0.2,2.3,0.2c9.1,0,16.4-7.4,16.4-16.4C617.8,38.9,614.5,33.7,609.7,30.8z"/>
	<path class="st245" d="M609.3,31.1c0.5-1.5,0.8-3.2,0.8-4.9c0-8.9-7.2-16.2-16.2-16.2c-0.3,0-0.5,0-0.8,0c3.8,3,6.2,7.6,6.2,12.8
		c0,1.7-0.3,3.4-0.8,4.9c4.7,2.8,7.8,7.9,7.8,13.7c0,8.8-7.1,15.9-15.9,15.9c-0.8,0-1.5-0.1-2.3-0.2c-2.2,6-15.1,11.6-13.4,10.5
		c2.6,2,5.9,3.1,9.4,3.1c6.8,0,12.5-4.3,14.7-10.2c0.7,0.1,1.5,0.2,2.3,0.2c8.8,0,15.9-7.1,15.9-15.9
		C617.1,39,613.9,33.9,609.3,31.1z"/>
	<path class="st244" d="M620.6,71.2C620.6,71.2,620.6,71.2,620.6,71.2c0-0.4-0.1-0.7-0.1-1.1c-0.7-4.2-4.8-7.1-9-6.3
		c-3.3,0.6-5.7,3.1-6.3,6.2c-0.9-0.4-2-0.6-3.1-0.4c-2.4,0.4-4.2,2.5-4.3,4.8c-0.5-0.1-1.1-0.2-1.7-0.1c-2.1,0.4-3.5,2.4-3.1,4.5
		s2.4,3.5,4.5,3.1c0.1,0,0.1,0,0.2,0c0,0.1,0,0.2,0,0.2c0.5,2.7,3.1,4.6,5.8,4.1c0.9-0.2,1.8-0.6,2.5-1.2c2,1.6,4.7,2.3,7.4,1.8
		c3.1-0.5,5.5-2.5,6.9-5.1c0.7,0.2,1.5,0.2,2.3,0.1c3-0.5,4.9-3.3,4.4-6.3C626.4,72.6,623.6,70.7,620.6,71.2z"/>
	<path class="st244" d="M620.6,71.2C620.6,71.2,620.6,71.2,620.6,71.2c0-0.4-0.1-0.7-0.1-1.1c-0.7-4.2-4.8-7.1-9-6.3
		c-3.3,0.6-5.7,3.1-6.3,6.2c-0.9-0.4-2-0.6-3.1-0.4c-2.4,0.4-4.2,2.5-4.3,4.8c-0.5-0.1-1.1-0.2-1.7-0.1c-2.1,0.4-3.5,2.4-3.1,4.5
		s2.4,3.5,4.5,3.1c0.1,0,0.1,0,0.2,0c0,0.1,0,0.2,0,0.2c0.5,2.7,3.1,4.6,5.8,4.1c0.9-0.2,1.8-0.6,2.5-1.2c2,1.6,4.7,2.3,7.4,1.8
		c3.1-0.5,5.5-2.5,6.9-5.1c0.7,0.2,1.5,0.2,2.3,0.1c3-0.5,4.9-3.3,4.4-6.3C626.4,72.6,623.6,70.7,620.6,71.2z"/>
	<g>
		<path class="st245" d="M625.9,75.9c-0.4-2.3-2.4-4-4.7-4.1c0.1,0.3,0.2,0.5,0.2,0.8c0.5,2.7-1.3,5.3-4.1,5.7
			c-0.7,0.1-1.4,0.1-2.1-0.1c-1.2,2.3-3.5,4.1-6.3,4.6c-2.5,0.4-4.9-0.2-6.8-1.6c-0.6,0.5-1.4,0.9-2.3,1.1c-0.3,0-0.5,0.1-0.7,0.1
			c0.7,2.2,2.9,3.6,5.2,3.2c0.9-0.2,1.6-0.5,2.3-1.1c1.9,1.4,4.3,2.1,6.8,1.6c2.8-0.5,5.1-2.3,6.3-4.6c0.7,0.2,1.4,0.2,2.1,0.1
			C624.6,81.2,626.4,78.6,625.9,75.9z"/>
	</g>
</g>
<g id="Layer_3">
</g>
</svg>
