<?xml version="1.0" encoding="utf-8"?>
<!-- Generator: Adobe Illustrator 22.1.0, SVG Export Plug-In . SVG Version: 6.00 Build 0)  -->
<svg version="1.1" xmlns="http://www.w3.org/2000/svg" xmlns:xlink="http://www.w3.org/1999/xlink" x="0px" y="0px"
	 viewBox="0 0 30 30" style="enable-background:new 0 0 30 30;" xml:space="preserve">
<style type="text/css">
	.st0{fill:#D6D6D6;}
	.st1{fill:#80F0F9;}
	.st2{fill:#FFFFFF;}
	.st3{fill:#43CCDE;}
	.st4{fill:#32ABBA;}
	.st5{fill:#FF9D47;}
	.st6{fill:#4D4D4D;}
	.st7{fill:#34495E;}
	.st8{fill:#97F58F;}
	.st9{fill:#42CF25;}
	.st10{fill:#FFA6A6;}
	.st11{fill:#AB5C16;}
	.st12{fill:#FFDB8C;}
	.st13{fill:#D1D1D1;}
	.st14{fill:#72706F;}
	.st15{fill:#A05000;}
	.st16{fill:#693908;}
	.st17{fill:#C89D50;}
	.st18{fill:#4E9B34;}
	.st19{fill:#97C62F;}
	.st20{fill:#593968;}
	.st21{fill:#D5B3C3;}
	.st22{fill:#FCD22C;}
	.st23{fill:#FCDB94;}
	.st24{fill:#F3DAAE;}
	.st25{fill:#DBE1AC;}
	.st26{fill:#E4343A;}
	.st27{fill:#E3C6D3;}
	.st28{fill:#D2DB93;}
	.st29{fill:#FDE5AE;}
	.st30{fill:none;stroke:#F6D492;stroke-width:0.7714;stroke-linecap:round;stroke-linejoin:round;stroke-miterlimit:10;}
	.st31{fill:#CAB59F;}
	.st32{fill:#B41529;}
	.st33{fill:#D81F35;}
	.st34{fill:#F8BB00;}
	.st35{fill:#8DC21F;}
	.st36{fill:#951B08;}
	.st37{fill:#E6D8DF;}
	.st38{fill:#E5E5E6;}
	.st39{fill:#E5E4A9;}
	.st40{fill:#EFE9E9;}
	.st41{fill:#FBC8D1;}
	.st42{fill:#FBD4D9;}
	.st43{fill:#F9B9C7;}
	.st44{fill:#DD8CA5;}
	.st45{fill:#E8E8E8;}
	.st46{fill:#444343;}
	.st47{fill:#F4F1ED;}
	.st48{fill:#EFE2D5;}
	.st49{fill:#DDC8B6;}
	.st50{fill:#C1AA95;}
	.st51{fill:#FFCC57;}
	.st52{fill:#7E4A23;}
	.st53{fill:#FFF6B5;}
	.st54{clip-path:url(#SVGID_2_);}
	.st55{fill:#F99C15;}
	.st56{fill:#A2D063;}
	.st57{fill:#6FA536;}
	.st58{fill:#3D3D3D;}
	.st59{fill:#EFEFEF;}
	.st60{fill:#925D00;}
	.st61{fill:#F5B456;}
	.st62{fill:#E66B3E;}
	.st63{fill:#F7CC8C;}
	.st64{fill:#C77B00;}
	.st65{fill:#908F93;}
	.st66{fill:#E5C5DD;}
	.st67{fill:#6B6B6D;}
	.st68{fill:#F29700;}
	.st69{clip-path:url(#SVGID_4_);fill:#FEFEFE;}
	.st70{clip-path:url(#SVGID_4_);}
	.st71{fill:#670004;}
	.st72{fill:#B7B7BC;}
	.st73{fill:#E96D46;}
	.st74{fill:#F9EFE5;}
	.st75{fill:#BDAA9A;}
	.st76{fill:#DDCCBF;}
	.st77{fill:#4B6A76;}
	.st78{opacity:0.43;fill:url(#SVGID_5_);}
	.st79{fill:#F4E4E4;}
	.st80{fill:#FF8788;}
	.st81{fill:#261D1D;}
	.st82{opacity:0.5;}
	.st83{fill:#F7A7AA;}
	.st84{opacity:0.3;fill:#F7A7AA;}
	.st85{fill:#FABFBF;}
	.st86{opacity:0.5;fill:#F7A7AA;}
	.st87{fill:#F37B87;}
	.st88{fill:#943436;}
	.st89{fill:#F6A0A4;}
	.st90{fill:url(#SVGID_8_);}
	.st91{fill:url(#SVGID_9_);}
	.st92{fill:#E20E46;}
	.st93{fill:#EDEDED;}
	.st94{fill:#F9747E;}
	.st95{fill:#E44C5F;}
	.st96{clip-path:url(#SVGID_13_);}
	.st97{fill:#85C459;}
	.st98{clip-path:url(#SVGID_15_);fill:#FFFFFF;}
	.st99{clip-path:url(#SVGID_17_);fill:#F74F5C;}
	.st100{fill:#CCCCCC;}
	.st101{clip-path:url(#SVGID_19_);fill:#53BEE3;}
	.st102{clip-path:url(#SVGID_21_);}
	.st103{fill:#53BEE3;}
	.st104{fill:#00A1CC;}
	.st105{clip-path:url(#SVGID_23_);fill:#F74F5C;}
	.st106{fill:#534741;}
	.st107{clip-path:url(#SVGID_25_);fill:#F74F5C;}
	.st108{fill:#F74F5C;}
	.st109{fill:#706661;}
	.st110{clip-path:url(#SVGID_29_);}
	.st111{fill:#AAAAAA;}
	.st112{fill:#D82A3F;}
	.st113{clip-path:url(#SVGID_31_);}
	.st114{clip-path:url(#SVGID_33_);fill:#F74F5C;}
	.st115{clip-path:url(#SVGID_35_);fill:#F74F5C;}
	.st116{fill:#D8957B;}
	.st117{fill:#F1E3D8;}
	.st118{fill:#C3755E;}
	.st119{fill:none;stroke:#231815;stroke-width:0.25;stroke-linecap:round;stroke-miterlimit:10;}
	.st120{fill:none;stroke:#30373D;stroke-width:0.25;stroke-miterlimit:10;}
	.st121{fill:#E6A389;}
	.st122{fill:#D8957B;stroke:#FFFFFF;stroke-miterlimit:10;}
	.st123{fill:#F1E3D8;stroke:#FFFFFF;stroke-miterlimit:10;}
	.st124{fill:#C3755E;stroke:#FFFFFF;stroke-miterlimit:10;}
	.st125{fill:#E6A389;stroke:#FFFFFF;stroke-miterlimit:10;}
	.st126{stroke:#FFFFFF;stroke-miterlimit:10;}
	.st127{fill:none;stroke:#FFFFFF;stroke-linecap:round;stroke-miterlimit:10;}
	.st128{fill:#198974;}
	.st129{fill:#47AD2F;}
	.st130{fill:#7A5C41;}
	.st131{fill:#5CC13A;}
	.st132{fill:#237C11;}
	.st133{fill:#3FA541;}
	.st134{fill:#10725F;}
	.st135{fill:#8DE00A;}
	.st136{fill:#938548;}
	.st137{fill:#498C44;}
	.st138{fill:#7BCE05;}
	.st139{fill:#54CC06;}
	.st140{opacity:0.56;fill:#7CBA04;}
	.st141{fill:#876D33;}
	.st142{fill:#C4B08D;}
	.st143{fill:#56C437;}
	.st144{fill:#49AD07;}
	.st145{fill:#359B3C;}
	.st146{fill:#E2E2E2;}
	.st147{fill:#231815;}
	.st148{fill:#435780;}
	.st149{fill:#FF4960;}
	.st150{fill:#373934;}
	.st151{fill:#F6C267;}
	.st152{opacity:0.5;fill:#F99500;}
	.st153{opacity:0.2;fill:#C02529;}
	.st154{fill:#F2F0F3;}
	.st155{fill:#C02529;}
	.st156{opacity:0.41;fill:#435780;}
	.st157{opacity:0.59;fill:#C02529;}
	.st158{fill:#FCE0A4;}
	.st159{fill:#EAE27F;}
	.st160{fill:#A1A85B;}
	.st161{fill:#FCFBD2;}
	.st162{fill:#9E8A6A;}
	.st163{fill:#979C24;}
	.st164{fill:#D1C11C;}
	.st165{fill:#727235;}
	.st166{opacity:0.46;fill:#4F4E4D;}
	.st167{fill:#FFFA9C;}
	.st168{fill:none;stroke:#4D4D4D;stroke-linecap:round;stroke-linejoin:round;stroke-dasharray:5.893,5.893;}
	.st169{fill:none;stroke:#4D4D4D;stroke-linecap:round;stroke-linejoin:round;stroke-dasharray:6.0318,6.0318;}
	.st170{fill:#747F7D;}
	.st171{fill:#827E7F;}
	.st172{fill:url(#SVGID_36_);}
	.st173{fill:#B50016;}
	.st174{fill:url(#SVGID_37_);}
	.st175{fill:#FFFFFF;stroke:#FFFFFF;stroke-linecap:round;stroke-linejoin:round;stroke-miterlimit:10;}
	.st176{fill:#F4E4E4;stroke:#FFFFFF;stroke-linecap:round;stroke-linejoin:round;stroke-miterlimit:10;}
	.st177{fill:#FF8788;stroke:#FFFFFF;stroke-linecap:round;stroke-linejoin:round;stroke-miterlimit:10;}
	.st178{fill:#261D1D;stroke:#FFFFFF;stroke-linecap:round;stroke-linejoin:round;stroke-miterlimit:10;}
	.st179{fill:#B6E9FF;}
	.st180{fill:#6D362C;}
	.st181{fill:#F0CAAE;}
	.st182{fill:#8C4B38;}
	.st183{fill:#361A16;}
	.st184{fill:#44251F;}
	.st185{fill:none;stroke:#44251F;stroke-miterlimit:10;}
	.st186{fill:none;stroke:#44251F;stroke-linecap:round;stroke-linejoin:round;stroke-miterlimit:10;}
	.st187{fill:none;stroke:#6D362C;stroke-width:2;stroke-linecap:round;stroke-linejoin:round;stroke-miterlimit:10;}
	.st188{fill:#AD5A5C;}
	.st189{fill:none;stroke:#44251F;stroke-width:1.7887;stroke-linecap:round;stroke-linejoin:round;stroke-miterlimit:10;}
	.st190{fill:#AD3D3C;}
	.st191{fill:#FEFEFE;}
	.st192{fill:#5E2C00;}
	.st193{fill:#CDDA60;}
	.st194{fill:#F07F36;}
	.st195{fill:#F29038;}
	.st196{fill:#D4DA50;}
	.st197{fill:#67B44B;}
	.st198{fill:#6C4000;}
	.st199{fill:#7E4E00;}
	.st200{fill:#FFCD00;}
	.st201{fill:#FFBE00;}
	.st202{fill:#5A3200;}
	.st203{fill:#5F3813;}
	.st204{fill:#FCC047;}
	.st205{fill:#E8AF2E;}
	.st206{fill:#603008;}
	.st207{fill:#994405;}
	.st208{fill:#E6E6E7;}
	.st209{fill:#3B2314;}
	.st210{fill:#F0F1F1;}
	.st211{fill:#E0A246;}
	.st212{fill:#4F2B0E;}
	.st213{fill:#7BAD1A;}
	.st214{fill:#97FAFF;}
	.st215{fill:#5DC5EE;}
	.st216{fill:#DE97FF;}
	.st217{fill:#AC3EE5;}
	.st218{fill:#F8CDDB;}
	.st219{fill:#F95892;}
	.st220{fill:#D5FFBD;}
	.st221{fill:#58B431;}
	.st222{fill:#69311A;}
	.st223{opacity:0.43;fill:url(#SVGID_38_);}
	.st224{opacity:0.43;fill:url(#SVGID_39_);}
	.st225{opacity:0.43;fill:url(#SVGID_40_);}
	.st226{opacity:0.43;fill:url(#SVGID_41_);}
	.st227{opacity:0.43;fill:url(#SVGID_42_);}
	.st228{fill:#6D362C;stroke:#FFFFFF;stroke-miterlimit:10;}
	.st229{fill:#F0CAAE;stroke:#FFFFFF;stroke-miterlimit:10;}
	.st230{fill:#8C4B38;stroke:#FFFFFF;stroke-miterlimit:10;}
	.st231{fill:#361A16;stroke:#FFFFFF;stroke-miterlimit:10;}
	.st232{fill:#44251F;stroke:#FFFFFF;stroke-miterlimit:10;}
	.st233{fill:none;stroke:#FFFFFF;stroke-miterlimit:10;}
	.st234{fill:none;stroke:#FFFFFF;stroke-linecap:round;stroke-linejoin:round;stroke-miterlimit:10;}
	.st235{fill:#F4F1ED;stroke:#FFFFFF;stroke-linecap:round;stroke-miterlimit:10;}
	.st236{fill:#EFE2D5;stroke:#FFFFFF;stroke-linecap:round;stroke-miterlimit:10;}
	.st237{fill:#DDC8B6;stroke:#FFFFFF;stroke-linecap:round;stroke-miterlimit:10;}
	.st238{fill:#F9B9C7;stroke:#FFFFFF;stroke-linecap:round;stroke-miterlimit:10;}
	.st239{fill:#C1AA95;stroke:#FFFFFF;stroke-linecap:round;stroke-miterlimit:10;}
	.st240{stroke:#FFFFFF;stroke-linecap:round;stroke-miterlimit:10;}
	.st241{opacity:0.3;}
	.st242{fill:#FFAB24;}
</style>
<g id="Layer_1">
</g>
<g id="Layer_2">
	<circle class="st0" cx="14.4" cy="12.6" r="11.5"/>
	<g>
		<g>
			<g>
				<g>
					<g>
						<path class="st85" d="M14.4,21.4c-1.2,0-2.3-0.4-3.2-0.8c-0.9-0.4-1.8-1-2.7-1.9C7.6,17.8,7,17,6.6,16c-0.4-0.9-0.8-2-0.8-3.2
							c0-1.1,0.2-2.2,0.6-3.3c0.5-1.1,1.3-2,1.9-2.7C9.3,6,10.2,5.4,11.1,5c1-0.4,2.1-0.6,3.2-0.6c1,0,2,0.2,3.2,0.7
							c1,0.4,2.1,0.9,2.8,1.7c0.8,0.8,1.2,1.8,1.6,2.8l0,0.1c0.4,0.9,0.7,2,0.7,3.2c0,1.4-0.2,2.4-0.5,3.3c-0.4,1-1.2,1.9-2,2.6
							c-0.7,0.7-1.6,1.3-2.7,1.8l-0.2,0.1C16.4,21,15.4,21.4,14.4,21.4z"/>
						<path class="st2" d="M14.4,4.6c1.1,0,2.1,0.3,3.1,0.7c1,0.4,2,0.9,2.8,1.6s1.2,1.8,1.6,2.8c0.4,1,0.7,2,0.7,3.1
							c0,1.1-0.1,2.2-0.5,3.2c-0.4,1-1.2,1.8-1.9,2.6s-1.6,1.3-2.6,1.7c-1,0.4-2,0.9-3.1,0.9s-2.2-0.4-3.1-0.8
							c-1-0.4-1.8-1.1-2.6-1.8s-1.4-1.6-1.8-2.6c-0.4-1-0.7-2-0.7-3.1s0.2-2.2,0.6-3.2c0.4-1,1.1-1.8,1.9-2.6
							c0.8-0.8,1.6-1.4,2.6-1.8C12.2,4.8,13.2,4.6,14.4,4.6 M14.4,4.1c-1.2,0-2.3,0.2-3.3,0.7c-1,0.4-1.9,1-2.8,1.9
							c-0.7,0.7-1.5,1.6-2,2.8c-0.4,1-0.7,2.2-0.7,3.4c0,1.2,0.4,2.4,0.8,3.3c0.4,1,1,1.9,1.9,2.8c0.9,0.9,1.8,1.6,2.8,1.9
							c0.9,0.4,2.1,0.8,3.3,0.8c1.1,0,2.1-0.4,3-0.8l0.2-0.1c1.1-0.5,2.1-1.1,2.8-1.8c0.8-0.8,1.6-1.6,2-2.7c0.4-0.9,0.5-2,0.5-3.4
							c0-1.3-0.4-2.4-0.8-3.3l0-0.1c-0.4-1-0.8-2-1.6-2.8c-0.8-0.8-1.9-1.3-2.9-1.7C16.4,4.3,15.4,4.1,14.4,4.1L14.4,4.1z"/>
					</g>
					<g>
						<g>
							<path class="st83" d="M14.4,21.4c-1.2,0-2.3-0.4-3.2-0.8c-0.9-0.4-1.8-1-2.7-1.9C7.6,17.8,7,17,6.6,16
								c-0.4-0.9-0.8-2-0.8-3.2c0-1.1,0.2-2.2,0.6-3.3c0.5-1.1,1.3-2,1.9-2.7C9.3,6,10.2,5.4,11.1,5c1-0.4,2.1-0.6,3.2-0.6
								c0.1,0,0.2,0,0.3,0c0.1,0,0.2,0.1,0.2,0.2c0,0.1-0.1,0.2-0.2,0.3c-0.5,0.1-1,0.2-1.5,0.4c-0.8,0.3-1.6,0.9-2.4,1.7
								c-0.6,0.6-1.3,1.4-1.7,2.4c-0.4,0.9-0.6,1.9-0.6,2.9c0,1,0.3,2,0.7,2.8c0.4,0.9,0.9,1.6,1.6,2.4c0.8,0.8,1.6,1.3,2.4,1.7
								c0.8,0.3,1.8,0.7,2.9,0.7c0.9,0,1.8-0.4,2.6-0.7l0.2-0.1c0.2-0.1,0.4-0.2,0.6-0.3c0,0,0.1,0,0.1,0c0.1,0,0.2,0,0.2,0.1
								c0.1,0.1,0,0.2,0,0.3c-0.6,0.5-1.4,1-2.2,1.3l-0.2,0.1C16.4,21,15.4,21.4,14.4,21.4z"/>
							<path class="st2" d="M14.4,4.6c0.1,0,0.2,0,0.3,0c-0.5,0.1-1,0.2-1.5,0.4c-0.9,0.4-1.8,1-2.5,1.7C10,7.5,9.3,8.3,8.9,9.2
								c-0.4,0.9-0.6,1.9-0.6,3c0,1,0.3,2,0.7,2.9c0.4,0.9,1,1.8,1.7,2.5c0.7,0.7,1.5,1.3,2.4,1.7c0.9,0.4,1.9,0.7,3,0.7
								c1,0,2-0.4,2.9-0.8c0.2-0.1,0.4-0.2,0.6-0.3c-0.6,0.5-1.4,1-2.2,1.3c-1,0.4-2,0.9-3.1,0.9s-2.2-0.4-3.1-0.8
								c-1-0.4-1.8-1.1-2.6-1.8c-0.8-0.8-1.4-1.6-1.8-2.6c-0.4-1-0.7-2-0.7-3.1s0.2-2.2,0.6-3.2c0.4-1,1.1-1.8,1.9-2.6
								c0.8-0.8,1.6-1.4,2.6-1.8C12.2,4.8,13.2,4.6,14.4,4.6 M19.6,19L19.6,19 M14.4,4.1c-1.2,0-2.3,0.2-3.3,0.7
								c-1,0.4-1.9,1-2.8,1.9c-0.7,0.7-1.5,1.6-2,2.8c-0.4,1-0.7,2.2-0.7,3.4c0,1.2,0.4,2.4,0.8,3.3c0.4,1,1,1.9,1.9,2.8
								c0.9,0.9,1.8,1.6,2.8,1.9c0.9,0.4,2.1,0.8,3.3,0.8c1.1,0,2.1-0.4,3-0.8l0.2-0.1c0.9-0.4,1.6-0.8,2.3-1.3
								c0.1-0.1,0.2-0.2,0.2-0.4c0-0.3-0.2-0.5-0.5-0.5c0,0,0,0,0,0c0,0-0.1,0-0.1,0c0,0,0,0,0,0c0,0,0,0,0,0c0,0-0.1,0-0.1,0
								c-0.2,0.1-0.4,0.2-0.5,0.2l-0.2,0.1c-0.8,0.3-1.6,0.7-2.5,0.7c-1,0-2-0.3-2.8-0.7c-0.8-0.3-1.5-0.8-2.3-1.6
								c-0.7-0.7-1.2-1.5-1.6-2.3c-0.3-0.8-0.7-1.7-0.7-2.7c0-1,0.2-1.9,0.6-2.8c0.4-0.9,1.1-1.7,1.7-2.3c0.7-0.7,1.5-1.3,2.3-1.6
								c0.4-0.2,0.9-0.3,1.4-0.4c0.2,0,0.4-0.3,0.4-0.5c0-0.3-0.2-0.5-0.5-0.5C14.6,4.1,14.5,4.1,14.4,4.1L14.4,4.1z"/>
						</g>
					</g>
				</g>
				<g class="st82">
					<path class="st83" d="M16.4,6.5c-0.1,0-0.2,0-0.3,0c-0.1,0-0.2,0-0.3,0c0,0-0.6-0.1-0.6-0.1c-0.2,0-0.4,0-0.6,0
						c-0.2,0-0.4,0-0.6,0c0,0-0.5,0-0.5,0c-0.1,0-0.2-0.1-0.3-0.2c0-0.1,0-0.2,0-0.3c0,0,0.1,0,0.1-0.1c0.1-0.1,0.2-0.1,0.4-0.2
						c0.2-0.1,0.4-0.2,0.6-0.2c0.2-0.1,0.5-0.1,0.8-0.1c0,0,0.2,0,0.2,0l0.2,0l0.2,0l0.2,0c0.1,0,0.3,0.1,0.4,0.1
						c0.1,0,0.2,0.1,0.3,0.1c0.2,0.1,0.3,0.2,0.4,0.3c0,0,0.1,0.1,0.1,0.1c0.1,0.1,0.1,0.2,0,0.3c0,0.1-0.1,0.2-0.2,0.2
						c0,0-0.1,0-0.2,0l-0.3,0L16.4,6.5z"/>
					<path class="st2" d="M15.5,5.5c0.1,0,0.1,0,0.2,0c0.1,0,0.1,0,0.2,0c0.1,0,0.1,0,0.2,0c0.1,0,0.2,0.1,0.3,0.1
						c0.1,0,0.2,0.1,0.3,0.1c0.2,0.1,0.3,0.2,0.4,0.3c0,0,0.1,0.1,0.1,0.1c0,0,0,0,0,0s-0.1,0-0.2,0c-0.1,0-0.1,0-0.2,0
						c0,0-0.1,0-0.1,0c0,0-0.1,0-0.1,0c-0.1,0-0.2,0-0.3,0c-0.1,0-0.2,0-0.3,0c-0.1,0-0.1,0-0.2,0c-0.1,0-0.1,0-0.2,0
						c-0.1,0-0.1,0-0.2,0l-0.1,0c0,0-0.1,0-0.1,0c-0.2,0-0.4,0-0.5,0c-0.2,0-0.5,0-0.7,0c-0.2,0-0.3,0-0.4,0c-0.1,0-0.1,0-0.1,0
						c0,0,0,0,0,0s0,0,0.1-0.1C13.7,6,13.8,5.9,14,5.8c0.2-0.1,0.4-0.2,0.6-0.2c0.2-0.1,0.5-0.1,0.7-0.1L15.5,5.5L15.5,5.5 M15.5,5
						C15.4,5,15.4,5,15.5,5L15.5,5l-0.2,0c-0.3,0-0.6,0-0.9,0.1c-0.2,0.1-0.5,0.1-0.7,0.3c-0.2,0.1-0.3,0.2-0.4,0.3
						c-0.1,0.1-0.2,0.1-0.2,0.1C13,5.9,12.9,6.1,13,6.3c0.1,0.2,0.3,0.3,0.5,0.3c0,0,0,0,0,0c0,0,0.1,0,0.1,0l0.1,0l0.4,0
						c0.2,0,0.4,0,0.6,0c0.2,0,0.3,0,0.5,0c0,0,0.1,0,0.1,0l0.1,0l0.1,0l0.1,0l0.2,0l0.2,0c0.1,0,0.2,0,0.3,0c0.1,0,0.2,0,0.3,0
						c0,0,0.1,0,0.1,0l0.1,0c0,0,0.1,0,0.1,0c0.1,0,0.2,0,0.2,0c0.1,0,0.2,0,0.2,0c0.2,0,0.3-0.1,0.4-0.3c0.1-0.1,0.1-0.3,0-0.5
						c0,0-0.1-0.1-0.1-0.1c0,0-0.1-0.1-0.1-0.1c-0.1-0.1-0.2-0.2-0.5-0.4c-0.1-0.1-0.2-0.1-0.3-0.2c-0.1,0-0.2-0.1-0.4-0.1
						c-0.1,0-0.1,0-0.2,0c-0.1,0-0.1,0-0.2,0C15.6,5,15.5,5,15.5,5C15.5,5,15.5,5,15.5,5L15.5,5z"/>
				</g>
			</g>
			<g>
				<g>
					<path class="st87" d="M15.5,14.1c-0.6,0-1,0-1.4-0.2c-0.4-0.1-0.8-0.4-1.1-0.6c-0.3-0.2-0.6-0.5-0.8-0.8
						c-0.2-0.3-0.4-0.6-0.4-1c0-0.4,0.2-0.7,0.3-1c0.2-0.3,0.4-0.5,0.8-0.8c0.4-0.2,0.7-0.4,1.2-0.5c0.4-0.1,0.8-0.2,1.4-0.2
						c0.5,0,0.9,0.1,1.4,0.2c0.5,0.1,0.9,0.4,1.1,0.6c0.4,0.3,0.6,0.5,0.8,0.8c0.2,0.3,0.3,0.7,0.3,1c0,0.3-0.1,0.6-0.3,1
						c-0.2,0.3-0.4,0.6-0.7,0.9c-0.3,0.2-0.8,0.4-1.2,0.5S16,14.1,15.5,14.1z"/>
					<path class="st2" d="M15.5,9.1c0.5,0,0.9,0.1,1.3,0.2c0.4,0.1,0.8,0.3,1.1,0.5c0.3,0.2,0.6,0.5,0.8,0.7
						c0.2,0.3,0.3,0.6,0.3,0.9c0,0.3-0.1,0.6-0.3,0.9c-0.2,0.3-0.4,0.6-0.7,0.8c-0.3,0.2-0.7,0.3-1.1,0.4c-0.4,0.1-0.8,0.2-1.3,0.2
						s-0.9,0-1.3-0.1c-0.4-0.1-0.7-0.3-1.1-0.5c-0.3-0.2-0.5-0.5-0.7-0.8c-0.2-0.3-0.4-0.6-0.4-0.9s0.1-0.6,0.3-0.9
						c0.2-0.3,0.4-0.5,0.8-0.7c0.3-0.2,0.7-0.4,1.1-0.5C14.6,9.2,15,9.1,15.5,9.1 M15.5,8.6c-0.5,0-1,0.1-1.4,0.2
						c-0.4,0.1-0.8,0.3-1.2,0.6c-0.4,0.3-0.7,0.6-0.9,0.9c-0.2,0.3-0.4,0.7-0.4,1.1c0,0.4,0.2,0.8,0.4,1.1l0,0.1
						c0.2,0.4,0.5,0.7,0.9,0.9c0.3,0.2,0.7,0.5,1.2,0.6c0.4,0.1,0.8,0.2,1.4,0.2c0.5,0,1-0.1,1.4-0.2c0.5-0.1,0.9-0.3,1.3-0.5
						c0.4-0.3,0.6-0.6,0.8-0.9c0.2-0.3,0.4-0.7,0.4-1.1c0-0.4-0.1-0.8-0.3-1.1c-0.2-0.3-0.5-0.6-0.9-0.9c-0.3-0.2-0.7-0.5-1.2-0.6
						C16.4,8.7,16,8.6,15.5,8.6L15.5,8.6z"/>
				</g>
			</g>
		</g>
		<g>
			<path class="st88" d="M14.9,12.7c-0.1,0-0.3-0.1-0.4-0.1c-0.1-0.1-0.2-0.2-0.2-0.3c-0.1-0.1-0.1-0.2-0.1-0.4
				c0-0.1-0.1-0.3-0.1-0.4c0-0.1,0-0.3,0-0.4c0-0.2,0.1-0.3,0.1-0.4c0.1-0.1,0.2-0.2,0.2-0.3c0.1-0.1,0.2-0.1,0.4-0.1
				c0.1,0,0.2,0,0.4,0.1c0.1,0.1,0.2,0.1,0.3,0.3c0.1,0.1,0.1,0.3,0.1,0.4c0,0.1,0.1,0.3,0.1,0.4c0,0.2,0,0.3,0,0.4
				c0,0.2-0.1,0.3-0.2,0.4c-0.1,0.1-0.1,0.2-0.2,0.3C15.1,12.6,15,12.7,14.9,12.7z"/>
			<path class="st2" d="M14.9,10.5c0.1,0,0.1,0,0.2,0.1c0.1,0,0.1,0.1,0.2,0.2c0,0.1,0.1,0.2,0.1,0.3c0,0.1,0,0.2,0,0.4s0,0.3,0,0.4
				c0,0.1-0.1,0.2-0.1,0.3c0,0.1-0.1,0.2-0.2,0.2c-0.1,0-0.1,0.1-0.2,0.1c-0.1,0-0.1,0-0.2-0.1c-0.1,0-0.1-0.1-0.2-0.2
				c0-0.1-0.1-0.2-0.1-0.3c0-0.1,0-0.2,0-0.4s0-0.3,0-0.4c0-0.1,0.1-0.2,0.1-0.3c0-0.1,0.1-0.2,0.2-0.2
				C14.7,10.5,14.8,10.5,14.9,10.5 M14.9,10c-0.2,0-0.4,0.1-0.5,0.2c-0.1,0.1-0.2,0.2-0.3,0.4c-0.1,0.1-0.1,0.2-0.2,0.4
				c0,0.2-0.1,0.3-0.1,0.5c0,0.2,0,0.4,0.1,0.5c0,0.2,0.1,0.3,0.2,0.4c0.1,0.2,0.2,0.3,0.3,0.4c0.1,0.1,0.3,0.2,0.5,0.2
				c0.2,0,0.4-0.1,0.5-0.2c0.1-0.1,0.2-0.2,0.3-0.4c0.1-0.1,0.1-0.3,0.2-0.4c0-0.2,0-0.4,0-0.5c0-0.2,0-0.4-0.1-0.5
				c0-0.2-0.1-0.3-0.2-0.5c-0.1-0.2-0.3-0.3-0.3-0.4C15.2,10.1,15,10,14.9,10L14.9,10z"/>
		</g>
		<g>
			<path class="st88" d="M16.4,12.7c-0.1,0-0.3-0.1-0.4-0.1c-0.1-0.1-0.2-0.2-0.2-0.3c-0.1-0.1-0.1-0.2-0.1-0.4
				c0-0.1-0.1-0.3-0.1-0.4c0-0.1,0-0.3,0-0.4c0-0.2,0.1-0.3,0.1-0.4c0.1-0.1,0.2-0.2,0.2-0.3c0.1-0.1,0.2-0.1,0.4-0.1
				c0.1,0,0.2,0,0.4,0.1c0.1,0.1,0.2,0.1,0.3,0.3c0.1,0.1,0.1,0.3,0.1,0.4c0,0.1,0.1,0.3,0.1,0.4c0,0.2,0,0.3,0,0.4
				c0,0.2-0.1,0.3-0.2,0.4c-0.1,0.1-0.1,0.2-0.2,0.3C16.6,12.6,16.5,12.7,16.4,12.7z"/>
			<path class="st2" d="M16.4,10.5c0.1,0,0.1,0,0.2,0.1c0.1,0,0.1,0.1,0.2,0.2c0,0.1,0.1,0.2,0.1,0.3c0,0.1,0,0.2,0,0.4s0,0.3,0,0.4
				c0,0.1-0.1,0.2-0.1,0.3c0,0.1-0.1,0.2-0.2,0.2c-0.1,0-0.1,0.1-0.2,0.1c-0.1,0-0.1,0-0.2-0.1c-0.1,0-0.1-0.1-0.2-0.2
				c0-0.1-0.1-0.2-0.1-0.3c0-0.1,0-0.2,0-0.4s0-0.3,0-0.4c0-0.1,0.1-0.2,0.1-0.3c0-0.1,0.1-0.2,0.2-0.2
				C16.2,10.5,16.3,10.5,16.4,10.5 M16.4,10c-0.2,0-0.4,0.1-0.5,0.2c-0.1,0.1-0.2,0.2-0.3,0.4c-0.1,0.1-0.1,0.2-0.2,0.4
				c0,0.2-0.1,0.3-0.1,0.5c0,0.2,0,0.4,0.1,0.5c0,0.2,0.1,0.3,0.2,0.4c0.1,0.2,0.2,0.3,0.3,0.4c0.1,0.1,0.3,0.2,0.5,0.2
				c0.2,0,0.4-0.1,0.5-0.2c0.1-0.1,0.2-0.2,0.3-0.4c0.1-0.1,0.1-0.3,0.2-0.4c0-0.1,0-0.3,0-0.5c0-0.2,0-0.4-0.1-0.5
				c0-0.2-0.1-0.3-0.2-0.5c-0.1-0.2-0.2-0.3-0.3-0.4C16.7,10.1,16.5,10,16.4,10L16.4,10z"/>
		</g>
		<g>
			<path class="st85" d="M20.3,8.4c-0.1,0-0.1,0-0.2-0.1l-2-1.9c-0.1-0.1-0.1-0.2,0-0.3c0.2-0.4,0.6-0.7,1.2-0.9
				c0.6-0.2,1.2-0.3,1.8-0.3c0.3,0,0.6,0,0.8,0.1c0.1,0,0.2,0.1,0.2,0.1c0,0.1,0,0.2,0,0.2c-0.2,0.3-0.3,0.7-0.5,1.1
				c0,0.1-0.1,0.3-0.2,0.4c-0.2,0.5-0.5,1.1-1,1.5C20.4,8.4,20.4,8.4,20.3,8.4z"/>
			<path class="st2" d="M21.1,5.2c0.3,0,0.5,0,0.8,0.1c-0.3,0.5-0.4,1-0.6,1.6c-0.2,0.5-0.5,1.1-0.9,1.4l-2-1.9
				c0.2-0.4,0.6-0.6,1-0.8C19.9,5.3,20.5,5.2,21.1,5.2 M21.1,4.7c-0.7,0-1.3,0.1-1.9,0.3c-0.6,0.2-1.1,0.6-1.3,1
				c-0.1,0.2-0.1,0.4,0.1,0.6l2,1.9c0.1,0.1,0.2,0.1,0.3,0.1c0.1,0,0.2,0,0.3-0.1c0.6-0.4,0.9-1.1,1.1-1.6c0.1-0.1,0.1-0.3,0.2-0.4
				c0.1-0.4,0.3-0.7,0.4-1c0.1-0.1,0.1-0.3,0-0.5c-0.1-0.2-0.2-0.3-0.4-0.3C21.7,4.7,21.4,4.7,21.1,4.7L21.1,4.7z"/>
		</g>
		<g>
			<path class="st83" d="M8.8,8.4c0,0-0.1,0-0.1,0C8,8,7.7,7.4,7.6,6.9C7.5,6.8,7.5,6.6,7.4,6.5C7.3,6.1,7.2,5.7,7,5.4
				c0-0.1,0-0.2,0-0.2C7,5.1,7,5,7.1,5C7.4,5,7.7,4.9,8,4.9c0.6,0,1.2,0.1,1.8,0.3c0.6,0.2,1,0.5,1.2,0.9c0.1,0.1,0,0.2,0,0.3
				l-2,1.9C8.9,8.4,8.8,8.4,8.8,8.4z"/>
			<path class="st2" d="M8,5.2c0.6,0,1.2,0.1,1.7,0.3c0.4,0.2,0.8,0.4,1,0.8l-2,1.9C8.3,7.9,8,7.4,7.8,6.8C7.6,6.3,7.5,5.7,7.2,5.3
				C7.4,5.2,7.7,5.2,8,5.2 M8,4.7c-0.3,0-0.6,0-0.9,0.1c-0.2,0-0.3,0.1-0.4,0.3c-0.1,0.2-0.1,0.3,0,0.5c0.2,0.3,0.3,0.7,0.4,1
				c0,0.1,0.1,0.3,0.2,0.4c0.2,0.5,0.5,1.2,1.1,1.6c0.1,0.1,0.2,0.1,0.3,0.1c0.1,0,0.3,0,0.3-0.1l2-1.9c0.2-0.2,0.2-0.4,0.1-0.6
				c-0.2-0.4-0.7-0.8-1.3-1C9.3,4.8,8.6,4.7,8,4.7L8,4.7z"/>
		</g>
		<g>
			<path class="st83" d="M21.5,7.4c-0.1,0-0.2-0.1-0.2-0.2c0-0.1-0.1-0.1-0.1-0.2l-0.1-0.1c-0.1-0.1-0.1-0.2-0.2-0.4
				c-0.2-0.4-0.4-0.8-0.7-1.1c0-0.1-0.1-0.1,0-0.2c0-0.1,0.1-0.1,0.1-0.2c0,0,0.1,0,0.1,0c0.2,0,0.5-0.1,0.7-0.1
				c0.3,0,0.6,0,0.8,0.1c0.1,0,0.2,0.1,0.2,0.1c0,0.1,0,0.1,0,0.2c0,0.6-0.1,1.3-0.4,1.9C21.7,7.3,21.6,7.4,21.5,7.4
				C21.5,7.4,21.5,7.4,21.5,7.4z"/>
			<path class="st2" d="M21.1,5.2c0.3,0,0.5,0,0.8,0.1l0,0l0,0c0,0.6-0.1,1.3-0.4,1.9c0-0.2-0.2-0.3-0.3-0.4
				c-0.1-0.1-0.1-0.2-0.2-0.4c-0.2-0.4-0.4-0.7-0.7-1.1l0,0C20.7,5.2,20.9,5.2,21.1,5.2 M21.1,4.7c-0.3,0-0.5,0-0.8,0.1
				c-0.1,0-0.2,0-0.2,0.1C20,4.9,20,5,19.9,5.2c0,0.1,0,0.3,0.1,0.4c0.2,0.3,0.4,0.7,0.6,1c0.1,0.2,0.2,0.3,0.3,0.4
				c0,0,0.1,0.1,0.1,0.1c0,0,0.1,0.1,0.1,0.1c0,0.2,0.2,0.4,0.4,0.4c0,0,0.1,0,0.1,0c0.2,0,0.4-0.1,0.5-0.3c0.3-0.6,0.4-1.3,0.4-2
				c0-0.1,0-0.3,0-0.4c-0.1-0.2-0.2-0.3-0.4-0.3C21.7,4.7,21.4,4.7,21.1,4.7L21.1,4.7z"/>
		</g>
		<g>
			<path class="st83" d="M7.5,7.4c-0.1,0-0.2-0.1-0.2-0.1C7,6.7,6.9,6,6.9,5.3c0-0.1,0-0.1,0-0.1C6.9,5.1,7,5,7.1,5
				C7.4,5,7.7,4.9,7.9,4.9c0.2,0,0.5,0,0.7,0.1c0,0,0.1,0,0.1,0c0.1,0,0.1,0.1,0.1,0.2c0,0.1,0,0.1,0,0.2C8.6,5.7,8.4,6.1,8.2,6.5
				C8.1,6.6,8.1,6.7,8,6.9L7.9,7C7.8,7,7.8,7.1,7.8,7.2C7.7,7.3,7.7,7.4,7.5,7.4C7.5,7.4,7.5,7.4,7.5,7.4z"/>
			<path class="st2" d="M7.9,5.2c0.2,0,0.5,0,0.7,0l0,0C8.4,5.6,8.2,6,8,6.3C7.9,6.5,7.9,6.6,7.8,6.7C7.7,6.8,7.5,7,7.5,7.2
				C7.2,6.6,7.1,5.9,7.2,5.3l0,0l0,0C7.4,5.2,7.7,5.2,7.9,5.2 M7.9,4.7c-0.3,0-0.6,0-0.9,0.1c-0.2,0-0.3,0.1-0.4,0.3
				c0,0.1-0.1,0.2,0,0.4c0,0.7,0.1,1.3,0.4,2c0.1,0.2,0.3,0.3,0.5,0.3c0,0,0.1,0,0.1,0C7.8,7.6,8,7.4,8,7.2c0,0,0,0,0,0
				c0,0,0,0,0.1-0.1c0,0,0.1-0.1,0.1-0.1c0.1-0.1,0.2-0.3,0.2-0.4C8.6,6.2,8.8,5.9,9,5.5c0.1-0.1,0.1-0.2,0.1-0.4
				C9.1,5,9,4.9,8.9,4.8c-0.1,0-0.2-0.1-0.2-0.1C8.4,4.7,8.2,4.7,7.9,4.7L7.9,4.7z"/>
		</g>
		<g class="st241">
			<path class="st83" d="M7.5,7.4c-0.1,0-0.2-0.1-0.2-0.1C7,6.7,6.9,6,6.9,5.3c0-0.1,0-0.1,0-0.1C6.9,5.1,7,5,7.1,5
				C7.4,5,7.7,4.9,7.9,4.9c0.2,0,0.5,0,0.7,0.1c0,0,0.1,0,0.1,0c0.1,0,0.1,0.1,0.1,0.2c0,0.1,0,0.1,0,0.2C8.6,5.7,8.4,6.1,8.2,6.5
				C8.1,6.6,8.1,6.7,8,6.9L7.9,7C7.8,7,7.8,7.1,7.8,7.2C7.7,7.3,7.7,7.4,7.5,7.4C7.5,7.4,7.5,7.4,7.5,7.4z"/>
			<path class="st2" d="M7.9,5.2c0.2,0,0.5,0,0.7,0l0,0C8.4,5.6,8.2,6,8,6.3C7.9,6.5,7.9,6.6,7.8,6.7C7.7,6.8,7.5,7,7.5,7.2
				C7.2,6.6,7.1,5.9,7.2,5.3l0,0l0,0C7.4,5.2,7.7,5.2,7.9,5.2 M7.9,4.7c-0.3,0-0.6,0-0.9,0.1c-0.2,0-0.3,0.1-0.4,0.3
				c0,0.1-0.1,0.2,0,0.4c0,0.7,0.1,1.3,0.4,2c0.1,0.2,0.3,0.3,0.5,0.3c0,0,0.1,0,0.1,0C7.8,7.6,8,7.4,8,7.2c0,0,0,0,0,0
				c0,0,0,0,0.1-0.1c0,0,0.1-0.1,0.1-0.1c0.1-0.1,0.2-0.3,0.2-0.4C8.6,6.2,8.8,5.9,9,5.5c0.1-0.1,0.1-0.2,0.1-0.4
				C9.1,5,9,4.9,8.9,4.8c-0.1,0-0.2-0.1-0.2-0.1C8.4,4.7,8.2,4.7,7.9,4.7L7.9,4.7z"/>
		</g>
		<g>
			<g>
				<path class="st83" d="M11.2,16.7c-0.6,0-1.1-0.2-1.4-0.6c-0.3-0.3-0.5-0.8-0.4-1.4c0-0.6,0.2-1.1,0.5-1.4
					c0.3-0.3,0.8-0.5,1.3-0.5c0.6,0,1,0.2,1.4,0.7c0.4,0.4,0.6,0.9,0.6,1.4c0,0.5-0.2,1-0.6,1.3C12.3,16.5,11.8,16.7,11.2,16.7
					C11.3,16.7,11.2,16.7,11.2,16.7z"/>
				<path class="st2" d="M11.3,13C11.3,13,11.4,13,11.3,13c0.5,0,0.9,0.3,1.2,0.6c0.3,0.3,0.5,0.7,0.5,1.2s-0.2,0.9-0.6,1.2
					c-0.3,0.3-0.7,0.4-1.1,0.4c0,0,0,0-0.1,0c-0.5,0-0.9-0.2-1.2-0.5s-0.4-0.8-0.4-1.3c0-0.5,0.1-0.9,0.5-1.2
					C10.4,13.2,10.9,13,11.3,13 M11.3,12.5C11.3,12.5,11.3,12.5,11.3,12.5c-0.6,0-1.1,0.2-1.5,0.6c-0.4,0.4-0.6,0.9-0.6,1.6
					c0,0.7,0.1,1.2,0.5,1.6c0.4,0.4,0.9,0.6,1.6,0.6l0.1,0c0.6,0,1.1-0.2,1.5-0.6c0.4-0.4,0.7-0.9,0.7-1.5c0-0.5-0.2-1.1-0.6-1.5
					C12.4,12.8,11.9,12.5,11.3,12.5L11.3,12.5L11.3,12.5z"/>
			</g>
			<g>
				<path class="st83" d="M20,16.7c-0.3,0-0.5-0.1-0.8-0.2c-0.5-0.2-0.9-0.6-1.1-1C18,15,18.1,14.5,18.3,14c0.2-0.6,0.6-0.9,1-1.1
					c0.2-0.1,0.4-0.1,0.7-0.1c0.3,0,0.6,0.1,0.9,0.2c0.4,0.2,0.7,0.6,1,1.1c0.2,0.5,0.2,1,0,1.5c-0.2,0.5-0.6,0.8-1.1,1
					C20.5,16.6,20.3,16.7,20,16.7z"/>
				<path class="st2" d="M20,13c0.3,0,0.5,0.1,0.8,0.2c0.4,0.2,0.7,0.6,0.8,1c0.2,0.4,0.2,0.8,0,1.3s-0.5,0.7-0.9,0.9
					c-0.2,0.1-0.4,0.1-0.6,0.1c-0.2,0-0.5,0-0.7-0.1c-0.4-0.2-0.8-0.5-1-0.9c-0.2-0.4-0.1-0.9,0.1-1.3s0.5-0.8,0.9-1
					C19.6,13.1,19.8,13,20,13 M20,12.5c-0.3,0-0.5,0-0.7,0.1c-0.5,0.2-0.9,0.6-1.2,1.2c-0.3,0.6-0.3,1.2-0.1,1.7
					c0.2,0.5,0.6,0.9,1.2,1.2c0.3,0.1,0.6,0.2,0.9,0.2c0.3,0,0.5,0,0.8-0.1c0.6-0.2,1-0.6,1.2-1.1c0.2-0.5,0.2-1.1,0-1.7
					c-0.2-0.6-0.6-1.1-1.1-1.3C20.6,12.6,20.3,12.5,20,12.5L20,12.5z"/>
			</g>
			<g>
				<path class="st88" d="M15.3,18.1l-0.1-0.3l0,0.2l-0.1,0c-0.1,0-0.2,0-0.3,0l-0.2,0c-0.2,0-0.3-0.1-0.5-0.1l-0.2-0.1l-0.2-0.1
					c-0.1,0-0.1-0.1-0.2-0.1c-0.1-0.1-0.2-0.1-0.2-0.1c-0.2-0.1-0.3-0.2-0.4-0.2c-0.2-0.1-0.4-0.3-0.6-0.5c-0.1-0.1-0.2-0.2-0.2-0.2
					l-0.2-0.2l-0.2-0.2L11.5,16c-0.1-0.1-0.1-0.2-0.2-0.3l-0.1-0.2c-0.1-0.2-0.1-0.6,0.2-0.7c0.1,0,0.2-0.1,0.3-0.1
					c0.2,0,0.3,0.1,0.4,0.2L12,15.3l0.2-0.2c0.1,0.1,0.1,0.1,0.2,0.2l0.1,0.1l0.1,0.1l0.2,0.2l0.2,0.2c0.1,0.1,0.3,0.2,0.5,0.3
					c0.2,0.1,0.4,0.2,0.6,0.3c0.2,0.1,0.4,0.1,0.7,0.2l0.3,0c0,0,0.2,0,0.2,0l0.3,0l0.2,0c0.1,0,0.1,0,0.2,0c0.1,0,0.2,0,0.3,0
					c0.3,0,0.5-0.1,0.7-0.2c0.2-0.1,0.4-0.2,0.6-0.3c0.2-0.1,0.4-0.2,0.5-0.3l0.2-0.2l0.2-0.2l0.2-0.2c0.1-0.1,0.1-0.2,0.2-0.2
					L19,15c0.1-0.1,0.3-0.2,0.4-0.2c0.1,0,0.2,0,0.3,0.1c0.2,0.2,0.3,0.5,0.1,0.7l-0.1,0.1c-0.1,0.1-0.1,0.2-0.2,0.3
					c-0.1,0.1-0.1,0.1-0.1,0.2l-0.2,0.2l-0.2,0.2c-0.1,0.1-0.2,0.2-0.3,0.3c-0.2,0.2-0.4,0.3-0.6,0.5c-0.1,0.1-0.2,0.1-0.3,0.2
					c-0.1,0.1-0.2,0.1-0.2,0.1c-0.1,0.1-0.2,0.1-0.3,0.1l-0.1,0L17,17.9c-0.1,0-0.3,0.1-0.5,0.1c-0.2,0-0.3,0.1-0.5,0.1
					c-0.1,0-0.2,0-0.2,0c0,0-0.2,0-0.3,0C15.5,18.1,15.3,18.1,15.3,18.1z"/>
				<path class="st2" d="M19.4,15.1c0.1,0,0.1,0,0.2,0.1c0.1,0.1,0.1,0.2,0.1,0.4l0,0c0,0,0,0-0.1,0.1c0,0.1-0.1,0.1-0.2,0.3
					c0,0.1-0.1,0.1-0.1,0.2c-0.1,0.1-0.1,0.1-0.2,0.2c-0.1,0.1-0.1,0.1-0.2,0.2c-0.1,0.1-0.2,0.1-0.2,0.2c-0.2,0.1-0.4,0.3-0.6,0.4
					c-0.1,0.1-0.2,0.1-0.4,0.2c-0.1,0-0.1,0.1-0.2,0.1c-0.1,0-0.1,0.1-0.2,0.1c-0.1,0-0.1,0.1-0.2,0.1c-0.1,0-0.1,0-0.2,0.1
					c-0.1,0-0.3,0.1-0.4,0.1c-0.2,0-0.3,0.1-0.5,0.1c-0.1,0-0.2,0-0.2,0l-0.2,0l-0.2,0c0,0-0.1,0-0.1,0l-0.1,0c-0.1,0-0.2,0-0.2,0
					c-0.1,0-0.2,0-0.2,0c-0.1,0-0.3-0.1-0.4-0.1c-0.1,0-0.1,0-0.2-0.1c-0.1,0-0.1-0.1-0.2-0.1c-0.1,0-0.1-0.1-0.2-0.1
					c-0.1,0-0.1-0.1-0.2-0.1c-0.1-0.1-0.2-0.1-0.4-0.2c-0.2-0.1-0.4-0.3-0.6-0.4c-0.1-0.1-0.2-0.2-0.2-0.2c-0.1-0.1-0.1-0.2-0.2-0.2
					c-0.1-0.1-0.1-0.1-0.2-0.2c0-0.1-0.1-0.1-0.1-0.2c-0.1-0.1-0.1-0.2-0.2-0.3c0-0.1-0.1-0.1-0.1-0.1c-0.1-0.1,0-0.3,0.1-0.3
					c0,0,0.1,0,0.1,0c0.1,0,0.1,0,0.2,0.1l0,0c0,0,0,0,0.1,0.1c0,0,0.1,0.1,0.2,0.2c0,0,0.1,0.1,0.1,0.1c0,0,0.1,0.1,0.2,0.2
					c0.1,0.1,0.1,0.1,0.2,0.2c0.1,0.1,0.1,0.1,0.2,0.2c0.2,0.1,0.3,0.2,0.5,0.3c0.2,0.1,0.4,0.2,0.6,0.3c0.2,0.1,0.5,0.1,0.7,0.2
					c0.1,0,0.1,0,0.2,0c0.1,0,0.1,0,0.2,0l0.1,0c0,0,0.1,0,0.1,0l0.2,0l0.2,0c0,0,0,0,0,0c0.1,0,0.1,0,0.2,0c0.1,0,0.3,0,0.4,0
					c0.3,0,0.5-0.1,0.7-0.2c0.2-0.1,0.4-0.2,0.6-0.3c0.2-0.1,0.4-0.2,0.5-0.3c0.1-0.1,0.2-0.1,0.2-0.2c0.1-0.1,0.1-0.1,0.2-0.2
					c0.1-0.1,0.1-0.1,0.2-0.2c0,0,0.1-0.1,0.1-0.1c0.1-0.1,0.1-0.2,0.2-0.2c0-0.1,0.1-0.1,0.1-0.1C19.2,15.1,19.3,15.1,19.4,15.1
					 M19.4,14.6C19.4,14.6,19.4,14.6,19.4,14.6c-0.2,0-0.5,0.1-0.6,0.3L18.7,15l0,0c0,0-0.1,0.1-0.1,0.1l-0.1,0.1c0,0,0,0-0.1,0.1
					l0,0l-0.1,0.1l-0.1,0.1l-0.1,0.1l-0.2,0.2c-0.1,0.1-0.3,0.2-0.5,0.3c-0.2,0.1-0.3,0.2-0.6,0.3c-0.2,0.1-0.4,0.1-0.6,0.2
					c-0.1,0-0.2,0-0.3,0c-0.1,0-0.1,0-0.2,0l-0.2,0l-0.2,0L15.3,17l0-0.5l-0.1,0l-0.1,0c0,0,0,0-0.1,0l-0.1,0l-0.1,0
					c-0.3,0-0.4-0.1-0.6-0.2c-0.2-0.1-0.4-0.2-0.6-0.3c-0.2-0.1-0.3-0.2-0.5-0.3l-0.1-0.1l-0.1-0.1l-0.2-0.1l0,0l-0.1-0.1
					c0,0,0,0-0.1-0.1l-0.1-0.1c-0.1-0.1-0.1-0.1-0.1-0.1l0,0l-0.1-0.1c-0.2-0.2-0.4-0.3-0.6-0.3c-0.1,0-0.3,0-0.4,0.1
					c-0.4,0.2-0.5,0.7-0.3,1l0.1,0.1l0,0.1c0,0.1,0.1,0.2,0.2,0.3l0,0c0,0,0.1,0.1,0.1,0.1l0.1,0.1l0.1,0.1l0.2,0.2l0.1,0.1
					c0.1,0.1,0.2,0.2,0.3,0.3c0.2,0.2,0.4,0.3,0.7,0.5c0.1,0.1,0.2,0.1,0.3,0.2l0.1,0c0.1,0,0.1,0.1,0.2,0.1c0,0,0,0,0,0
					c0.1,0,0.2,0.1,0.2,0.1l0.1,0l0.1,0l0.1,0l0.1,0c0.2,0.1,0.3,0.1,0.5,0.1l0.2,0c0.1,0,0.1,0,0.2,0l0.1,0l0.1,0c0,0,0.1,0,0.1,0
					l0.2,0l0.3,0c0.1,0,0.2,0,0.3,0c0.2,0,0.3,0,0.5-0.1c0.2,0,0.4-0.1,0.5-0.1l0.1,0l0.1,0l0.1,0l0.1,0c0.1,0,0.1-0.1,0.2-0.1
					l0.1,0c0.1,0,0.1-0.1,0.2-0.1l0.1,0c0.1-0.1,0.2-0.1,0.3-0.2c0.2-0.1,0.5-0.3,0.6-0.5c0.1-0.1,0.2-0.2,0.3-0.2l0.2-0.2l0.1-0.1
					l0.1-0.2l0.1-0.1c0-0.1,0.1-0.1,0.1-0.2l0,0c0.1-0.1,0.1-0.2,0.2-0.2c0,0,0,0,0-0.1l0.1-0.1c0.2-0.3,0.1-0.8-0.2-1
					C19.7,14.6,19.6,14.6,19.4,14.6L19.4,14.6z"/>
			</g>
			<g>
				<g>
					<g>
						<path class="st88" d="M10.6,9.8c-0.2,0-0.3-0.1-0.4-0.3c0-0.1,0-0.1,0-0.2c0-0.1,0-0.2,0-0.3c0-0.1,0-0.2,0-0.3
							c0-0.1,0-0.1,0-0.2c0-0.1,0-0.1,0-0.2c0-0.1,0.1-0.3,0.2-0.4c0.1-0.2,0.2-0.3,0.4-0.4c0.2-0.1,0.4-0.2,0.6-0.3l0.2,0.2l0-0.2
							l0.1,0.2l0-0.2c0,0,0.2,0,0.2,0c0.1,0,0.1,0,0.2,0c0.2,0.1,0.3,0.2,0.5,0.3c0.1,0.1,0.2,0.2,0.3,0.3c0,0.1,0.1,0.1,0.1,0.2
							c0,0,0,0.1,0.1,0.1c0.1,0.2,0.1,0.3,0.1,0.4c0,0.1,0,0.1,0,0.2c0,0.1,0,0.1,0,0.2c0,0.3-0.1,0.5-0.3,0.5c0,0,0,0,0,0
							c-0.2,0-0.3-0.1-0.4-0.2L12.3,9l-0.1-0.1c0,0-0.1-0.1-0.1-0.1c0,0-0.1-0.1-0.1-0.1l0.1-0.2L12,8.5c-0.1-0.1-0.1-0.1-0.2-0.2
							c-0.1,0-0.1-0.1-0.2-0.1c0,0,0,0-0.1,0c-0.1,0-0.1,0-0.2,0.1c0,0-0.1,0.1-0.1,0.1c0,0.1-0.1,0.1-0.1,0.2c0,0,0,0.1,0,0.1
							c0,0,0,0.1,0,0.1l-0.3,0l0.2,0.1l0,0.2l-0.3,0.1l0.3,0l0,0.1C11,9.6,10.9,9.8,10.6,9.8C10.6,9.8,10.6,9.8,10.6,9.8z"/>
						<path class="st2" d="M11.5,7.4C11.6,7.4,11.6,7.4,11.5,7.4l0.1,0c0.1,0,0.1,0,0.1,0c0,0,0.1,0,0.1,0c0.2,0.1,0.3,0.1,0.4,0.2
							c0.1,0.1,0.2,0.2,0.3,0.3c0,0.1,0.1,0.1,0.1,0.2c0,0.1,0.1,0.1,0.1,0.2c0,0.1,0.1,0.2,0.1,0.3c0,0.1,0,0.2,0.1,0.2
							c0,0.1,0,0.1,0,0.1c0,0,0,0.1,0,0.1c0,0.1-0.1,0.2-0.1,0.2c0,0,0,0,0,0c-0.1,0-0.1,0-0.1-0.1l0,0c0,0,0-0.1-0.1-0.2
							c0,0,0-0.1-0.1-0.2c0,0,0-0.1-0.1-0.1c0,0,0-0.1-0.1-0.1c0,0,0-0.1-0.1-0.1c0,0,0,0,0-0.1c0,0,0,0,0-0.1
							C12.1,8.2,12,8.2,12,8.1C11.9,8,11.8,8,11.7,8c0,0,0,0-0.1,0l0,0l0,0l0,0c0,0,0,0,0,0c0,0,0,0,0,0l0,0c0,0,0,0,0,0l0,0l0,0
							l0,0l0,0c0,0,0,0,0,0c0,0,0,0,0,0s0,0,0,0l0,0l0,0l0,0l0,0c-0.1,0-0.1,0-0.2,0.1c-0.1,0.1-0.1,0.1-0.2,0.2
							C11,8.3,11,8.4,11,8.5c0,0,0,0,0,0.1c0,0,0,0,0,0.1c0,0,0,0.1,0,0.1c0,0,0,0.1,0,0.1c0,0,0,0.1,0,0.1c0,0.1,0,0.1,0,0.2
							c0,0.1,0,0.1,0,0.1c0,0,0,0,0,0l0,0c0,0.1-0.1,0.1-0.2,0.1c0,0,0,0,0,0c-0.1,0-0.1-0.1-0.1-0.1c0,0,0,0,0,0c0,0,0-0.1,0-0.1
							c0-0.1,0-0.1,0-0.2c0-0.1,0-0.2,0-0.3c0-0.1,0-0.1,0-0.2c0-0.1,0-0.1,0-0.2c0-0.1,0.1-0.3,0.2-0.4c0.1-0.1,0.2-0.2,0.3-0.3
							c0.1-0.1,0.3-0.2,0.5-0.2l0,0l0,0l0,0L11.5,7.4L11.5,7.4L11.5,7.4C11.5,7.4,11.5,7.4,11.5,7.4 M11.5,8L11.5,8 M11.5,8
							C11.5,8,11.5,8,11.5,8L11.5,8C11.5,8,11.5,8,11.5,8"/>
					</g>
				</g>
			</g>
			<g>
				<g>
					<g>
						<path class="st88" d="M20.4,9.4C20.4,9.4,20.4,9.4,20.4,9.4c0-0.1,0-0.1,0-0.2c0-0.1,0-0.1,0-0.2c0-0.1,0-0.2,0-0.3
							c0-0.1,0-0.1,0-0.2c0-0.1,0-0.1,0-0.2c0-0.1-0.1-0.3-0.2-0.4c-0.1-0.1-0.2-0.2-0.3-0.3c-0.1-0.1-0.3-0.2-0.5-0.2l0,0l0,0l0,0
							l0,0l0,0l0,0c0,0,0,0-0.1,0l-0.1,0c-0.1,0-0.1,0-0.1,0c0,0-0.1,0-0.1,0c-0.2,0.1-0.3,0.1-0.4,0.2c-0.1,0.1-0.2,0.2-0.3,0.3
							c0,0.1-0.1,0.1-0.1,0.2c0,0.1-0.1,0.1-0.1,0.2c0,0.1-0.1,0.2-0.1,0.3c0,0.1,0,0.2-0.1,0.2c0,0.1,0,0.1,0,0.1C18,9,18,9,18,9
							c0,0.1,0.1,0.2,0.1,0.2c0.1,0,0.1,0,0.2-0.1l0,0c0,0,0-0.1,0.1-0.2c0,0,0-0.1,0.1-0.2c0,0,0-0.1,0.1-0.1c0,0,0-0.1,0.1-0.1
							c0,0,0-0.1,0.1-0.1c0,0,0,0,0-0.1c0,0,0,0,0-0.1c0.1-0.1,0.1-0.1,0.2-0.2C19,8,19.1,8,19.2,8c0,0,0,0,0.1,0l0,0l0,0l0,0
							c0,0,0,0,0,0l0,0c0,0,0,0,0,0l0,0l0,0l0,0l0,0l0,0l0,0l0,0c0,0,0,0,0,0c0.1,0,0.1,0,0.2,0.1c0.1,0.1,0.1,0.1,0.2,0.2
							c0.1,0.1,0.1,0.2,0.1,0.2c0,0,0,0,0,0.1c0,0,0,0,0,0.1c0,0,0,0.1,0,0.1c0,0,0,0.1,0,0.1c0,0,0,0.1,0,0.1c0,0.1,0,0.1,0,0.2
							c0,0.1,0,0.1,0,0.1c0,0,0,0,0,0l0,0c0,0.1,0.1,0.2,0.2,0.1C20.4,9.5,20.4,9.5,20.4,9.4z"/>
						<path class="st2" d="M19.4,7.4C19.4,7.4,19.4,7.4,19.4,7.4L19.4,7.4L19.4,7.4l0.1,0l0,0l0,0l0,0c0.2,0,0.3,0.1,0.5,0.2
							c0.1,0.1,0.2,0.2,0.3,0.3c0.1,0.1,0.1,0.3,0.2,0.4c0,0.1,0,0.1,0,0.2c0,0.1,0,0.1,0,0.2c0,0.1,0,0.2,0,0.3c0,0.1,0,0.2,0,0.2
							c0,0.1,0,0.1,0,0.1c0,0,0,0,0,0c0,0.1-0.1,0.1-0.1,0.1c0,0,0,0,0,0c-0.1,0-0.2-0.1-0.2-0.1l0,0c0,0,0,0,0,0c0,0,0-0.1,0-0.1
							c0-0.1,0-0.1,0-0.2c0,0,0-0.1,0-0.1c0,0,0-0.1,0-0.1c0,0,0-0.1,0-0.1c0,0,0,0,0-0.1c0,0,0,0,0-0.1c0-0.1-0.1-0.2-0.1-0.2
							c-0.1-0.1-0.1-0.1-0.2-0.2C19.6,8,19.5,8,19.4,8l0,0l0,0l0,0l0,0c0,0,0,0,0,0s0,0,0,0c0,0,0,0,0,0l0,0l0,0l0,0l0,0
							c0,0,0,0,0,0l0,0c0,0,0,0,0,0c0,0,0,0,0,0l0,0l0,0l0,0c0,0,0,0-0.1,0C19.1,8,19,8,18.9,8.1c-0.1,0.1-0.2,0.1-0.2,0.2
							c0,0,0,0,0,0.1c0,0,0,0,0,0.1c0,0-0.1,0.1-0.1,0.1c0,0,0,0.1-0.1,0.1c0,0,0,0.1-0.1,0.1c0,0.1-0.1,0.1-0.1,0.2
							C18.3,9,18.3,9,18.3,9l0,0c0,0.1-0.1,0.1-0.1,0.1c0,0,0,0,0,0C18,9.1,18,9.1,18,9c0,0,0,0,0-0.1c0,0,0-0.1,0-0.1
							c0-0.1,0-0.1,0.1-0.2c0-0.1,0.1-0.2,0.1-0.3c0,0,0-0.1,0.1-0.2c0-0.1,0.1-0.1,0.1-0.2c0.1-0.1,0.2-0.2,0.3-0.3
							c0.1-0.1,0.2-0.2,0.4-0.2c0,0,0.1,0,0.1,0c0,0,0.1,0,0.1,0L19.4,7.4C19.3,7.4,19.4,7.4,19.4,7.4 M19.4,8C19.4,8,19.4,8,19.4,8
							L19.4,8C19.4,8,19.4,8,19.4,8 M19.4,6.9C19.4,6.9,19.3,6.9,19.4,6.9l-0.1,0c-0.1,0-0.1,0-0.2,0c-0.1,0-0.2,0-0.2,0.1
							c-0.2,0.1-0.4,0.2-0.6,0.3c-0.1,0.1-0.3,0.2-0.4,0.4c0,0.1-0.1,0.1-0.1,0.2c0,0,0,0.1-0.1,0.1c-0.1,0.2-0.1,0.3-0.2,0.4
							c0,0.1,0,0.1,0,0.2c0,0,0,0.1,0,0.1c0,0.1,0,0.1,0,0.2l0,0.1c0,0.2,0,0.3,0.1,0.5c0.1,0.1,0.3,0.2,0.4,0.2c0,0,0.1,0,0.1,0
							c0.3,0,0.5-0.2,0.6-0.4l0.1-0.2l0,0c0,0,0-0.1,0-0.1l0-0.1c0,0,0,0,0-0.1c0,0,0-0.1,0-0.1l0.1-0.1c0,0,0,0,0,0
							c0,0,0.1-0.1,0.1-0.1c0,0,0,0,0.1,0c0,0,0,0,0,0c0,0,0,0,0,0l0,0c0,0,0,0,0,0c0,0,0.1,0.1,0.1,0.1c0,0,0.1,0.1,0.1,0.2
							c0,0,0,0,0,0.1l0,0.1c0,0,0,0.1,0,0.1c0,0.1,0,0.1,0,0.1c0,0,0,0.1,0,0.1c0,0,0,0.1,0,0.1l0,0.1l0,0c0,0,0,0,0,0.1l0.5,0
							l-0.5,0c0,0.3,0.3,0.6,0.7,0.6c0.3,0,0.6-0.2,0.6-0.5c0,0,0-0.1,0-0.1c0,0,0-0.1,0-0.2c0,0,0-0.1,0-0.1c0-0.1,0-0.1,0-0.2
							c0-0.1,0-0.2,0-0.4c0-0.1,0-0.2,0-0.2c0-0.1,0-0.1-0.1-0.2c0-0.2-0.1-0.3-0.2-0.5c-0.1-0.2-0.2-0.3-0.4-0.5
							c-0.2-0.2-0.4-0.3-0.7-0.3c0,0-0.1,0-0.1,0C19.5,6.9,19.4,6.9,19.4,6.9C19.4,6.9,19.4,6.9,19.4,6.9
							C19.4,6.9,19.4,6.9,19.4,6.9L19.4,6.9z"/>
					</g>
				</g>
			</g>
		</g>
	</g>
	<g>
		<g>
			<g>
				<g>
					<path class="st85" d="M22.5,12.8c0,1.1-0.1,2.2-0.5,3.2c-0.4,1-1.2,1.8-1.9,2.6c-0.8,0.8-1.6,1.3-2.6,1.7c-1,0.4-2,0.9-3.1,0.9
						c-1.1,0-2.2-0.4-3.1-0.8c-1-0.4-1.8-1.1-2.6-1.8c-0.8-0.8-1.4-1.6-1.8-2.6c-0.4-1-0.7-2-0.7-3.1s0.2-2.2,0.6-3.2
						c0.4-1,1.1-1.8,1.9-2.6c0.8-0.8,1.6-1.4,2.6-1.8c1-0.4,2-0.6,3.1-0.6s2.1,0.3,3.1,0.7c1,0.4,2,0.9,2.8,1.6
						c0.8,0.8,1.2,1.8,1.6,2.8C22.2,10.7,22.5,11.7,22.5,12.8z"/>
					<g>
						<path class="st83" d="M16.1,20c-1,0-2-0.3-3-0.7c-0.9-0.4-1.7-1-2.4-1.7C10,16.9,9.4,16.1,9,15.1c-0.4-0.9-0.7-1.9-0.7-2.9
							s0.2-2.1,0.6-3c0.4-0.9,1.1-1.7,1.8-2.4c0.7-0.7,1.5-1.3,2.5-1.7c0.5-0.2,1-0.3,1.5-0.4c-0.1,0-0.2,0-0.3,0
							c-1.1,0-2.2,0.2-3.1,0.6c-1,0.4-1.9,1.1-2.6,1.8C7.9,7.8,7.1,8.6,6.7,9.6c-0.4,1-0.6,2.1-0.6,3.2c0,1.1,0.3,2.1,0.7,3.1
							c0.4,1,1,1.9,1.8,2.6c0.8,0.8,1.6,1.4,2.6,1.8c1,0.4,2,0.8,3.1,0.8s2.1-0.5,3.1-0.9c0.8-0.3,1.5-0.7,2.2-1.3
							c-0.2,0.1-0.4,0.2-0.6,0.3C18.1,19.6,17.2,20,16.1,20z"/>
					</g>
				</g>
				<path class="st86" d="M13.5,6.2c0,0,0,0,0.1-0.1C13.7,6,13.8,5.9,14,5.8c0.2-0.1,0.4-0.2,0.6-0.2c0.2-0.1,0.5-0.1,0.7-0.1h0.1
					l0.1,0c0.1,0,0.1,0,0.2,0c0.1,0,0.1,0,0.2,0c0.1,0,0.1,0,0.2,0c0.1,0,0.2,0.1,0.3,0.1c0.1,0,0.2,0.1,0.3,0.1
					c0.2,0.1,0.3,0.2,0.4,0.3c0,0,0.1,0.1,0.1,0.1c0,0,0,0,0,0s-0.1,0-0.2,0c-0.1,0-0.1,0-0.2,0c-0.1,0-0.2,0-0.2,0
					c-0.1,0-0.2,0-0.3,0c-0.1,0-0.2,0-0.3,0c-0.1,0-0.1,0-0.2,0c-0.1,0-0.1,0-0.2,0c-0.1,0-0.1,0-0.2,0l-0.1,0c0,0-0.1,0-0.1,0
					c-0.4-0.1-0.9,0-1.2,0c-0.2,0-0.3,0-0.4,0C13.6,6.2,13.5,6.2,13.5,6.2C13.5,6.2,13.5,6.2,13.5,6.2z"/>
			</g>
			<g>
				<path class="st87" d="M15.5,13.8c-0.5,0-0.9,0-1.3-0.1c-0.4-0.1-0.7-0.3-1.1-0.5c-0.3-0.2-0.5-0.5-0.7-0.8
					c-0.2-0.3-0.4-0.6-0.4-0.9s0.1-0.6,0.3-0.9c0.2-0.3,0.4-0.5,0.8-0.7c0.3-0.2,0.7-0.4,1.1-0.5c0.4-0.1,0.8-0.2,1.3-0.2
					c0.5,0,0.9,0.1,1.3,0.2c0.4,0.1,0.8,0.3,1.1,0.5c0.3,0.2,0.6,0.5,0.8,0.7c0.2,0.3,0.3,0.6,0.3,0.9c0,0.3-0.1,0.6-0.3,0.9
					c-0.2,0.3-0.4,0.6-0.7,0.8c-0.3,0.2-0.7,0.3-1.1,0.4C16.3,13.7,15.9,13.8,15.5,13.8z"/>
			</g>
		</g>
		<path class="st88" d="M15.4,11.5c0,0.1,0,0.3,0,0.4c0,0.1-0.1,0.2-0.1,0.3c0,0.1-0.1,0.2-0.2,0.2c-0.1,0-0.1,0.1-0.2,0.1
			c-0.1,0-0.1,0-0.2-0.1c-0.1,0-0.1-0.1-0.2-0.2c0-0.1-0.1-0.2-0.1-0.3c0-0.1,0-0.2,0-0.4c0-0.1,0-0.3,0-0.4c0-0.1,0.1-0.2,0.1-0.3
			c0-0.1,0.1-0.2,0.2-0.2c0.1,0,0.1-0.1,0.2-0.1c0.1,0,0.1,0,0.2,0.1c0.1,0,0.1,0.1,0.2,0.2c0,0.1,0.1,0.2,0.1,0.3
			C15.4,11.2,15.4,11.3,15.4,11.5z"/>
		<path class="st88" d="M16.9,11.5c0,0.1,0,0.3,0,0.4c0,0.1-0.1,0.2-0.1,0.3c0,0.1-0.1,0.2-0.2,0.2c-0.1,0-0.1,0.1-0.2,0.1
			c-0.1,0-0.1,0-0.2-0.1c-0.1,0-0.1-0.1-0.2-0.2c0-0.1-0.1-0.2-0.1-0.3c0-0.1,0-0.2,0-0.4c0-0.1,0-0.3,0-0.4c0-0.1,0.1-0.2,0.1-0.3
			c0-0.1,0.1-0.2,0.2-0.2c0.1,0,0.1-0.1,0.2-0.1s0.1,0,0.2,0.1c0.1,0,0.1,0.1,0.2,0.2c0,0.1,0.1,0.2,0.1,0.3
			C16.9,11.2,16.9,11.3,16.9,11.5z"/>
		<path class="st85" d="M19.4,5.5c-0.4,0.2-0.8,0.4-1,0.8l2,1.9c0.5-0.3,0.7-0.8,0.9-1.4c0.2-0.5,0.3-1.1,0.6-1.6
			C21.1,5.1,20.2,5.2,19.4,5.5z"/>
		<path class="st83" d="M9.7,5.5c0.4,0.2,0.8,0.4,1,0.8l-2,1.9C8.3,7.9,8,7.4,7.8,6.8C7.6,6.3,7.5,5.7,7.2,5.3
			C8,5.1,8.9,5.2,9.7,5.5z"/>
		<path class="st83" d="M21.9,5.3L21.9,5.3c-0.5-0.1-1-0.1-1.5,0l0,0c0.2,0.4,0.5,0.7,0.7,1.1c0.1,0.1,0.1,0.3,0.2,0.4
			c0.1,0.1,0.3,0.3,0.3,0.4C21.8,6.6,21.9,5.9,21.9,5.3L21.9,5.3z"/>
		<path class="st83" d="M7.1,5.3L7.1,5.3c0.5-0.1,1-0.1,1.5,0l0,0C8.4,5.6,8.2,6,8,6.3C7.9,6.5,7.9,6.6,7.8,6.7
			C7.7,6.8,7.5,7,7.5,7.2C7.2,6.6,7.1,5.9,7.1,5.3L7.1,5.3z"/>
		<path class="st84" d="M7.1,5.3L7.1,5.3c0.5-0.1,1-0.1,1.5,0l0,0C8.4,5.6,8.2,6,8,6.3C7.9,6.5,7.9,6.6,7.8,6.7
			C7.7,6.8,7.5,7,7.5,7.2C7.2,6.6,7.1,5.9,7.1,5.3L7.1,5.3z"/>
		<g>
			<path class="st83" d="M13,14.8c0,0.5-0.2,0.9-0.6,1.2s-0.7,0.5-1.2,0.4c-0.5,0-0.9-0.2-1.2-0.5c-0.3-0.3-0.4-0.8-0.4-1.3
				c0-0.5,0.1-0.9,0.5-1.2c0.3-0.3,0.8-0.5,1.3-0.4c0.5,0,0.8,0.3,1.1,0.6C12.8,14,13,14.4,13,14.8z"/>
			<path class="st83" d="M21.6,15.4c-0.2,0.4-0.5,0.7-0.9,0.9c-0.4,0.2-0.9,0.2-1.3,0c-0.4-0.2-0.8-0.5-0.9-0.9
				c-0.2-0.4-0.1-0.9,0.1-1.3c0.2-0.4,0.5-0.8,0.9-1c0.4-0.2,0.9-0.1,1.3,0.1c0.4,0.2,0.7,0.6,0.8,1C21.7,14.6,21.8,15,21.6,15.4z"
				/>
			<path class="st88" d="M19.6,15.5C19.6,15.5,19.6,15.6,19.6,15.5c-0.1,0.1-0.1,0.2-0.2,0.3c0,0.1-0.1,0.1-0.1,0.2
				c-0.1,0.1-0.1,0.1-0.2,0.2c-0.1,0.1-0.1,0.1-0.2,0.2c-0.1,0.1-0.2,0.1-0.2,0.2c-0.2,0.1-0.4,0.3-0.6,0.4
				c-0.1,0.1-0.2,0.1-0.4,0.2c-0.1,0-0.1,0.1-0.2,0.1c-0.1,0-0.1,0.1-0.2,0.1c-0.1,0-0.1,0.1-0.2,0.1c-0.1,0-0.1,0-0.2,0.1
				c-0.1,0-0.3,0.1-0.4,0.1c-0.2,0-0.3,0.1-0.5,0.1c-0.1,0-0.2,0-0.2,0l-0.2,0l-0.2,0c0,0-0.1,0-0.1,0l-0.1,0c-0.1,0-0.2,0-0.2,0
				c-0.1,0-0.2,0-0.2,0c-0.1,0-0.3-0.1-0.4-0.1c-0.1,0-0.1,0-0.2-0.1c-0.1,0-0.1-0.1-0.2-0.1c-0.1,0-0.1-0.1-0.2-0.1
				c-0.1,0-0.1-0.1-0.2-0.1c-0.1-0.1-0.2-0.1-0.4-0.2c-0.2-0.1-0.4-0.3-0.6-0.4c-0.1-0.1-0.2-0.2-0.2-0.2c-0.1-0.1-0.1-0.2-0.2-0.2
				c-0.1-0.1-0.1-0.1-0.2-0.2c0-0.1-0.1-0.1-0.1-0.2c-0.1-0.1-0.1-0.2-0.2-0.3c0-0.1-0.1-0.1-0.1-0.1c-0.1-0.1,0-0.3,0.1-0.3
				c0.1-0.1,0.2,0,0.3,0.1l0,0c0,0,0,0,0.1,0.1c0,0,0.1,0.1,0.2,0.2c0,0,0.1,0.1,0.1,0.1c0,0,0.1,0.1,0.2,0.2
				c0.1,0.1,0.1,0.1,0.2,0.2c0.1,0.1,0.1,0.1,0.2,0.2c0.2,0.1,0.3,0.2,0.5,0.3c0.2,0.1,0.4,0.2,0.6,0.3c0.2,0.1,0.5,0.1,0.7,0.2
				c0.1,0,0.1,0,0.2,0c0.1,0,0.1,0,0.2,0l0.1,0c0,0,0.1,0,0.1,0l0.2,0l0.2,0c0.1,0,0.1,0,0.2,0c0.1,0,0.3,0,0.4,0
				c0.3,0,0.5-0.1,0.7-0.2c0.2-0.1,0.4-0.2,0.6-0.3c0.2-0.1,0.4-0.2,0.5-0.3c0.1-0.1,0.2-0.1,0.2-0.2c0.1-0.1,0.1-0.1,0.2-0.2
				c0.1-0.1,0.1-0.1,0.2-0.2c0,0,0.1-0.1,0.1-0.1c0.1-0.1,0.1-0.2,0.2-0.2c0-0.1,0.1-0.1,0.1-0.1c0.1-0.1,0.3-0.1,0.4,0
				C19.7,15.2,19.7,15.4,19.6,15.5L19.6,15.5z"/>
			<g>
				<g>
					<path class="st88" d="M10.5,9.4C10.5,9.4,10.5,9.4,10.5,9.4c0-0.1,0-0.1,0-0.2c0-0.1,0-0.1,0-0.2c0-0.1,0-0.2,0-0.3
						c0-0.1,0-0.1,0-0.2c0-0.1,0-0.1,0-0.2c0-0.1,0.1-0.3,0.2-0.4c0.1-0.1,0.2-0.2,0.3-0.3c0.1-0.1,0.3-0.2,0.5-0.2l0,0l0,0l0,0l0,0
						l0,0l0,0c0,0,0,0,0.1,0l0.1,0c0.1,0,0.1,0,0.1,0c0,0,0.1,0,0.1,0c0.2,0.1,0.3,0.1,0.4,0.2c0.1,0.1,0.2,0.2,0.3,0.3
						c0,0.1,0.1,0.1,0.1,0.2c0,0.1,0.1,0.1,0.1,0.2c0,0.1,0.1,0.2,0.1,0.3c0,0.1,0,0.2,0.1,0.2c0,0.1,0,0.1,0,0.1c0,0,0,0.1,0,0.1
						c0,0.1-0.1,0.2-0.1,0.2c-0.1,0-0.1,0-0.2-0.1l0,0c0,0,0-0.1-0.1-0.2c0,0,0-0.1-0.1-0.2c0,0,0-0.1-0.1-0.1c0,0,0-0.1-0.1-0.1
						c0,0,0-0.1-0.1-0.1c0,0,0,0,0-0.1c0,0,0,0,0-0.1C12.1,8.2,12,8.2,12,8.1C11.9,8,11.8,8,11.7,8c0,0,0,0-0.1,0l0,0l0,0l0,0
						c0,0,0,0,0,0l0,0c0,0,0,0,0,0l0,0l0,0l0,0l0,0l0,0l0,0l0,0c0,0,0,0,0,0c-0.1,0-0.1,0-0.2,0.1c-0.1,0.1-0.1,0.1-0.2,0.2
						C11,8.3,11,8.4,11,8.5c0,0,0,0,0,0.1c0,0,0,0,0,0.1c0,0,0,0.1,0,0.1c0,0,0,0.1,0,0.1c0,0,0,0.1,0,0.1c0,0.1,0,0.1,0,0.2
						c0,0.1,0,0.1,0,0.1c0,0,0,0,0,0l0,0c0,0.1-0.1,0.2-0.2,0.1C10.6,9.5,10.5,9.5,10.5,9.4z"/>
				</g>
			</g>
			<g>
				<g>
					<path class="st88" d="M20.4,9.4C20.4,9.4,20.4,9.4,20.4,9.4c0-0.1,0-0.1,0-0.2c0-0.1,0-0.1,0-0.2c0-0.1,0-0.2,0-0.3
						c0-0.1,0-0.1,0-0.2c0-0.1,0-0.1,0-0.2c0-0.1-0.1-0.3-0.2-0.4c-0.1-0.1-0.2-0.2-0.3-0.3c-0.1-0.1-0.3-0.2-0.5-0.2l0,0l0,0l0,0
						l0,0l0,0l0,0c0,0,0,0-0.1,0l-0.1,0c-0.1,0-0.1,0-0.1,0c0,0-0.1,0-0.1,0c-0.2,0.1-0.3,0.1-0.4,0.2c-0.1,0.1-0.2,0.2-0.3,0.3
						c0,0.1-0.1,0.1-0.1,0.2c0,0.1-0.1,0.1-0.1,0.2c0,0.1-0.1,0.2-0.1,0.3c0,0.1,0,0.2-0.1,0.2c0,0.1,0,0.1,0,0.1C18,9,18,9,18,9
						c0,0.1,0.1,0.2,0.1,0.2c0.1,0,0.1,0,0.2-0.1l0,0c0,0,0-0.1,0.1-0.2c0,0,0-0.1,0.1-0.2c0,0,0-0.1,0.1-0.1c0,0,0-0.1,0.1-0.1
						c0,0,0-0.1,0.1-0.1c0,0,0,0,0-0.1c0,0,0,0,0-0.1c0.1-0.1,0.1-0.1,0.2-0.2C19,8,19.1,8,19.2,8c0,0,0,0,0.1,0l0,0l0,0l0,0
						c0,0,0,0,0,0l0,0c0,0,0,0,0,0l0,0l0,0l0,0l0,0l0,0l0,0l0,0c0,0,0,0,0,0c0.1,0,0.1,0,0.2,0.1c0.1,0.1,0.1,0.1,0.2,0.2
						c0.1,0.1,0.1,0.2,0.1,0.2c0,0,0,0,0,0.1c0,0,0,0,0,0.1c0,0,0,0.1,0,0.1c0,0,0,0.1,0,0.1c0,0,0,0.1,0,0.1c0,0.1,0,0.1,0,0.2
						c0,0.1,0,0.1,0,0.1c0,0,0,0,0,0l0,0c0,0.1,0.1,0.2,0.2,0.1C20.4,9.5,20.4,9.5,20.4,9.4z"/>
				</g>
			</g>
		</g>
	</g>
	<polygon class="st0" points="14.4,27.8 12.6,24.6 10.7,21.5 14.4,21.5 18,21.5 16.2,24.6 	"/>
</g>
<g id="Layer_3">
</g>
</svg>
