<?xml version="1.0" encoding="utf-8"?>
<!-- Generator: Adobe Illustrator 22.1.0, SVG Export Plug-In . SVG Version: 6.00 Build 0)  -->
<svg version="1.1" xmlns="http://www.w3.org/2000/svg" xmlns:xlink="http://www.w3.org/1999/xlink" x="0px" y="0px"
	 viewBox="0 0 30 30" style="enable-background:new 0 0 30 30;" xml:space="preserve">
<style type="text/css">
	.st0{fill:#D6D6D6;}
	.st1{fill:#80F0F9;}
	.st2{fill:#FFFFFF;}
	.st3{fill:#43CCDE;}
	.st4{fill:#32ABBA;}
	.st5{fill:#FF9D47;}
	.st6{fill:#4D4D4D;}
	.st7{fill:#34495E;}
	.st8{fill:#97F58F;}
	.st9{fill:#42CF25;}
	.st10{fill:#FFA6A6;}
	.st11{fill:#AB5C16;}
	.st12{fill:#FFDB8C;}
	.st13{fill:#D1D1D1;}
	.st14{fill:#72706F;}
	.st15{fill:#A05000;}
	.st16{fill:#693908;}
	.st17{fill:#C89D50;}
	.st18{fill:#4E9B34;}
	.st19{fill:#97C62F;}
	.st20{fill:#593968;}
	.st21{fill:#D5B3C3;}
	.st22{fill:#FCD22C;}
	.st23{fill:#FCDB94;}
	.st24{fill:#F3DAAE;}
	.st25{fill:#DBE1AC;}
	.st26{fill:#E4343A;}
	.st27{fill:#E3C6D3;}
	.st28{fill:#D2DB93;}
	.st29{fill:#FDE5AE;}
	.st30{fill:none;stroke:#F6D492;stroke-width:0.7714;stroke-linecap:round;stroke-linejoin:round;stroke-miterlimit:10;}
	.st31{fill:#CAB59F;}
	.st32{fill:#B41529;}
	.st33{fill:#D81F35;}
	.st34{fill:#F8BB00;}
	.st35{fill:#8DC21F;}
	.st36{fill:#951B08;}
	.st37{fill:#E6D8DF;}
	.st38{fill:#E5E5E6;}
	.st39{fill:#E5E4A9;}
	.st40{fill:#EFE9E9;}
	.st41{fill:#FBC8D1;}
	.st42{fill:#FBD4D9;}
	.st43{fill:#F9B9C7;}
	.st44{fill:#DD8CA5;}
	.st45{fill:#E8E8E8;}
	.st46{fill:#444343;}
	.st47{fill:#F4F1ED;}
	.st48{fill:#EFE2D5;}
	.st49{fill:#DDC8B6;}
	.st50{fill:#C1AA95;}
	.st51{fill:#FFCC57;}
	.st52{fill:#7E4A23;}
	.st53{fill:#FFF6B5;}
	.st54{clip-path:url(#SVGID_2_);}
	.st55{fill:#F99C15;}
	.st56{fill:#A2D063;}
	.st57{fill:#6FA536;}
	.st58{fill:#3D3D3D;}
	.st59{fill:#EFEFEF;}
	.st60{fill:#925D00;}
	.st61{fill:#F5B456;}
	.st62{fill:#E66B3E;}
	.st63{fill:#F7CC8C;}
	.st64{fill:#C77B00;}
	.st65{fill:#908F93;}
	.st66{fill:#E5C5DD;}
	.st67{fill:#6B6B6D;}
	.st68{fill:#F29700;}
	.st69{clip-path:url(#SVGID_4_);fill:#FEFEFE;}
	.st70{clip-path:url(#SVGID_4_);}
	.st71{fill:#670004;}
	.st72{fill:#B7B7BC;}
	.st73{fill:#E96D46;}
	.st74{fill:#F9EFE5;}
	.st75{fill:#BDAA9A;}
	.st76{fill:#DDCCBF;}
	.st77{fill:#4B6A76;}
	.st78{opacity:0.43;fill:url(#SVGID_5_);}
	.st79{fill:#F4E4E4;}
	.st80{fill:#FF8788;}
	.st81{fill:#261D1D;}
	.st82{opacity:0.5;}
	.st83{fill:#F7A7AA;}
	.st84{opacity:0.3;fill:#F7A7AA;}
	.st85{fill:#FABFBF;}
	.st86{opacity:0.5;fill:#F7A7AA;}
	.st87{fill:#F37B87;}
	.st88{fill:#943436;}
	.st89{fill:#F6A0A4;}
	.st90{fill:url(#SVGID_8_);}
	.st91{fill:url(#SVGID_9_);}
	.st92{fill:#E20E46;}
	.st93{fill:#EDEDED;}
	.st94{fill:#F9747E;}
	.st95{fill:#E44C5F;}
	.st96{clip-path:url(#SVGID_13_);}
	.st97{fill:#85C459;}
	.st98{clip-path:url(#SVGID_15_);fill:#FFFFFF;}
	.st99{clip-path:url(#SVGID_17_);fill:#F74F5C;}
	.st100{fill:#CCCCCC;}
	.st101{clip-path:url(#SVGID_19_);fill:#53BEE3;}
	.st102{clip-path:url(#SVGID_21_);}
	.st103{fill:#53BEE3;}
	.st104{fill:#00A1CC;}
	.st105{clip-path:url(#SVGID_23_);fill:#F74F5C;}
	.st106{fill:#534741;}
	.st107{clip-path:url(#SVGID_25_);fill:#F74F5C;}
	.st108{fill:#F74F5C;}
	.st109{fill:#706661;}
	.st110{clip-path:url(#SVGID_29_);}
	.st111{fill:#AAAAAA;}
	.st112{fill:#D82A3F;}
	.st113{clip-path:url(#SVGID_31_);}
	.st114{clip-path:url(#SVGID_33_);fill:#F74F5C;}
	.st115{clip-path:url(#SVGID_35_);fill:#F74F5C;}
	.st116{fill:#D8957B;}
	.st117{fill:#F1E3D8;}
	.st118{fill:#C3755E;}
	.st119{fill:none;stroke:#231815;stroke-width:0.25;stroke-linecap:round;stroke-miterlimit:10;}
	.st120{fill:none;stroke:#30373D;stroke-width:0.25;stroke-miterlimit:10;}
	.st121{fill:#E6A389;}
	.st122{fill:#D8957B;stroke:#FFFFFF;stroke-miterlimit:10;}
	.st123{fill:#F1E3D8;stroke:#FFFFFF;stroke-miterlimit:10;}
	.st124{fill:#C3755E;stroke:#FFFFFF;stroke-miterlimit:10;}
	.st125{fill:#E6A389;stroke:#FFFFFF;stroke-miterlimit:10;}
	.st126{stroke:#FFFFFF;stroke-miterlimit:10;}
	.st127{fill:none;stroke:#FFFFFF;stroke-linecap:round;stroke-miterlimit:10;}
	.st128{fill:#198974;}
	.st129{fill:#47AD2F;}
	.st130{fill:#7A5C41;}
	.st131{fill:#5CC13A;}
	.st132{fill:#237C11;}
	.st133{fill:#3FA541;}
	.st134{fill:#10725F;}
	.st135{fill:#8DE00A;}
	.st136{fill:#938548;}
	.st137{fill:#498C44;}
	.st138{fill:#7BCE05;}
	.st139{fill:#54CC06;}
	.st140{opacity:0.56;fill:#7CBA04;}
	.st141{fill:#876D33;}
	.st142{fill:#C4B08D;}
	.st143{fill:#56C437;}
	.st144{fill:#49AD07;}
	.st145{fill:#359B3C;}
	.st146{fill:#E2E2E2;}
	.st147{fill:#231815;}
	.st148{fill:#435780;}
	.st149{fill:#FF4960;}
	.st150{fill:#373934;}
	.st151{fill:#F6C267;}
	.st152{opacity:0.5;fill:#F99500;}
	.st153{opacity:0.2;fill:#C02529;}
	.st154{fill:#F2F0F3;}
	.st155{fill:#C02529;}
	.st156{opacity:0.41;fill:#435780;}
	.st157{opacity:0.59;fill:#C02529;}
	.st158{fill:#FCE0A4;}
	.st159{fill:#EAE27F;}
	.st160{fill:#A1A85B;}
	.st161{fill:#FCFBD2;}
	.st162{fill:#9E8A6A;}
	.st163{fill:#979C24;}
	.st164{fill:#D1C11C;}
	.st165{fill:#727235;}
	.st166{opacity:0.46;fill:#4F4E4D;}
	.st167{fill:#FFFA9C;}
	.st168{fill:none;stroke:#4D4D4D;stroke-linecap:round;stroke-linejoin:round;stroke-dasharray:5.893,5.893;}
	.st169{fill:none;stroke:#4D4D4D;stroke-linecap:round;stroke-linejoin:round;stroke-dasharray:6.0318,6.0318;}
	.st170{fill:#747F7D;}
	.st171{fill:#827E7F;}
	.st172{fill:url(#SVGID_36_);}
	.st173{fill:#B50016;}
	.st174{fill:url(#SVGID_37_);}
	.st175{fill:#FFFFFF;stroke:#FFFFFF;stroke-linecap:round;stroke-linejoin:round;stroke-miterlimit:10;}
	.st176{fill:#F4E4E4;stroke:#FFFFFF;stroke-linecap:round;stroke-linejoin:round;stroke-miterlimit:10;}
	.st177{fill:#FF8788;stroke:#FFFFFF;stroke-linecap:round;stroke-linejoin:round;stroke-miterlimit:10;}
	.st178{fill:#261D1D;stroke:#FFFFFF;stroke-linecap:round;stroke-linejoin:round;stroke-miterlimit:10;}
	.st179{fill:#B6E9FF;}
	.st180{fill:#6D362C;}
	.st181{fill:#F0CAAE;}
	.st182{fill:#8C4B38;}
	.st183{fill:#361A16;}
	.st184{fill:#44251F;}
	.st185{fill:none;stroke:#44251F;stroke-miterlimit:10;}
	.st186{fill:none;stroke:#44251F;stroke-linecap:round;stroke-linejoin:round;stroke-miterlimit:10;}
	.st187{fill:none;stroke:#6D362C;stroke-width:2;stroke-linecap:round;stroke-linejoin:round;stroke-miterlimit:10;}
	.st188{fill:#AD5A5C;}
	.st189{fill:none;stroke:#44251F;stroke-width:1.7887;stroke-linecap:round;stroke-linejoin:round;stroke-miterlimit:10;}
	.st190{fill:#AD3D3C;}
	.st191{fill:#FEFEFE;}
	.st192{fill:#5E2C00;}
	.st193{fill:#CDDA60;}
	.st194{fill:#F07F36;}
	.st195{fill:#F29038;}
	.st196{fill:#D4DA50;}
	.st197{fill:#67B44B;}
	.st198{fill:#6C4000;}
	.st199{fill:#7E4E00;}
	.st200{fill:#FFCD00;}
	.st201{fill:#FFBE00;}
	.st202{fill:#5A3200;}
	.st203{fill:#5F3813;}
	.st204{fill:#FCC047;}
	.st205{fill:#E8AF2E;}
	.st206{fill:#603008;}
	.st207{fill:#994405;}
	.st208{fill:#E6E6E7;}
	.st209{fill:#3B2314;}
	.st210{fill:#F0F1F1;}
	.st211{fill:#E0A246;}
	.st212{fill:#4F2B0E;}
	.st213{fill:#7BAD1A;}
	.st214{fill:#97FAFF;}
	.st215{fill:#5DC5EE;}
	.st216{fill:#DE97FF;}
	.st217{fill:#AC3EE5;}
	.st218{fill:#F8CDDB;}
	.st219{fill:#F95892;}
	.st220{fill:#D5FFBD;}
	.st221{fill:#58B431;}
	.st222{fill:#69311A;}
	.st223{opacity:0.43;fill:url(#SVGID_38_);}
	.st224{opacity:0.43;fill:url(#SVGID_39_);}
	.st225{opacity:0.43;fill:url(#SVGID_40_);}
	.st226{opacity:0.43;fill:url(#SVGID_41_);}
	.st227{opacity:0.43;fill:url(#SVGID_42_);}
	.st228{fill:#6D362C;stroke:#FFFFFF;stroke-miterlimit:10;}
	.st229{fill:#F0CAAE;stroke:#FFFFFF;stroke-miterlimit:10;}
	.st230{fill:#8C4B38;stroke:#FFFFFF;stroke-miterlimit:10;}
	.st231{fill:#361A16;stroke:#FFFFFF;stroke-miterlimit:10;}
	.st232{fill:#44251F;stroke:#FFFFFF;stroke-miterlimit:10;}
	.st233{fill:none;stroke:#FFFFFF;stroke-miterlimit:10;}
	.st234{fill:none;stroke:#FFFFFF;stroke-linecap:round;stroke-linejoin:round;stroke-miterlimit:10;}
	.st235{fill:#F4F1ED;stroke:#FFFFFF;stroke-linecap:round;stroke-miterlimit:10;}
	.st236{fill:#EFE2D5;stroke:#FFFFFF;stroke-linecap:round;stroke-miterlimit:10;}
	.st237{fill:#DDC8B6;stroke:#FFFFFF;stroke-linecap:round;stroke-miterlimit:10;}
	.st238{fill:#F9B9C7;stroke:#FFFFFF;stroke-linecap:round;stroke-miterlimit:10;}
	.st239{fill:#C1AA95;stroke:#FFFFFF;stroke-linecap:round;stroke-miterlimit:10;}
	.st240{stroke:#FFFFFF;stroke-linecap:round;stroke-miterlimit:10;}
	.st241{opacity:0.3;}
	.st242{fill:#FFAB24;}
</style>
<g id="Layer_1">
</g>
<g id="Layer_2">
	<g>
		<g>
			<g>
				<g>
					<g>
						<path class="st2" d="M22,4.4c-0.3,0.1-0.7,0.3-1,0.5c0.2,2.3,1.7,3.8,2.5,4.5c0.5,0.2,2.9,1.4,5.1,0.8
							C31.1,9.6,25.8,3.1,22,4.4z"/>
					</g>
				</g>
				<g>
					<g>
						<path class="st79" d="M20.4,13.1c1.6-1.7,3.1-3.7,3.1-3.7s0,0,0.1,0C22.7,8.8,21.3,7.3,21,5c-1.8,1.3-3.2,4.2-4.1,6.4
							C18.2,11.7,19.4,12.3,20.4,13.1z"/>
					</g>
				</g>
				<g>
					<g>
						<path class="st80" d="M18.4,11.9c0.6,0.2,1.1,0.5,1.6,0.9c0.7-0.7,2.3-2.4,3.2-3.6c-0.6-0.5-1.3-1.4-1.8-2.5
							C20.6,7.5,19,9.6,18.4,11.9z"/>
					</g>
				</g>
				<g>
					<g>
						<path class="st2" d="M8.3,4.4C8.6,4.6,9,4.7,9.3,5C9,7.3,7.6,8.8,6.7,9.5c-0.5,0.2-2.9,1.4-5.1,0.8C-0.8,9.6,4.6,3.1,8.3,4.4z
							"/>
					</g>
				</g>
				<g>
					<g>
						<path class="st79" d="M9.9,13.1c-1.6-1.7-3.1-3.7-3.1-3.7s0,0-0.1,0C7.6,8.8,9,7.3,9.3,5c1.8,1.3,3.2,4.2,4.1,6.4
							C12.1,11.7,10.9,12.3,9.9,13.1z"/>
					</g>
				</g>
				<g>
					<g>
						<path class="st80" d="M12,11.9c-0.6,0.2-1.1,0.5-1.6,0.9C9.7,12,8,10.4,7.1,9.1c0.6-0.5,1.3-1.4,1.8-2.5
							C9.7,7.5,11.3,9.6,12,11.9z"/>
					</g>
				</g>
			</g>
			<g>
				<g>
					<path class="st2" d="M23.6,16.8c-1.7-3.1-4.9-5.6-8.4-5.6c-3.5,0-6.8,2.5-8.4,5.6c-0.6,1.1-0.9,2.3-0.9,3.6
						c0,5.2,4.2,7.1,9.4,7.1c5.2,0,9.4-1.9,9.4-7.1C24.5,19.1,24.2,17.9,23.6,16.8z"/>
				</g>
			</g>
			<g>
				<g>
					<path class="st79" d="M23.6,16.8c-0.9-1.6-2.2-3.1-3.7-4.1c0.5,0.8,1,1.6,1.4,2.5c0.6,1.3,0.9,2.8,0.9,4.4
						c0,4.1-1.8,6.5-4.5,7.7c3.9-0.6,6.8-2.6,6.8-6.9C24.5,19.1,24.2,17.9,23.6,16.8z"/>
				</g>
			</g>
			<g>
				<g>
					
						<ellipse transform="matrix(0.9241 -0.3821 0.3821 0.9241 -4.1436 5.6609)" class="st79" cx="12.2" cy="13.3" rx="1.4" ry="0.6"/>
				</g>
			</g>
			<g>
				<g>
					<path class="st80" d="M16.5,20.4c-0.4,0.5-1.1,0.9-1.6,1.1c0,0-0.3-0.2-0.4-0.3c-0.4-0.2-0.7-0.6-0.9-1
						c-0.1-0.4-0.2-1.3,0.5-1.4c0.4,0,0.9,0.4,1,0.8c0.1-0.3,0.3-0.7,0.7-0.8c0.4-0.2,0.9-0.1,1,0.4C16.9,19.6,16.8,20,16.5,20.4z"
						/>
				</g>
			</g>
		</g>
		<g>
			<g>
				<g>
					<g>
						<g>
							<path class="st81" d="M21.7,17.7c0,0.3-0.2,0.5-0.5,0.5c-0.3,0-0.5-0.2-0.5-0.5c0-0.3,0.2-0.5,0.5-0.5
								C21.5,17.2,21.7,17.4,21.7,17.7z"/>
						</g>
					</g>
				</g>
				<g>
					<g>
						<g>
							<path class="st81" d="M10,17.7c0,0.3-0.2,0.5-0.5,0.5c-0.3,0-0.5-0.2-0.5-0.5c0-0.3,0.2-0.5,0.5-0.5
								C9.7,17.2,10,17.4,10,17.7z"/>
						</g>
					</g>
				</g>
			</g>
			<g>
				<g>
					<path class="st81" d="M15.8,24.7c-0.1,0-0.1,0-0.2-0.1c-0.9-0.9-1.8-0.2-1.9-0.1c-0.1,0.1-0.2,0.1-0.3,0
						c-0.1-0.1-0.1-0.2,0-0.3c0.4-0.3,1.5-0.7,2.4,0.2c0.1,0.1,0.1,0.2,0,0.3C15.9,24.7,15.8,24.7,15.8,24.7z"/>
				</g>
			</g>
			<g>
				<g>
					<g>
						<path class="st179" d="M25.1,24.8c-1.5-1.6-2.3-3.6-3.1-5.6c2.1,0.6,3.9,1.9,5.1,3.7c0.3,0.5,0.6,1,0.6,1.6
							c0,1.6-1.5,1.4-2.4,0.6C25.3,24.9,25.2,24.9,25.1,24.8z"/>
					</g>
				</g>
				<g>
					<g>
						<path class="st179" d="M26.1,19.9c-1.2-0.2-2.3-0.9-3.3-1.5c1.1-0.4,2.4-0.5,3.6,0c0.3,0.1,0.6,0.3,0.8,0.5
							c0.5,0.7-0.2,1.2-0.9,1.1C26.2,20,26.1,19.9,26.1,19.9z"/>
					</g>
				</g>
			</g>
			<g>
				<g>
					<g>
						<path class="st179" d="M5.9,24.8c1.5-1.6,2.3-3.6,3.1-5.6c-2.1,0.6-3.9,1.9-5.1,3.7c-0.3,0.5-0.6,1-0.6,1.6
							c0,1.6,1.5,1.4,2.4,0.6C5.7,24.9,5.8,24.9,5.9,24.8z"/>
					</g>
				</g>
				<g>
					<g>
						<path class="st179" d="M4.9,19.9c1.2-0.2,2.3-0.9,3.3-1.5c-1.1-0.4-2.4-0.5-3.6,0c-0.3,0.1-0.6,0.3-0.8,0.5
							C3.3,19.6,4,20.1,4.7,20C4.8,20,4.9,19.9,4.9,19.9z"/>
					</g>
				</g>
			</g>
		</g>
	</g>
</g>
<g id="Layer_3">
</g>
</svg>
