<?xml version="1.0" encoding="utf-8"?>
<!-- Generator: Adobe Illustrator 22.1.0, SVG Export Plug-In . SVG Version: 6.00 Build 0)  -->
<svg version="1.1" xmlns="http://www.w3.org/2000/svg" xmlns:xlink="http://www.w3.org/1999/xlink" x="0px" y="0px"
	 viewBox="0 0 70 70" style="enable-background:new 0 0 70 70;" xml:space="preserve">
<style type="text/css">
	.st0{fill:#80F0F9;}
	.st1{fill:#FFFFFF;}
	.st2{fill:#198974;}
	.st3{fill:#47AD2F;}
	.st4{fill:#7A5C41;}
	.st5{fill:#5CC13A;}
	.st6{fill:#237C11;}
	.st7{fill:#3FA541;}
	.st8{fill:#10725F;}
	.st9{fill:#8DE00A;}
	.st10{fill:#938548;}
	.st11{fill:#498C44;}
	.st12{fill:#7BCE05;}
	.st13{fill:#54CC06;}
	.st14{opacity:0.56;fill:#7CBA04;}
	.st15{fill:#876D33;}
	.st16{fill:#C4B08D;}
	.st17{fill:#56C437;}
	.st18{fill:#49AD07;}
	.st19{fill:#359B3C;}
	.st20{fill:#E2E2E2;}
	.st21{fill:#72706F;}
	.st22{fill:#231815;}
	.st23{fill:#5F3813;}
	.st24{fill:#FCC047;}
	.st25{fill:#E8AF2E;}
	.st26{fill:#603008;}
	.st27{fill:#994405;}
	.st28{fill:#E6E6E7;}
	.st29{fill:#3B2314;}
	.st30{fill:#F0F1F1;}
	.st31{fill:#E0A246;}
	.st32{fill:#4F2B0E;}
	.st33{fill:#7BAD1A;}
	.st34{fill:#97FAFF;}
	.st35{fill:#5DC5EE;}
	.st36{fill:#DE97FF;}
	.st37{fill:#AC3EE5;}
	.st38{fill:#F8CDDB;}
	.st39{fill:#F95892;}
	.st40{fill:#D5FFBD;}
	.st41{fill:#58B431;}
	.st42{fill:#F9EFE5;}
	.st43{fill:#BDAA9A;}
	.st44{fill:#DDCCBF;}
	.st45{fill:#69311A;}
	.st46{opacity:0.43;fill:url(#SVGID_1_);}
	.st47{opacity:0.43;fill:url(#SVGID_2_);}
	.st48{opacity:0.43;fill:url(#SVGID_3_);}
	.st49{opacity:0.43;fill:url(#SVGID_4_);}
	.st50{opacity:0.43;fill:url(#SVGID_5_);}
	.st51{clip-path:url(#SVGID_7_);}
	.st52{clip-path:url(#SVGID_9_);}
	.st53{clip-path:url(#SVGID_11_);}
	.st54{clip-path:url(#SVGID_13_);}
	.st55{clip-path:url(#SVGID_15_);}
	.st56{clip-path:url(#SVGID_17_);}
	.st57{clip-path:url(#SVGID_19_);}
	.st58{clip-path:url(#SVGID_21_);}
	.st59{clip-path:url(#SVGID_23_);}
	.st60{clip-path:url(#SVGID_25_);}
	.st61{clip-path:url(#SVGID_27_);}
	.st62{clip-path:url(#SVGID_29_);}
	.st63{clip-path:url(#SVGID_31_);}
	.st64{clip-path:url(#SVGID_33_);}
	.st65{clip-path:url(#SVGID_35_);}
	.st66{clip-path:url(#SVGID_37_);}
	.st67{clip-path:url(#SVGID_39_);}
	.st68{clip-path:url(#SVGID_41_);}
	.st69{clip-path:url(#SVGID_43_);}
	.st70{clip-path:url(#SVGID_45_);}
	.st71{clip-path:url(#SVGID_47_);}
	.st72{clip-path:url(#SVGID_49_);}
	.st73{clip-path:url(#SVGID_51_);}
	.st74{clip-path:url(#SVGID_53_);}
	.st75{clip-path:url(#SVGID_55_);}
	.st76{clip-path:url(#SVGID_57_);}
	.st77{clip-path:url(#SVGID_59_);}
	.st78{clip-path:url(#SVGID_61_);}
	.st79{clip-path:url(#SVGID_63_);}
	.st80{clip-path:url(#SVGID_65_);}
	.st81{fill:#FFFFFF;stroke:#FFFFFF;stroke-width:4;stroke-linecap:round;stroke-linejoin:round;stroke-miterlimit:10;}
	.st82{fill:#F4F1ED;}
	.st83{fill:#EFE2D5;}
	.st84{fill:#DDC8B6;}
	.st85{fill:#F9B9C7;}
	.st86{fill:#C1AA95;}
	.st87{clip-path:url(#SVGID_67_);}
	.st88{clip-path:url(#SVGID_69_);}
	.st89{fill:#FFFFFF;stroke:#FFFFFF;stroke-width:3;stroke-linecap:round;stroke-linejoin:round;stroke-miterlimit:10;}
	.st90{fill:#D8957B;}
	.st91{fill:#F1E3D8;}
	.st92{fill:#C3755E;}
	.st93{fill:#E6A389;}
	.st94{fill:none;stroke:#231815;stroke-width:0.25;stroke-linecap:round;stroke-miterlimit:10;}
	.st95{clip-path:url(#SVGID_71_);}
	.st96{fill:#6D362C;}
	.st97{fill:#F0CAAE;}
	.st98{fill:#8C4B38;}
	.st99{fill:#361A16;}
	.st100{fill:#44251F;}
	.st101{fill:none;stroke:#44251F;stroke-miterlimit:10;}
	.st102{fill:none;stroke:#44251F;stroke-linecap:round;stroke-linejoin:round;stroke-miterlimit:10;}
	.st103{fill:none;stroke:#6D362C;stroke-width:2;stroke-linecap:round;stroke-linejoin:round;stroke-miterlimit:10;}
	.st104{clip-path:url(#SVGID_73_);}
	.st105{opacity:0.5;fill:#FFFFFF;stroke:#FFFFFF;stroke-width:4;stroke-linecap:round;stroke-linejoin:round;stroke-miterlimit:10;}
	.st106{opacity:0.3;fill:#FFFFFF;stroke:#FFFFFF;stroke-width:4;stroke-linecap:round;stroke-linejoin:round;stroke-miterlimit:10;}
	.st107{fill:#FABFBF;}
	.st108{fill:#F7A7AA;}
	.st109{opacity:0.5;fill:#F7A7AA;}
	.st110{fill:#F37B87;}
	.st111{fill:#943436;}
	.st112{opacity:0.3;fill:#F7A7AA;}
	.st113{clip-path:url(#SVGID_75_);}
	.st114{fill:#F4E4E4;}
	.st115{fill:#FF8788;}
	.st116{fill:#261D1D;}
	.st117{fill-rule:evenodd;clip-rule:evenodd;fill:#B7EAF0;}
	.st118{fill-rule:evenodd;clip-rule:evenodd;fill:#ABDEE4;}
	.st119{fill-rule:evenodd;clip-rule:evenodd;fill:#FFA137;}
	.st120{fill-rule:evenodd;clip-rule:evenodd;fill:#C55047;}
	.st121{fill-rule:evenodd;clip-rule:evenodd;fill:#FF9528;}
	.st122{fill-rule:evenodd;clip-rule:evenodd;fill:#39474B;}
	.st123{fill-rule:evenodd;clip-rule:evenodd;fill:#546C7E;}
	.st124{fill:#C55047;}
	.st125{fill:#39474B;}
	.st126{fill-rule:evenodd;clip-rule:evenodd;fill:#677980;}
	.st127{fill-rule:evenodd;clip-rule:evenodd;fill:#664241;}
	.st128{fill-rule:evenodd;clip-rule:evenodd;fill:#5A3534;}
	.st129{fill-rule:evenodd;clip-rule:evenodd;fill:#476071;}
	.st130{fill-rule:evenodd;clip-rule:evenodd;fill:#FFCA6F;}
	.st131{fill-rule:evenodd;clip-rule:evenodd;fill:#FDFDFD;}
	.st132{fill-rule:evenodd;clip-rule:evenodd;fill:#2D2D2C;}
	.st133{fill-rule:evenodd;clip-rule:evenodd;fill:#007E75;}
	.st134{fill-rule:evenodd;clip-rule:evenodd;fill:#3E3E3E;}
	.st135{fill:#2D2D2C;}
	.st136{fill-rule:evenodd;clip-rule:evenodd;fill:#009E94;}
	.st137{fill-rule:evenodd;clip-rule:evenodd;fill:#6B7386;}
	.st138{fill-rule:evenodd;clip-rule:evenodd;fill:#5F667B;}
	.st139{fill-rule:evenodd;clip-rule:evenodd;fill:#FFCC4E;}
	.st140{fill-rule:evenodd;clip-rule:evenodd;fill:#FFC040;}
	.st141{fill:#5F667B;}
	.st142{fill-rule:evenodd;clip-rule:evenodd;fill:#454D62;}
	.st143{fill:#4A5E64;}
	.st144{fill-rule:evenodd;clip-rule:evenodd;fill:#61BCDA;}
	.st145{fill-rule:evenodd;clip-rule:evenodd;fill:#73C8E5;}
	.st146{fill-rule:evenodd;clip-rule:evenodd;fill:#A9E1F4;}
	.st147{fill:#8CA4AD;}
	.st148{fill:#677980;}
	.st149{fill-rule:evenodd;clip-rule:evenodd;fill:#787F92;}
	.st150{fill-rule:evenodd;clip-rule:evenodd;fill:#F7B432;}
	.st151{fill:#FF9528;}
	.st152{fill:#FDFDFD;}
	.st153{fill-rule:evenodd;clip-rule:evenodd;fill:#AB362D;}
	.st154{fill:#EBEBEB;}
	.st155{fill-rule:evenodd;clip-rule:evenodd;fill:#384055;}
	.st156{fill:#FFD900;}
	.st157{fill:#1F1F1F;}
	.st158{clip-path:url(#SVGID_77_);}
	.st159{clip-path:url(#SVGID_79_);}
	.st160{clip-path:url(#SVGID_81_);}
	.st161{clip-path:url(#SVGID_83_);}
	.st162{clip-path:url(#SVGID_85_);}
</style>
<g id="Layer_1">
</g>
<g id="Layer_2">
	<circle class="st156" cx="34.9" cy="35" r="30"/>
	<g>
		<g>
			<g>
				<path class="st157" d="M35,13.3c-0.3,0-0.5-0.2-0.5-0.5V9.3c0-0.3,0.2-0.5,0.5-0.5c0.3,0,0.5,0.2,0.5,0.5v3.5
					C35.5,13.1,35.2,13.3,35,13.3z"/>
			</g>
		</g>
		<g>
			<g>
				<path class="st157" d="M49,19.1c-0.1,0-0.2,0-0.3-0.1c-0.2-0.2-0.2-0.5,0-0.7l2.5-2.5c0.2-0.2,0.5-0.2,0.7,0
					c0.2,0.2,0.2,0.5,0,0.7L49.4,19C49.3,19.1,49.2,19.1,49,19.1z"/>
			</g>
		</g>
		<g>
			<path class="st157" d="M15.1,33.2h-3.5c-0.3,0-0.5-0.2-0.5-0.5s0.2-0.5,0.5-0.5h3.5c0.3,0,0.5,0.2,0.5,0.5S15.4,33.2,15.1,33.2z"
				/>
		</g>
		<g>
			<g>
				<path class="st157" d="M20.9,19.1c-0.1,0-0.2,0-0.3-0.1l-2.5-2.5c-0.2-0.2-0.2-0.5,0-0.7c0.2-0.2,0.5-0.2,0.7,0l2.5,2.5
					c0.2,0.2,0.2,0.5,0,0.7C21.2,19.1,21.1,19.1,20.9,19.1z"/>
			</g>
		</g>
	</g>
	<g>
		<defs>
			<polygon id="SVGID_78_" points="23.6,36.8 28.8,50.1 42.8,44.7 44.2,22.1 23.6,23.1 			"/>
		</defs>
		<clipPath id="SVGID_1_">
			<use xlink:href="#SVGID_78_"  style="overflow:visible;"/>
		</clipPath>
		<g style="clip-path:url(#SVGID_1_);">
			<path class="st157" d="M32.5,32.2l-5.4,1.7c-0.5-0.4-1.1-0.9-1.6-1.5c-0.5-0.6-0.8-1.5-0.8-2.7c0-2.1,1.3-3.6,3.9-4.5l6-2h2
				c1.5,0,2.8,0.4,3.6,1.3c0.9,0.9,1.3,2.1,1.3,3.6V56c-0.4,0.1-1,0.2-1.7,0.3c-0.8,0.1-1.5,0.2-2.3,0.2c-0.8,0-1.5-0.1-2.1-0.2
				c-0.6-0.1-1.2-0.3-1.6-0.6c-0.4-0.3-0.8-0.8-1-1.3c-0.2-0.6-0.3-1.3-0.3-2.2V32.2z"/>
		</g>
	</g>
</g>
<g id="Layer_3">
</g>
</svg>
