<?xml version="1.0" encoding="utf-8"?>
<!-- Generator: Adobe Illustrator 22.1.0, SVG Export Plug-In . SVG Version: 6.00 Build 0)  -->
<svg version="1.1" xmlns="http://www.w3.org/2000/svg" xmlns:xlink="http://www.w3.org/1999/xlink" x="0px" y="0px"
	 viewBox="0 0 70 70" style="enable-background:new 0 0 70 70;" xml:space="preserve">
<style type="text/css">
	.st0{fill:#80F0F9;}
	.st1{fill:#FFFFFF;}
	.st2{fill:#198974;}
	.st3{fill:#47AD2F;}
	.st4{fill:#7A5C41;}
	.st5{fill:#5CC13A;}
	.st6{fill:#237C11;}
	.st7{fill:#3FA541;}
	.st8{fill:#10725F;}
	.st9{fill:#8DE00A;}
	.st10{fill:#938548;}
	.st11{fill:#498C44;}
	.st12{fill:#7BCE05;}
	.st13{fill:#54CC06;}
	.st14{opacity:0.56;fill:#7CBA04;}
	.st15{fill:#876D33;}
	.st16{fill:#C4B08D;}
	.st17{fill:#56C437;}
	.st18{fill:#49AD07;}
	.st19{fill:#359B3C;}
	.st20{fill:#E2E2E2;}
	.st21{fill:#72706F;}
	.st22{fill:#231815;}
	.st23{fill:#5F3813;}
	.st24{fill:#FCC047;}
	.st25{fill:#E8AF2E;}
	.st26{fill:#603008;}
	.st27{fill:#994405;}
	.st28{fill:#E6E6E7;}
	.st29{fill:#3B2314;}
	.st30{fill:#F0F1F1;}
	.st31{fill:#E0A246;}
	.st32{fill:#4F2B0E;}
	.st33{fill:#7BAD1A;}
	.st34{fill:#97FAFF;}
	.st35{fill:#5DC5EE;}
	.st36{fill:#DE97FF;}
	.st37{fill:#AC3EE5;}
	.st38{fill:#F8CDDB;}
	.st39{fill:#F95892;}
	.st40{fill:#D5FFBD;}
	.st41{fill:#58B431;}
	.st42{fill:#F9EFE5;}
	.st43{fill:#BDAA9A;}
	.st44{fill:#DDCCBF;}
	.st45{fill:#69311A;}
	.st46{opacity:0.43;fill:url(#SVGID_1_);}
	.st47{opacity:0.43;fill:url(#SVGID_2_);}
	.st48{opacity:0.43;fill:url(#SVGID_3_);}
	.st49{opacity:0.43;fill:url(#SVGID_4_);}
	.st50{opacity:0.43;fill:url(#SVGID_5_);}
	.st51{clip-path:url(#SVGID_7_);}
	.st52{clip-path:url(#SVGID_9_);}
	.st53{clip-path:url(#SVGID_11_);}
	.st54{clip-path:url(#SVGID_13_);}
	.st55{clip-path:url(#SVGID_15_);}
	.st56{clip-path:url(#SVGID_17_);}
	.st57{clip-path:url(#SVGID_19_);}
	.st58{clip-path:url(#SVGID_21_);}
	.st59{clip-path:url(#SVGID_23_);}
	.st60{clip-path:url(#SVGID_25_);}
	.st61{clip-path:url(#SVGID_27_);}
	.st62{clip-path:url(#SVGID_29_);}
	.st63{clip-path:url(#SVGID_31_);}
	.st64{clip-path:url(#SVGID_33_);}
	.st65{clip-path:url(#SVGID_35_);}
	.st66{clip-path:url(#SVGID_37_);}
	.st67{clip-path:url(#SVGID_39_);}
	.st68{clip-path:url(#SVGID_41_);}
	.st69{clip-path:url(#SVGID_43_);}
	.st70{clip-path:url(#SVGID_45_);}
	.st71{clip-path:url(#SVGID_47_);}
	.st72{clip-path:url(#SVGID_49_);}
	.st73{clip-path:url(#SVGID_51_);}
	.st74{clip-path:url(#SVGID_53_);}
	.st75{clip-path:url(#SVGID_55_);}
	.st76{clip-path:url(#SVGID_57_);}
	.st77{clip-path:url(#SVGID_59_);}
	.st78{fill:#FFFFFF;stroke:#FFFFFF;stroke-width:4;stroke-linecap:round;stroke-linejoin:round;stroke-miterlimit:10;}
	.st79{fill:#F4F1ED;}
	.st80{fill:#EFE2D5;}
	.st81{fill:#DDC8B6;}
	.st82{fill:#F9B9C7;}
	.st83{fill:#C1AA95;}
	.st84{clip-path:url(#SVGID_61_);}
	.st85{clip-path:url(#SVGID_63_);}
	.st86{fill:#FFFFFF;stroke:#FFFFFF;stroke-width:3;stroke-linecap:round;stroke-linejoin:round;stroke-miterlimit:10;}
	.st87{fill:#D8957B;}
	.st88{fill:#F1E3D8;}
	.st89{fill:#C3755E;}
	.st90{fill:#E6A389;}
	.st91{fill:none;stroke:#231815;stroke-width:0.25;stroke-linecap:round;stroke-miterlimit:10;}
	.st92{clip-path:url(#SVGID_65_);}
	.st93{fill:#6D362C;}
	.st94{fill:#F0CAAE;}
	.st95{fill:#8C4B38;}
	.st96{fill:#361A16;}
	.st97{fill:#44251F;}
	.st98{fill:none;stroke:#44251F;stroke-miterlimit:10;}
	.st99{fill:none;stroke:#44251F;stroke-linecap:round;stroke-linejoin:round;stroke-miterlimit:10;}
	.st100{fill:none;stroke:#6D362C;stroke-width:2;stroke-linecap:round;stroke-linejoin:round;stroke-miterlimit:10;}
	.st101{clip-path:url(#SVGID_67_);}
	.st102{opacity:0.5;fill:#FFFFFF;stroke:#FFFFFF;stroke-width:4;stroke-linecap:round;stroke-linejoin:round;stroke-miterlimit:10;}
	.st103{opacity:0.3;fill:#FFFFFF;stroke:#FFFFFF;stroke-width:4;stroke-linecap:round;stroke-linejoin:round;stroke-miterlimit:10;}
	.st104{fill:#FABFBF;}
	.st105{fill:#F7A7AA;}
	.st106{opacity:0.5;fill:#F7A7AA;}
	.st107{fill:#F37B87;}
	.st108{fill:#943436;}
	.st109{opacity:0.3;fill:#F7A7AA;}
	.st110{clip-path:url(#SVGID_69_);}
	.st111{fill:#F4E4E4;}
	.st112{fill:#FF8788;}
	.st113{fill:#261D1D;}
	.st114{fill-rule:evenodd;clip-rule:evenodd;fill:#B7EAF0;}
	.st115{fill-rule:evenodd;clip-rule:evenodd;fill:#ABDEE4;}
	.st116{fill-rule:evenodd;clip-rule:evenodd;fill:#FFA137;}
	.st117{fill-rule:evenodd;clip-rule:evenodd;fill:#C55047;}
	.st118{fill-rule:evenodd;clip-rule:evenodd;fill:#FF9528;}
	.st119{fill-rule:evenodd;clip-rule:evenodd;fill:#39474B;}
	.st120{fill-rule:evenodd;clip-rule:evenodd;fill:#546C7E;}
	.st121{fill:#C55047;}
	.st122{fill:#39474B;}
	.st123{fill-rule:evenodd;clip-rule:evenodd;fill:#677980;}
	.st124{fill-rule:evenodd;clip-rule:evenodd;fill:#664241;}
	.st125{fill-rule:evenodd;clip-rule:evenodd;fill:#5A3534;}
	.st126{fill-rule:evenodd;clip-rule:evenodd;fill:#476071;}
	.st127{fill-rule:evenodd;clip-rule:evenodd;fill:#FFCA6F;}
	.st128{fill-rule:evenodd;clip-rule:evenodd;fill:#FDFDFD;}
	.st129{fill-rule:evenodd;clip-rule:evenodd;fill:#2D2D2C;}
	.st130{fill-rule:evenodd;clip-rule:evenodd;fill:#007E75;}
	.st131{fill-rule:evenodd;clip-rule:evenodd;fill:#3E3E3E;}
	.st132{fill:#2D2D2C;}
	.st133{fill-rule:evenodd;clip-rule:evenodd;fill:#009E94;}
	.st134{fill-rule:evenodd;clip-rule:evenodd;fill:#6B7386;}
	.st135{fill-rule:evenodd;clip-rule:evenodd;fill:#5F667B;}
	.st136{fill-rule:evenodd;clip-rule:evenodd;fill:#FFCC4E;}
	.st137{fill-rule:evenodd;clip-rule:evenodd;fill:#FFC040;}
	.st138{fill:#5F667B;}
	.st139{fill-rule:evenodd;clip-rule:evenodd;fill:#454D62;}
	.st140{fill:#4A5E64;}
	.st141{fill-rule:evenodd;clip-rule:evenodd;fill:#61BCDA;}
	.st142{fill-rule:evenodd;clip-rule:evenodd;fill:#73C8E5;}
	.st143{fill-rule:evenodd;clip-rule:evenodd;fill:#A9E1F4;}
	.st144{fill:#8CA4AD;}
	.st145{fill:#677980;}
	.st146{fill-rule:evenodd;clip-rule:evenodd;fill:#787F92;}
	.st147{fill-rule:evenodd;clip-rule:evenodd;fill:#F7B432;}
	.st148{fill:#FF9528;}
	.st149{fill:#FDFDFD;}
	.st150{fill-rule:evenodd;clip-rule:evenodd;fill:#AB362D;}
	.st151{fill:#EBEBEB;}
	.st152{fill-rule:evenodd;clip-rule:evenodd;fill:#384055;}
	.st153{fill:#FFD900;}
	.st154{fill:#1F1F1F;}
	.st155{clip-path:url(#SVGID_71_);}
	.st156{clip-path:url(#SVGID_73_);}
	.st157{clip-path:url(#SVGID_75_);}
	.st158{clip-path:url(#SVGID_77_);}
	.st159{clip-path:url(#SVGID_79_);}
	.st160{clip-path:url(#SVGID_81_);}
	.st161{clip-path:url(#SVGID_83_);}
	.st162{clip-path:url(#SVGID_85_);}
	.st163{clip-path:url(#SVGID_87_);}
	.st164{clip-path:url(#SVGID_89_);}
	.st165{clip-path:url(#SVGID_91_);}
	.st166{clip-path:url(#SVGID_93_);}
	.st167{clip-path:url(#SVGID_95_);}
	.st168{clip-path:url(#SVGID_97_);}
	.st169{clip-path:url(#SVGID_99_);}
	.st170{clip-path:url(#SVGID_101_);}
	.st171{clip-path:url(#SVGID_103_);}
	.st172{clip-path:url(#SVGID_105_);}
	.st173{clip-path:url(#SVGID_107_);}
	.st174{clip-path:url(#SVGID_109_);}
	.st175{clip-path:url(#SVGID_111_);}
	.st176{clip-path:url(#SVGID_113_);}
	.st177{clip-path:url(#SVGID_115_);}
	.st178{clip-path:url(#SVGID_117_);}
	.st179{clip-path:url(#SVGID_119_);}
</style>
<g id="Layer_1">
</g>
<g id="Layer_2">
	<circle class="st153" cx="34.9" cy="35" r="30"/>
	<g>
		<g>
			<g>
				<path class="st154" d="M35,13.3c-0.3,0-0.5-0.2-0.5-0.5V9.3c0-0.3,0.2-0.5,0.5-0.5c0.3,0,0.5,0.2,0.5,0.5v3.5
					C35.5,13.1,35.2,13.3,35,13.3z"/>
			</g>
		</g>
		<g>
			<g>
				<path class="st154" d="M49,19.1c-0.1,0-0.2,0-0.3-0.1c-0.2-0.2-0.2-0.5,0-0.7l2.5-2.5c0.2-0.2,0.5-0.2,0.7,0
					c0.2,0.2,0.2,0.5,0,0.7L49.4,19C49.3,19.1,49.2,19.1,49,19.1z"/>
			</g>
		</g>
		<g>
			<path class="st154" d="M58.4,33.2h-3.5c-0.3,0-0.5-0.2-0.5-0.5s0.2-0.5,0.5-0.5h3.5c0.3,0,0.5,0.2,0.5,0.5S58.7,33.2,58.4,33.2z"
				/>
		</g>
		<g>
			<path class="st154" d="M15.1,33.2h-3.5c-0.3,0-0.5-0.2-0.5-0.5s0.2-0.5,0.5-0.5h3.5c0.3,0,0.5,0.2,0.5,0.5S15.4,33.2,15.1,33.2z"
				/>
		</g>
		<g>
			<g>
				<path class="st154" d="M20.9,19.1c-0.1,0-0.2,0-0.3-0.1l-2.5-2.5c-0.2-0.2-0.2-0.5,0-0.7c0.2-0.2,0.5-0.2,0.7,0l2.5,2.5
					c0.2,0.2,0.2,0.5,0,0.7C21.2,19.1,21.1,19.1,20.9,19.1z"/>
			</g>
		</g>
	</g>
	<g>
		<defs>
			<polygon id="SVGID_108_" points="22.7,35.2 20.5,58.2 49.4,57.7 49.4,20.1 22.7,21.5 			"/>
		</defs>
		<clipPath id="SVGID_1_">
			<use xlink:href="#SVGID_108_"  style="overflow:visible;"/>
		</clipPath>
		<g style="clip-path:url(#SVGID_1_);">
			<path class="st154" d="M34.1,21.6c2,0,3.8,0.3,5.4,0.8c1.6,0.5,2.9,1.2,4,2.1c1.1,0.9,1.9,2,2.5,3.2c0.6,1.2,0.9,2.5,0.9,3.9
				c0,3.8-2.1,7.3-6.4,10.7l-7,5.6h12.9c0.2,0.4,0.4,0.9,0.6,1.5c0.2,0.6,0.3,1.3,0.3,2c0,1.3-0.3,2.2-0.9,2.8
				c-0.6,0.6-1.3,0.8-2.3,0.8H25.6c-0.8-0.5-1.4-1.2-1.9-2.1c-0.4-0.8-0.7-1.8-0.7-3c0-1.2,0.3-2.2,0.8-3.1c0.5-0.8,1.1-1.5,1.7-2
				l7.4-6.3c0.9-0.8,1.7-1.5,2.3-2.1c0.6-0.6,1.1-1.2,1.5-1.7c0.4-0.5,0.6-1,0.8-1.4c0.2-0.4,0.2-0.8,0.2-1.2c0-1-0.4-1.8-1.3-2.4
				c-0.9-0.6-2-0.9-3.2-0.9c-1.4,0-2.7,0.2-3.8,0.7c-1.1,0.4-2.1,0.9-2.8,1.4c-0.6-0.4-1.1-1-1.5-1.6c-0.4-0.6-0.6-1.4-0.6-2.3
				c0-1.9,0.9-3.2,2.6-4.2C28.8,22.1,31.2,21.6,34.1,21.6z"/>
		</g>
	</g>
</g>
<g id="Layer_3">
</g>
</svg>
