<?xml version="1.0" encoding="utf-8"?>
<!-- Generator: Adobe Illustrator 22.1.0, SVG Export Plug-In . SVG Version: 6.00 Build 0)  -->
<svg version="1.1" xmlns="http://www.w3.org/2000/svg" xmlns:xlink="http://www.w3.org/1999/xlink" x="0px" y="0px"
	 viewBox="0 0 480 360" style="enable-background:new 0 0 480 360;" xml:space="preserve">
<style type="text/css">
	.st0{fill:#80F0F9;}
	.st1{fill:#FFFFFF;}
	.st2{fill:#198974;}
	.st3{fill:#47AD2F;}
	.st4{fill:#7A5C41;}
	.st5{fill:#5CC13A;}
	.st6{fill:#237C11;}
	.st7{fill:#3FA541;}
	.st8{fill:#10725F;}
	.st9{fill:#8DE00A;}
	.st10{fill:#938548;}
	.st11{fill:#498C44;}
	.st12{fill:#7BCE05;}
	.st13{fill:#54CC06;}
	.st14{opacity:0.56;fill:#7CBA04;}
	.st15{fill:#876D33;}
	.st16{fill:#C4B08D;}
	.st17{fill:#56C437;}
	.st18{fill:#49AD07;}
	.st19{fill:#359B3C;}
	.st20{fill:#E2E2E2;}
	.st21{fill:#72706F;}
	.st22{fill:#231815;}
	.st23{fill:#5F3813;}
	.st24{fill:#FCC047;}
	.st25{fill:#E8AF2E;}
	.st26{fill:#603008;}
	.st27{fill:#994405;}
	.st28{fill:#E6E6E7;}
	.st29{fill:#3B2314;}
	.st30{fill:#F0F1F1;}
	.st31{fill:#E0A246;}
	.st32{fill:#4F2B0E;}
	.st33{fill:#7BAD1A;}
	.st34{fill:#97FAFF;}
	.st35{fill:#5DC5EE;}
	.st36{fill:#DE97FF;}
	.st37{fill:#AC3EE5;}
	.st38{fill:#F8CDDB;}
	.st39{fill:#F95892;}
	.st40{fill:#D5FFBD;}
	.st41{fill:#58B431;}
	.st42{fill:#F9EFE5;}
	.st43{fill:#BDAA9A;}
	.st44{fill:#DDCCBF;}
	.st45{fill:#69311A;}
	.st46{opacity:0.43;fill:url(#SVGID_1_);}
	.st47{opacity:0.43;fill:url(#SVGID_2_);}
	.st48{opacity:0.43;fill:url(#SVGID_3_);}
	.st49{opacity:0.43;fill:url(#SVGID_4_);}
	.st50{opacity:0.43;fill:url(#SVGID_5_);}
	.st51{clip-path:url(#SVGID_7_);}
	.st52{clip-path:url(#SVGID_9_);}
	.st53{clip-path:url(#SVGID_11_);}
	.st54{clip-path:url(#SVGID_13_);}
	.st55{clip-path:url(#SVGID_15_);}
	.st56{clip-path:url(#SVGID_17_);}
	.st57{clip-path:url(#SVGID_19_);}
	.st58{clip-path:url(#SVGID_21_);}
	.st59{clip-path:url(#SVGID_23_);}
	.st60{clip-path:url(#SVGID_25_);}
	.st61{clip-path:url(#SVGID_27_);}
	.st62{clip-path:url(#SVGID_29_);}
	.st63{clip-path:url(#SVGID_31_);}
	.st64{clip-path:url(#SVGID_33_);}
	.st65{clip-path:url(#SVGID_35_);}
	.st66{clip-path:url(#SVGID_37_);}
	.st67{clip-path:url(#SVGID_39_);}
	.st68{clip-path:url(#SVGID_41_);}
	.st69{clip-path:url(#SVGID_43_);}
	.st70{clip-path:url(#SVGID_45_);}
	.st71{clip-path:url(#SVGID_47_);}
	.st72{clip-path:url(#SVGID_49_);}
	.st73{clip-path:url(#SVGID_51_);}
	.st74{clip-path:url(#SVGID_53_);}
	.st75{clip-path:url(#SVGID_55_);}
	.st76{clip-path:url(#SVGID_57_);}
	.st77{clip-path:url(#SVGID_59_);}
	.st78{fill:#FFFFFF;stroke:#FFFFFF;stroke-width:4;stroke-linecap:round;stroke-linejoin:round;stroke-miterlimit:10;}
	.st79{fill:#F4F1ED;}
	.st80{fill:#EFE2D5;}
	.st81{fill:#DDC8B6;}
	.st82{fill:#F9B9C7;}
	.st83{fill:#C1AA95;}
	.st84{clip-path:url(#SVGID_61_);}
	.st85{clip-path:url(#SVGID_63_);}
	.st86{fill:#FFFFFF;stroke:#FFFFFF;stroke-width:3;stroke-linecap:round;stroke-linejoin:round;stroke-miterlimit:10;}
	.st87{fill:#D8957B;}
	.st88{fill:#F1E3D8;}
	.st89{fill:#C3755E;}
	.st90{fill:#E6A389;}
	.st91{fill:none;stroke:#231815;stroke-width:0.25;stroke-linecap:round;stroke-miterlimit:10;}
	.st92{clip-path:url(#SVGID_65_);}
	.st93{fill:#6D362C;}
	.st94{fill:#F0CAAE;}
	.st95{fill:#8C4B38;}
	.st96{fill:#361A16;}
	.st97{fill:#44251F;}
	.st98{fill:none;stroke:#44251F;stroke-miterlimit:10;}
	.st99{fill:none;stroke:#44251F;stroke-linecap:round;stroke-linejoin:round;stroke-miterlimit:10;}
	.st100{fill:none;stroke:#6D362C;stroke-width:2;stroke-linecap:round;stroke-linejoin:round;stroke-miterlimit:10;}
	.st101{clip-path:url(#SVGID_67_);}
	.st102{clip-path:url(#SVGID_69_);}
	.st103{opacity:0.5;fill:#FFFFFF;stroke:#FFFFFF;stroke-width:4;stroke-linecap:round;stroke-linejoin:round;stroke-miterlimit:10;}
	.st104{opacity:0.3;fill:#FFFFFF;stroke:#FFFFFF;stroke-width:4;stroke-linecap:round;stroke-linejoin:round;stroke-miterlimit:10;}
	.st105{fill:#FABFBF;}
	.st106{fill:#F7A7AA;}
	.st107{opacity:0.5;fill:#F7A7AA;}
	.st108{fill:#F37B87;}
	.st109{fill:#943436;}
	.st110{opacity:0.3;fill:#F7A7AA;}
	.st111{clip-path:url(#SVGID_71_);}
	.st112{fill:#F4E4E4;}
	.st113{fill:#FF8788;}
	.st114{fill:#261D1D;}
	.st115{fill-rule:evenodd;clip-rule:evenodd;fill:#B7EAF0;}
	.st116{fill-rule:evenodd;clip-rule:evenodd;fill:#ABDEE4;}
	.st117{fill-rule:evenodd;clip-rule:evenodd;fill:#FFA137;}
	.st118{fill-rule:evenodd;clip-rule:evenodd;fill:#C55047;}
	.st119{fill-rule:evenodd;clip-rule:evenodd;fill:#FF9528;}
	.st120{fill-rule:evenodd;clip-rule:evenodd;fill:#39474B;}
	.st121{fill-rule:evenodd;clip-rule:evenodd;fill:#546C7E;}
	.st122{fill:#C55047;}
	.st123{fill:#39474B;}
	.st124{fill-rule:evenodd;clip-rule:evenodd;fill:#677980;}
	.st125{fill-rule:evenodd;clip-rule:evenodd;fill:#664241;}
	.st126{fill-rule:evenodd;clip-rule:evenodd;fill:#5A3534;}
	.st127{fill-rule:evenodd;clip-rule:evenodd;fill:#476071;}
	.st128{fill-rule:evenodd;clip-rule:evenodd;fill:#FFCA6F;}
	.st129{fill-rule:evenodd;clip-rule:evenodd;fill:#FDFDFD;}
	.st130{fill-rule:evenodd;clip-rule:evenodd;fill:#2D2D2C;}
	.st131{fill-rule:evenodd;clip-rule:evenodd;fill:#007E75;}
	.st132{fill-rule:evenodd;clip-rule:evenodd;fill:#3E3E3E;}
	.st133{fill:#2D2D2C;}
	.st134{fill-rule:evenodd;clip-rule:evenodd;fill:#009E94;}
	.st135{fill-rule:evenodd;clip-rule:evenodd;fill:#6B7386;}
	.st136{fill-rule:evenodd;clip-rule:evenodd;fill:#5F667B;}
	.st137{fill-rule:evenodd;clip-rule:evenodd;fill:#FFCC4E;}
	.st138{fill-rule:evenodd;clip-rule:evenodd;fill:#FFC040;}
	.st139{fill:#5F667B;}
	.st140{fill-rule:evenodd;clip-rule:evenodd;fill:#454D62;}
	.st141{fill:#4A5E64;}
	.st142{fill-rule:evenodd;clip-rule:evenodd;fill:#61BCDA;}
	.st143{fill-rule:evenodd;clip-rule:evenodd;fill:#73C8E5;}
	.st144{fill-rule:evenodd;clip-rule:evenodd;fill:#A9E1F4;}
	.st145{fill:#8CA4AD;}
	.st146{fill:#677980;}
	.st147{fill-rule:evenodd;clip-rule:evenodd;fill:#787F92;}
	.st148{fill-rule:evenodd;clip-rule:evenodd;fill:#F7B432;}
	.st149{fill:#FF9528;}
	.st150{fill:#FDFDFD;}
	.st151{fill-rule:evenodd;clip-rule:evenodd;fill:#AB362D;}
	.st152{fill:#EBEBEB;}
	.st153{fill-rule:evenodd;clip-rule:evenodd;fill:#384055;}
	.st154{fill:#FFD900;}
	.st155{fill:#1F1F1F;}
	.st156{clip-path:url(#SVGID_73_);}
	.st157{clip-path:url(#SVGID_75_);}
	.st158{clip-path:url(#SVGID_77_);}
	.st159{clip-path:url(#SVGID_79_);}
	.st160{clip-path:url(#SVGID_81_);}
	.st161{clip-path:url(#SVGID_83_);}
	.st162{clip-path:url(#SVGID_85_);}
	.st163{clip-path:url(#SVGID_87_);}
	.st164{clip-path:url(#SVGID_89_);}
	.st165{clip-path:url(#SVGID_91_);}
	.st166{clip-path:url(#SVGID_93_);}
	.st167{clip-path:url(#SVGID_95_);}
	.st168{clip-path:url(#SVGID_97_);}
	.st169{clip-path:url(#SVGID_99_);}
	.st170{clip-path:url(#SVGID_101_);}
	.st171{clip-path:url(#SVGID_103_);}
	.st172{clip-path:url(#SVGID_105_);}
	.st173{clip-path:url(#SVGID_107_);}
	.st174{clip-path:url(#SVGID_109_);}
	.st175{clip-path:url(#SVGID_111_);}
	.st176{clip-path:url(#SVGID_113_);}
	.st177{clip-path:url(#SVGID_115_);}
	.st178{clip-path:url(#SVGID_117_);}
	.st179{clip-path:url(#SVGID_119_);}
	.st180{clip-path:url(#SVGID_121_);}
	.st181{clip-path:url(#SVGID_123_);}
	.st182{fill:none;}
	.st183{fill-rule:evenodd;clip-rule:evenodd;fill:#BB9F68;}
	.st184{fill-rule:evenodd;clip-rule:evenodd;fill:#FCF2D1;}
	.st185{fill-rule:evenodd;clip-rule:evenodd;fill:url(#SVGID_124_);}
	.st186{fill-rule:evenodd;clip-rule:evenodd;fill:#FBFB99;}
	.st187{fill:#C4BC7A;}
	.st188{fill:url(#SVGID_125_);}
	.st189{fill:url(#SVGID_126_);}
	.st190{fill:#691200;}
	.st191{fill:url(#SVGID_127_);}
	.st192{fill:url(#SVGID_128_);}
	.st193{fill:url(#SVGID_129_);}
	.st194{fill:url(#SVGID_130_);}
	.st195{fill:url(#SVGID_131_);}
	.st196{fill:url(#SVGID_132_);}
	.st197{fill:#810003;}
	.st198{fill:#FFF35C;}
	.st199{fill:#997F62;}
	.st200{fill:#725D47;}
	.st201{fill:#F9F6F6;}
	.st202{fill:#F0A13C;}
	.st203{fill:url(#SVGID_133_);}
	.st204{fill:url(#SVGID_134_);}
	.st205{fill:#FFF9E1;}
	.st206{fill:url(#SVGID_135_);}
	.st207{fill:url(#SVGID_136_);}
	.st208{fill:url(#SVGID_137_);}
	.st209{fill:url(#SVGID_138_);}
	.st210{fill-rule:evenodd;clip-rule:evenodd;fill:url(#SVGID_139_);}
	.st211{fill:url(#SVGID_140_);}
	.st212{fill:url(#SVGID_141_);}
	.st213{fill:url(#SVGID_142_);}
	.st214{fill:url(#SVGID_143_);}
	.st215{fill:url(#SVGID_144_);}
	.st216{fill:url(#SVGID_145_);}
	.st217{fill:url(#SVGID_146_);}
	.st218{fill:url(#SVGID_147_);}
	.st219{fill:url(#SVGID_148_);}
	.st220{fill:url(#SVGID_149_);}
	.st221{fill:url(#SVGID_150_);}
	.st222{fill:url(#SVGID_151_);}
	.st223{fill-rule:evenodd;clip-rule:evenodd;fill:url(#SVGID_152_);}
	.st224{fill:url(#SVGID_153_);}
	.st225{fill:url(#SVGID_154_);}
	.st226{fill:url(#SVGID_155_);}
	.st227{fill:url(#SVGID_156_);}
	.st228{fill:url(#SVGID_157_);}
	.st229{fill:url(#SVGID_158_);}
	.st230{fill:url(#SVGID_159_);}
	.st231{fill:url(#SVGID_160_);}
	.st232{fill:url(#SVGID_161_);}
	.st233{fill:url(#SVGID_162_);}
	.st234{fill-rule:evenodd;clip-rule:evenodd;fill:url(#SVGID_163_);}
	.st235{fill:url(#SVGID_164_);}
	.st236{fill:url(#SVGID_165_);}
	.st237{fill:url(#SVGID_166_);}
	.st238{fill:url(#SVGID_167_);}
	.st239{fill:url(#SVGID_168_);}
	.st240{fill:url(#SVGID_169_);}
	.st241{fill:url(#SVGID_170_);}
	.st242{fill:url(#SVGID_171_);}
	.st243{fill-rule:evenodd;clip-rule:evenodd;fill:url(#SVGID_172_);}
	.st244{fill:url(#SVGID_173_);}
	.st245{fill:url(#SVGID_174_);}
	.st246{fill:url(#SVGID_175_);}
	.st247{fill:url(#SVGID_176_);}
	.st248{fill:url(#SVGID_177_);}
	.st249{fill:url(#SVGID_178_);}
	.st250{fill:url(#SVGID_179_);}
	.st251{fill:url(#SVGID_180_);}
	.st252{fill:#BCBEC0;}
	.st253{fill:#E6E7E8;}
	.st254{fill:#474747;}
	.st255{fill:#808080;}
	.st256{fill:#6E6E6E;}
	.st257{fill:#8F8F8F;}
	.st258{fill-rule:evenodd;clip-rule:evenodd;fill:url(#SVGID_181_);}
	.st259{fill-rule:evenodd;clip-rule:evenodd;fill:url(#SVGID_182_);}
	.st260{fill-rule:evenodd;clip-rule:evenodd;fill:url(#SVGID_183_);}
	.st261{fill-rule:evenodd;clip-rule:evenodd;fill:url(#SVGID_184_);}
	.st262{fill-rule:evenodd;clip-rule:evenodd;fill:#0080A8;}
	.st263{fill-rule:evenodd;clip-rule:evenodd;fill:#F3F5DD;}
	.st264{fill-rule:evenodd;clip-rule:evenodd;fill:#94966F;}
	.st265{fill-rule:evenodd;clip-rule:evenodd;fill:#EBE7D1;}
	.st266{fill-rule:evenodd;clip-rule:evenodd;fill:#C9C5B5;}
	.st267{fill:#C6C2B6;}
	.st268{fill:#F5FFD0;}
	.st269{fill:#FF8E00;}
	.st270{fill-rule:evenodd;clip-rule:evenodd;fill:#CA6F05;}
	.st271{fill-rule:evenodd;clip-rule:evenodd;fill:#FFD48F;}
	.st272{fill-rule:evenodd;clip-rule:evenodd;fill:url(#SVGID_185_);}
	.st273{fill-rule:evenodd;clip-rule:evenodd;fill:#DB9746;}
	.st274{fill-rule:evenodd;clip-rule:evenodd;fill:#2293BF;}
	.st275{fill-rule:evenodd;clip-rule:evenodd;fill:#B3F5FF;}
	.st276{fill-rule:evenodd;clip-rule:evenodd;fill:url(#SVGID_186_);}
	.st277{fill-rule:evenodd;clip-rule:evenodd;fill:#008BD6;}
	.st278{fill-rule:evenodd;clip-rule:evenodd;fill:url(#SVGID_187_);}
	.st279{fill-rule:evenodd;clip-rule:evenodd;fill:url(#SVGID_188_);}
	.st280{fill-rule:evenodd;clip-rule:evenodd;fill:url(#SVGID_189_);}
	.st281{fill-rule:evenodd;clip-rule:evenodd;fill:url(#SVGID_190_);}
	.st282{fill-rule:evenodd;clip-rule:evenodd;fill:#D68F47;}
	.st283{fill:#CE7A00;}
	.st284{fill-rule:evenodd;clip-rule:evenodd;fill:url(#SVGID_191_);}
	.st285{fill-rule:evenodd;clip-rule:evenodd;fill:url(#SVGID_192_);}
	.st286{fill-rule:evenodd;clip-rule:evenodd;fill:url(#SVGID_193_);}
	.st287{fill-rule:evenodd;clip-rule:evenodd;fill:url(#SVGID_194_);}
	.st288{fill-rule:evenodd;clip-rule:evenodd;fill:url(#SVGID_195_);}
	.st289{fill:#2293BF;}
	.st290{fill-rule:evenodd;clip-rule:evenodd;fill:url(#SVGID_196_);}
	.st291{fill-rule:evenodd;clip-rule:evenodd;fill:url(#SVGID_197_);}
	.st292{fill-rule:evenodd;clip-rule:evenodd;fill:url(#SVGID_198_);}
	.st293{fill-rule:evenodd;clip-rule:evenodd;fill:url(#SVGID_199_);}
	.st294{fill-rule:evenodd;clip-rule:evenodd;fill:url(#SVGID_200_);}
	.st295{fill-rule:evenodd;clip-rule:evenodd;fill:url(#SVGID_201_);}
	.st296{fill-rule:evenodd;clip-rule:evenodd;fill:url(#SVGID_202_);}
	.st297{fill-rule:evenodd;clip-rule:evenodd;fill:url(#SVGID_203_);}
	.st298{fill-rule:evenodd;clip-rule:evenodd;fill:url(#SVGID_204_);}
	.st299{fill-rule:evenodd;clip-rule:evenodd;fill:url(#SVGID_205_);}
	.st300{fill-rule:evenodd;clip-rule:evenodd;fill:url(#SVGID_206_);}
	.st301{fill-rule:evenodd;clip-rule:evenodd;fill:url(#SVGID_207_);}
	.st302{fill-rule:evenodd;clip-rule:evenodd;fill:url(#SVGID_208_);}
	.st303{fill-rule:evenodd;clip-rule:evenodd;fill:url(#SVGID_209_);}
</style>
<g id="Layer_1">
</g>
<g id="Layer_2">
	<g>
		<defs>
			<rect id="SVGID_66_" x="-390.5" y="-492.8" width="1099.3" height="421.1"/>
		</defs>
		<clipPath id="SVGID_1_">
			<use xlink:href="#SVGID_66_"  style="overflow:visible;"/>
		</clipPath>
		<g style="clip-path:url(#SVGID_1_);">
			<rect x="-425" y="-44.2" class="st9" width="1145.7" height="78.5"/>
			<rect x="-425" y="-114.3" class="st20" width="1145.7" height="374.9"/>
		</g>
	</g>
	<g>
		<defs>
			<rect id="SVGID_122_" width="480" height="360"/>
		</defs>
		<clipPath id="SVGID_2_">
			<use xlink:href="#SVGID_122_"  style="overflow:visible;"/>
		</clipPath>
		<g style="clip-path:url(#SVGID_2_);">
			<rect class="st0" width="480" height="360"/>
			<path class="st1" d="M18.2,142.3c-1.6,0-3.1-0.6-4.3-1.8c-2.4-2.4-2.4-6.2,0-8.6c1.5-1.5,3.7-2.1,5.6-1.6
				c0.5-4.1,3.9-7.2,8.1-7.2c3.6,0,6.7,2.4,7.8,5.6c0.5-0.2,1.1-0.3,1.6-0.3c2.8,0,5.2,2.2,5.4,5c1.3-0.6,3-0.3,4,0.9
				c0.6,0.7,0.8,1.5,0.8,2.2c1.6,0,2.8,1.3,2.8,2.9c0,1.6-1.3,2.9-2.9,2.9C38.8,142.3,21.4,142.3,18.2,142.3z"/>
			<g>
				<g>
					<g>
						<path class="st2" d="M-168.3,204.8c-14.2-13.6-33.4-21.9-54.6-21.9c-19.4,0-37.2,7-51,18.7L-432.4,329c0,0-13.1,9.2-33.3,17.2
							c-20.6,8.2-48.3,15.3-67,15.3H33.4L-168.3,204.8z"/>
					</g>
					<g>
						<path class="st8" d="M137,215.8c-18.1-17.3-42.6-27.9-69.5-27.9c-24.8,0-47.4,8.9-64.9,23.7l-201.8,162.3
							c0,0-16.7,11.7-42.4,22c-26.2,10.5-61.5,19.5-85.3,19.5h720.8L137,215.8z"/>
					</g>
					<g>
						<path class="st8" d="M518,223.1c12.7-12.1,29.9-19.6,48.9-19.6c17.4,0,33.3,6.3,45.7,16.7l141.9,114.1c0,0,11.8,8.2,29.8,15.4
							c18.4,7.4,43.3,13.7,60,13.7H337.4L518,223.1z"/>
					</g>
					<g>
						<path class="st4" d="M84.4,258c0,1.3,1,2.3,2.3,2.3c1.2,0,2.3-1,2.3-2.3v-6.8h-4.5V258z"/>
						<path class="st7" d="M105,255.3c0.9,0,1.4-0.9,1-1.7l-18.6-34.9c-0.4-0.7-1.4-0.7-1.8,0L67,253.7c-0.4,0.8,0.1,1.7,1,1.7H105z
							"/>
						<path class="st7" d="M85.6,218.8c0.2-0.4,0.5-0.5,0.9-0.5v37.1H68.1c-0.9,0-1.4-0.9-1-1.7L85.6,218.8z"/>
						<path class="st7" d="M99.1,221.5c0.9,0,1.4-0.9,1-1.7l-12.6-23.7c-0.4-0.7-1.4-0.7-1.8,0L73,219.9c-0.4,0.8,0.1,1.7,1,1.7
							H99.1z"/>
						<path class="st7" d="M101.6,237.8c1,0,1.7-1.1,1.2-2l-15.1-28.4c-0.5-0.9-1.7-0.9-2.1,0l-15.1,28.4c-0.5,0.9,0.2,2,1.2,2
							H101.6z"/>
						<path class="st7" d="M85.6,207.4c0.2-0.4,0.6-0.6,1-0.6v31H71.6c-1,0-1.7-1.1-1.2-2L85.6,207.4z"/>
						<path class="st7" d="M85.6,196.1c0.2-0.3,0.5-0.5,0.8-0.5v25.9H74c-0.9,0-1.4-0.9-1-1.7L85.6,196.1z"/>
					</g>
					<g>
						<path class="st4" d="M16.1,218.3c0,1,0.8,1.8,1.8,1.8c1,0,1.8-0.8,1.8-1.8v-5.4h-3.6V218.3z"/>
						<path class="st7" d="M32.5,216.2c0.7,0,1.1-0.7,0.8-1.3l-14.8-27.7c-0.3-0.6-1.1-0.6-1.4,0L2.3,214.9
							c-0.3,0.6,0.1,1.3,0.8,1.3H32.5z"/>
						<path class="st7" d="M17.1,187.2c0.1-0.3,0.4-0.4,0.7-0.4v29.5H3.1c-0.7,0-1.1-0.7-0.8-1.3L17.1,187.2z"/>
						<path class="st7" d="M27.7,189.4c0.7,0,1.1-0.7,0.8-1.3l-10-18.8c-0.3-0.6-1.1-0.6-1.4,0L7.1,188c-0.3,0.6,0.1,1.3,0.8,1.3
							H27.7z"/>
						<path class="st7" d="M29.8,202.3c0.8,0,1.3-0.9,1-1.6l-12-22.5c-0.4-0.7-1.3-0.7-1.7,0L5,200.7c-0.4,0.7,0.1,1.6,1,1.6H29.8z"
							/>
						<path class="st7" d="M17,178.2c0.2-0.3,0.5-0.5,0.8-0.5v24.6H6c-0.8,0-1.3-0.9-1-1.6L17,178.2z"/>
						<path class="st7" d="M17.1,169.2c0.1-0.3,0.4-0.4,0.6-0.4v20.6H7.9c-0.7,0-1.1-0.7-0.8-1.3L17.1,169.2z"/>
					</g>
					<g>
						<path class="st4" d="M113.5,217.1c0,0.9,0.7,1.6,1.6,1.6s1.6-0.7,1.6-1.6v-4.8h-3.2V217.1z"/>
						<path class="st7" d="M128.3,215.2c0.6,0,1-0.7,0.7-1.2l-13.3-24.9c-0.3-0.5-1-0.5-1.3,0L101.2,214c-0.3,0.5,0.1,1.2,0.7,1.2
							H128.3z"/>
						<path class="st7" d="M114.4,189.1c0.1-0.2,0.4-0.4,0.6-0.4v26.5h-13.2c-0.6,0-1-0.7-0.7-1.2L114.4,189.1z"/>
						<path class="st7" d="M124,191c0.6,0,1-0.7,0.7-1.2l-9-16.9c-0.3-0.5-1-0.5-1.3,0l-9,16.9c-0.3,0.5,0.1,1.2,0.7,1.2H124z"/>
						<path class="st7" d="M125.8,202.6c0.7,0,1.2-0.8,0.9-1.4L115.9,181c-0.3-0.6-1.2-0.6-1.5,0l-10.8,20.2
							c-0.3,0.6,0.1,1.4,0.9,1.4H125.8z"/>
						<path class="st7" d="M114.4,181c0.1-0.3,0.4-0.4,0.7-0.5v22.1h-10.6c-0.7,0-1.2-0.8-0.9-1.4L114.4,181z"/>
						<path class="st7" d="M114.4,172.9c0.1-0.2,0.3-0.4,0.6-0.4V191h-8.9c-0.6,0-1-0.7-0.7-1.2L114.4,172.9z"/>
					</g>
					<g>
						<path class="st4" d="M476,260.2c0,1.3,1,2.3,2.3,2.3c1.3,0,2.3-1,2.3-2.3v-6.9H476V260.2z"/>
						<path class="st3" d="M496.9,257.5c0.9,0,1.4-0.9,1-1.7l-18.8-35.4c-0.4-0.7-1.4-0.7-1.8,0l-18.8,35.4c-0.4,0.8,0.1,1.7,1,1.7
							H496.9z"/>
						<path class="st5" d="M477.3,220.5c0.2-0.4,0.5-0.5,0.9-0.5v37.6h-18.7c-0.9,0-1.4-0.9-1-1.7L477.3,220.5z"/>
						<path class="st3" d="M490.9,223.2c0.9,0,1.4-0.9,1-1.7l-12.8-24c-0.4-0.7-1.4-0.7-1.8,0l-12.8,24c-0.4,0.8,0.1,1.7,1,1.7
							H490.9z"/>
						<path class="st3" d="M493.4,239.7c1,0,1.7-1.1,1.2-2l-15.3-28.7c-0.5-0.9-1.7-0.9-2.2,0l-15.3,28.7c-0.5,0.9,0.2,2,1.2,2
							H493.4z"/>
						<path class="st5" d="M477.2,208.9c0.2-0.4,0.6-0.6,1-0.6v31.4h-15.1c-1,0-1.7-1.1-1.2-2L477.2,208.9z"/>
						<path class="st5" d="M477.3,197.5c0.2-0.3,0.5-0.5,0.8-0.5v26.3h-12.6c-0.9,0-1.4-0.9-1-1.7L477.3,197.5z"/>
					</g>
				</g>
				<g>
					<g>
						<path class="st13" d="M213.8,258.9c-10.2-9.7-24-15.7-39.2-15.7c-13.9,0-26.7,5-36.6,13.4l-81.8,66.7c0,0-25.2,20.5-52.2,32.7
							c-14.5,6.6-38.3,15.3-51.7,15.3h406.2L213.8,258.9z"/>
					</g>
					<g>
						<path class="st9" d="M413.4,238.6c-12.2-11.6-28.7-18.8-46.9-18.8c-16.7,0-31.9,6-43.8,16l-112.5,91.6
							c0,0-29.2,23.9-52.1,32.6c-17.8,6.7-41.5,13.1-57.5,13.1h485.9L413.4,238.6z"/>
					</g>
					<g>
						<path class="st9" d="M-33.3,255.3c-10.5-10-24.7-16.2-40.4-16.2c-14.4,0-27.6,5.2-37.7,13.8l-84.4,68.8c0,0-26,21.1-53.8,33.8
							c-14.9,6.8-39.5,15.8-53.3,15.8h419L-33.3,255.3z"/>
					</g>
					<g>
						<path class="st15" d="M293.7,324l-6.8-6.9c-2-2-4.6-4.6-4.4-12.2v-30.7h-1.1v32c0,7.2,1.8,9.7,4.9,12.8
							c4.6,4.6,5.8,6.3,7.8,8.3v-2.5L293.7,324z"/>
						<rect x="291.8" y="285.2" class="st15" width="6.9" height="84.6"/>
						<path class="st15" d="M298.5,332.2L298.5,332.2c2.3-2.3,3.6-5.5,3.6-8.8v-39h1.8v40c0,5.2-2.1,10.2-5.7,13.8l0,0L298.5,332.2z
							"/>
						<path class="st16" d="M304,305l4.9-5c1.5-1.5,3.3-3.3,3.2-8.7v-22h0.8v22.9c0,5.2-1.3,6.9-3.5,9.1c-3.3,3.3-4.1,4.5-5.6,6
							v-1.8L304,305z"/>
						<path class="st17" d="M335.6,261.1c0-11.5-7.9-21.1-18.5-23.8c-0.2-9.4-7.9-17-17.4-17c-4.2,0-8.1,1.5-11.1,4
							c-2.5-1.1-5.2-1.8-8.1-1.8c-10.6,0-19.2,8.6-19.2,19.2c0,2.4,0.5,4.7,1.3,6.8C254,253,248,262,248,272.4
							c0,14.3,11.1,25.9,25.1,26.9c0.7,0.1,1.3,0.1,2,0.1c2.6,9.1,10.8,15.8,20.7,15.8c11.9,0,21.5-9.8,21.5-21.8v-1.4
							c4.6-1.8,7.9-6.1,8.3-11.2C331.6,276.4,335.6,269.3,335.6,261.1z"/>
						<path class="st12" d="M325.3,255c0-11.1-9-20.1-20.1-20.1c-2.3,0-4.5,0.4-6.5,1.1c-2.3-5.2-7.5-8.8-13.5-8.8
							c-8.2,0-14.8,6.6-14.8,14.8c0,0.3,0,0.6,0,0.9c-7.8,2.7-13.4,10.1-13.4,18.8c0,11,8.9,19.9,19.9,19.9c1.8,0,3.5-0.2,5.1-0.7
							c1.6,5.7,6.7,9.8,12.9,9.8c5.4,0,10.1-3.2,12.2-7.9c0.1,0,0.1,0,0.2,0c6.6,0,12-5.3,12.2-11.9h0v-1.5
							C323,265.6,325.3,260.5,325.3,255z"/>
					</g>
					<g>
						<path class="st4" d="M414.9,311.8c0,1.4,1.2,2.6,2.6,2.6c1.4,0,2.6-1.2,2.6-2.6v-7.9h-5.2V311.8z"/>
						<path class="st6" d="M438.8,308.7c1,0,1.6-1.1,1.2-1.9l-21.5-40.4c-0.4-0.8-1.6-0.8-2.1,0l-21.5,40.4
							c-0.5,0.9,0.2,1.9,1.2,1.9H438.8z"/>
						<path class="st7" d="M416.4,266.4c0.2-0.4,0.6-0.6,1-0.6v42.9H396c-1,0-1.6-1.1-1.2-1.9L416.4,266.4z"/>
						<path class="st6" d="M431.9,269.6c1,0,1.6-1.1,1.2-1.9l-14.6-27.4c-0.4-0.8-1.6-0.8-2.1,0l-14.6,27.4
							c-0.5,0.9,0.2,1.9,1.2,1.9H431.9z"/>
						<path class="st6" d="M434.9,288.4c1.2,0,2-1.3,1.4-2.3l-17.5-32.8c-0.5-1-2-1-2.5,0L398.8,286c-0.6,1.1,0.2,2.3,1.4,2.3H434.9
							z"/>
						<path class="st7" d="M416.3,253.2c0.2-0.5,0.7-0.7,1.1-0.7v35.9h-17.2c-1.2,0-2-1.3-1.4-2.3L416.3,253.2z"/>
						<path class="st7" d="M416.4,240.2c0.2-0.4,0.6-0.6,0.9-0.6v30h-14.4c-1,0-1.6-1.1-1.2-1.9L416.4,240.2z"/>
					</g>
					<g>
						<path class="st4" d="M390.9,252.4c0,1.3-1,2.3-2.3,2.3c-1.3,0-2.3-1.1-2.3-2.3v-7h4.7V252.4z"/>
						<path class="st18" d="M369.5,249.7c-0.9,0-1.5-1-1-1.7l19.2-36.1c0.4-0.7,1.5-0.7,1.9,0l19.2,36.1c0.4,0.8-0.1,1.7-1,1.7
							H369.5z"/>
						<path class="st19" d="M389.6,211.8c-0.2-0.4-0.6-0.5-0.9-0.6v38.4h19.1c0.9,0,1.5-1,1-1.7L389.6,211.8z"/>
						<path class="st18" d="M375.7,214.7c-0.9,0-1.5-1-1-1.7l13.1-24.5c0.4-0.7,1.5-0.7,1.9,0l13.1,24.5c0.4,0.8-0.2,1.7-1,1.7
							H375.7z"/>
						<path class="st18" d="M373,231.5c-1.1,0-1.8-1.1-1.3-2.1l15.7-29.3c0.5-0.9,1.7-0.9,2.2,0l15.7,29.3c0.5,0.9-0.2,2.1-1.3,2.1
							H373z"/>
						<path class="st19" d="M389.6,200.1c-0.2-0.4-0.6-0.6-1-0.7v32.1H404c1.1,0,1.8-1.1,1.3-2.1L389.6,200.1z"/>
						<path class="st19" d="M389.6,188.4c-0.2-0.3-0.5-0.5-0.8-0.5v26.8h12.9c0.9,0,1.5-1,1-1.7L389.6,188.4z"/>
					</g>
				</g>
			</g>
			<rect x="-390.5" y="-7.9" class="st182" width="1099.3" height="421.1"/>
			<path class="st1" d="M109.7,66.9c8.5,0,15.5-6.9,15.5-15.5c0-8.5-6.9-15.5-15.5-15.5c-2.3,0-4.5,0.5-6.5,1.5
				C101.5,29,94,22.6,85,22.6c-9.2,0-16.8,6.7-18.3,15.5c-3.1-0.8-6.5,0-8.8,2.4c-1.8,1.9-2.6,4.3-2.5,6.6c-2.9-0.4-6,0.6-8.3,2.8
				c-3.9,3.9-3.9,10.2,0,14.1c2,2,4.6,2.9,7.2,2.9L109.7,66.9z"/>
			<path class="st1" d="M436.8,157.4c2.9,0,5.8-1.1,8-3.3c4.5-4.5,4.5-11.7,0-16.2c-2.9-2.9-6.9-3.9-10.5-3.1
				c-0.9-7.6-7.4-13.5-15.2-13.5c-6.8,0-12.6,4.4-14.6,10.6c-1-0.3-2-0.5-3.1-0.5c-5.3,0-9.7,4.1-10.1,9.3c-2.5-1.2-5.6-0.6-7.6,1.6
				c-1.1,1.2-1.6,2.7-1.6,4.2c-3,0-5.3,2.4-5.3,5.4c0,3,2.4,5.4,5.4,5.4C398.1,157.4,430.7,157.4,436.8,157.4z"/>
		</g>
	</g>
</g>
<g id="Layer_3">
	<g>
		<path class="st263" d="M318.6,121.2c-1.7-17.3-11.6-31.3-24.6-35.8c-9.8-3.4-20.5-3.7-30.6-4.3c-9.1-0.6-18.2-0.8-27.3-0.7
			c-13,0.1-26,1-39,2.5c-10.3,1.2-21.4,3.2-29.2,12.8c-6.5,8-10.2,19.2-10.2,30.8c0,0,0,29.7,0,60.6c0,2.3,0,4.6,0,6.9l0.9,60.6
			c0,1.7,0.1,3.5,0.2,5.2c1.7,17.3,11.6,31.3,24.6,35.8c9.8,3.4,20.5,3.7,30.6,4.3c9.1,0.6,17.3,0.8,26.4,0.7c13-0.1,25.1-1,38-2.5
			c10.3-1.2,21.4-3.2,29.2-12.8c6.5-8,10.2-19.2,10.2-30.8c0,0,0.9-29.7,0.9-60.6V187v-60.6C318.9,124.7,318.8,123,318.6,121.2z"/>
		<path class="st264" d="M238.1,307.7c-7.4,0-14.5-0.2-22.5-0.7l-2.8-0.2c-9.5-0.6-19.3-1.1-28.7-4.3c-14.7-5-25.3-20.3-27.2-38.9
			c-0.2-1.9-0.3-3.8-0.3-5.6l-0.9-59.9l0-66.8c0-12.5,4.1-24.6,11.2-33.3c8.6-10.5,20.8-12.7,31.5-13.9c13-1.5,26.2-2.3,39.3-2.5
			c1.4,0,2.8,0,4.2,0c7.8,0,15.6,0.2,23.4,0.7l2.8,0.2c9.5,0.6,19.3,1.1,28.6,4.3c14.7,5,25.3,20.3,27.2,38.9
			c0.2,1.9,0.3,3.8,0.3,5.6V198c0,29-0.8,56.8-0.9,60c0,12.4-4.1,24.5-11.2,33.3c-8.6,10.5-20.8,12.7-31.5,13.9
			c-13.4,1.6-25.6,2.3-38.4,2.5C240.9,307.7,239.5,307.7,238.1,307.7z"/>
		<path class="st263" d="M236.3,304.7c-7.4,0-14.5-0.2-22.5-0.7l-2.8-0.2c-9.5-0.6-19.3-1.2-28.7-4.3c-14.7-5-25.3-20.5-27.2-39.3
			c-0.2-1.9-0.3-3.8-0.3-5.7l-0.9-60.5l0-67.5c0-12.6,4.1-24.9,11.2-33.7c8.6-10.6,20.8-12.8,31.5-14.1c13-1.5,26.2-2.4,39.3-2.5
			c1.4,0,2.8,0,4.2,0c7.8,0,15.6,0.2,23.4,0.7l2.8,0.2c9.5,0.6,19.3,1.2,28.6,4.3c14.7,5,25.3,20.5,27.2,39.3
			c0.2,1.9,0.3,3.8,0.3,5.7v67.4c0,29.3-0.8,57.3-0.9,60.6c0,12.6-4.1,24.8-11.2,33.6c-8.6,10.6-20.8,12.8-31.5,14.1
			c-13.4,1.6-25.6,2.4-38.4,2.5C239.1,304.7,237.7,304.7,236.3,304.7z"/>
		<path class="st265" d="M318.6,121.2c-1.7-17.3-11.6-31.3-24.6-35.8c-9.8-3.4-20.5-3.7-30.6-4.3c-9.1-0.6-18.2-0.8-27.3-0.7
			c-13,0.1-26,1-39,2.5c-10.3,1.2-21.4,3.2-29.2,12.8c-6.5,8-10.2,19.2-10.2,30.8c0,0,0,29.7,0,60.6c0,2.3,0,4.6,0,6.9l0.9,60.6
			c0,1.7,0.1,3.5,0.2,5.2c1.7,17.3,11.6,31.3,24.6,35.8c9.8,3.4,20.5,3.7,30.6,4.3c9.1,0.6,17.3,0.8,26.4,0.7c13-0.1,25.1-1,38-2.5
			c10.3-1.2,21.4-3.2,29.2-12.8c6.5-8,10.2-19.2,10.2-30.8c0,0,0.9-29.7,0.9-60.6V187v-60.6C318.9,124.7,318.8,123,318.6,121.2z"/>
		<path class="st265" d="M318.6,121.2c-1.7-17.3-11.6-31.3-24.6-35.8c-9.8-3.4-20.5-3.7-30.6-4.3c-9.1-0.6-18.2-0.8-27.3-0.7
			c-13,0.1-26,1-39,2.5c-10.3,1.2-21.4,3.2-29.2,12.8c-6.5,8-10.2,19.2-10.2,30.8c0,0,0,29.7,0,60.6c0,2.3,0,4.6,0,6.9l0.9,60.6
			c0,1.7,0.1,3.5,0.2,5.2c1.7,17.3,11.6,31.3,24.6,35.8c9.8,3.4,20.5,3.7,30.6,4.3c9.1,0.6,17.3,0.8,26.4,0.7c13-0.1,25.1-1,38-2.5
			c10.3-1.2,21.4-3.2,29.2-12.8c6.5-8,10.2-19.2,10.2-30.8c0,0,0.9-29.7,0.9-60.6V187v-60.6C318.9,124.7,318.8,123,318.6,121.2z"/>
		<path class="st266" d="M319.7,116.1c-1.7-15-11.6-27-24.6-30.9c-9.8-2.9-20.5-3.2-30.6-3.8c-9.1-0.5-18.2-0.7-27.3-0.6
			c-13,0.1-26,0.8-39,2.1c-10.3,1-21.4,2.7-29.2,11c-6.5,6.9-10.2,16.6-10.2,26.6c0,0,0,1.1,0,3.1c0-10,3.8-19.7,10.2-26.6
			c7.8-8.3,19-10,29.2-11c13-1.3,26-2,39-2.1c9.1-0.1,18.2,0.1,27.3,0.6c10.1,0.5,20.8,0.9,30.6,3.8c13,3.9,22.9,15.9,24.6,30.9
			c0.2,1.5,0.2,3,0.2,4.5v-3.1C319.9,119.2,319.9,117.6,319.7,116.1z"/>
		<g>
			<g>
				<polygon class="st267" points="128.9,110.8 130.4,104.9 128.8,105.4 124.2,96.5 126.6,95.6 123.2,87.7 124.5,87.2 122.5,86.3 
					131.4,76.8 136,81.3 136.9,74.9 152.3,75 151,77.8 151.8,77.5 153.8,84.4 155.4,83.7 157.5,94.6 159.4,94.9 153.4,108.4 
					143.4,103.3 141,112 				"/>
				<polygon class="st267" points="117.4,122.7 120.1,110.8 115.8,111 116.5,102.7 113.9,104.1 108.4,92.8 112.1,91.6 109.8,89 
					119.9,80.7 123.7,87.8 127.3,86.7 129.5,94.1 128.3,99.9 133.6,101.8 132.4,109.6 160.7,99.7 161.7,112.1 130.7,120.1 
					130,124.5 				"/>
				<polygon class="st267" points="175.9,85.4 172.7,86.9 168.4,79 173.8,75.6 172.2,68 186,65.2 186.2,67.8 190.7,65 197.3,74 
					197.5,74 197.5,74.4 198,75.1 197.6,75.2 199,86.7 176.7,89.3 				"/>
				<polygon class="st267" points="160.7,85.8 158.3,86.9 153.8,79.9 169.5,67.1 177,77.8 172.6,79.9 174.7,88.7 161.1,92.4 				"/>
				<polygon class="st267" points="158.5,102.9 162,100.4 159.7,88.4 197.1,82.7 198,94.1 200.3,94.4 196.1,106.2 178.9,101.3 
					168.2,110.3 				"/>
				<polygon class="st267" points="199.4,73 203.3,62 216.3,65.5 214.5,69.2 218.3,68.7 220.8,61.8 233.6,64.9 232.9,66.1 
					240.6,65.1 241.1,96 226.1,99.7 222.6,86.8 229.3,86.6 228.7,77.2 226.2,77.4 223.6,81.8 221.7,80.9 222.3,98.7 202.2,100.7 
									"/>
				<polygon class="st267" points="217.4,79.9 228.3,74.1 234.2,86.8 225.5,90.8 				"/>
				<polygon class="st267" points="267.4,74.6 276.6,70.5 286.2,86.2 274.1,92.5 				"/>
				<polygon class="st267" points="238.8,83.4 251.1,68.9 259.2,74.9 249.8,91.9 				"/>
				<polygon class="st267" points="302.7,95.6 290,105.4 280.8,91.9 300.2,82 304.2,64.2 319,69.3 312.7,87.7 326.6,101.4 
					312.9,109.7 				"/>
				<polygon class="st267" points="308.6,83.3 322,70.2 332.2,82.2 315.7,91.6 				"/>
				<polygon class="st267" points="283,76.4 294.3,65 305,80.4 297.5,88.1 				"/>
				<polygon class="st267" points="345.7,125.1 343.3,129.6 329.7,121.9 332.2,118.4 320,112.3 323.6,100.3 326,101.6 333.6,94.3 
					330.4,92.6 334.5,82.5 341.9,86.4 345,83.5 356.2,92.5 355.1,93.4 371.5,102.1 366.9,111.9 355.8,106 355.6,106.3 364.2,110.6 
					358.4,119.4 362.2,121.4 355.2,129.8 				"/>
				<path class="st267" d="M262.3,62.7c-1.5,0-2.9-0.7-3.8-1.8c-1.8-0.4-3.1-2-3.1-3.9c0-1.5,0.8-2.8,2.1-3.5
					c0.8-1.3,2.3-2.1,3.8-2.1c0.3,0,0.6,0,0.9,0.1c0.7-0.4,1.5-0.6,2.3-0.6c2.5,0,4.5,2,4.5,4.4c0.4,0.6,0.7,1.4,0.7,2.2
					c0,2.2-1.8,4-4,4c0,0-0.1,0-0.1,0C264.7,62.3,263.5,62.7,262.3,62.7z"/>
				<path class="st267" d="M252.7,56.6c-2,0-3.8-1-5-2.6c-2.3-0.4-4.1-2.4-4.1-4.8c0-1.9,1.1-3.5,2.7-4.3c1-1.7,2.8-2.8,4.9-2.8
					c0.5,0,1.1,0.1,1.6,0.2c0.9-0.6,2-1,3.2-1c3,0,5.5,2.5,5.5,5.5c0,0.1,0,0.2,0,0.3c0.6,0.8,1,1.8,1,2.9c0,2.6-2.1,4.8-4.8,4.8
					c-0.2,0-0.4,0-0.6,0C255.9,55.9,254.3,56.6,252.7,56.6z"/>
				<path class="st267" d="M234.3,52.2c-2.9,0-5.6-1.6-7.1-4c-3.3-0.2-5.9-2.9-5.9-6.2c0-2.6,1.6-4.9,3.9-5.8
					c1.3-2.5,3.8-4.1,6.7-4.1c1,0,1.9,0.2,2.8,0.6c1.3-1.1,3-1.8,4.8-1.8c4,0,7.3,3.3,7.3,7.3c0,0.3,0,0.6-0.1,0.9
					c1,1.1,1.6,2.6,1.6,4.2c0,3.4-2.8,6.2-6.2,6.2c-0.5,0-1-0.1-1.5-0.2C239.2,51.1,236.9,52.2,234.3,52.2z"/>
				<polygon class="st267" points="251.4,86 256.9,87 258.3,62.1 259.4,62.1 259.4,59.8 269.2,59.8 269.2,61.8 270.5,61.7 
					269.9,100.5 251.6,101 				"/>
			</g>
			<g>
				<polygon class="st268" points="127.6,108.3 129.1,102.4 127.5,102.9 123,94 125.3,93.1 121.9,85.2 123.3,84.7 121.3,83.8 
					130.1,74.3 134.8,78.8 135.7,72.4 151,72.5 149.7,75.3 150.6,75 152.5,81.9 154.1,81.2 156.3,92.1 158.2,92.4 152.1,105.9 
					142.1,100.8 139.7,109.5 				"/>
				<polygon class="st268" points="116.2,120.2 118.8,108.3 114.5,108.5 115.2,100.2 112.6,101.6 107.2,90.2 110.9,89.1 108.5,86.5 
					118.6,78.2 122.4,85.3 126,84.2 128.3,91.6 127,97.4 132.4,99.3 131.1,107.1 159.5,97.2 160.5,109.6 129.4,117.6 128.7,122 				
					"/>
				<polygon class="st268" points="174.6,82.9 171.5,84.4 167.2,76.5 172.6,73.1 171,65.5 184.7,62.7 184.9,65.3 189.4,62.5 
					196,71.5 196.2,71.5 196.2,71.9 196.8,72.5 196.4,72.7 197.8,84.2 175.5,86.8 				"/>
				<polygon class="st268" points="159.4,83.3 157,84.4 152.5,77.4 168.3,64.6 175.7,75.3 171.3,77.4 173.4,86.2 159.8,89.9 				"/>
				<polygon class="st268" points="157.3,100.4 160.8,97.9 158.4,85.9 195.8,80.2 196.7,91.6 199.1,91.9 194.9,103.7 177.7,98.8 
					166.9,107.8 				"/>
				<polygon class="st268" points="198.1,70.5 202,59.5 215.1,63 213.2,66.7 217.1,66.1 219.5,59.3 232.4,62.4 231.7,63.6 
					239.3,62.6 239.9,93.5 224.8,97.2 221.4,84.3 228,84.1 227.5,74.7 225,74.9 222.4,79.3 220.4,78.4 221.1,96.2 201,98.2 				"/>
				<polygon class="st268" points="216.1,77.4 227.1,71.6 232.9,84.3 224.2,88.3 				"/>
				<polygon class="st268" points="266.1,72.1 275.3,68 284.9,83.6 272.8,90 				"/>
				<polygon class="st268" points="237.6,80.9 249.9,66.4 258,72.4 248.6,89.4 				"/>
				<polygon class="st268" points="301.5,93.1 288.7,102.9 279.5,89.3 298.9,79.5 302.9,61.7 317.7,66.8 311.4,85.2 325.4,98.9 
					311.6,107.2 				"/>
				<polygon class="st268" points="307.3,80.8 320.8,67.7 330.9,79.7 314.4,89.1 				"/>
				<polygon class="st268" points="281.7,73.9 293,62.5 303.7,77.9 296.2,85.6 				"/>
				<polygon class="st268" points="344.5,122.6 342.1,127.1 328.5,119.4 330.9,115.9 318.7,109.8 322.3,97.8 324.7,99.1 332.4,91.8 
					329.2,90.1 333.3,80 340.7,83.9 343.8,81 355,90 353.9,90.9 370.2,99.6 365.7,109.4 354.5,103.5 354.4,103.8 362.9,108.1 
					357.2,116.9 360.9,118.9 354,127.3 				"/>
				<path class="st268" d="M261.1,60.2c-1.5,0-2.9-0.7-3.8-1.8c-1.8-0.4-3.1-2-3.1-3.9c0-1.5,0.8-2.8,2.1-3.5
					c0.8-1.3,2.3-2.1,3.8-2.1c0.3,0,0.6,0,0.9,0.1c0.7-0.4,1.5-0.6,2.3-0.6c2.5,0,4.5,2,4.5,4.4c0.4,0.6,0.7,1.4,0.7,2.2
					c0,2.2-1.8,4-4,4c0,0-0.1,0-0.1,0C263.4,59.8,262.3,60.2,261.1,60.2z"/>
				<path class="st268" d="M251.4,54.1c-2,0-3.8-1-5-2.6c-2.3-0.4-4.1-2.4-4.1-4.8c0-1.9,1.1-3.5,2.7-4.3c1-1.7,2.8-2.8,4.9-2.8
					c0.5,0,1.1,0.1,1.6,0.2c0.9-0.6,2-1,3.2-1c3,0,5.5,2.5,5.5,5.5c0,0.1,0,0.2,0,0.3c0.6,0.8,1,1.8,1,2.9c0,2.6-2.1,4.8-4.8,4.8
					c-0.2,0-0.4,0-0.6,0C254.6,53.4,253.1,54.1,251.4,54.1z"/>
				<path class="st268" d="M233.1,49.7c-2.9,0-5.6-1.6-7.1-4c-3.3-0.2-5.9-2.9-5.9-6.2c0-2.6,1.6-4.9,3.9-5.8
					c1.3-2.5,3.8-4.1,6.7-4.1c1,0,1.9,0.2,2.8,0.6c1.3-1.1,3-1.8,4.8-1.8c4,0,7.3,3.3,7.3,7.3c0,0.3,0,0.6-0.1,0.9
					c1,1.1,1.6,2.6,1.6,4.2c0,3.4-2.8,6.2-6.2,6.2c-0.5,0-1-0.1-1.5-0.2C237.9,48.5,235.6,49.7,233.1,49.7z"/>
				<polygon class="st268" points="250.1,83.5 255.6,84.5 257,59.6 258.1,59.5 258.1,57.3 267.9,57.3 267.9,59.3 269.2,59.2 
					268.6,98 250.4,98.4 				"/>
			</g>
			<g>
				<polygon class="st269" points="127.5,91.9 135.1,89.1 134.4,92.1 126.4,95.3 128.8,99.8 132.7,98.6 130.7,106.1 137.9,106.8 
					140.5,97.1 150.9,102.5 154.6,94.4 148.5,93.4 153.6,91.7 152.3,84.7 142.9,88.6 143.6,85.8 150.3,83.3 148.9,78.2 144.7,79.7 
					147.1,75 137.9,74.9 136.8,82.5 135.5,83 130.2,77.9 125.4,83 129.8,85.1 125.3,86.7 				"/>
				<polygon class="st269" points="128,110.9 129.6,101 124.1,99.1 125.7,91.7 124.4,87.4 121.2,88.3 117.8,82 112.1,86.7 
					115.3,90.2 110.7,91.7 113.7,98.1 118.1,95.8 117.3,105.9 122,105.7 119.2,118.1 126.6,119.2 127.2,115.6 157.8,107.7 
					157.2,100.6 				"/>
				<polygon class="st269" points="170.5,77.4 172.5,81.1 176.4,79.3 177.4,84 195,82 194.1,74.8 183.4,78.1 183.2,76.1 192.9,71.6 
					188.8,65.9 182.8,69.6 182.5,65.7 174,67.4 175.4,74.3 				"/>
				<polygon class="st269" points="162.1,86.7 170.4,84.4 168.4,76 172,74.3 167.8,68.2 155.8,77.9 157.9,81.2 161.7,79.4 				"/>
				<path class="st269" d="M183.2,90.9l-2.6-1.6l4.4-0.6l0.8,4.3l8.3-1.6l-0.6-8.3L161.4,88l1.9,9.5l3.4-0.7l-5.2,3.7l5.3,4.1
					l10.2-8.6l16.2,4.6l2.3-6.6l-14.4-1.5L183.2,90.9z M170.5,94.1l-0.4-3.4l6.5-0.9L170.5,94.1z"/>
				<path class="st269" d="M226.9,66.8l1.6-2.7l-7.4-1.8l-3.4,9.8l-0.1-3.4l-8.7,1.2l2.6-5.3l-7.9-2.1l-2.9,8.3l2.5,24.6l15.3-1.5
					l-0.7-19.5l3.6,1.6l2.1-3.5l6.3-0.5l0.9,14.6l-6.1,0.2l2,7.5l10.7-2.7l-0.5-26.1L226.9,66.8z M208.9,75.1l2.8-0.3l0.4,5.3
					l-2.7,0.3L208.9,75.1z M210.1,89.2l-0.3-3.9l2.6-0.1l0.2,3.9L210.1,89.2z"/>
				<polygon class="st269" points="229.6,83.1 225.9,75.1 219.9,78.3 225,85.2 				"/>
				<polygon class="st269" points="269.3,73.4 274.2,86.4 281.4,82.7 274.3,71.2 				"/>
				<polygon class="st269" points="250.3,69.8 241.2,80.5 247.8,85.7 254.7,73.1 				"/>
				<polygon class="st269" points="309.2,84 314.5,68.3 304.8,65 301.1,81.2 283.2,90.3 289.3,99.3 302,89.5 312.3,103.9 
					321.3,98.5 307.8,85.1 				"/>
				<polygon class="st269" points="315,85.9 327.1,79 320.6,71.4 310.8,81 				"/>
				<polygon class="st269" points="300.5,77.6 292.7,66.4 285.5,73.7 296,82.2 				"/>
				<polygon class="st269" points="364.5,106 367,100.7 349.3,91.3 351,90 343.9,84.3 341.1,87 334.5,83.5 332.4,88.9 336.6,91.2 
					328.1,99.3 340.6,106.5 338.5,109.5 323.8,101.4 321.7,108.5 334.6,114.9 332.1,118.6 341.1,123.7 343.4,119.3 353.3,124.2 
					357.1,119.7 346.3,113.8 347.8,110.8 355.3,115.1 359.3,109.1 351,104.8 352.2,102.5 346,98.8 344.2,101.4 339.6,99.1 
					344.3,95.3 				"/>
				<path class="st269" d="M256.7,54.5c0,0.9,0.7,1.6,1.6,1.6c0.2,0,0.3,0,0.5-0.1c0.3,1,1.2,1.8,2.3,1.8c1,0,1.9-0.7,2.3-1.6
					c0.3,0.2,0.6,0.4,1,0.4c0.8,0,1.5-0.7,1.5-1.5c0-0.6-0.3-1.1-0.8-1.4c0.1-0.2,0.2-0.5,0.2-0.8c0-1.1-0.9-2-2-2
					c-0.8,0-1.4,0.4-1.8,1.1c-0.4-0.3-0.9-0.6-1.4-0.6c-1,0-1.8,0.7-2,1.6C257.3,53,256.7,53.7,256.7,54.5z"/>
				<path class="st269" d="M247.2,49.1c0.3,0,0.5,0,0.7-0.1c0.4,1.5,1.8,2.6,3.5,2.6c1.6,0,2.9-1,3.4-2.4c0.4,0.4,0.9,0.6,1.5,0.6
					c1.3,0,2.3-1,2.3-2.3c0-0.9-0.5-1.6-1.2-2c0.2-0.4,0.2-0.8,0.2-1.2c0-1.6-1.3-3-3-3c-1.1,0-2.1,0.7-2.6,1.6
					c-0.6-0.5-1.3-0.8-2.1-0.8c-1.4,0-2.7,1-3,2.3c-1.1,0.1-2,1.1-2,2.3C244.9,48.1,245.9,49.1,247.2,49.1z"/>
				<path class="st269" d="M244.7,40.7c0-1.4-0.8-2.6-2-3.2c0.3-0.6,0.4-1.2,0.4-1.9c0-2.6-2.1-4.8-4.8-4.8c-1.8,0-3.4,1-4.2,2.6
					c-0.9-0.8-2.1-1.3-3.4-1.3c-2.3,0-4.3,1.6-4.9,3.7c-1.8,0.2-3.3,1.8-3.3,3.7c0,2.1,1.7,3.7,3.7,3.7c0.4,0,0.8-0.1,1.2-0.2
					c0.7,2.4,3,4.2,5.6,4.2c2.5,0,4.6-1.6,5.5-3.8c0.6,0.6,1.5,1,2.5,1C243,44.4,244.7,42.7,244.7,40.7z"/>
				<polygon class="st269" points="265.4,59.8 260.6,59.8 260.6,62 259.4,62 257.9,87.5 252.7,86.5 252.8,95.9 266.2,95.5 
					266.7,61.8 265.4,61.8 				"/>
			</g>
		</g>
	</g>
</g>
</svg>
