<?xml version="1.0" encoding="utf-8"?>
<!-- Generator: Adobe Illustrator 22.1.0, SVG Export Plug-In . SVG Version: 6.00 Build 0)  -->
<svg version="1.1" xmlns="http://www.w3.org/2000/svg" xmlns:xlink="http://www.w3.org/1999/xlink" x="0px" y="0px"
	 viewBox="0 0 122.5 34.2" style="enable-background:new 0 0 122.5 34.2;" xml:space="preserve">
<style type="text/css">
	.st0{fill:#80F0F9;}
	.st1{fill:#FFFFFF;}
	.st2{fill:#198974;}
	.st3{fill:#47AD2F;}
	.st4{fill:#7A5C41;}
	.st5{fill:#5CC13A;}
	.st6{fill:#237C11;}
	.st7{fill:#3FA541;}
	.st8{fill:#10725F;}
	.st9{fill:#8DE00A;}
	.st10{fill:#938548;}
	.st11{fill:#498C44;}
	.st12{fill:#7BCE05;}
	.st13{fill:#54CC06;}
	.st14{opacity:0.56;fill:#7CBA04;}
	.st15{fill:#876D33;}
	.st16{fill:#C4B08D;}
	.st17{fill:#56C437;}
	.st18{fill:#49AD07;}
	.st19{fill:#359B3C;}
	.st20{fill:#E2E2E2;}
	.st21{fill:#72706F;}
	.st22{fill:#231815;}
	.st23{fill:#5F3813;}
	.st24{fill:#FCC047;}
	.st25{fill:#E8AF2E;}
	.st26{fill:#603008;}
	.st27{fill:#994405;}
	.st28{fill:#E6E6E7;}
	.st29{fill:#3B2314;}
	.st30{fill:#F0F1F1;}
	.st31{fill:#E0A246;}
	.st32{fill:#4F2B0E;}
	.st33{fill:#7BAD1A;}
	.st34{fill:#97FAFF;}
	.st35{fill:#5DC5EE;}
	.st36{fill:#DE97FF;}
	.st37{fill:#AC3EE5;}
	.st38{fill:#F8CDDB;}
	.st39{fill:#F95892;}
	.st40{fill:#D5FFBD;}
	.st41{fill:#58B431;}
	.st42{fill:#F9EFE5;}
	.st43{fill:#BDAA9A;}
	.st44{fill:#DDCCBF;}
	.st45{fill:#69311A;}
	.st46{opacity:0.43;fill:url(#SVGID_1_);}
	.st47{opacity:0.43;fill:url(#SVGID_2_);}
	.st48{opacity:0.43;fill:url(#SVGID_3_);}
	.st49{opacity:0.43;fill:url(#SVGID_4_);}
	.st50{opacity:0.43;fill:url(#SVGID_5_);}
	.st51{clip-path:url(#SVGID_7_);}
	.st52{clip-path:url(#SVGID_9_);}
	.st53{clip-path:url(#SVGID_11_);}
	.st54{clip-path:url(#SVGID_13_);}
	.st55{clip-path:url(#SVGID_15_);}
	.st56{clip-path:url(#SVGID_17_);}
	.st57{clip-path:url(#SVGID_19_);}
	.st58{clip-path:url(#SVGID_21_);}
	.st59{clip-path:url(#SVGID_23_);}
	.st60{clip-path:url(#SVGID_25_);}
	.st61{clip-path:url(#SVGID_27_);}
	.st62{clip-path:url(#SVGID_29_);}
	.st63{clip-path:url(#SVGID_31_);}
	.st64{clip-path:url(#SVGID_33_);}
	.st65{clip-path:url(#SVGID_35_);}
	.st66{clip-path:url(#SVGID_37_);}
	.st67{clip-path:url(#SVGID_39_);}
	.st68{clip-path:url(#SVGID_41_);}
	.st69{clip-path:url(#SVGID_43_);}
	.st70{clip-path:url(#SVGID_45_);}
	.st71{clip-path:url(#SVGID_47_);}
	.st72{clip-path:url(#SVGID_49_);}
	.st73{clip-path:url(#SVGID_51_);}
	.st74{clip-path:url(#SVGID_53_);}
	.st75{clip-path:url(#SVGID_55_);}
	.st76{clip-path:url(#SVGID_57_);}
	.st77{clip-path:url(#SVGID_59_);}
	.st78{fill:#FFFFFF;stroke:#FFFFFF;stroke-width:4;stroke-linecap:round;stroke-linejoin:round;stroke-miterlimit:10;}
	.st79{fill:#F4F1ED;}
	.st80{fill:#EFE2D5;}
	.st81{fill:#DDC8B6;}
	.st82{fill:#F9B9C7;}
	.st83{fill:#C1AA95;}
	.st84{clip-path:url(#SVGID_61_);}
	.st85{clip-path:url(#SVGID_63_);}
	.st86{fill:#FFFFFF;stroke:#FFFFFF;stroke-width:3;stroke-linecap:round;stroke-linejoin:round;stroke-miterlimit:10;}
	.st87{fill:#D8957B;}
	.st88{fill:#F1E3D8;}
	.st89{fill:#C3755E;}
	.st90{fill:#E6A389;}
	.st91{fill:none;stroke:#231815;stroke-width:0.25;stroke-linecap:round;stroke-miterlimit:10;}
	.st92{clip-path:url(#SVGID_65_);}
	.st93{fill:#6D362C;}
	.st94{fill:#F0CAAE;}
	.st95{fill:#8C4B38;}
	.st96{fill:#361A16;}
	.st97{fill:#44251F;}
	.st98{fill:none;stroke:#44251F;stroke-miterlimit:10;}
	.st99{fill:none;stroke:#44251F;stroke-linecap:round;stroke-linejoin:round;stroke-miterlimit:10;}
	.st100{fill:none;stroke:#6D362C;stroke-width:2;stroke-linecap:round;stroke-linejoin:round;stroke-miterlimit:10;}
	.st101{clip-path:url(#SVGID_67_);}
	.st102{clip-path:url(#SVGID_69_);}
	.st103{opacity:0.5;fill:#FFFFFF;stroke:#FFFFFF;stroke-width:4;stroke-linecap:round;stroke-linejoin:round;stroke-miterlimit:10;}
	.st104{opacity:0.3;fill:#FFFFFF;stroke:#FFFFFF;stroke-width:4;stroke-linecap:round;stroke-linejoin:round;stroke-miterlimit:10;}
	.st105{fill:#FABFBF;}
	.st106{fill:#F7A7AA;}
	.st107{opacity:0.5;fill:#F7A7AA;}
	.st108{fill:#F37B87;}
	.st109{fill:#943436;}
	.st110{opacity:0.3;fill:#F7A7AA;}
	.st111{clip-path:url(#SVGID_71_);}
	.st112{fill:#F4E4E4;}
	.st113{fill:#FF8788;}
	.st114{fill:#261D1D;}
	.st115{fill-rule:evenodd;clip-rule:evenodd;fill:#B7EAF0;}
	.st116{fill-rule:evenodd;clip-rule:evenodd;fill:#ABDEE4;}
	.st117{fill-rule:evenodd;clip-rule:evenodd;fill:#FFA137;}
	.st118{fill-rule:evenodd;clip-rule:evenodd;fill:#C55047;}
	.st119{fill-rule:evenodd;clip-rule:evenodd;fill:#FF9528;}
	.st120{fill-rule:evenodd;clip-rule:evenodd;fill:#39474B;}
	.st121{fill-rule:evenodd;clip-rule:evenodd;fill:#546C7E;}
	.st122{fill:#C55047;}
	.st123{fill:#39474B;}
	.st124{fill-rule:evenodd;clip-rule:evenodd;fill:#677980;}
	.st125{fill-rule:evenodd;clip-rule:evenodd;fill:#664241;}
	.st126{fill-rule:evenodd;clip-rule:evenodd;fill:#5A3534;}
	.st127{fill-rule:evenodd;clip-rule:evenodd;fill:#476071;}
	.st128{fill-rule:evenodd;clip-rule:evenodd;fill:#FFCA6F;}
	.st129{fill-rule:evenodd;clip-rule:evenodd;fill:#FDFDFD;}
	.st130{fill-rule:evenodd;clip-rule:evenodd;fill:#2D2D2C;}
	.st131{fill-rule:evenodd;clip-rule:evenodd;fill:#007E75;}
	.st132{fill-rule:evenodd;clip-rule:evenodd;fill:#3E3E3E;}
	.st133{fill:#2D2D2C;}
	.st134{fill-rule:evenodd;clip-rule:evenodd;fill:#009E94;}
	.st135{fill-rule:evenodd;clip-rule:evenodd;fill:#6B7386;}
	.st136{fill-rule:evenodd;clip-rule:evenodd;fill:#5F667B;}
	.st137{fill-rule:evenodd;clip-rule:evenodd;fill:#FFCC4E;}
	.st138{fill-rule:evenodd;clip-rule:evenodd;fill:#FFC040;}
	.st139{fill:#5F667B;}
	.st140{fill-rule:evenodd;clip-rule:evenodd;fill:#454D62;}
	.st141{fill:#4A5E64;}
	.st142{fill-rule:evenodd;clip-rule:evenodd;fill:#61BCDA;}
	.st143{fill-rule:evenodd;clip-rule:evenodd;fill:#73C8E5;}
	.st144{fill-rule:evenodd;clip-rule:evenodd;fill:#A9E1F4;}
	.st145{fill:#8CA4AD;}
	.st146{fill:#677980;}
	.st147{fill-rule:evenodd;clip-rule:evenodd;fill:#787F92;}
	.st148{fill-rule:evenodd;clip-rule:evenodd;fill:#F7B432;}
	.st149{fill:#FF9528;}
	.st150{fill:#FDFDFD;}
	.st151{fill-rule:evenodd;clip-rule:evenodd;fill:#AB362D;}
	.st152{fill:#EBEBEB;}
	.st153{fill-rule:evenodd;clip-rule:evenodd;fill:#384055;}
	.st154{fill:#FFD900;}
	.st155{fill:#1F1F1F;}
	.st156{clip-path:url(#SVGID_73_);}
	.st157{clip-path:url(#SVGID_75_);}
	.st158{clip-path:url(#SVGID_77_);}
	.st159{clip-path:url(#SVGID_79_);}
	.st160{clip-path:url(#SVGID_81_);}
	.st161{clip-path:url(#SVGID_83_);}
	.st162{clip-path:url(#SVGID_85_);}
	.st163{clip-path:url(#SVGID_87_);}
	.st164{clip-path:url(#SVGID_89_);}
	.st165{clip-path:url(#SVGID_91_);}
	.st166{clip-path:url(#SVGID_93_);}
	.st167{clip-path:url(#SVGID_95_);}
	.st168{clip-path:url(#SVGID_97_);}
	.st169{clip-path:url(#SVGID_99_);}
	.st170{clip-path:url(#SVGID_101_);}
	.st171{clip-path:url(#SVGID_103_);}
	.st172{clip-path:url(#SVGID_105_);}
	.st173{clip-path:url(#SVGID_107_);}
	.st174{clip-path:url(#SVGID_109_);}
	.st175{clip-path:url(#SVGID_111_);}
	.st176{clip-path:url(#SVGID_113_);}
	.st177{clip-path:url(#SVGID_115_);}
	.st178{clip-path:url(#SVGID_117_);}
	.st179{clip-path:url(#SVGID_119_);}
	.st180{clip-path:url(#SVGID_121_);}
	.st181{clip-path:url(#SVGID_123_);}
	.st182{fill:none;}
	.st183{fill-rule:evenodd;clip-rule:evenodd;fill:#BB9F68;}
	.st184{fill-rule:evenodd;clip-rule:evenodd;fill:#FCF2D1;}
	.st185{fill-rule:evenodd;clip-rule:evenodd;fill:url(#SVGID_124_);}
	.st186{fill-rule:evenodd;clip-rule:evenodd;fill:#FBFB99;}
	.st187{fill:#C4BC7A;}
	.st188{fill:url(#SVGID_125_);}
	.st189{fill:url(#SVGID_126_);}
	.st190{fill:#691200;}
	.st191{fill:url(#SVGID_127_);}
	.st192{fill:url(#SVGID_128_);}
	.st193{fill:url(#SVGID_129_);}
	.st194{fill:url(#SVGID_130_);}
	.st195{fill:url(#SVGID_131_);}
	.st196{fill:url(#SVGID_132_);}
	.st197{fill:#810003;}
	.st198{fill:#FFF35C;}
	.st199{fill:#997F62;}
	.st200{fill:#725D47;}
	.st201{fill:#F9F6F6;}
	.st202{fill:#F0A13C;}
	.st203{fill:url(#SVGID_133_);}
	.st204{fill:url(#SVGID_134_);}
	.st205{fill:#FFF9E1;}
	.st206{fill:url(#SVGID_135_);}
	.st207{fill:url(#SVGID_136_);}
	.st208{fill:url(#SVGID_137_);}
	.st209{fill:url(#SVGID_138_);}
	.st210{fill-rule:evenodd;clip-rule:evenodd;fill:url(#SVGID_139_);}
	.st211{fill:url(#SVGID_140_);}
	.st212{fill:url(#SVGID_141_);}
	.st213{fill:url(#SVGID_142_);}
	.st214{fill:url(#SVGID_143_);}
	.st215{fill:url(#SVGID_144_);}
	.st216{fill:url(#SVGID_145_);}
	.st217{fill:url(#SVGID_146_);}
	.st218{fill:url(#SVGID_147_);}
	.st219{fill:url(#SVGID_148_);}
	.st220{fill:url(#SVGID_149_);}
	.st221{fill:url(#SVGID_150_);}
	.st222{fill:url(#SVGID_151_);}
	.st223{fill-rule:evenodd;clip-rule:evenodd;fill:url(#SVGID_152_);}
	.st224{fill:url(#SVGID_153_);}
	.st225{fill:url(#SVGID_154_);}
	.st226{fill:url(#SVGID_155_);}
	.st227{fill:url(#SVGID_156_);}
	.st228{fill:url(#SVGID_157_);}
	.st229{fill:url(#SVGID_158_);}
	.st230{fill:url(#SVGID_159_);}
	.st231{fill:url(#SVGID_160_);}
	.st232{fill:url(#SVGID_161_);}
	.st233{fill:url(#SVGID_162_);}
	.st234{fill-rule:evenodd;clip-rule:evenodd;fill:url(#SVGID_163_);}
	.st235{fill:url(#SVGID_164_);}
	.st236{fill:url(#SVGID_165_);}
	.st237{fill:url(#SVGID_166_);}
	.st238{fill:url(#SVGID_167_);}
	.st239{fill:url(#SVGID_168_);}
	.st240{fill:url(#SVGID_169_);}
	.st241{fill:url(#SVGID_170_);}
	.st242{fill:url(#SVGID_171_);}
	.st243{fill-rule:evenodd;clip-rule:evenodd;fill:url(#SVGID_172_);}
	.st244{fill:url(#SVGID_173_);}
	.st245{fill:url(#SVGID_174_);}
	.st246{fill:url(#SVGID_175_);}
	.st247{fill:url(#SVGID_176_);}
	.st248{fill:url(#SVGID_177_);}
	.st249{fill:url(#SVGID_178_);}
	.st250{fill:url(#SVGID_179_);}
	.st251{fill:url(#SVGID_180_);}
	.st252{fill:#BCBEC0;}
	.st253{fill:#E6E7E8;}
	.st254{fill:#474747;}
	.st255{fill:#808080;}
	.st256{fill:#6E6E6E;}
	.st257{fill:#8F8F8F;}
	.st258{fill-rule:evenodd;clip-rule:evenodd;fill:url(#SVGID_181_);}
	.st259{fill-rule:evenodd;clip-rule:evenodd;fill:url(#SVGID_182_);}
	.st260{fill-rule:evenodd;clip-rule:evenodd;fill:url(#SVGID_183_);}
	.st261{fill-rule:evenodd;clip-rule:evenodd;fill:url(#SVGID_184_);}
	.st262{fill-rule:evenodd;clip-rule:evenodd;fill:#0080A8;}
	.st263{fill-rule:evenodd;clip-rule:evenodd;fill:#F3F5DD;}
	.st264{fill-rule:evenodd;clip-rule:evenodd;fill:#94966F;}
	.st265{fill-rule:evenodd;clip-rule:evenodd;fill:#EBE7D1;}
	.st266{fill-rule:evenodd;clip-rule:evenodd;fill:#C9C5B5;}
	.st267{fill:#C6C2B6;}
	.st268{fill:#F5FFD0;}
	.st269{fill:#FF8E00;}
	.st270{fill-rule:evenodd;clip-rule:evenodd;fill:#CA6F05;}
	.st271{fill-rule:evenodd;clip-rule:evenodd;fill:#FFD48F;}
	.st272{fill-rule:evenodd;clip-rule:evenodd;fill:url(#SVGID_185_);}
	.st273{fill-rule:evenodd;clip-rule:evenodd;fill:#DB9746;}
	.st274{fill-rule:evenodd;clip-rule:evenodd;fill:#2293BF;}
	.st275{fill-rule:evenodd;clip-rule:evenodd;fill:#B3F5FF;}
	.st276{fill-rule:evenodd;clip-rule:evenodd;fill:url(#SVGID_186_);}
	.st277{fill-rule:evenodd;clip-rule:evenodd;fill:#008BD6;}
	.st278{fill-rule:evenodd;clip-rule:evenodd;fill:url(#SVGID_187_);}
	.st279{fill-rule:evenodd;clip-rule:evenodd;fill:url(#SVGID_188_);}
	.st280{fill-rule:evenodd;clip-rule:evenodd;fill:url(#SVGID_189_);}
	.st281{fill-rule:evenodd;clip-rule:evenodd;fill:url(#SVGID_190_);}
	.st282{fill-rule:evenodd;clip-rule:evenodd;fill:#D68F47;}
	.st283{fill:#CE7A00;}
	.st284{fill-rule:evenodd;clip-rule:evenodd;fill:url(#SVGID_191_);}
	.st285{fill-rule:evenodd;clip-rule:evenodd;fill:url(#SVGID_192_);}
	.st286{fill-rule:evenodd;clip-rule:evenodd;fill:url(#SVGID_193_);}
	.st287{fill-rule:evenodd;clip-rule:evenodd;fill:url(#SVGID_194_);}
	.st288{fill-rule:evenodd;clip-rule:evenodd;fill:url(#SVGID_195_);}
	.st289{fill:#2293BF;}
	.st290{fill-rule:evenodd;clip-rule:evenodd;fill:url(#SVGID_196_);}
	.st291{fill-rule:evenodd;clip-rule:evenodd;fill:url(#SVGID_197_);}
	.st292{fill-rule:evenodd;clip-rule:evenodd;fill:url(#SVGID_198_);}
	.st293{fill-rule:evenodd;clip-rule:evenodd;fill:url(#SVGID_199_);}
	.st294{fill-rule:evenodd;clip-rule:evenodd;fill:url(#SVGID_200_);}
	.st295{fill-rule:evenodd;clip-rule:evenodd;fill:url(#SVGID_201_);}
	.st296{fill-rule:evenodd;clip-rule:evenodd;fill:url(#SVGID_202_);}
	.st297{fill-rule:evenodd;clip-rule:evenodd;fill:url(#SVGID_203_);}
	.st298{fill-rule:evenodd;clip-rule:evenodd;fill:url(#SVGID_204_);}
	.st299{fill-rule:evenodd;clip-rule:evenodd;fill:url(#SVGID_205_);}
	.st300{fill-rule:evenodd;clip-rule:evenodd;fill:url(#SVGID_206_);}
	.st301{fill-rule:evenodd;clip-rule:evenodd;fill:url(#SVGID_207_);}
	.st302{fill-rule:evenodd;clip-rule:evenodd;fill:url(#SVGID_208_);}
	.st303{fill-rule:evenodd;clip-rule:evenodd;fill:url(#SVGID_209_);}
</style>
<g id="Layer_1">
</g>
<g id="Layer_2">
</g>
<g id="Layer_3">
	<g>
		<path class="st274" d="M1.7,20v-4.2c0-6.4,5.2-11.5,11.5-11.5h96c6.4,0,11.5,5.2,11.5,11.5V20c0,6.4-5.2,11.5-11.5,11.5h-96
			C6.9,31.5,1.7,26.4,1.7,20z"/>
		<path class="st275" d="M1.7,18.4v-4.2c0-6.4,5.2-11.5,11.5-11.5h96c6.4,0,11.5,5.2,11.5,11.5v4.2c0,6.4-5.2,11.5-11.5,11.5h-96
			C6.9,29.9,1.7,24.7,1.7,18.4z"/>
		<linearGradient id="SVGID_1_" gradientUnits="userSpaceOnUse" x1="61.25" y1="5.3015" x2="61.25" y2="30.0907">
			<stop  offset="0" style="stop-color:#1EC6FF"/>
			<stop  offset="1" style="stop-color:#00A2EA"/>
		</linearGradient>
		<path style="fill-rule:evenodd;clip-rule:evenodd;fill:url(#SVGID_1_);" d="M109,28.3H13.5c-5.6,0-10.2-4.6-10.2-10.2v-3.7
			c0-5.6,4.6-10.2,10.2-10.2H109c5.6,0,10.2,4.6,10.2,10.2v3.7C119.2,23.7,114.6,28.3,109,28.3z"/>
		<path class="st277" d="M13.1,28.2h96.4c5.3,0,9.7-4.4,9.7-9.7v-1.6c0,5.3-4.4,9.7-9.7,9.7H13.1c-5.3,0-9.7-4.4-9.7-9.7v1.6
			C3.3,23.8,7.7,28.2,13.1,28.2z"/>
		<g>
			<path class="st289" d="M46.1,12.6h-0.9c-0.9,1.3-1.6,1.9-2.1,1.9c-0.2,0-0.4-0.1-0.6-0.3c-0.1-0.1-0.2-0.3-0.2-0.4
				c0-0.2,0.1-0.4,0.5-0.7c0.7-0.7,1.3-1.4,1.7-2.2c0.2-0.4,0.4-0.6,0.5-0.7c0.1,0,0.2-0.1,0.2-0.1c0.2,0,0.5,0.1,0.6,0.3
				c0.1,0.1,0.2,0.2,0.2,0.4c0,0.1,0,0.3-0.1,0.5h3c0.2,0,0.3,0.1,0.4,0.2c0.1,0.1,0.2,0.3,0.2,0.4c0,0.2-0.1,0.4-0.2,0.5
				c-0.1,0.1-0.2,0.2-0.4,0.2h-1.3c0,0,0,0.1,0.1,0.1c0.1,0.3,0.2,0.5,0.2,0.7c0,0.1-0.1,0.3-0.2,0.4c-0.2,0.1-0.3,0.2-0.6,0.2
				c-0.1,0-0.2,0-0.3-0.1c-0.1-0.1-0.3-0.4-0.5-0.8C46.3,13,46.3,12.8,46.1,12.6z M48.9,21.4c-0.4,0.4-0.9,0.7-1.4,1.1
				c-0.9,0.6-1.9,1.1-2.9,1.6c-0.6,0.3-1.1,0.4-1.4,0.4c-0.2,0-0.3-0.1-0.5-0.2c-0.1-0.2-0.2-0.4-0.2-0.6c0-0.3,0.3-0.6,1-0.8
				c1.2-0.4,2.2-0.8,3-1.3c0.4-0.2,0.8-0.5,1.2-0.8h-2.8c-0.5,0-0.8-0.1-1-0.4c-0.2-0.2-0.3-0.5-0.3-0.9c0-0.1,0-0.3,0-0.4l0.1-0.8
				c0.1-0.8,0.6-1.2,1.5-1.2h3.7v-1.2h-4.7c-0.5,0-0.7-0.2-0.7-0.7c0-0.4,0.2-0.7,0.7-0.7h10c0.6,0,1,0.1,1.3,0.4
				c0.2,0.2,0.3,0.6,0.3,1.1l0,0.7c0,0.6-0.1,1.1-0.4,1.3c-0.3,0.2-0.7,0.3-1.2,0.3h-3.6v1.2H55c0.9,0,1.3,0.5,1.3,1.6
				c0,1.2-0.2,2.1-0.7,2.5c-0.4,0.3-1,0.5-1.8,0.5c-0.8,0-1.4-0.1-1.8-0.3c-0.3-0.1-0.4-0.4-0.4-0.7c0-0.3,0.1-0.4,0.3-0.6
				c0.1-0.1,0.2-0.1,0.3-0.1c0.1,0,0.3,0,0.4,0c0.3,0.1,0.6,0.1,0.8,0.1c0.6,0,1-0.1,1.1-0.3c0.2-0.2,0.2-0.5,0.2-1
				c0-0.3-0.2-0.5-0.7-0.5h-3.7v3.4c0,0.3-0.1,0.5-0.2,0.6c-0.1,0.1-0.3,0.2-0.5,0.2c-0.2,0-0.4-0.1-0.6-0.3
				c-0.1-0.1-0.2-0.3-0.2-0.6V21.4z M48.9,18.2h-3.1c-0.2,0-0.3,0-0.4,0.1c-0.1,0.1-0.1,0.2-0.1,0.4l0,0.2c0,0,0,0.1,0,0.1
				c0,0.2,0.1,0.4,0.4,0.4h3.3V18.2z M52.2,11.3h4.1c0.2,0,0.3,0.1,0.5,0.2c0.1,0.1,0.2,0.3,0.2,0.4c0,0.2-0.1,0.4-0.2,0.5
				c-0.1,0.1-0.3,0.2-0.4,0.2h-2.1c0.2,0.4,0.3,0.6,0.3,0.8c0,0.1-0.1,0.3-0.2,0.4c-0.2,0.1-0.3,0.2-0.6,0.2c-0.1,0-0.2,0-0.3-0.1
				c-0.1-0.1-0.3-0.4-0.5-0.8c0-0.1-0.1-0.3-0.2-0.5h-1.2c-0.1,0.1-0.2,0.2-0.2,0.4c-0.3,0.4-0.5,0.7-0.8,0.9
				c-0.1,0.1-0.2,0.1-0.4,0.1c-0.2,0-0.3-0.1-0.4-0.2c-0.1-0.1-0.2-0.3-0.2-0.4c0-0.2,0.2-0.6,0.5-1c0.6-1,0.9-1.6,0.9-1.6
				c0.1-0.3,0.3-0.4,0.4-0.5c0.1-0.1,0.2-0.1,0.3-0.1c0.1,0,0.3,0,0.4,0.1c0.2,0.1,0.3,0.3,0.3,0.6C52.3,10.9,52.3,11.1,52.2,11.3z
				 M50.4,16.9h3.1c0.2,0,0.4-0.1,0.5-0.2c0.1-0.1,0.1-0.2,0.1-0.3v-0.1l0-0.2c0-0.3-0.2-0.5-0.6-0.5h-3.1V16.9z"/>
			<path class="st289" d="M60.9,15.1l0-0.1l-1.6,0c-0.4,0-0.6-0.1-0.7-0.2c0-0.1-0.1-0.2-0.1-0.3c0-0.2,0.1-0.4,0.2-0.5
				c0.1-0.1,0.3-0.1,0.6-0.1c0.6-0.1,1-0.3,1.3-0.5c0.2-0.2,0.4-0.5,0.6-1c0.1-0.4,0.4-0.6,0.8-0.6c0.3,0,0.5,0.2,0.5,0.6v9.9
				c0,0.4-0.1,0.7-0.3,0.8c-0.1,0.1-0.3,0.1-0.5,0.1h-0.1c-0.2,0-0.4-0.1-0.5-0.2c-0.1-0.1-0.2-0.3-0.2-0.7V15.1z"/>
			<path class="st289" d="M73.5,14.9c0,0.9-0.1,1.6-0.2,2.4h6.1c0.2,0,0.4,0.1,0.5,0.2c0.1,0.1,0.2,0.3,0.2,0.5
				c0,0.2-0.1,0.4-0.2,0.5c-0.1,0.1-0.3,0.2-0.5,0.2h-5.3c1,2.1,2.8,3.5,5.2,4.3c0.4,0.1,0.7,0.3,0.8,0.4c0.1,0.1,0.1,0.2,0.1,0.3
				c0,0.3-0.1,0.5-0.3,0.7c-0.1,0.1-0.3,0.2-0.5,0.2c-0.8,0-1.8-0.4-3.1-1.3c-0.9-0.5-1.6-1.1-2.1-1.8c-0.5-0.6-1-1.3-1.4-2.1
				c-0.1,0.3-0.2,0.6-0.4,0.9c-0.6,1.1-1.5,2-2.6,2.8c-1.5,1-2.7,1.5-3.6,1.5c-0.2,0-0.3-0.1-0.4-0.2c-0.1-0.2-0.2-0.3-0.2-0.6
				c0-0.2,0.1-0.3,0.2-0.5c0.1-0.1,0.4-0.3,0.8-0.4c0.8-0.3,1.6-0.7,2.4-1.2c1.2-0.8,2-1.9,2.4-3.1h-5.2c-0.2,0-0.3-0.1-0.5-0.2
				c-0.1-0.2-0.2-0.3-0.2-0.5c0-0.2,0.1-0.4,0.2-0.6c0.1-0.1,0.3-0.2,0.4-0.2h5.5c0.1-0.8,0.2-1.6,0.3-2.4h-4.7
				c-0.2,0-0.3-0.1-0.5-0.2c-0.1-0.2-0.2-0.3-0.2-0.5c0-0.2,0.1-0.4,0.2-0.6c0.1-0.1,0.3-0.2,0.4-0.2h2.9c-0.1-0.1-0.2-0.2-0.3-0.4
				c-0.4-0.6-0.8-1.1-1-1.5c-0.2-0.3-0.3-0.5-0.3-0.7c0-0.2,0.1-0.3,0.3-0.5c0.2-0.2,0.4-0.2,0.7-0.2h0c0.2,0,0.5,0.2,0.8,0.5
				c0.3,0.3,0.6,0.7,0.9,1.2c0.3,0.5,0.5,0.9,0.5,1.1c0,0.1-0.1,0.3-0.2,0.4H74c0-0.1-0.1-0.2-0.1-0.3c0-0.1,0.1-0.3,0.3-0.6
				c0.6-0.8,1.1-1.4,1.3-1.7c0.3-0.4,0.6-0.7,0.8-0.7c0.3,0,0.5,0.1,0.7,0.3c0.1,0.1,0.2,0.3,0.2,0.4c0,0.2-0.2,0.6-0.5,1.1
				c-0.4,0.6-0.8,1.1-1.1,1.5h2.6c0.2,0,0.4,0.1,0.5,0.2c0.1,0.1,0.2,0.3,0.2,0.5c0,0.2-0.1,0.4-0.2,0.6c-0.1,0.1-0.3,0.2-0.5,0.2
				H73.5z"/>
		</g>
		<g>
			<path class="st1" d="M46.1,11.8h-0.9c-0.9,1.3-1.6,1.9-2.1,1.9c-0.2,0-0.4-0.1-0.6-0.3c-0.1-0.1-0.2-0.3-0.2-0.4
				c0-0.2,0.1-0.4,0.5-0.7c0.7-0.7,1.3-1.4,1.7-2.2c0.2-0.4,0.4-0.6,0.5-0.7c0.1,0,0.2-0.1,0.2-0.1c0.2,0,0.5,0.1,0.6,0.3
				c0.1,0.1,0.2,0.2,0.2,0.4c0,0.1,0,0.3-0.1,0.5h3c0.2,0,0.3,0.1,0.4,0.2c0.1,0.1,0.2,0.3,0.2,0.4c0,0.2-0.1,0.4-0.2,0.5
				c-0.1,0.1-0.2,0.2-0.4,0.2h-1.3c0,0,0,0.1,0.1,0.1c0.1,0.3,0.2,0.5,0.2,0.7c0,0.1-0.1,0.3-0.2,0.4c-0.2,0.1-0.3,0.2-0.6,0.2
				c-0.1,0-0.2,0-0.3-0.1c-0.1-0.1-0.3-0.4-0.5-0.8C46.3,12.2,46.3,12,46.1,11.8z M48.9,20.6c-0.4,0.4-0.9,0.7-1.4,1.1
				c-0.9,0.6-1.9,1.1-2.9,1.6c-0.6,0.3-1.1,0.4-1.4,0.4c-0.2,0-0.3-0.1-0.5-0.2c-0.1-0.2-0.2-0.4-0.2-0.6c0-0.3,0.3-0.6,1-0.8
				c1.2-0.4,2.2-0.8,3-1.3c0.4-0.2,0.8-0.5,1.2-0.8h-2.8c-0.5,0-0.8-0.1-1-0.4c-0.2-0.2-0.3-0.5-0.3-0.9c0-0.1,0-0.3,0-0.4l0.1-0.8
				c0.1-0.8,0.6-1.2,1.5-1.2h3.7v-1.2h-4.7c-0.5,0-0.7-0.2-0.7-0.7c0-0.4,0.2-0.7,0.7-0.7h10c0.6,0,1,0.1,1.3,0.4
				c0.2,0.2,0.3,0.6,0.3,1.1l0,0.7c0,0.6-0.1,1.1-0.4,1.3c-0.3,0.2-0.7,0.3-1.2,0.3h-3.6v1.2H55c0.9,0,1.3,0.5,1.3,1.6
				c0,1.2-0.2,2.1-0.7,2.5c-0.4,0.3-1,0.5-1.8,0.5c-0.8,0-1.4-0.1-1.8-0.3c-0.3-0.1-0.4-0.4-0.4-0.7c0-0.3,0.1-0.4,0.3-0.6
				c0.1-0.1,0.2-0.1,0.3-0.1c0.1,0,0.3,0,0.4,0c0.3,0.1,0.6,0.1,0.8,0.1c0.6,0,1-0.1,1.1-0.3c0.2-0.2,0.2-0.5,0.2-1
				c0-0.3-0.2-0.5-0.7-0.5h-3.7v3.4c0,0.3-0.1,0.5-0.2,0.6c-0.1,0.1-0.3,0.2-0.5,0.2c-0.2,0-0.4-0.1-0.6-0.3
				c-0.1-0.1-0.2-0.3-0.2-0.6V20.6z M48.9,17.4h-3.1c-0.2,0-0.3,0-0.4,0.1c-0.1,0.1-0.1,0.2-0.1,0.4l0,0.2c0,0,0,0.1,0,0.1
				c0,0.2,0.1,0.4,0.4,0.4h3.3V17.4z M52.2,10.5h4.1c0.2,0,0.3,0.1,0.5,0.2c0.1,0.1,0.2,0.3,0.2,0.4c0,0.2-0.1,0.4-0.2,0.5
				c-0.1,0.1-0.3,0.2-0.4,0.2h-2.1c0.2,0.4,0.3,0.6,0.3,0.8c0,0.1-0.1,0.3-0.2,0.4c-0.2,0.1-0.3,0.2-0.6,0.2c-0.1,0-0.2,0-0.3-0.1
				c-0.1-0.1-0.3-0.4-0.5-0.8c0-0.1-0.1-0.3-0.2-0.5h-1.2c-0.1,0.1-0.2,0.2-0.2,0.4c-0.3,0.4-0.5,0.7-0.8,0.9
				c-0.1,0.1-0.2,0.1-0.4,0.1c-0.2,0-0.3-0.1-0.4-0.2c-0.1-0.1-0.2-0.3-0.2-0.4c0-0.2,0.2-0.6,0.5-1c0.6-1,0.9-1.6,0.9-1.6
				c0.1-0.3,0.3-0.4,0.4-0.5c0.1-0.1,0.2-0.1,0.3-0.1c0.1,0,0.3,0,0.4,0.1c0.2,0.1,0.3,0.3,0.3,0.6C52.3,10.1,52.3,10.3,52.2,10.5z
				 M50.4,16.1h3.1c0.2,0,0.4-0.1,0.5-0.2c0.1-0.1,0.1-0.2,0.1-0.3v-0.1l0-0.2c0-0.3-0.2-0.5-0.6-0.5h-3.1V16.1z"/>
			<path class="st1" d="M60.9,14.3l0-0.1l-1.6,0c-0.4,0-0.6-0.1-0.7-0.2c0-0.1-0.1-0.2-0.1-0.3c0-0.2,0.1-0.4,0.2-0.5
				c0.1-0.1,0.3-0.1,0.6-0.1c0.6-0.1,1-0.3,1.3-0.5c0.2-0.2,0.4-0.5,0.6-1c0.1-0.4,0.4-0.6,0.8-0.6c0.3,0,0.5,0.2,0.5,0.6v9.9
				c0,0.4-0.1,0.7-0.3,0.8c-0.1,0.1-0.3,0.1-0.5,0.1h-0.1c-0.2,0-0.4-0.1-0.5-0.2c-0.1-0.1-0.2-0.3-0.2-0.7V14.3z"/>
			<path class="st1" d="M73.5,14.1c0,0.9-0.1,1.6-0.2,2.4h6.1c0.2,0,0.4,0.1,0.5,0.2c0.1,0.1,0.2,0.3,0.2,0.5c0,0.2-0.1,0.4-0.2,0.5
				c-0.1,0.1-0.3,0.2-0.5,0.2h-5.3c1,2.1,2.8,3.5,5.2,4.3c0.4,0.1,0.7,0.3,0.8,0.4c0.1,0.1,0.1,0.2,0.1,0.3c0,0.3-0.1,0.5-0.3,0.7
				c-0.1,0.1-0.3,0.2-0.5,0.2c-0.8,0-1.8-0.4-3.1-1.3c-0.9-0.5-1.6-1.1-2.1-1.8c-0.5-0.6-1-1.3-1.4-2.1c-0.1,0.3-0.2,0.6-0.4,0.9
				c-0.6,1.1-1.5,2-2.6,2.8c-1.5,1-2.7,1.5-3.6,1.5c-0.2,0-0.3-0.1-0.4-0.2c-0.1-0.2-0.2-0.3-0.2-0.6c0-0.2,0.1-0.3,0.2-0.5
				c0.1-0.1,0.4-0.3,0.8-0.4c0.8-0.3,1.6-0.7,2.4-1.2c1.2-0.8,2-1.9,2.4-3.1h-5.2c-0.2,0-0.3-0.1-0.5-0.2c-0.1-0.2-0.2-0.3-0.2-0.5
				c0-0.2,0.1-0.4,0.2-0.6c0.1-0.1,0.3-0.2,0.4-0.2h5.5c0.1-0.8,0.2-1.6,0.3-2.4h-4.7c-0.2,0-0.3-0.1-0.5-0.2
				c-0.1-0.2-0.2-0.3-0.2-0.5c0-0.2,0.1-0.4,0.2-0.6c0.1-0.1,0.3-0.2,0.4-0.2h2.9c-0.1-0.1-0.2-0.2-0.3-0.4c-0.4-0.6-0.8-1.1-1-1.5
				c-0.2-0.3-0.3-0.5-0.3-0.7c0-0.2,0.1-0.3,0.3-0.5c0.2-0.2,0.4-0.2,0.7-0.2h0c0.2,0,0.5,0.2,0.8,0.5c0.3,0.3,0.6,0.7,0.9,1.2
				c0.3,0.5,0.5,0.9,0.5,1.1c0,0.1-0.1,0.3-0.2,0.4H74c0-0.1-0.1-0.2-0.1-0.3c0-0.1,0.1-0.3,0.3-0.6c0.6-0.8,1.1-1.4,1.3-1.7
				c0.3-0.4,0.6-0.7,0.8-0.7c0.3,0,0.5,0.1,0.7,0.3c0.1,0.1,0.2,0.3,0.2,0.4c0,0.2-0.2,0.6-0.5,1.1c-0.4,0.6-0.8,1.1-1.1,1.5h2.6
				c0.2,0,0.4,0.1,0.5,0.2C79,13,79,13.1,79,13.3c0,0.2-0.1,0.4-0.2,0.6c-0.1,0.1-0.3,0.2-0.5,0.2H73.5z"/>
		</g>
	</g>
</g>
</svg>
