<?xml version="1.0" encoding="utf-8"?>
<!-- Generator: Adobe Illustrator 22.1.0, SVG Export Plug-In . SVG Version: 6.00 Build 0)  -->
<svg version="1.1" xmlns="http://www.w3.org/2000/svg" xmlns:xlink="http://www.w3.org/1999/xlink" x="0px" y="0px"
	 viewBox="0 0 314.5 221.5" style="enable-background:new 0 0 314.5 221.5;" xml:space="preserve">
<style type="text/css">
	.st0{fill:#80F0F9;}
	.st1{fill:#FFFFFF;}
	.st2{fill:#198974;}
	.st3{fill:#47AD2F;}
	.st4{fill:#7A5C41;}
	.st5{fill:#5CC13A;}
	.st6{fill:#237C11;}
	.st7{fill:#3FA541;}
	.st8{fill:#10725F;}
	.st9{fill:#8DE00A;}
	.st10{fill:#938548;}
	.st11{fill:#498C44;}
	.st12{fill:#7BCE05;}
	.st13{fill:#54CC06;}
	.st14{opacity:0.56;fill:#7CBA04;}
	.st15{fill:#876D33;}
	.st16{fill:#C4B08D;}
	.st17{fill:#56C437;}
	.st18{fill:#49AD07;}
	.st19{fill:#359B3C;}
	.st20{fill:#E2E2E2;}
	.st21{fill:#72706F;}
	.st22{fill:#231815;}
	.st23{fill:#5F3813;}
	.st24{fill:#FCC047;}
	.st25{fill:#E8AF2E;}
	.st26{fill:#603008;}
	.st27{fill:#994405;}
	.st28{fill:#E6E6E7;}
	.st29{fill:#3B2314;}
	.st30{fill:#F0F1F1;}
	.st31{fill:#E0A246;}
	.st32{fill:#4F2B0E;}
	.st33{fill:#7BAD1A;}
	.st34{fill:#97FAFF;}
	.st35{fill:#5DC5EE;}
	.st36{fill:#DE97FF;}
	.st37{fill:#AC3EE5;}
	.st38{fill:#F8CDDB;}
	.st39{fill:#F95892;}
	.st40{fill:#D5FFBD;}
	.st41{fill:#58B431;}
	.st42{fill:#F9EFE5;}
	.st43{fill:#BDAA9A;}
	.st44{fill:#DDCCBF;}
	.st45{fill:#69311A;}
	.st46{opacity:0.43;fill:url(#SVGID_1_);}
	.st47{opacity:0.43;fill:url(#SVGID_2_);}
	.st48{opacity:0.43;fill:url(#SVGID_3_);}
	.st49{opacity:0.43;fill:url(#SVGID_4_);}
	.st50{opacity:0.43;fill:url(#SVGID_5_);}
	.st51{clip-path:url(#SVGID_7_);}
	.st52{clip-path:url(#SVGID_9_);}
	.st53{clip-path:url(#SVGID_11_);}
	.st54{clip-path:url(#SVGID_13_);}
	.st55{clip-path:url(#SVGID_15_);}
	.st56{clip-path:url(#SVGID_17_);}
	.st57{clip-path:url(#SVGID_19_);}
	.st58{clip-path:url(#SVGID_21_);}
	.st59{clip-path:url(#SVGID_23_);}
	.st60{clip-path:url(#SVGID_25_);}
	.st61{clip-path:url(#SVGID_27_);}
	.st62{clip-path:url(#SVGID_29_);}
	.st63{clip-path:url(#SVGID_31_);}
	.st64{clip-path:url(#SVGID_33_);}
	.st65{clip-path:url(#SVGID_35_);}
	.st66{clip-path:url(#SVGID_37_);}
	.st67{clip-path:url(#SVGID_39_);}
	.st68{clip-path:url(#SVGID_41_);}
	.st69{clip-path:url(#SVGID_43_);}
	.st70{clip-path:url(#SVGID_45_);}
	.st71{clip-path:url(#SVGID_47_);}
	.st72{clip-path:url(#SVGID_49_);}
	.st73{clip-path:url(#SVGID_51_);}
	.st74{clip-path:url(#SVGID_53_);}
	.st75{clip-path:url(#SVGID_55_);}
	.st76{clip-path:url(#SVGID_57_);}
	.st77{clip-path:url(#SVGID_59_);}
	.st78{fill:#FFFFFF;stroke:#FFFFFF;stroke-width:4;stroke-linecap:round;stroke-linejoin:round;stroke-miterlimit:10;}
	.st79{fill:#F4F1ED;}
	.st80{fill:#EFE2D5;}
	.st81{fill:#DDC8B6;}
	.st82{fill:#F9B9C7;}
	.st83{fill:#C1AA95;}
	.st84{clip-path:url(#SVGID_61_);}
	.st85{clip-path:url(#SVGID_63_);}
	.st86{fill:#FFFFFF;stroke:#FFFFFF;stroke-width:3;stroke-linecap:round;stroke-linejoin:round;stroke-miterlimit:10;}
	.st87{fill:#D8957B;}
	.st88{fill:#F1E3D8;}
	.st89{fill:#C3755E;}
	.st90{fill:#E6A389;}
	.st91{fill:none;stroke:#231815;stroke-width:0.25;stroke-linecap:round;stroke-miterlimit:10;}
	.st92{clip-path:url(#SVGID_65_);}
	.st93{fill:#6D362C;}
	.st94{fill:#F0CAAE;}
	.st95{fill:#8C4B38;}
	.st96{fill:#361A16;}
	.st97{fill:#44251F;}
	.st98{fill:none;stroke:#44251F;stroke-miterlimit:10;}
	.st99{fill:none;stroke:#44251F;stroke-linecap:round;stroke-linejoin:round;stroke-miterlimit:10;}
	.st100{fill:none;stroke:#6D362C;stroke-width:2;stroke-linecap:round;stroke-linejoin:round;stroke-miterlimit:10;}
	.st101{clip-path:url(#SVGID_67_);}
	.st102{opacity:0.5;fill:#FFFFFF;stroke:#FFFFFF;stroke-width:4;stroke-linecap:round;stroke-linejoin:round;stroke-miterlimit:10;}
	.st103{opacity:0.3;fill:#FFFFFF;stroke:#FFFFFF;stroke-width:4;stroke-linecap:round;stroke-linejoin:round;stroke-miterlimit:10;}
	.st104{fill:#FABFBF;}
	.st105{fill:#F7A7AA;}
	.st106{opacity:0.5;fill:#F7A7AA;}
	.st107{fill:#F37B87;}
	.st108{fill:#943436;}
	.st109{opacity:0.3;fill:#F7A7AA;}
	.st110{clip-path:url(#SVGID_69_);}
	.st111{fill:#F4E4E4;}
	.st112{fill:#FF8788;}
	.st113{fill:#261D1D;}
	.st114{fill-rule:evenodd;clip-rule:evenodd;fill:#B7EAF0;}
	.st115{fill-rule:evenodd;clip-rule:evenodd;fill:#ABDEE4;}
	.st116{fill-rule:evenodd;clip-rule:evenodd;fill:#FFA137;}
	.st117{fill-rule:evenodd;clip-rule:evenodd;fill:#C55047;}
	.st118{fill-rule:evenodd;clip-rule:evenodd;fill:#FF9528;}
	.st119{fill-rule:evenodd;clip-rule:evenodd;fill:#39474B;}
	.st120{fill-rule:evenodd;clip-rule:evenodd;fill:#546C7E;}
	.st121{fill:#C55047;}
	.st122{fill:#39474B;}
	.st123{fill-rule:evenodd;clip-rule:evenodd;fill:#677980;}
	.st124{fill-rule:evenodd;clip-rule:evenodd;fill:#664241;}
	.st125{fill-rule:evenodd;clip-rule:evenodd;fill:#5A3534;}
	.st126{fill-rule:evenodd;clip-rule:evenodd;fill:#476071;}
	.st127{fill-rule:evenodd;clip-rule:evenodd;fill:#FFCA6F;}
	.st128{fill-rule:evenodd;clip-rule:evenodd;fill:#FDFDFD;}
	.st129{fill-rule:evenodd;clip-rule:evenodd;fill:#2D2D2C;}
	.st130{fill-rule:evenodd;clip-rule:evenodd;fill:#007E75;}
	.st131{fill-rule:evenodd;clip-rule:evenodd;fill:#3E3E3E;}
	.st132{fill:#2D2D2C;}
	.st133{fill-rule:evenodd;clip-rule:evenodd;fill:#009E94;}
	.st134{fill-rule:evenodd;clip-rule:evenodd;fill:#6B7386;}
	.st135{fill-rule:evenodd;clip-rule:evenodd;fill:#5F667B;}
	.st136{fill-rule:evenodd;clip-rule:evenodd;fill:#FFCC4E;}
	.st137{fill-rule:evenodd;clip-rule:evenodd;fill:#FFC040;}
	.st138{fill:#5F667B;}
	.st139{fill-rule:evenodd;clip-rule:evenodd;fill:#454D62;}
	.st140{fill:#4A5E64;}
	.st141{fill-rule:evenodd;clip-rule:evenodd;fill:#61BCDA;}
	.st142{fill-rule:evenodd;clip-rule:evenodd;fill:#73C8E5;}
	.st143{fill-rule:evenodd;clip-rule:evenodd;fill:#A9E1F4;}
	.st144{fill:#8CA4AD;}
	.st145{fill:#677980;}
	.st146{fill-rule:evenodd;clip-rule:evenodd;fill:#787F92;}
	.st147{fill-rule:evenodd;clip-rule:evenodd;fill:#F7B432;}
	.st148{fill:#FF9528;}
	.st149{fill:#FDFDFD;}
	.st150{fill-rule:evenodd;clip-rule:evenodd;fill:#AB362D;}
	.st151{fill:#EBEBEB;}
	.st152{fill-rule:evenodd;clip-rule:evenodd;fill:#384055;}
	.st153{fill:#FFD900;}
	.st154{fill:#1F1F1F;}
	.st155{clip-path:url(#SVGID_71_);}
	.st156{clip-path:url(#SVGID_73_);}
	.st157{clip-path:url(#SVGID_75_);}
	.st158{clip-path:url(#SVGID_77_);}
	.st159{clip-path:url(#SVGID_79_);}
	.st160{clip-path:url(#SVGID_81_);}
	.st161{clip-path:url(#SVGID_83_);}
	.st162{clip-path:url(#SVGID_85_);}
	.st163{clip-path:url(#SVGID_87_);}
	.st164{clip-path:url(#SVGID_89_);}
	.st165{clip-path:url(#SVGID_91_);}
	.st166{clip-path:url(#SVGID_93_);}
	.st167{clip-path:url(#SVGID_95_);}
	.st168{clip-path:url(#SVGID_97_);}
	.st169{clip-path:url(#SVGID_99_);}
	.st170{clip-path:url(#SVGID_101_);}
	.st171{clip-path:url(#SVGID_103_);}
	.st172{clip-path:url(#SVGID_105_);}
	.st173{clip-path:url(#SVGID_107_);}
	.st174{clip-path:url(#SVGID_109_);}
	.st175{clip-path:url(#SVGID_111_);}
	.st176{clip-path:url(#SVGID_113_);}
	.st177{clip-path:url(#SVGID_115_);}
	.st178{clip-path:url(#SVGID_117_);}
	.st179{clip-path:url(#SVGID_119_);}
	.st180{fill-rule:evenodd;clip-rule:evenodd;fill:#BB9F68;}
	.st181{fill-rule:evenodd;clip-rule:evenodd;fill:#FCF2D1;}
	.st182{fill-rule:evenodd;clip-rule:evenodd;fill:url(#SVGID_120_);}
	.st183{fill-rule:evenodd;clip-rule:evenodd;fill:#FBFB99;}
	.st184{fill:#C4BC7A;}
	.st185{fill:url(#SVGID_121_);}
	.st186{fill:url(#SVGID_122_);}
	.st187{fill:#691200;}
	.st188{fill:url(#SVGID_123_);}
	.st189{fill:url(#SVGID_124_);}
	.st190{fill:url(#SVGID_125_);}
	.st191{fill:url(#SVGID_126_);}
	.st192{fill:url(#SVGID_127_);}
	.st193{fill:url(#SVGID_128_);}
	.st194{fill:#810003;}
	.st195{fill:#FFF35C;}
	.st196{fill:#997F62;}
	.st197{fill:#725D47;}
	.st198{fill:#F9F6F6;}
	.st199{fill:#F0A13C;}
	.st200{fill:url(#SVGID_129_);}
	.st201{fill:url(#SVGID_130_);}
	.st202{fill:#FFF9E1;}
	.st203{fill:url(#SVGID_131_);}
	.st204{fill:url(#SVGID_132_);}
	.st205{fill:url(#SVGID_133_);}
	.st206{fill:url(#SVGID_134_);}
	.st207{fill-rule:evenodd;clip-rule:evenodd;fill:url(#SVGID_135_);}
	.st208{fill:url(#SVGID_136_);}
	.st209{fill:url(#SVGID_137_);}
	.st210{fill:url(#SVGID_138_);}
	.st211{fill:url(#SVGID_139_);}
	.st212{fill:url(#SVGID_140_);}
	.st213{fill:url(#SVGID_141_);}
	.st214{fill:url(#SVGID_142_);}
	.st215{fill:url(#SVGID_143_);}
	.st216{fill:url(#SVGID_144_);}
	.st217{fill:url(#SVGID_145_);}
	.st218{fill:url(#SVGID_146_);}
	.st219{fill:url(#SVGID_147_);}
	.st220{fill-rule:evenodd;clip-rule:evenodd;fill:url(#SVGID_148_);}
	.st221{fill:url(#SVGID_149_);}
	.st222{fill:url(#SVGID_150_);}
	.st223{fill:url(#SVGID_151_);}
	.st224{fill:url(#SVGID_152_);}
	.st225{fill:url(#SVGID_153_);}
	.st226{fill:url(#SVGID_154_);}
	.st227{fill:url(#SVGID_155_);}
	.st228{fill:url(#SVGID_156_);}
	.st229{fill:url(#SVGID_157_);}
	.st230{fill:url(#SVGID_158_);}
	.st231{fill-rule:evenodd;clip-rule:evenodd;fill:url(#SVGID_159_);}
	.st232{fill:url(#SVGID_160_);}
	.st233{fill:url(#SVGID_161_);}
	.st234{fill:url(#SVGID_162_);}
	.st235{fill:url(#SVGID_163_);}
	.st236{fill:url(#SVGID_164_);}
	.st237{fill:url(#SVGID_165_);}
	.st238{fill:url(#SVGID_166_);}
	.st239{fill:url(#SVGID_167_);}
</style>
<g id="Layer_1">
</g>
<g id="Layer_2">
</g>
<g id="Layer_3">
	<g>
		<path class="st180" d="M81.6,44.3c48.6-2.4,97.9-2.7,148.1,0c29.5,3.7,47.7,11.2,45.1,36.5s-20.5,90.7-33.2,111.1
			c-6.3,8.2-15.7,13-27.8,14.5c-44.5,4-87.8,4.3-129.6,0c-14.7-3.1-22.6-11.6-27.4-22.5C43,146.9,32.4,111.4,31,80.7
			C30.4,58,44.4,44.1,81.6,44.3z"/>
		<path class="st181" d="M82.2,44.9c48.3-2.4,97.2-2.7,147.1,0c29.3,3.6,47.4,10.9,44.8,35.4c-2.5,24.5-20.4,88.1-33,107.9
			c-6.3,8-15.6,12.6-27.6,14.1c-44.2,3.9-87.2,4.1-128.8,0c-14.6-3.1-22.5-11.2-27.3-21.8c-13.6-36-24.1-70.4-25.5-100.2
			C31.3,58.2,45.3,44.8,82.2,44.9z"/>
		<linearGradient id="SVGID_1_" gradientUnits="userSpaceOnUse" x1="45.8635" y1="123.8409" x2="258.502" y2="123.8409">
			<stop  offset="0" style="stop-color:#A27C52"/>
			<stop  offset="1" style="stop-color:#C2986D"/>
		</linearGradient>
		<path style="fill-rule:evenodd;clip-rule:evenodd;fill:url(#SVGID_1_);" d="M89.9,55.1c42.4-2,85.3-2.3,129,0
			c25.7,3.1,41.5,9.5,39.3,30.7c-2.2,21.2-17.9,76.4-29,93.6c-5.5,6.9-13.7,11-24.2,12.3c-38.8,3.4-76.5,3.6-113,0
			c-12.8-2.7-19.7-9.8-23.9-19c-11.9-31.2-21.2-61.1-22.3-86.9C45.3,66.6,57.6,54.9,89.9,55.1z"/>
		<path class="st183" d="M91.2,56.5c41.5-2,83.6-2.3,126.4,0c25.2,3,40.7,9.3,38.5,30.1c-2.2,20.8-17.5,74.8-28.4,91.7
			c-5.4,6.8-13.4,10.7-23.7,12c-38,3.3-74.9,3.5-110.7,0c-12.5-2.6-19.3-9.6-23.4-18.6C58.3,141.1,49.2,111.8,48,86.5
			C47.5,67.8,59.5,56.3,91.2,56.5z"/>
		<g>
			<path class="st184" d="M298.1,88.7L298.1,88.7c0.2-1.6-1.4-2.5-3-2.4c-4.5-0.3-8.8-1.9-13-5.1c-1.9-2.1-3.3-4.1-1-5.2
				c7.4-4.9,14.2-11.8,15.3-14.4c1.1-2.6-1-3.1-2.2-2.7c-13,5.7-24.5,6.2-34.4,1c0.2-2,0.2-4.1,0.2-6.6c0-2.7-0.2-5.6-0.6-8.6
				c0-0.2,0-0.5-0.1-0.7c0,0,0,0,0,0c0-0.2-0.1-0.4-0.1-0.7c0-0.1-0.1-0.1-0.1-0.2c-0.2-1.2-0.3-2.4-0.5-3.6
				c-2.9-9.4-58.5-18.6-105-18.6c-46.1,0-102,9.2-104.9,18.6c-0.2,1.2-0.4,2.4-0.5,3.6c0,0.1-0.1,0.1-0.1,0.2c0,0.2,0,0.4-0.1,0.7
				l0,0c0,0.2,0,0.5-0.1,0.7c-0.3,3.1-0.5,6-0.6,8.7c-0.1,2.5,0,4.6,0.1,6.6c-9.8,5.1-21.3,4.6-34.3-1c-1.2-0.4-3.3,0.1-2.2,2.7
				c1.1,2.6,7.9,9.5,15.3,14.4c2.3,1.1,0.9,3.1-1,5.2c-4.2,3.1-8.5,4.7-13,5.1c-1.6-0.1-3.2,0.8-2.9,2.4l0,0l0,0.1
				c0.1,0.3,0.2,0.6,0.4,1l0.9,2.4c19.5,12.4,51.7,2.2,56.3-5.3c0.4-0.7,0.3-1.5-0.2-2.4c0.7-2.9-0.7-7.7-2-13.3
				c18.7-3,55.2-4.4,88.8-5c33.8,0.6,70.2,2,88.9,5c-1.3,5.6-2.7,10.4-2,13.3c-0.5,0.9-0.6,1.8-0.2,2.4c4.5,7.5,36.7,17.7,56.3,5.3
				l0.9-2.4C297.9,89.4,298,89.1,298.1,88.7L298.1,88.7z M63.3,88.7C63.3,88.6,63.3,88.6,63.3,88.7c-0.3,0.2-0.8,0.5-1.2,0.8
				C62.5,89.2,62.9,88.9,63.3,88.7z M244.3,88.7c0.4,0.3,0.9,0.6,1.4,0.9c-0.6-0.3-1.1-0.7-1.5-1C244.2,88.6,244.3,88.6,244.3,88.7z
				 M66,86.2C66,86.2,66,86.2,66,86.2L66,86.2C66,86.2,66,86.2,66,86.2z M241.6,86.2C241.6,86.2,241.6,86.2,241.6,86.2L241.6,86.2
				c0,0,0.1,0.1,0.1,0.1C241.6,86.2,241.6,86.2,241.6,86.2C241.6,86.2,241.6,86.2,241.6,86.2z"/>
			<g>
				<linearGradient id="SVGID_2_" gradientUnits="userSpaceOnUse" x1="66.8426" y1="71.1339" x2="9.5557" y2="71.1339">
					<stop  offset="0" style="stop-color:#FF980A"/>
					<stop  offset="1" style="stop-color:#FFCC46"/>
				</linearGradient>
				<path style="fill:url(#SVGID_2_);" d="M53.2,50.9c-10.9,8.6-24.2,9.3-39.7,2.5c-1.2-0.4-3.3,0.1-2.2,2.7
					c1.1,2.6,7.9,9.5,15.3,14.4c2.3,1.1,0.9,3.1-1,5.2c-4.2,3.1-8.5,4.7-13,5.1c-2.3-0.1-4.6,1.8-1.3,5.2c7.7,6.5,35.2,9.4,52.1-2.8
					c2.8-1.6,4-3.9,3.4-6.9L53.2,50.9z"/>
				<linearGradient id="SVGID_3_" gradientUnits="userSpaceOnUse" x1="63.1972" y1="71.3503" x2="17.0269" y2="71.3503">
					<stop  offset="0" style="stop-color:#740600"/>
					<stop  offset="1" style="stop-color:#ED0D00"/>
				</linearGradient>
				<path style="fill:url(#SVGID_3_);" d="M55.1,56.1c-10.9,6.9-22.6,7.5-34.8,3.7c3.6,3.4,9,7.2,15,11.3c-2.8,7.2-8.3,12.1-18.3,13
					c13.2,5.4,42.9,1.7,46.2-9.5L55.1,56.1z"/>
				<path class="st187" d="M35.4,72.4l-0.1-1.3c-3.2,8.6-9.9,12.1-18.3,13l1.2,0.4C26.2,84.2,32.2,80.7,35.4,72.4z"/>
				<path class="st187" d="M20.3,59.9c12.6,4,24.2,2.9,34.8-3.7l0.4,0.9c-9.9,6.3-21.2,8-34.2,3.7L20.3,59.9z"/>
				<linearGradient id="SVGID_4_" gradientUnits="userSpaceOnUse" x1="50.5317" y1="68.5104" x2="67.1221" y2="68.5104">
					<stop  offset="0" style="stop-color:#330600"/>
					<stop  offset="1" style="stop-color:#740000"/>
				</linearGradient>
				<path style="fill:url(#SVGID_4_);" d="M66,80.5c3.2-3.4-1.5-13.3-2.8-24.1l-12.4,4.9c-0.7,5.8,0,10.8,5.8,12.3
					C61.7,75.4,65.9,77.4,66,80.5z"/>
				<linearGradient id="SVGID_5_" gradientUnits="userSpaceOnUse" x1="240.7834" y1="71.1339" x2="298.0703" y2="71.1339">
					<stop  offset="0" style="stop-color:#FF980A"/>
					<stop  offset="1" style="stop-color:#FFCC46"/>
				</linearGradient>
				<path style="fill:url(#SVGID_5_);" d="M254.5,50.9c10.9,8.6,24.2,9.3,39.7,2.5c1.2-0.4,3.3,0.1,2.2,2.7
					c-1.1,2.6-7.9,9.5-15.3,14.4c-2.3,1.1-0.9,3.1,1,5.2c4.2,3.1,8.5,4.7,13,5.1c2.3-0.1,4.6,1.8,1.3,5.2
					c-7.7,6.5-35.2,9.4-52.1-2.8c-2.8-1.6-4-3.9-3.4-6.9L254.5,50.9z"/>
				<linearGradient id="SVGID_7_" gradientUnits="userSpaceOnUse" x1="244.4287" y1="71.3503" x2="290.5991" y2="71.3503">
					<stop  offset="0" style="stop-color:#740600"/>
					<stop  offset="1" style="stop-color:#ED0D00"/>
				</linearGradient>
				<path style="fill:url(#SVGID_7_);" d="M252.6,56.1c10.9,6.9,22.6,7.5,34.8,3.7c-3.6,3.4-9,7.2-15,11.3c2.8,7.2,8.3,12.1,18.3,13
					c-13.2,5.4-42.9,1.7-46.2-9.5L252.6,56.1z"/>
				<path class="st187" d="M272.3,72.4l0.1-1.3c3.2,8.6,9.9,12.1,18.3,13l-1.2,0.4C281.5,84.2,275.4,80.7,272.3,72.4z"/>
				<path class="st187" d="M287.3,59.9c-12.6,4-24.2,2.9-34.8-3.7l-0.4,0.9c9.9,6.3,21.2,8,34.2,3.7L287.3,59.9z"/>
				<linearGradient id="SVGID_9_" gradientUnits="userSpaceOnUse" x1="257.5046" y1="67.3291" x2="240.5479" y2="68.7115">
					<stop  offset="0" style="stop-color:#330600"/>
					<stop  offset="1" style="stop-color:#740000"/>
				</linearGradient>
				<path style="fill:url(#SVGID_9_);" d="M241.6,80.5c-3.2-3.4,1.5-13.3,2.8-24.1l12.4,4.9c0.7,5.8,0,10.8-5.8,12.3
					C245.9,75.4,241.8,77.4,241.6,80.5z"/>
				<linearGradient id="SVGID_11_" gradientUnits="userSpaceOnUse" x1="47.5556" y1="42.3319" x2="260.0022" y2="42.3319">
					<stop  offset="0" style="stop-color:#FFB012"/>
					<stop  offset="0.1183" style="stop-color:#FF9B3B"/>
					<stop  offset="0.3226" style="stop-color:#FFCD49"/>
					<stop  offset="0.6935" style="stop-color:#FFCE38"/>
					<stop  offset="0.8925" style="stop-color:#FFB22B"/>
					<stop  offset="1" style="stop-color:#FFBE12"/>
				</linearGradient>
				<path style="fill:url(#SVGID_11_);" d="M258.7,33.9c-2.9-9.4-58.5-18.6-105-18.6c-46.1,0-102,9.2-104.9,18.6
					c-2.5,15.6-1.2,26.8,2.5,35.5c3.5-6.7,56.2-9.3,102.4-9.9c46.4,0.6,99,3.3,102.5,9.9C259.9,60.7,261.2,49.4,258.7,33.9z"/>
				<linearGradient id="SVGID_13_" gradientUnits="userSpaceOnUse" x1="47.5288" y1="42.6028" x2="260.0278" y2="42.6028">
					<stop  offset="0" style="stop-color:#7F0003"/>
					<stop  offset="0.1129" style="stop-color:#910004"/>
					<stop  offset="0.3226" style="stop-color:#DA0006"/>
					<stop  offset="0.6935" style="stop-color:#DD0006"/>
					<stop  offset="0.8925" style="stop-color:#A40004"/>
					<stop  offset="1" style="stop-color:#610002"/>
				</linearGradient>
				<path style="fill:url(#SVGID_13_);" d="M259.3,37.7c-2.9-9.4-59.1-17.6-105.6-17.6c-46.1,0-102.6,8.2-105.5,17.6
					c-1.2,14-1,17.4,1.5,27.4c3.5-6.7,57.8-10.3,104-11c46.4,0.6,100.5,4.3,104,11C260.3,55.1,260.5,51.7,259.3,37.7z"/>
				<path class="st194" d="M259.3,37.7c-2.9-9.4-59.1-17.6-105.6-17.6c-46.1,0-102.6,8.2-105.5,17.6c0,0.2,0,0.4-0.1,0.7
					c0.1,0,0.1,0.1,0.2,0.1c4.1-9.2,59.8-17.2,105.4-17.2c45.9,0,101.3,8,105.4,17.2c0.1,0,0.2-0.1,0.2-0.1
					C259.4,38.1,259.3,37.9,259.3,37.7z"/>
				<path class="st195" d="M296.4,85.8c-19.6,11.7-48.9,2.2-54.8-5.2c0-1.7,1.4-3.3,4.8-5c6.4-1.9,9.8-4,9.9-6.2
					c-4.9-6.6-47.2-9-102.5-9.9c-55.4,0.9-97.5,3.3-102.4,9.9c0.1,2.2,3.5,4.2,9.9,6.2c3.4,1.6,4.8,3.3,4.8,5
					c-5.9,7.5-35.2,17-54.8,5.2L9.6,83l1.3,3.5c19.5,12.4,51.7,2.2,56.3-5.3c1-1.6-0.8-4.3-5.4-6.5c-6-1.8-9.2-3.5-9.4-5.1
					c3.4-6,55-8.3,101.4-9.2c46.4,0.8,98,3.2,101.4,9.2c-0.1,1.6-3.3,3.3-9.3,5.1c-4.5,2.1-6.3,4.8-5.4,6.5
					c4.5,7.5,36.7,17.7,56.3,5.3l1.3-3.5L296.4,85.8z"/>
			</g>
		</g>
	</g>
	<g>
		<g>
			<path class="st196" d="M109.5,164.2l-9.3-2.9c-1.6-0.5-3.3-0.5-4.8,0.1l-9.2,3.2c-5,1.8-10.2-1.9-10.3-7.2l-0.2-9.7
				c0-1.7-0.6-3.3-1.6-4.6l-5.9-7.7c-3.2-4.2-1.4-10.3,3.6-12l9.2-3.2c1.6-0.5,2.9-1.6,3.9-2.9l5.5-8c3-4.3,9.4-4.5,12.6-0.3
				l5.9,7.8c1,1.3,2.4,2.3,4,2.8l9.3,2.8c5.1,1.5,7.2,7.5,4.1,11.9l-5.6,8c-0.9,1.4-1.4,3-1.4,4.6l0.2,9.7
				C119.6,161.9,114.5,165.7,109.5,164.2z"/>
			<g>
				<path class="st197" d="M114.1,120.4l9.3,2.8c0.4,0.1,0.9,0.3,1.2,0.5c-0.7-0.6-1.6-1-2.6-1.3l-9.3-2.8c-0.4-0.1-0.8-0.3-1.1-0.4
					C112.4,119.7,113.2,120.1,114.1,120.4z"/>
				<path class="st197" d="M77.2,158.3l-0.2-9.7c0-1.7-0.6-3.3-1.6-4.6l-5.9-7.7c-3.2-4.2-1.4-10.3,3.6-12l9.2-3.2
					c1.6-0.5,2.9-1.6,3.9-2.9l5.5-8c2.3-3.3,6.5-4.2,9.8-2.6c-3.4-2.6-8.5-2-11.1,1.7l-5.5,8c-0.9,1.4-2.3,2.4-3.9,2.9l-9.2,3.2
					c-5,1.7-6.8,7.8-3.6,12l5.9,7.7c1,1.3,1.6,2.9,1.6,4.6l0.2,9.7c0.1,3.1,1.9,5.6,4.3,6.8C78.4,162.9,77.2,160.8,77.2,158.3z"/>
			</g>
		</g>
	</g>
	<g>
		<path class="st22" d="M112.3,48.1l1.6-3l1.5-10.5h-1.2l0.4-3h6.5l-1.7,12.2l4.3,1.2h14.4l-0.4,3h-16.5l-3-0.9l-0.5,0.9H112.3z
			 M120,26.8l1.2,3.7h-4.7l-1.2-3.7H120z M128,43.9l2.8-2.9l1.2-8.8h-9.7l0.4-3h9.7l0.3-2.1l-0.7-0.9h6.5l-0.4,2.9h2.1l-0.4,3h-2.1
			l-1.3,9.6c-0.1,0.6-0.4,1.1-0.8,1.5c-0.5,0.4-1,0.6-1.6,0.6H128z M129,39.4h-5.3l-1-6.1h5.3L129,39.4z"/>
		<path class="st22" d="M152.9,37.5l0.6-4.4h-8.2l0.4-3h4.2l-1.4-2.9l-1.1-1h5.9l1.9,3.9h3.4l2.9-3.9h5.4l-3,3.9h4.3l-0.4,3h-8.3
			l-0.6,4.4h9.4l-0.4,3h-8.8l8.2,8.2h-7.1l-5.1-5l-6.2,5h-7.7l10.6-8.2h-8.8l0.4-3H152.9z"/>
		<path class="st22" d="M195.9,26.8l-0.4,3l-10.2,5.3l-1.6,11.5c-0.1,0.6-0.4,1.1-0.8,1.5c-0.5,0.4-1,0.6-1.6,0.6h-6.2l2.8-2.9
			l1.6-11.2l9-4.7h-17.8l0.4-3H195.9z"/>
		<path class="st22" d="M207.2,46.5h-4.7l0.4-3h4.7L207.2,46.5z M207.7,42.1H203l1.9-13.2h4.7L207.7,42.1z"/>
	</g>
	<g>
		<path class="st1" d="M113.3,47.1l1.6-3l1.5-10.5h-1.2l0.4-3h6.5l-1.7,12.2l4.3,1.2h14.4l-0.4,3h-16.5l-3-0.9l-0.5,0.9H113.3z
			 M121,25.8l1.2,3.7h-4.7l-1.2-3.7H121z M129,42.9l2.8-2.9l1.2-8.8h-9.7l0.4-3h9.7l0.3-2.1l-0.7-0.9h6.5l-0.4,2.9h2.1l-0.4,3h-2.1
			l-1.3,9.6c-0.1,0.6-0.4,1.1-0.8,1.5c-0.5,0.4-1,0.6-1.6,0.6H129z M130,38.4h-5.3l-1-6.1h5.3L130,38.4z"/>
		<path class="st1" d="M153.9,36.5l0.6-4.4h-8.2l0.4-3h4.2l-1.4-2.9l-1.1-1h5.9l1.9,3.9h3.4l2.9-3.9h5.4l-3,3.9h4.3l-0.4,3h-8.3
			l-0.6,4.4h9.4l-0.4,3h-8.8l8.2,8.2h-7.1l-5.1-5l-6.2,5h-7.7l10.6-8.2h-8.8l0.4-3H153.9z"/>
		<path class="st1" d="M196.9,25.8l-0.4,3l-10.2,5.3l-1.6,11.5c-0.1,0.6-0.4,1.1-0.8,1.5c-0.5,0.4-1,0.6-1.6,0.6h-6.2l2.8-2.9
			l1.6-11.2l9-4.7h-17.8l0.4-3H196.9z"/>
		<path class="st1" d="M208.2,45.5h-4.7l0.4-3h4.7L208.2,45.5z M208.7,41.1H204l1.9-13.2h4.7L208.7,41.1z"/>
	</g>
	<g>
		<g>
			<path class="st196" d="M219.9,164.2l-9.3-2.9c-1.6-0.5-3.3-0.5-4.8,0.1l-9.2,3.2c-5,1.8-10.2-1.9-10.3-7.2l-0.2-9.7
				c0-1.7-0.6-3.3-1.6-4.6l-5.9-7.7c-3.2-4.2-1.4-10.3,3.6-12l9.2-3.2c1.6-0.5,2.9-1.6,3.9-2.9l5.5-8c3-4.3,9.4-4.5,12.6-0.3
				l5.9,7.8c1,1.3,2.4,2.3,4,2.8l9.3,2.8c5.1,1.5,7.2,7.5,4.1,11.9l-5.6,8c-0.9,1.4-1.4,3-1.4,4.6l0.2,9.7
				C230.1,161.9,225,165.7,219.9,164.2z"/>
			<g>
				<path class="st197" d="M224.6,120.4l9.3,2.8c0.4,0.1,0.9,0.3,1.2,0.5c-0.7-0.6-1.6-1-2.6-1.3l-9.3-2.8c-0.4-0.1-0.8-0.3-1.1-0.4
					C222.9,119.7,223.7,120.1,224.6,120.4z"/>
				<path class="st197" d="M187.6,158.3l-0.2-9.7c0-1.7-0.6-3.3-1.6-4.6l-5.9-7.7c-3.2-4.2-1.4-10.3,3.6-12l9.2-3.2
					c1.6-0.5,2.9-1.6,3.9-2.9l5.5-8c2.3-3.3,6.5-4.2,9.8-2.6c-3.4-2.6-8.5-2-11.1,1.7l-5.5,8c-0.9,1.4-2.3,2.4-3.9,2.9l-9.2,3.2
					c-5,1.7-6.8,7.8-3.6,12l5.9,7.7c1,1.3,1.6,2.9,1.6,4.6l0.2,9.7c0.1,3.1,1.9,5.6,4.3,6.8C188.9,162.9,187.7,160.8,187.6,158.3z"
					/>
			</g>
		</g>
	</g>
	<g>
		<g>
			<path class="st196" d="M164.5,129.4l-9.3-2.9c-1.6-0.5-3.3-0.5-4.8,0.1l-9.2,3.2c-5,1.8-10.2-1.9-10.3-7.2l-0.2-9.7
				c0-1.7-0.6-3.3-1.6-4.6l-5.9-7.7c-3.2-4.2-1.4-10.3,3.6-12l9.2-3.2c1.6-0.5,2.9-1.6,3.9-2.9l5.5-8c3-4.3,9.4-4.5,12.6-0.3
				l5.9,7.8c1,1.3,2.4,2.3,4,2.8l9.3,2.8c5.1,1.5,7.2,7.5,4.1,11.9l-5.6,8c-0.9,1.4-1.4,3-1.4,4.6l0.2,9.7
				C174.7,127.1,169.6,130.9,164.5,129.4z"/>
			<g>
				<path class="st197" d="M169.2,85.6l9.3,2.8c0.4,0.1,0.9,0.3,1.2,0.5c-0.7-0.6-1.6-1-2.6-1.3l-9.3-2.8c-0.4-0.1-0.8-0.3-1.1-0.4
					C167.5,84.9,168.3,85.3,169.2,85.6z"/>
				<path class="st197" d="M132.2,123.5l-0.2-9.7c0-1.7-0.6-3.3-1.6-4.6l-5.9-7.7c-3.2-4.2-1.4-10.3,3.6-12l9.2-3.2
					c1.6-0.5,2.9-1.6,3.9-2.9l5.5-8c2.3-3.3,6.5-4.2,9.8-2.6c-3.4-2.6-8.5-2-11.1,1.7l-5.5,8c-0.9,1.4-2.3,2.4-3.9,2.9l-9.2,3.2
					c-5,1.7-6.8,7.8-3.6,12l5.9,7.7c1,1.3,1.6,2.9,1.6,4.6l0.2,9.7c0.1,3.1,1.9,5.6,4.3,6.8C133.5,128.1,132.3,126,132.2,123.5z"/>
			</g>
		</g>
	</g>
</g>
</svg>
