<?xml version="1.0" encoding="utf-8"?>
<!-- Generator: Adobe Illustrator 22.1.0, SVG Export Plug-In . SVG Version: 6.00 Build 0)  -->
<svg version="1.1" xmlns="http://www.w3.org/2000/svg" xmlns:xlink="http://www.w3.org/1999/xlink" x="0px" y="0px"
	 viewBox="0 0 480 360" style="enable-background:new 0 0 480 360;" xml:space="preserve">
<style type="text/css">
	.st0{fill:#80F0F9;}
	.st1{fill:#FFFFFF;}
	.st2{fill:#198974;}
	.st3{fill:#47AD2F;}
	.st4{fill:#7A5C41;}
	.st5{fill:#5CC13A;}
	.st6{fill:#237C11;}
	.st7{fill:#3FA541;}
	.st8{fill:#10725F;}
	.st9{fill:#8DE00A;}
	.st10{fill:#938548;}
	.st11{fill:#498C44;}
	.st12{fill:#7BCE05;}
	.st13{fill:#54CC06;}
	.st14{opacity:0.56;fill:#7CBA04;}
	.st15{fill:#876D33;}
	.st16{fill:#C4B08D;}
	.st17{fill:#56C437;}
	.st18{fill:#49AD07;}
	.st19{fill:#359B3C;}
	.st20{fill:#E2E2E2;}
	.st21{fill:#72706F;}
	.st22{fill:#231815;}
	.st23{fill:#5F3813;}
	.st24{fill:#FCC047;}
	.st25{fill:#E8AF2E;}
	.st26{fill:#603008;}
	.st27{fill:#994405;}
	.st28{fill:#E6E6E7;}
	.st29{fill:#3B2314;}
	.st30{fill:#F0F1F1;}
	.st31{fill:#E0A246;}
	.st32{fill:#4F2B0E;}
	.st33{fill:#7BAD1A;}
	.st34{fill:#97FAFF;}
	.st35{fill:#5DC5EE;}
	.st36{fill:#DE97FF;}
	.st37{fill:#AC3EE5;}
	.st38{fill:#F8CDDB;}
	.st39{fill:#F95892;}
	.st40{fill:#D5FFBD;}
	.st41{fill:#58B431;}
	.st42{fill:#F9EFE5;}
	.st43{fill:#BDAA9A;}
	.st44{fill:#DDCCBF;}
	.st45{fill:#69311A;}
	.st46{opacity:0.43;fill:url(#SVGID_1_);}
	.st47{opacity:0.43;fill:url(#SVGID_2_);}
	.st48{opacity:0.43;fill:url(#SVGID_3_);}
	.st49{opacity:0.43;fill:url(#SVGID_4_);}
	.st50{opacity:0.43;fill:url(#SVGID_5_);}
	.st51{clip-path:url(#SVGID_7_);}
	.st52{clip-path:url(#SVGID_9_);}
	.st53{clip-path:url(#SVGID_11_);}
	.st54{clip-path:url(#SVGID_13_);}
	.st55{clip-path:url(#SVGID_15_);}
	.st56{clip-path:url(#SVGID_17_);}
	.st57{clip-path:url(#SVGID_19_);}
	.st58{clip-path:url(#SVGID_21_);}
	.st59{clip-path:url(#SVGID_23_);}
	.st60{clip-path:url(#SVGID_25_);}
	.st61{clip-path:url(#SVGID_27_);}
	.st62{clip-path:url(#SVGID_29_);}
	.st63{clip-path:url(#SVGID_31_);}
	.st64{clip-path:url(#SVGID_33_);}
	.st65{clip-path:url(#SVGID_35_);}
	.st66{clip-path:url(#SVGID_37_);}
	.st67{clip-path:url(#SVGID_39_);}
	.st68{clip-path:url(#SVGID_41_);}
	.st69{clip-path:url(#SVGID_43_);}
	.st70{clip-path:url(#SVGID_45_);}
	.st71{clip-path:url(#SVGID_47_);}
	.st72{clip-path:url(#SVGID_49_);}
	.st73{clip-path:url(#SVGID_51_);}
	.st74{clip-path:url(#SVGID_53_);}
	.st75{clip-path:url(#SVGID_55_);}
	.st76{clip-path:url(#SVGID_57_);}
	.st77{clip-path:url(#SVGID_59_);}
	.st78{clip-path:url(#SVGID_61_);}
	.st79{clip-path:url(#SVGID_63_);}
	.st80{opacity:0.43;fill:url(#SVGID_64_);}
</style>
<g id="Layer_1">
</g>
<g id="Layer_2">
	<rect class="st0" width="480" height="221.2"/>
	<path class="st1" d="M18.2,142.3c-1.6,0-3.1-0.6-4.3-1.8c-2.4-2.4-2.4-6.2,0-8.6c1.5-1.5,3.7-2.1,5.6-1.6c0.5-4.1,3.9-7.2,8.1-7.2
		c3.6,0,6.7,2.4,7.8,5.6c0.5-0.2,1.1-0.3,1.6-0.3c2.8,0,5.2,2.2,5.4,5c1.3-0.6,3-0.3,4,0.9c0.6,0.7,0.8,1.5,0.8,2.2
		c1.6,0,2.8,1.3,2.8,2.9c0,1.6-1.3,2.9-2.9,2.9C38.8,142.3,21.4,142.3,18.2,142.3z"/>
	<rect x="-0.2" y="224.7" class="st20" width="480" height="135.3"/>
	<g>
		<defs>
			<rect id="SVGID_62_" x="-0.4" y="40.7" width="480.4" height="184"/>
		</defs>
		<clipPath id="SVGID_1_">
			<use xlink:href="#SVGID_62_"  style="overflow:visible;"/>
		</clipPath>
		<g style="clip-path:url(#SVGID_1_);">
			<g>
				<g>
					<path class="st2" d="M96.7,133.7c-6.2-5.9-14.6-9.6-23.9-9.6c-8.5,0-16.3,3.1-22.3,8.2l-69.3,55.7c0,0-5.7,4-14.5,7.5
						c-9,3.6-21.1,6.7-29.3,6.7h247.4L96.7,133.7z"/>
				</g>
				<g>
					<path class="st3" d="M27.3,151.5c0.5,0,0.8-0.5,0.6-1L20.7,137c-0.2-0.4-0.8-0.4-1,0l-7.2,13.5c-0.2,0.4,0.1,1,0.6,1H27.3z"/>
					<g>
						<path class="st4" d="M18.9,176.5c0,0.7,0.6,1.3,1.3,1.3c0.7,0,1.3-0.6,1.3-1.3v-11.4h-2.6V176.5z"/>
						<path class="st3" d="M30.7,170.9c0.5,0,0.8-0.5,0.6-1L20.7,150c-0.2-0.4-0.8-0.4-1,0L9,169.9c-0.2,0.4,0.1,1,0.6,1H30.7z"/>
						<path class="st5" d="M19.6,150c0.1-0.2,0.3-0.3,0.5-0.3v21.2H9.6c-0.5,0-0.8-0.5-0.6-1L19.6,150z"/>
						<path class="st3" d="M28.8,160.8c0.6,0,1-0.6,0.7-1.1l-8.6-16.2c-0.3-0.5-1-0.5-1.2,0L11,159.7c-0.3,0.5,0.1,1.1,0.7,1.1H28.8
							z"/>
						<path class="st5" d="M19.6,143.5c0.1-0.2,0.3-0.3,0.6-0.4v17.7h-8.5c-0.6,0-1-0.6-0.7-1.1L19.6,143.5z"/>
					</g>
					<path class="st5" d="M19.6,137c0.1-0.2,0.3-0.3,0.5-0.3v14.8H13c-0.5,0-0.8-0.5-0.6-1L19.6,137z"/>
				</g>
				<g>
					<path class="st4" d="M68.7,135.6c0,0.6,0.5,1,1,1c0.6,0,1-0.5,1-1v-3.1h-2.1V135.6z"/>
					<path class="st6" d="M78.1,134.4c0.4,0,0.6-0.4,0.5-0.8l-8.5-16c-0.2-0.3-0.6-0.3-0.8,0l-8.5,16c-0.2,0.3,0.1,0.8,0.5,0.8H78.1
						z"/>
					<path class="st7" d="M69.2,117.6c0.1-0.2,0.2-0.2,0.4-0.2v17h-8.5c-0.4,0-0.6-0.4-0.5-0.8L69.2,117.6z"/>
					<path class="st6" d="M75.4,118.9c0.4,0,0.7-0.4,0.5-0.8l-5.8-10.9c-0.2-0.3-0.6-0.3-0.8,0l-5.8,10.9c-0.2,0.3,0.1,0.8,0.5,0.8
						H75.4z"/>
					<path class="st6" d="M76.6,126.3c0.5,0,0.8-0.5,0.6-0.9l-6.9-13c-0.2-0.4-0.8-0.4-1,0l-6.9,13c-0.2,0.4,0.1,0.9,0.6,0.9H76.6z"
						/>
					<path class="st7" d="M69.2,112.4c0.1-0.2,0.3-0.3,0.4-0.3v14.2h-6.8c-0.5,0-0.8-0.5-0.6-0.9L69.2,112.4z"/>
					<path class="st7" d="M69.2,107.2c0.1-0.1,0.2-0.2,0.4-0.2v11.9h-5.7c-0.4,0-0.7-0.4-0.5-0.8L69.2,107.2z"/>
				</g>
				<g>
					<path class="st4" d="M105.3,165.2c0,0.6,0.5,1.1,1.1,1.1s1.1-0.5,1.1-1.1V162h-2.1V165.2z"/>
					<path class="st6" d="M115.1,164c0.4,0,0.7-0.4,0.5-0.8l-8.8-16.6c-0.2-0.3-0.7-0.3-0.9,0l-8.8,16.6c-0.2,0.4,0.1,0.8,0.5,0.8
						H115.1z"/>
					<path class="st7" d="M105.9,146.6c0.1-0.2,0.3-0.3,0.4-0.3V164h-8.8c-0.4,0-0.7-0.4-0.5-0.8L105.9,146.6z"/>
					<path class="st6" d="M112.3,147.9c0.4,0,0.7-0.4,0.5-0.8l-6-11.2c-0.2-0.3-0.7-0.3-0.9,0l-6,11.2c-0.2,0.4,0.1,0.8,0.5,0.8
						H112.3z"/>
					<path class="st6" d="M113.5,155.6c0.5,0,0.8-0.5,0.6-1l-7.2-13.5c-0.2-0.4-0.8-0.4-1,0l-7.2,13.5c-0.2,0.4,0.1,1,0.6,1H113.5z"
						/>
					<path class="st7" d="M105.9,141.2c0.1-0.2,0.3-0.3,0.5-0.3v14.7h-7.1c-0.5,0-0.8-0.5-0.6-1L105.9,141.2z"/>
					<path class="st7" d="M105.9,135.9c0.1-0.2,0.2-0.2,0.4-0.2v12.3h-5.9c-0.4,0-0.7-0.4-0.5-0.8L105.9,135.9z"/>
				</g>
				<g>
					<path class="st8" d="M263.8,114.8c-7.9-7.5-18.6-12.2-30.4-12.2c-10.8,0-20.7,3.9-28.4,10.4l-88.2,70.9c0,0-7.3,5.1-18.5,9.6
						c-11.4,4.6-26.9,8.5-37.3,8.5h315L263.8,114.8z"/>
				</g>
				<g>
					<path class="st8" d="M396.7,141.7c5.6-5.3,13.1-8.6,21.4-8.6c7.6,0,14.6,2.7,20,7.3l62,49.9c0,0,5.1,3.6,13,6.7
						c8,3.2,18.9,6,26.2,6H317.7L396.7,141.7z"/>
				</g>
				<g>
					<path class="st4" d="M207.2,156.9c0,0.5,0.4,1,1,1c0.5,0,1-0.4,1-1v-3h-2V156.9z"/>
					<path class="st7" d="M216.2,155.7c0.4,0,0.6-0.4,0.4-0.7l-8.1-15.2c-0.2-0.3-0.6-0.3-0.8,0l-8.1,15.2c-0.2,0.3,0.1,0.7,0.4,0.7
						H216.2z"/>
					<path class="st7" d="M207.7,139.8c0.1-0.2,0.2-0.2,0.4-0.2v16.2H200c-0.4,0-0.6-0.4-0.4-0.7L207.7,139.8z"/>
					<path class="st7" d="M213.6,141c0.4,0,0.6-0.4,0.4-0.7l-5.5-10.4c-0.2-0.3-0.6-0.3-0.8,0l-5.5,10.4c-0.2,0.3,0.1,0.7,0.4,0.7
						H213.6z"/>
					<path class="st7" d="M214.7,148.1c0.5,0,0.7-0.5,0.5-0.9l-6.6-12.4c-0.2-0.4-0.7-0.4-0.9,0l-6.6,12.4c-0.2,0.4,0.1,0.9,0.5,0.9
						H214.7z"/>
					<path class="st7" d="M207.7,134.8c0.1-0.2,0.3-0.3,0.4-0.3v13.5h-6.5c-0.5,0-0.7-0.5-0.5-0.9L207.7,134.8z"/>
					<path class="st7" d="M207.7,129.9c0.1-0.1,0.2-0.2,0.4-0.2V141h-5.4c-0.4,0-0.6-0.4-0.4-0.7L207.7,129.9z"/>
				</g>
				<g>
					<path class="st4" d="M194.6,147.1c0,0.4,0.4,0.8,0.8,0.8c0.4,0,0.8-0.4,0.8-0.8v-2.4h-1.6V147.1z"/>
					<path class="st7" d="M201.8,146.2c0.3,0,0.5-0.3,0.4-0.6l-6.5-12.1c-0.1-0.2-0.5-0.2-0.6,0l-6.5,12.1c-0.1,0.3,0,0.6,0.4,0.6
						H201.8z"/>
					<path class="st7" d="M195,133.5c0.1-0.1,0.2-0.2,0.3-0.2v12.9h-6.4c-0.3,0-0.5-0.3-0.4-0.6L195,133.5z"/>
					<path class="st7" d="M199.7,134.4c0.3,0,0.5-0.3,0.4-0.6l-4.4-8.2c-0.1-0.2-0.5-0.2-0.6,0l-4.4,8.2c-0.1,0.3,0.1,0.6,0.4,0.6
						H199.7z"/>
					<path class="st7" d="M200.6,140.1c0.4,0,0.6-0.4,0.4-0.7l-5.2-9.8c-0.2-0.3-0.6-0.3-0.7,0l-5.2,9.8c-0.2,0.3,0.1,0.7,0.4,0.7
						H200.6z"/>
					<path class="st7" d="M195,129.5c0.1-0.1,0.2-0.2,0.3-0.2v10.8h-5.2c-0.4,0-0.6-0.4-0.4-0.7L195,129.5z"/>
					<path class="st7" d="M195,125.6c0.1-0.1,0.2-0.2,0.3-0.2v9H191c-0.3,0-0.5-0.3-0.4-0.6L195,125.6z"/>
				</g>
				<g>
					<path class="st4" d="M226,123c0,0.4,0.3,0.7,0.7,0.7c0.4,0,0.7-0.3,0.7-0.7v-2.1H226V123z"/>
					<path class="st7" d="M232.5,122.2c0.3,0,0.4-0.3,0.3-0.5l-5.8-10.9c-0.1-0.2-0.4-0.2-0.6,0l-5.8,10.9c-0.1,0.2,0,0.5,0.3,0.5
						H232.5z"/>
					<path class="st7" d="M226.4,110.8c0.1-0.1,0.2-0.2,0.3-0.2v11.6h-5.8c-0.3,0-0.4-0.3-0.3-0.5L226.4,110.8z"/>
					<path class="st7" d="M230.6,111.7c0.3,0,0.4-0.3,0.3-0.5l-3.9-7.4c-0.1-0.2-0.4-0.2-0.6,0l-3.9,7.4c-0.1,0.2,0,0.5,0.3,0.5
						H230.6z"/>
					<path class="st7" d="M231.4,116.7c0.3,0,0.5-0.3,0.4-0.6l-4.7-8.8c-0.1-0.3-0.5-0.3-0.7,0l-4.7,8.8c-0.2,0.3,0.1,0.6,0.4,0.6
						H231.4z"/>
					<path class="st7" d="M226.4,107.3c0.1-0.1,0.2-0.2,0.3-0.2v9.7h-4.6c-0.3,0-0.5-0.3-0.4-0.6L226.4,107.3z"/>
					<path class="st7" d="M226.4,103.7c0.1-0.1,0.2-0.2,0.3-0.2v8.1h-3.9c-0.3,0-0.4-0.3-0.3-0.5L226.4,103.7z"/>
				</g>
				<g>
					<path class="st4" d="M448.2,163.2c0,0.6,0.4,1,1,1c0.6,0,1-0.5,1-1v-3h-2V163.2z"/>
					<path class="st3" d="M457.4,162c0.4,0,0.6-0.4,0.4-0.7l-8.2-15.4c-0.2-0.3-0.6-0.3-0.8,0l-8.2,15.4c-0.2,0.3,0.1,0.7,0.4,0.7
						H457.4z"/>
					<path class="st5" d="M448.8,145.8c0.1-0.2,0.2-0.2,0.4-0.2V162H441c-0.4,0-0.6-0.4-0.4-0.7L448.8,145.8z"/>
					<path class="st3" d="M454.7,147c0.4,0,0.6-0.4,0.4-0.7l-5.6-10.5c-0.2-0.3-0.6-0.3-0.8,0l-5.6,10.5c-0.2,0.3,0.1,0.7,0.4,0.7
						H454.7z"/>
					<path class="st3" d="M455.9,154.2c0.5,0,0.8-0.5,0.5-0.9l-6.7-12.6c-0.2-0.4-0.7-0.4-0.9,0l-6.7,12.6c-0.2,0.4,0.1,0.9,0.5,0.9
						H455.9z"/>
					<path class="st5" d="M448.8,140.8c0.1-0.2,0.3-0.3,0.4-0.3v13.7h-6.6c-0.5,0-0.8-0.5-0.5-0.9L448.8,140.8z"/>
					<path class="st5" d="M448.8,135.8c0.1-0.1,0.2-0.2,0.4-0.2V147h-5.5c-0.4,0-0.6-0.4-0.4-0.7L448.8,135.8z"/>
				</g>
			</g>
			<g>
				<g>
					<path class="st10" d="M45.6,206.3c0,0.7,1.2,0.6,1.2-0.1l0-12.9c0-0.4-0.3-0.7-0.6-0.7c-0.3,0-0.6,0.3-0.6,0.7l0,9.7
						c0,0,0,0.1,0,0.1V206.3z"/>
					<path class="st10" d="M48.1,197.7v2.2c0,1-0.1,1.2-0.7,1.7l-1.2,0.6l0.3,0.7l1.2-0.6c1-0.7,1.1-1.4,1.1-2.3v-2.2H48.1z"/>
					<path class="st10" d="M44,201.1v-2.3h-0.8v2.3c0,0.9,0.1,1.7,1.2,2.4l1.3,0.6l0.3-0.7l-1.2-0.6C44.1,202.3,43.9,202.1,44,201.1
						z"/>
					<path class="st11" d="M53.4,192.7c0,3.5-2.8,6.3-6.3,6.3c-3.5,0-6.3-2.8-6.3-6.3c0-3.5,2.8-6.3,6.3-6.3
						C50.5,186.3,53.4,189.2,53.4,192.7z"/>
					<path class="st12" d="M58.1,190.1c0.4-0.8,0.6-1.6,0.6-2.6c0-2.7-1.9-5.1-4.4-5.7c-0.3-3-2.7-5.3-5.8-5.3
						c-1.7,0-3.2,0.7-4.3,1.9c-0.7-0.3-1.5-0.5-2.4-0.5c-2.1,0-3.9,1.1-4.8,2.8c-3.4,0.7-5.9,3.7-5.9,7.3c0,2.5,1.2,4.7,3.1,6.1
						c0,0.1,0,0.1,0,0.2c0,4.1,3.3,7.4,7.4,7.4c2,0,3.9-0.8,5.2-2.2c1.2,0.8,2.7,1.3,4.3,1.3c4.2,0,7.7-3.4,7.7-7.7
						C58.8,192.1,58.5,191.1,58.1,190.1z"/>
					<path class="st9" d="M52.2,187.8c0-2.8-2.3-5.1-5.1-5.1c-0.6,0-1.1,0.1-1.7,0.3c-0.6-1.3-1.9-2.2-3.4-2.2
						c-2.1,0-3.7,1.7-3.7,3.7c0,0.1,0,0.1,0,0.2c-2,0.7-3.4,2.6-3.4,4.7c0,2.8,2.3,5,5,5c0.4,0,0.9-0.1,1.3-0.2
						c0.4,1.4,1.7,2.5,3.3,2.5c1.4,0,2.6-0.8,3.1-2c0,0,0,0,0,0c1.7,0,3-1.3,3.1-3h0v-0.4C51.6,190.5,52.2,189.2,52.2,187.8z"/>
				</g>
				<g>
					<path class="st13" d="M263.7,157.3c-4.5-4.3-10.5-6.9-17.1-6.9c-6.1,0-11.7,2.2-16,5.9l-35.8,29.2c0,0-11,8.9-22.8,14.3
						c-6.3,2.9-16.7,6.7-22.6,6.7H327L263.7,157.3z"/>
				</g>
				<g>
					<path class="st9" d="M350.9,148.4c-5.3-5.1-12.5-8.2-20.5-8.2c-7.3,0-14,2.6-19.1,7l-49.1,40c0,0-12.8,10.4-22.8,14.2
						c-7.8,2.9-18.1,5.7-25.1,5.7h212.3L350.9,148.4z"/>
				</g>
				<g>
					<path class="st9" d="M155.8,155.7c-4.6-4.4-10.8-7.1-17.7-7.1c-6.3,0-12,2.3-16.5,6l-36.9,30.1c0,0-11.4,9.2-23.5,14.8
						c-6.5,3-17.3,6.9-23.3,6.9H221L155.8,155.7z"/>
				</g>
				<g>
					<path class="st10" d="M435.3,200.4c0,0.5,0.9,0.4,0.9,0l0-9.1c0-0.3-0.2-0.5-0.4-0.5c-0.2,0-0.4,0.2-0.4,0.5l0,6.9
						c0,0,0,0,0,0.1V200.4z"/>
					<path class="st10" d="M437.2,194.3v1.6c0,0.7-0.1,0.9-0.5,1.2l-0.9,0.4l0.2,0.5l0.9-0.4c0.7-0.5,0.8-1,0.8-1.7v-1.6H437.2z"/>
					<path class="st10" d="M434.2,196.7V195h-0.5v1.6c0,0.7,0.1,1.2,0.8,1.7l0.9,0.4l0.2-0.5l-0.9-0.4
						C434.3,197.5,434.2,197.4,434.2,196.7z"/>
					<path class="st11" d="M440.9,190.7c0,2.5-2,4.5-4.5,4.5c-2.5,0-4.5-2-4.5-4.5c0-2.5,2-4.5,4.5-4.5
						C438.9,186.2,440.9,188.2,440.9,190.7z"/>
					<path class="st3" d="M444.2,188.9c0.3-0.5,0.4-1.2,0.4-1.8c0-2-1.4-3.6-3.2-4c-0.2-2.1-1.9-3.7-4.1-3.7c-1.2,0-2.3,0.5-3,1.3
						c-0.5-0.2-1.1-0.4-1.7-0.4c-1.5,0-2.7,0.8-3.4,2c-2.4,0.5-4.2,2.6-4.2,5.2c0,1.8,0.9,3.3,2.2,4.3c0,0.1,0,0.1,0,0.2
						c0,2.9,2.3,5.2,5.2,5.2c1.5,0,2.8-0.6,3.7-1.6c0.9,0.6,1.9,0.9,3.1,0.9c3,0,5.4-2.4,5.4-5.4
						C444.7,190.3,444.5,189.6,444.2,188.9z"/>
				</g>
				<g>
					<path class="st15" d="M70.9,188.6l-2.5-2.6c-0.8-0.8-1.7-1.7-1.6-4.5v-11.3h-0.4V182c0,2.7,0.7,3.6,1.8,4.7
						c1.7,1.7,2.1,2.3,2.9,3.1v-0.9L70.9,188.6z"/>
					<rect x="70.2" y="174.3" class="st15" width="2.6" height="31.3"/>
					<path class="st15" d="M72.7,191.7L72.7,191.7c0.9-0.9,1.3-2,1.3-3.2V174h0.7v14.8c0,1.9-0.8,3.8-2.1,5.1l0,0L72.7,191.7z"/>
					<path class="st16" d="M74.8,181.6l1.8-1.8c0.5-0.5,1.2-1.2,1.2-3.2v-8.1H78v8.5c0,1.9-0.5,2.6-1.3,3.4
						c-1.2,1.2-1.5,1.7-2.1,2.2v-0.7L74.8,181.6z"/>
					<path class="st12" d="M86.4,165.4c0-4.2-2.9-7.8-6.8-8.8c-0.1-3.5-2.9-6.3-6.4-6.3c-1.6,0-3,0.6-4.1,1.5
						c-0.9-0.4-1.9-0.7-3-0.7c-3.9,0-7.1,3.2-7.1,7.1c0,0.9,0.2,1.7,0.5,2.5c-3.2,1.7-5.4,5-5.4,8.9c0,5.3,4.1,9.6,9.3,10
						c0.2,0,0.5,0,0.7,0c0.9,3.4,4,5.9,7.6,5.9c4.4,0,7.9-3.6,7.9-8.1v-0.5c1.7-0.7,2.9-2.2,3.1-4.1C85,171,86.4,168.4,86.4,165.4z"
						/>
					<path class="st9" d="M82.6,163.1c0-4.1-3.3-7.4-7.4-7.4c-0.8,0-1.7,0.1-2.4,0.4c-0.8-1.9-2.8-3.3-5-3.3c-3,0-5.5,2.4-5.5,5.5
						c0,0.1,0,0.2,0,0.3c-2.9,1-4.9,3.7-4.9,6.9c0,4.1,3.3,7.3,7.3,7.3c0.6,0,1.3-0.1,1.9-0.2c0.6,2.1,2.5,3.6,4.8,3.6
						c2,0,3.7-1.2,4.5-2.9c0,0,0,0,0.1,0c2.5,0,4.5-2,4.5-4.4h0v-0.6C81.8,167,82.6,165.2,82.6,163.1z"/>
				</g>
				<g>
					<path class="st15" d="M125.1,192.6l-2.1-2.1c-0.6-0.6-1.4-1.4-1.3-3.7v-9.4h-0.3v9.7c0,2.2,0.6,2.9,1.5,3.9
						c1.4,1.4,1.8,1.9,2.4,2.5v-0.8L125.1,192.6z"/>
					<rect x="124.5" y="180.8" class="st15" width="2.1" height="25.8"/>
					<path class="st15" d="M126.6,195.1L126.6,195.1c0.7-0.7,1.1-1.7,1.1-2.7v-11.9h0.5v12.2c0,1.6-0.6,3.1-1.7,4.2l0,0L126.6,195.1
						z"/>
					<path class="st16" d="M128.2,186.8l1.5-1.5c0.4-0.4,1-1,1-2.7V176h0.2v7c0,1.6-0.4,2.1-1.1,2.8c-1,1-1.3,1.4-1.7,1.8V187
						L128.2,186.8z"/>
					<path class="st3" d="M137.9,173.4c0-3.5-2.4-6.4-5.6-7.3c-0.1-2.9-2.4-5.2-5.3-5.2c-1.3,0-2.5,0.5-3.4,1.2
						c-0.7-0.4-1.6-0.5-2.5-0.5c-3.2,0-5.8,2.6-5.8,5.8c0,0.7,0.1,1.4,0.4,2.1c-2.6,1.4-4.4,4.1-4.4,7.3c0,4.4,3.4,7.9,7.6,8.2
						c0.2,0,0.4,0,0.6,0c0.8,2.8,3.3,4.8,6.3,4.8c3.6,0,6.5-3,6.5-6.6v-0.4c1.4-0.5,2.4-1.8,2.5-3.4
						C136.7,178.1,137.9,175.9,137.9,173.4z"/>
					<path class="st5" d="M134.7,171.6c0-3.4-2.7-6.1-6.1-6.1c-0.7,0-1.4,0.1-2,0.3c-0.7-1.6-2.3-2.7-4.1-2.7c-2.5,0-4.5,2-4.5,4.5
						c0,0.1,0,0.2,0,0.3c-2.4,0.8-4.1,3.1-4.1,5.7c0,3.3,2.7,6.1,6.1,6.1c0.5,0,1.1-0.1,1.5-0.2c0.5,1.7,2,3,3.9,3
						c1.7,0,3.1-1,3.7-2.4c0,0,0,0,0,0c2,0,3.7-1.6,3.7-3.6h0v-0.5C134,174.8,134.7,173.3,134.7,171.6z"/>
				</g>
				<g>
					<path class="st15" d="M298.6,185.7l-3-3c-0.9-0.9-2-2-1.9-5.3V164h-0.5v14c0,3.2,0.8,4.2,2.2,5.6c2,2,2.5,2.8,3.4,3.6v-1.1
						L298.6,185.7z"/>
					<rect x="297.8" y="168.8" class="st15" width="3" height="37"/>
					<path class="st15" d="M300.7,189.3L300.7,189.3c1-1,1.6-2.4,1.6-3.8v-17.1h0.8v17.5c0,2.3-0.9,4.4-2.5,6l0,0L300.7,189.3z"/>
					<path class="st16" d="M303.1,177.5l2.1-2.2c0.6-0.6,1.5-1.5,1.4-3.8v-9.6h0.4v10c0,2.3-0.6,3-1.5,4c-1.4,1.4-1.8,2-2.4,2.6
						v-0.8L303.1,177.5z"/>
					<path class="st17" d="M316.9,158.3c0-5-3.4-9.2-8.1-10.4c-0.1-4.1-3.5-7.4-7.6-7.4c-1.8,0-3.5,0.7-4.8,1.7
						c-1.1-0.5-2.3-0.8-3.5-0.8c-4.6,0-8.4,3.8-8.4,8.4c0,1,0.2,2,0.6,3c-3.8,2-6.4,5.9-6.4,10.5c0,6.2,4.8,11.3,11,11.8
						c0.3,0,0.6,0.1,0.9,0.1c1.1,4,4.7,6.9,9,6.9c5.2,0,9.4-4.3,9.4-9.5v-0.6c2-0.8,3.4-2.7,3.6-4.9
						C315.2,165,316.9,161.8,316.9,158.3z"/>
					<path class="st12" d="M312.4,155.6c0-4.8-3.9-8.8-8.8-8.8c-1,0-2,0.2-2.9,0.5c-1-2.3-3.3-3.9-5.9-3.9c-3.6,0-6.5,2.9-6.5,6.5
						c0,0.1,0,0.3,0,0.4c-3.4,1.2-5.8,4.4-5.8,8.2c0,4.8,3.9,8.7,8.7,8.7c0.8,0,1.5-0.1,2.2-0.3c0.7,2.5,2.9,4.3,5.6,4.3
						c2.4,0,4.4-1.4,5.3-3.4c0,0,0,0,0.1,0c2.9,0,5.3-2.3,5.3-5.2h0v-0.7C311.4,160.2,312.4,158,312.4,155.6z"/>
				</g>
				<g>
					<path class="st10" d="M447.8,201.4c0,0.6,1,0.5,1-0.1l0-14.7c0-0.3-0.2-0.6-0.5-0.6c-0.3,0-0.5,0.3-0.5,0.6l0,8.1
						c0,0,0,0,0,0.1V201.4z"/>
					<path class="st10" d="M450,190.2v1.9c0,0.8-0.1,1-0.6,1.4l-1,0.5l0.3,0.6l1-0.5c0.9-0.6,0.9-1.2,0.9-2v-1.9H450z"/>
					<path class="st10" d="M446.5,193.1v-1.9h-0.7v1.9c0,0.8,0.1,1.4,1,2l1.1,0.5l0.3-0.6l-1-0.5
						C446.6,194.1,446.5,193.9,446.5,193.1z"/>
					<path class="st11" d="M454.4,186c0,2.9-2.4,5.3-5.3,5.3c-2.9,0-5.3-2.4-5.3-5.3c0-2.9,2.4-5.3,5.3-5.3
						C452,180.7,454.4,183.1,454.4,186z"/>
					<path class="st12" d="M458.4,183.9c0.3-0.6,0.5-1.4,0.5-2.1c0-2.3-1.6-4.2-3.7-4.8c-0.2-2.5-2.3-4.4-4.8-4.4
						c-1.4,0-2.7,0.6-3.6,1.6c-0.6-0.3-1.3-0.5-2-0.5c-1.7,0-3.2,0.9-4.1,2.3c-2.8,0.6-5,3.1-5,6.1c0,2.1,1,4,2.6,5.1
						c0,0.1,0,0.1,0,0.2c0,3.4,2.8,6.2,6.2,6.2c1.7,0,3.3-0.7,4.4-1.8c1,0.7,2.3,1.1,3.6,1.1c3.5,0,6.4-2.9,6.4-6.4
						C458.9,185.5,458.7,184.7,458.4,183.9z"/>
					<path class="st9" d="M452.3,181.9c0-2.4-1.9-4.3-4.3-4.3c-0.5,0-1,0.1-1.4,0.2c-0.5-1.1-1.6-1.9-2.9-1.9
						c-1.7,0-3.1,1.4-3.1,3.1c0,0.1,0,0.1,0,0.2c-1.6,0.6-2.8,2.1-2.8,4c0,2.3,1.9,4.2,4.2,4.2c0.4,0,0.7,0,1.1-0.1
						c0.3,1.2,1.4,2.1,2.7,2.1c1.2,0,2.1-0.7,2.6-1.7c0,0,0,0,0,0c1.4,0,2.6-1.1,2.6-2.5h0v-0.3
						C451.8,184.2,452.3,183.1,452.3,181.9z"/>
				</g>
				<g>
					<path class="st4" d="M351.6,180.4c0,0.6,0.5,1.1,1.1,1.1c0.6,0,1.1-0.5,1.1-1.1V177h-2.3V180.4z"/>
					<path class="st6" d="M362.1,179.1c0.4,0,0.7-0.5,0.5-0.8l-9.4-17.6c-0.2-0.4-0.7-0.4-0.9,0l-9.4,17.6c-0.2,0.4,0.1,0.8,0.5,0.8
						H362.1z"/>
					<path class="st7" d="M352.2,160.6c0.1-0.2,0.3-0.3,0.4-0.3v18.8h-9.3c-0.4,0-0.7-0.5-0.5-0.8L352.2,160.6z"/>
					<path class="st6" d="M359,162c0.4,0,0.7-0.5,0.5-0.9l-6.4-12c-0.2-0.4-0.7-0.4-0.9,0l-6.4,12c-0.2,0.4,0.1,0.9,0.5,0.9H359z"/>
					<path class="st6" d="M360.3,170.2c0.5,0,0.9-0.6,0.6-1l-7.6-14.3c-0.2-0.4-0.9-0.4-1.1,0l-7.6,14.3c-0.2,0.5,0.1,1,0.6,1H360.3
						z"/>
					<path class="st7" d="M352.2,154.8c0.1-0.2,0.3-0.3,0.5-0.3v15.7h-7.5c-0.5,0-0.9-0.6-0.6-1L352.2,154.8z"/>
					<path class="st7" d="M352.2,149.1c0.1-0.2,0.2-0.3,0.4-0.3V162h-6.3c-0.4,0-0.7-0.5-0.5-0.9L352.2,149.1z"/>
				</g>
				<g>
					<path class="st4" d="M341.1,154.5c0,0.6-0.5,1-1,1c-0.6,0-1-0.5-1-1v-3.1h2V154.5z"/>
					<path class="st18" d="M331.8,153.3c-0.4,0-0.6-0.4-0.5-0.8l8.4-15.8c0.2-0.3,0.6-0.3,0.8,0l8.4,15.8c0.2,0.3-0.1,0.8-0.5,0.8
						H331.8z"/>
					<path class="st19" d="M340.5,136.7c-0.1-0.2-0.2-0.2-0.4-0.2v16.8h8.4c0.4,0,0.6-0.4,0.5-0.8L340.5,136.7z"/>
					<path class="st18" d="M334.4,138c-0.4,0-0.6-0.4-0.5-0.8l5.7-10.7c0.2-0.3,0.6-0.3,0.8,0l5.7,10.7c0.2,0.3-0.1,0.8-0.5,0.8
						H334.4z"/>
					<path class="st18" d="M333.3,145.3c-0.5,0-0.8-0.5-0.5-0.9l6.8-12.8c0.2-0.4,0.8-0.4,1,0l6.8,12.8c0.2,0.4-0.1,0.9-0.5,0.9
						H333.3z"/>
					<path class="st19" d="M340.6,131.6c-0.1-0.2-0.3-0.3-0.4-0.3v14h6.7c0.5,0,0.8-0.5,0.5-0.9L340.6,131.6z"/>
					<path class="st19" d="M340.5,126.5c-0.1-0.1-0.2-0.2-0.4-0.2V138h5.6c0.4,0,0.6-0.4,0.5-0.8L340.5,126.5z"/>
				</g>
			</g>
			<rect x="-15.4" y="198.3" class="st9" width="500.7" height="34.3"/>
			<rect x="-15.4" y="232.6" class="st20" width="500.7" height="163.8"/>
		</g>
	</g>
	<path class="st1" d="M139.5,51c5.9,0,10.6-4.8,10.6-10.6c0-5.9-4.8-10.6-10.6-10.6c-1.6,0-3.1,0.4-4.5,1
		c-1.2-5.8-6.3-10.2-12.5-10.2c-6.3,0-11.5,4.6-12.5,10.6c-2.1-0.6-4.5,0-6.1,1.7c-1.2,1.3-1.8,2.9-1.7,4.6c-2-0.3-4.1,0.4-5.7,1.9
		c-2.7,2.7-2.7,7,0,9.7c1.4,1.4,3.1,2,4.9,2L139.5,51z"/>
	<path class="st1" d="M410.6,140.1c1.6,0,3.2-0.6,4.5-1.9c2.5-2.5,2.5-6.5,0-9c-1.6-1.6-3.8-2.1-5.8-1.7c-0.5-4.2-4.1-7.5-8.4-7.5
		c-3.8,0-7,2.5-8.1,5.9c-0.5-0.2-1.1-0.3-1.7-0.3c-3,0-5.4,2.3-5.6,5.2c-1.4-0.7-3.1-0.3-4.2,0.9c-0.6,0.7-0.9,1.5-0.9,2.3
		c-1.6,0-3,1.4-3,3c0,1.7,1.3,3,3,3C389.2,140.1,407.3,140.1,410.6,140.1z"/>
	<g>
		<g>
			<rect y="291.5" class="st21" width="480" height="1.8"/>
			<rect x="4" y="291.9" class="st22" width="9.4" height="2.8"/>
			<rect x="24.9" y="291.9" class="st22" width="9.4" height="2.8"/>
			<rect x="45.8" y="291.9" class="st22" width="9.4" height="2.8"/>
			<rect x="66.8" y="291.9" class="st22" width="9.4" height="2.8"/>
			<rect x="87.7" y="291.9" class="st22" width="9.4" height="2.8"/>
			<rect x="108.6" y="291.9" class="st22" width="9.4" height="2.8"/>
			<rect x="129.6" y="291.9" class="st22" width="9.4" height="2.8"/>
			<rect x="150.5" y="291.9" class="st22" width="9.4" height="2.8"/>
			<rect x="171.4" y="291.9" class="st22" width="9.4" height="2.8"/>
			<rect x="192.4" y="291.9" class="st22" width="9.4" height="2.8"/>
			<rect x="213.3" y="291.9" class="st22" width="9.4" height="2.8"/>
			<rect x="234.2" y="291.9" class="st22" width="9.4" height="2.8"/>
			<rect x="255.2" y="291.9" class="st22" width="9.4" height="2.8"/>
			<rect x="276.1" y="291.9" class="st22" width="9.4" height="2.8"/>
			<rect x="297" y="291.9" class="st22" width="9.4" height="2.8"/>
			<rect x="317.9" y="291.9" class="st22" width="9.4" height="2.8"/>
			<rect x="338.9" y="291.9" class="st22" width="9.4" height="2.8"/>
			<rect x="359.8" y="291.9" class="st22" width="9.4" height="2.8"/>
			<rect x="380.7" y="291.9" class="st22" width="9.4" height="2.8"/>
			<rect x="401.7" y="291.9" class="st22" width="9.4" height="2.8"/>
			<rect x="422.6" y="291.9" class="st22" width="9.4" height="2.8"/>
			<rect x="443.5" y="291.9" class="st22" width="9.4" height="2.8"/>
			<rect x="464.5" y="291.9" class="st22" width="9.4" height="2.8"/>
		</g>
	</g>
</g>
<g id="Layer_3">
</g>
</svg>
