<svg version="1.1" xmlns="http://www.w3.org/2000/svg" xmlns:xlink="http://www.w3.org/1999/xlink" width="480.4" height="360"><defs><clipPath id="clip-1"><path d="M-0.4,224.7v-184h480.4v184z" id="clip-1" fill="none"/></clipPath></defs><g transform="translate(0.4,0)"><g data-paper-data="{&quot;isPaintingLayer&quot;:true}" fill="none" fill-rule="nonzero" stroke="none" stroke-width="1" stroke-linecap="butt" stroke-linejoin="miter" stroke-miterlimit="10" stroke-dasharray="" stroke-dashoffset="0" font-family="none" font-weight="none" font-size="none" text-anchor="none" style="mix-blend-mode: normal"><path d="M0,221.2v-221.2h480v221.2z" fill="#80f0f9"/><path d="M18.2,142.3c-1.6,0 -3.1,-0.6 -4.3,-1.8c-2.4,-2.4 -2.4,-6.2 0,-8.6c1.5,-1.5 3.7,-2.1 5.6,-1.6c0.5,-4.1 3.9,-7.2 8.1,-7.2c3.6,0 6.7,2.4 7.8,5.6c0.5,-0.2 1.1,-0.3 1.6,-0.3c2.8,0 5.2,2.2 5.4,5c1.3,-0.6 3,-0.3 4,0.9c0.6,0.7 0.8,1.5 0.8,2.2c1.6,0 2.8,1.3 2.8,2.9c0,1.6 -1.3,2.9 -2.9,2.9c-8.3,0 -25.7,0 -28.9,0z" fill="#ffffff"/><path d="M-0.2,360v-135.3h480v135.3z" data-paper-data="{&quot;origPos&quot;:null}" fill="#e2e2e2"/><g clip-path="url(#clip-1)" data-paper-data="{&quot;origPos&quot;:null}"><g><g fill="#198974"><path d="M184.8,202.2h-247.4c8.2,0 20.3,-3.1 29.3,-6.7c8.8,-3.5 14.5,-7.5 14.5,-7.5l69.3,-55.7c6,-5.1 13.8,-8.2 22.3,-8.2c9.3,0 17.7,3.7 23.9,9.6z"/></g><g><path d="M13.1,151.5c-0.5,0 -0.8,-0.6 -0.6,-1l7.2,-13.5c0.2,-0.4 0.8,-0.4 1,0l7.2,13.5c0.2,0.5 -0.1,1 -0.6,1z" fill="#47ad2f"/><g><path d="M18.9,165.1h2.6v11.4c0,0.7 -0.6,1.3 -1.3,1.3c-0.7,0 -1.3,-0.6 -1.3,-1.3z" fill="#7a5c41"/><path d="M9.6,170.9c-0.5,0 -0.8,-0.6 -0.6,-1l10.7,-19.9c0.2,-0.4 0.8,-0.4 1,0l10.6,19.9c0.2,0.5 -0.1,1 -0.6,1z" fill="#47ad2f"/><path d="M19.6,150c0.1,-0.2 0.3,-0.3 0.5,-0.3v21.2h-10.5c-0.5,0 -0.8,-0.5 -0.6,-1z" fill="#5cc13a"/><path d="M11.7,160.8c-0.6,0 -1,-0.6 -0.7,-1.1l8.7,-16.2c0.2,-0.5 0.9,-0.5 1.2,0l8.6,16.2c0.3,0.5 -0.1,1.1 -0.7,1.1z" fill="#47ad2f"/><path d="M19.6,143.5c0.1,-0.2 0.3,-0.3 0.6,-0.4v17.7h-8.5c-0.6,0 -1,-0.6 -0.7,-1.1z" fill="#5cc13a"/></g><path d="M19.6,137c0.1,-0.2 0.3,-0.3 0.5,-0.3v14.8h-7.1c-0.5,0 -0.8,-0.5 -0.6,-1z" fill="#5cc13a"/></g><g><path d="M68.6,135.6v-3.1h2.1v3.1c0,0.5 -0.4,1 -1,1c-0.5,0 -1,-0.4 -1,-1z" fill="#7a5c41"/><path d="M61.3,134.4c-0.4,0 -0.7,-0.5 -0.5,-0.8l8.5,-16c0.2,-0.3 0.6,-0.3 0.8,0l8.5,16c0.1,0.4 -0.1,0.8 -0.5,0.8z" fill="#237c11"/><path d="M69.2,117.6c0.1,-0.2 0.2,-0.2 0.4,-0.2v17h-8.5c-0.4,0 -0.6,-0.4 -0.5,-0.8z" fill="#3fa541"/><path d="M64,118.9c-0.4,0 -0.7,-0.5 -0.5,-0.8l5.8,-10.9c0.2,-0.3 0.6,-0.3 0.8,0l5.8,10.9c0.2,0.4 -0.1,0.8 -0.5,0.8z" fill="#237c11"/><path d="M63,126.3c-0.5,0 -0.8,-0.5 -0.6,-0.9l6.9,-13c0.2,-0.4 0.8,-0.4 1,0l6.9,13c0.2,0.4 -0.1,0.9 -0.6,0.9z" fill="#237c11"/><path d="M69.2,112.4c0.1,-0.2 0.3,-0.3 0.4,-0.3v14.2h-6.8c-0.5,0 -0.8,-0.5 -0.6,-0.9z" fill="#3fa541"/><path d="M69.2,107.2c0.1,-0.1 0.2,-0.2 0.4,-0.2v11.9h-5.7c-0.4,0 -0.7,-0.4 -0.5,-0.8z" fill="#3fa541"/></g><g><path d="M105.4,165.2v-3.2h2.1v3.2c0,0.6 -0.5,1.1 -1.1,1.1c-0.6,0 -1.1,-0.5 -1.1,-1.1z" fill="#7a5c41"/><path d="M97.6,164c-0.4,0 -0.7,-0.4 -0.5,-0.8l8.8,-16.6c0.2,-0.3 0.7,-0.3 0.9,0l8.8,16.6c0.2,0.4 -0.1,0.8 -0.5,0.8z" fill="#237c11"/><path d="M105.9,146.6c0.1,-0.2 0.3,-0.3 0.4,-0.3v17.7h-8.8c-0.4,0 -0.7,-0.4 -0.5,-0.8z" fill="#3fa541"/><path d="M100.4,147.9c-0.4,0 -0.7,-0.4 -0.5,-0.8l6,-11.2c0.2,-0.3 0.7,-0.3 0.9,0l6,11.2c0.2,0.4 -0.1,0.8 -0.5,0.8z" fill="#237c11"/><path d="M99.3,155.6c-0.5,0 -0.8,-0.6 -0.6,-1l7.2,-13.5c0.2,-0.4 0.8,-0.4 1,0l7.2,13.5c0.2,0.5 -0.1,1 -0.6,1z" fill="#237c11"/><path d="M105.9,141.2c0.1,-0.2 0.3,-0.3 0.5,-0.3v14.7h-7.1c-0.5,0 -0.8,-0.5 -0.6,-1z" fill="#3fa541"/><path d="M105.9,135.9c0.1,-0.2 0.2,-0.2 0.4,-0.2v12.3h-5.9c-0.4,0 -0.7,-0.4 -0.5,-0.8z" fill="#3fa541"/></g><g fill="#10725f"><path d="M376,202h-315c10.4,0 25.9,-3.9 37.3,-8.5c11.2,-4.5 18.5,-9.6 18.5,-9.6l88.2,-70.9c7.7,-6.5 17.6,-10.4 28.4,-10.4c11.8,0 22.5,4.7 30.4,12.2z"/></g><g fill="#10725f"><path d="M396.7,141.7c5.6,-5.3 13.1,-8.6 21.4,-8.6c7.6,0 14.6,2.7 20,7.3l62,49.9c0,0 5.1,3.6 13,6.7c8,3.2 18.9,6 26.2,6h-221.6z"/></g><g><path d="M207.2,153.9h2v3c0,0.6 -0.5,1 -1,1c-0.6,0 -1,-0.5 -1,-1z" fill="#7a5c41"/><path d="M200,155.7c-0.3,0 -0.6,-0.4 -0.4,-0.7l8.1,-15.2c0.2,-0.3 0.6,-0.3 0.8,0l8.1,15.2c0.2,0.3 0,0.7 -0.4,0.7z" fill="#3fa541"/><path d="M207.7,139.8c0.1,-0.2 0.2,-0.2 0.4,-0.2v16.2h-8.1c-0.4,0 -0.6,-0.4 -0.4,-0.7z" fill="#3fa541"/><path d="M202.6,141c-0.3,0 -0.6,-0.4 -0.4,-0.7l5.5,-10.4c0.2,-0.3 0.6,-0.3 0.8,0l5.5,10.4c0.2,0.3 0,0.7 -0.4,0.7z" fill="#3fa541"/><path d="M201.6,148.1c-0.4,0 -0.7,-0.5 -0.5,-0.9l6.6,-12.4c0.2,-0.4 0.7,-0.4 0.9,0l6.6,12.4c0.2,0.4 0,0.9 -0.5,0.9z" fill="#3fa541"/><path d="M207.7,134.8c0.1,-0.2 0.3,-0.3 0.4,-0.3v13.5h-6.5c-0.5,0 -0.7,-0.5 -0.5,-0.9z" fill="#3fa541"/><path d="M207.7,129.9c0.1,-0.1 0.2,-0.2 0.4,-0.2v11.3h-5.4c-0.4,0 -0.6,-0.4 -0.4,-0.7z" fill="#3fa541"/></g><g><path d="M194.6,144.7h1.6v2.4c0,0.4 -0.4,0.8 -0.8,0.8c-0.4,0 -0.8,-0.4 -0.8,-0.8z" fill="#7a5c41"/><path d="M189,146.2c-0.4,0 -0.5,-0.3 -0.4,-0.6l6.5,-12.1c0.1,-0.2 0.5,-0.2 0.6,0l6.5,12.1c0.1,0.3 -0.1,0.6 -0.4,0.6z" fill="#3fa541"/><path d="M195,133.5c0.1,-0.1 0.2,-0.2 0.3,-0.2v12.9h-6.4c-0.3,0 -0.5,-0.3 -0.4,-0.6z" fill="#3fa541"/><path d="M191.1,134.4c-0.3,0 -0.5,-0.3 -0.4,-0.6l4.4,-8.2c0.1,-0.2 0.5,-0.2 0.6,0l4.4,8.2c0.1,0.3 -0.1,0.6 -0.4,0.6z" fill="#3fa541"/><path d="M190.3,140.1c-0.3,0 -0.6,-0.4 -0.4,-0.7l5.2,-9.8c0.1,-0.3 0.5,-0.3 0.7,0l5.2,9.8c0.2,0.3 0,0.7 -0.4,0.7z" fill="#3fa541"/><path d="M195,129.5c0.1,-0.1 0.2,-0.2 0.3,-0.2v10.8h-5.2c-0.4,0 -0.6,-0.4 -0.4,-0.7z" fill="#3fa541"/><path d="M195,125.6c0.1,-0.1 0.2,-0.2 0.3,-0.2v9h-4.3c-0.3,0 -0.5,-0.3 -0.4,-0.6z" fill="#3fa541"/></g><g><path d="M226,120.9h1.4v2.1c0,0.4 -0.3,0.7 -0.7,0.7c-0.4,0 -0.7,-0.3 -0.7,-0.7z" fill="#7a5c41"/><path d="M220.9,122.2c-0.3,0 -0.4,-0.3 -0.3,-0.5l5.8,-10.9c0.2,-0.2 0.5,-0.2 0.6,0l5.8,10.9c0.1,0.2 0,0.5 -0.3,0.5z" fill="#3fa541"/><path d="M226.4,110.8c0.1,-0.1 0.2,-0.2 0.3,-0.2v11.6h-5.8c-0.3,0 -0.4,-0.3 -0.3,-0.5z" fill="#3fa541"/><path d="M222.8,111.7c-0.3,0 -0.4,-0.3 -0.3,-0.5l3.9,-7.4c0.2,-0.2 0.5,-0.2 0.6,0l3.9,7.4c0.1,0.2 0,0.5 -0.3,0.5z" fill="#3fa541"/><path d="M222.1,116.7c-0.3,0 -0.6,-0.3 -0.4,-0.6l4.7,-8.8c0.2,-0.3 0.6,-0.3 0.7,0l4.7,8.8c0.1,0.3 -0.1,0.6 -0.4,0.6z" fill="#3fa541"/><path d="M226.4,107.3c0.1,-0.1 0.2,-0.2 0.3,-0.2v9.7h-4.6c-0.3,0 -0.5,-0.3 -0.4,-0.6z" fill="#3fa541"/><path d="M226.4,103.7c0.1,-0.1 0.2,-0.2 0.3,-0.2v8.1h-3.9c-0.3,0 -0.4,-0.3 -0.3,-0.5z" fill="#3fa541"/></g><g><path d="M448.2,160.2h2v3c0,0.5 -0.4,1 -1,1c-0.6,0 -1,-0.4 -1,-1z" fill="#7a5c41"/><path d="M441,162c-0.3,0 -0.6,-0.4 -0.4,-0.7l8.2,-15.4c0.2,-0.3 0.6,-0.3 0.8,0l8.2,15.4c0.2,0.3 0,0.7 -0.4,0.7z" fill="#47ad2f"/><path d="M448.8,145.8c0.1,-0.2 0.2,-0.2 0.4,-0.2v16.4h-8.2c-0.4,0 -0.6,-0.4 -0.4,-0.7z" fill="#5cc13a"/><path d="M443.5,147c-0.3,0 -0.6,-0.4 -0.4,-0.7l5.6,-10.5c0.2,-0.3 0.6,-0.3 0.8,0l5.6,10.5c0.2,0.3 0,0.7 -0.4,0.7z" fill="#47ad2f"/><path d="M442.6,154.2c-0.4,0 -0.7,-0.5 -0.5,-0.9l6.7,-12.6c0.2,-0.4 0.7,-0.4 0.9,0l6.7,12.6c0.3,0.4 0,0.9 -0.5,0.9z" fill="#47ad2f"/><path d="M448.8,140.8c0.1,-0.2 0.3,-0.3 0.4,-0.3v13.7h-6.6c-0.5,0 -0.8,-0.5 -0.5,-0.9z" fill="#5cc13a"/><path d="M448.8,135.8c0.1,-0.1 0.2,-0.2 0.4,-0.2v11.4h-5.5c-0.4,0 -0.6,-0.4 -0.4,-0.7z" fill="#5cc13a"/></g></g><g><g><path d="M45.6,203.1v-0.1v-9.7c0,-0.4 0.3,-0.7 0.6,-0.7c0.3,0 0.6,0.3 0.6,0.7v12.9c0,0.7 -1.2,0.8 -1.2,0.1z" fill="#938548"/><path d="M48.1,197.8h0.7v2.2c0,0.9 -0.1,1.6 -1.1,2.3l-1.2,0.6l-0.3,-0.7l1.2,-0.6c0.6,-0.5 0.7,-0.7 0.7,-1.7v-2.2z" fill="#938548"/><path d="M44.8,202.8l1.2,0.6l-0.3,0.7l-1.3,-0.6c-1.1,-0.7 -1.2,-1.5 -1.2,-2.4v-2.3h0.8v2.3c-0.1,1 0.1,1.2 0.8,1.7z" fill="#938548"/><path d="M53.4,192.7c0,3.5 -2.8,6.3 -6.3,6.3c-3.5,0 -6.3,-2.8 -6.3,-6.3c0,-3.5 2.8,-6.3 6.3,-6.3c3.4,-0.1 6.3,2.8 6.3,6.3z" fill="#498c44"/><path d="M58.8,193.1c0,4.3 -3.5,7.7 -7.7,7.7c-1.6,0 -3.1,-0.5 -4.3,-1.3c-1.3,1.4 -3.2,2.2 -5.2,2.2c-4.1,0 -7.4,-3.3 -7.4,-7.4c0,-0.1 0,-0.1 0,-0.2c-1.9,-1.4 -3.1,-3.6 -3.1,-6.1c0,-3.6 2.5,-6.6 5.9,-7.3c0.9,-1.7 2.7,-2.8 4.8,-2.8c0.9,0 1.7,0.2 2.4,0.5c1.1,-1.2 2.6,-1.9 4.3,-1.9c3.1,0 5.5,2.3 5.8,5.3c2.5,0.6 4.4,3 4.4,5.7c0,1 -0.2,1.8 -0.6,2.6c0.4,1 0.7,2 0.7,3z" fill="#7bce05"/><path d="M50.7,191.3v0.4v0c-0.1,1.7 -1.4,3 -3.1,3v0c-0.5,1.2 -1.7,2 -3.1,2c-1.6,0 -2.9,-1.1 -3.3,-2.5c-0.4,0.1 -0.9,0.2 -1.3,0.2c-2.7,0 -5,-2.2 -5,-5c0,-2.1 1.4,-4 3.4,-4.7c0,-0.1 0,-0.1 0,-0.2c0,-2 1.6,-3.7 3.7,-3.7c1.5,0 2.8,0.9 3.4,2.2c0.6,-0.2 1.1,-0.3 1.7,-0.3c2.8,0 5.1,2.3 5.1,5.1c0,1.4 -0.6,2.7 -1.5,3.5z" fill="#8de00a"/></g><g fill="#54cc06"><path d="M327,206.5h-177.6c5.9,0 16.3,-3.8 22.6,-6.7c11.8,-5.4 22.8,-14.3 22.8,-14.3l35.8,-29.2c4.3,-3.7 9.9,-5.9 16,-5.9c6.6,0 12.6,2.6 17.1,6.9z"/></g><g fill="#8de00a"><path d="M426.6,207.1h-212.3c7,0 17.3,-2.8 25.1,-5.7c10,-3.8 22.8,-14.2 22.8,-14.2l49.1,-40c5.1,-4.4 11.8,-7 19.1,-7c8,0 15.2,3.1 20.5,8.2z"/></g><g fill="#8de00a"><path d="M221,206.4h-183.1c6,0 16.8,-3.9 23.3,-6.9c12.1,-5.6 23.5,-14.8 23.5,-14.8l36.9,-30.1c4.5,-3.7 10.2,-6 16.5,-6c6.9,0 13.1,2.7 17.7,7.1z"/></g><g><path d="M435.4,200.4v-2.1c0,-0.1 0,-0.1 0,-0.1v-6.9c0,-0.3 0.2,-0.5 0.4,-0.5c0.2,0 0.4,0.2 0.4,0.5v9.1c0,0.4 -0.9,0.5 -0.9,0z" fill="#938548"/><path d="M437.7,194.3v1.6c0,0.7 -0.1,1.2 -0.8,1.7l-0.9,0.4l-0.2,-0.5l0.9,-0.4c0.4,-0.3 0.5,-0.5 0.5,-1.2v-1.6z" fill="#938548"/><path d="M434.7,197.8l0.9,0.4l-0.2,0.5l-0.9,-0.4c-0.7,-0.5 -0.8,-1 -0.8,-1.7v-1.6h0.5v1.7c0,0.7 0.1,0.8 0.5,1.1z" fill="#938548"/><path d="M440.9,190.7c0,2.5 -2,4.5 -4.5,4.5c-2.5,0 -4.5,-2 -4.5,-4.5c0,-2.5 2,-4.5 4.5,-4.5c2.5,0 4.5,2 4.5,4.5z" fill="#498c44"/><path d="M444.6,191.1c0,3 -2.4,5.4 -5.4,5.4c-1.2,0 -2.2,-0.3 -3.1,-0.9c-0.9,1 -2.2,1.6 -3.7,1.6c-2.9,0 -5.2,-2.3 -5.2,-5.2c0,-0.1 0,-0.1 0,-0.2c-1.3,-1 -2.2,-2.5 -2.2,-4.3c0,-2.6 1.8,-4.7 4.2,-5.2c0.7,-1.2 1.9,-2 3.4,-2c0.6,0 1.2,0.2 1.7,0.4c0.7,-0.8 1.8,-1.3 3,-1.3c2.2,0 3.9,1.6 4.1,3.7c1.8,0.4 3.2,2 3.2,4c0,0.6 -0.1,1.3 -0.4,1.8c0.3,0.7 0.5,1.4 0.4,2.2z" fill="#47ad2f"/></g><g><path d="M71.1,188.9v0.9c-0.8,-0.8 -1.2,-1.4 -2.9,-3.1c-1.1,-1.1 -1.8,-2 -1.8,-4.7v-11.8h0.4v11.3c-0.1,2.8 0.8,3.7 1.6,4.5l2.5,2.6z" fill="#876d33"/><path d="M70.2,205.6v-31.3h2.6v31.3z" fill="#876d33"/><path d="M72.7,191.7v0c0.9,-0.9 1.3,-2 1.3,-3.2v-14.5h0.7v14.8c0,1.9 -0.8,3.8 -2.1,5.1v0z" fill="#876d33"/><path d="M74.8,181.6l1.8,-1.8c0.5,-0.5 1.2,-1.2 1.2,-3.2v-8.1h0.2v8.5c0,1.9 -0.5,2.6 -1.3,3.4c-1.2,1.2 -1.5,1.7 -2.1,2.2v-0.7z" fill="#c4b08d"/><path d="M82.7,172.8c-0.2,1.9 -1.4,3.4 -3.1,4.1v0.5c0,4.5 -3.5,8.1 -7.9,8.1c-3.6,0 -6.7,-2.5 -7.6,-5.9c-0.2,0 -0.5,0 -0.7,0c-5.2,-0.4 -9.3,-4.7 -9.3,-10c0,-3.9 2.2,-7.2 5.4,-8.9c-0.3,-0.8 -0.5,-1.6 -0.5,-2.5c0,-3.9 3.2,-7.1 7.1,-7.1c1.1,0 2.1,0.3 3,0.7c1.1,-0.9 2.5,-1.5 4.1,-1.5c3.5,0 6.3,2.8 6.4,6.3c3.9,1 6.8,4.6 6.8,8.8c0,3 -1.4,5.6 -3.7,7.4z" fill="#7bce05"/><path d="M80.5,168.3v0.6v0c0,2.4 -2,4.4 -4.5,4.4c-0.1,0 -0.1,0 -0.1,0c-0.8,1.7 -2.5,2.9 -4.5,2.9c-2.3,0 -4.2,-1.5 -4.8,-3.6c-0.6,0.1 -1.3,0.2 -1.9,0.2c-4,0 -7.3,-3.2 -7.3,-7.3c0,-3.2 2,-5.9 4.9,-6.9c0,-0.1 0,-0.2 0,-0.3c0,-3.1 2.5,-5.5 5.5,-5.5c2.2,0 4.2,1.4 5,3.3c0.7,-0.3 1.6,-0.4 2.4,-0.4c4.1,0 7.4,3.3 7.4,7.4c0,2.1 -0.8,3.9 -2.1,5.2z" fill="#8de00a"/></g><g><path d="M125.3,192.7v0.8c-0.6,-0.6 -1,-1.1 -2.4,-2.5c-0.9,-1 -1.5,-1.7 -1.5,-3.9v-9.7h0.3v9.4c-0.1,2.3 0.7,3.1 1.3,3.7l2.1,2.1z" fill="#876d33"/><path d="M124.5,206.6v-25.8h2.1v25.8z" fill="#876d33"/><path d="M126.6,195.1v0c0.7,-0.7 1.1,-1.7 1.1,-2.7v-11.9h0.5v12.2c0,1.6 -0.6,3.1 -1.7,4.2v0z" fill="#876d33"/><path d="M128.2,186.8l1.5,-1.5c0.4,-0.4 1,-1 1,-2.7v-6.6h0.2v7c0,1.6 -0.4,2.1 -1.1,2.8c-1,1 -1.3,1.4 -1.7,1.8v-0.6z" fill="#c4b08d"/><path d="M134.8,179.4c-0.1,1.6 -1.1,2.9 -2.5,3.4v0.4c0,3.6 -2.9,6.6 -6.5,6.6c-3,0 -5.5,-2 -6.3,-4.8c-0.2,0 -0.4,0 -0.6,0c-4.2,-0.3 -7.6,-3.8 -7.6,-8.2c0,-3.2 1.8,-5.9 4.4,-7.3c-0.3,-0.7 -0.4,-1.4 -0.4,-2.1c0,-3.2 2.6,-5.8 5.8,-5.8c0.9,0 1.8,0.1 2.5,0.5c0.9,-0.7 2.1,-1.2 3.4,-1.2c2.9,0 5.2,2.3 5.3,5.2c3.2,0.9 5.6,3.8 5.6,7.3c0,2.5 -1.2,4.7 -3.1,6z" fill="#47ad2f"/><path d="M132.8,176v0.5v0c0,2 -1.7,3.6 -3.7,3.6v0c-0.6,1.4 -2,2.4 -3.7,2.4c-1.9,0 -3.4,-1.3 -3.9,-3c-0.4,0.1 -1,0.2 -1.5,0.2c-3.4,0 -6.1,-2.8 -6.1,-6.1c0,-2.6 1.7,-4.9 4.1,-5.7c0,-0.1 0,-0.2 0,-0.3c0,-2.5 2,-4.5 4.5,-4.5c1.8,0 3.4,1.1 4.1,2.7c0.6,-0.2 1.3,-0.3 2,-0.3c3.4,0 6.1,2.7 6.1,6.1c0,1.7 -0.7,3.2 -1.9,4.4z" fill="#5cc13a"/></g><g><path d="M298.8,186.1v1.1c-0.9,-0.8 -1.4,-1.6 -3.4,-3.6c-1.4,-1.4 -2.2,-2.4 -2.2,-5.6v-14h0.5v13.4c-0.1,3.3 1,4.4 1.9,5.3l3,3z" fill="#876d33"/><path d="M297.8,205.8v-37h3v37z" fill="#876d33"/><path d="M300.7,189.3v0c1,-1 1.6,-2.4 1.6,-3.8v-17.1h0.8v17.5c0,2.3 -0.9,4.4 -2.5,6v0z" fill="#876d33"/><path d="M303.1,177.5l2.1,-2.2c0.6,-0.6 1.5,-1.5 1.4,-3.8v-9.6h0.4v10c0,2.3 -0.6,3 -1.5,4c-1.4,1.4 -1.8,2 -2.4,2.6v-0.8z" fill="#c4b08d"/><path d="M312.6,167.1c-0.2,2.2 -1.6,4.1 -3.6,4.9v0.6c0,5.2 -4.2,9.5 -9.4,9.5c-4.3,0 -7.9,-2.9 -9,-6.9c-0.3,0 -0.6,-0.1 -0.9,-0.1c-6.2,-0.5 -11,-5.6 -11,-11.8c0,-4.6 2.6,-8.5 6.4,-10.5c-0.4,-1 -0.6,-2 -0.6,-3c0,-4.6 3.8,-8.4 8.4,-8.4c1.2,0 2.4,0.3 3.5,0.8c1.3,-1 3,-1.7 4.8,-1.7c4.1,0 7.5,3.3 7.6,7.4c4.7,1.2 8.1,5.4 8.1,10.4c0,3.5 -1.7,6.7 -4.3,8.8z" fill="#56c437"/><path d="M309.7,161.9v0.7v0c0,2.9 -2.4,5.2 -5.3,5.2c-0.1,0 -0.1,0 -0.1,0c-0.9,2 -2.9,3.4 -5.3,3.4c-2.7,0 -4.9,-1.8 -5.6,-4.3c-0.7,0.2 -1.4,0.3 -2.2,0.3c-4.8,0 -8.7,-3.9 -8.7,-8.7c0,-3.8 2.4,-7 5.8,-8.2c0,-0.1 0,-0.3 0,-0.4c0,-3.6 2.9,-6.5 6.5,-6.5c2.6,0 4.9,1.6 5.9,3.9c0.9,-0.3 1.9,-0.5 2.9,-0.5c4.9,0 8.8,4 8.8,8.8c0,2.4 -1,4.6 -2.7,6.3z" fill="#7bce05"/></g><g><path d="M447.8,194.8c0,-0.1 0,-0.1 0,-0.1v-8.1c0,-0.3 0.2,-0.6 0.5,-0.6c0.3,0 0.5,0.3 0.5,0.6v14.7c0,0.6 -1,0.7 -1,0.1z" fill="#938548"/><path d="M450.6,190.2v1.9c0,0.8 0,1.4 -0.9,2l-1,0.5l-0.3,-0.6l1,-0.5c0.5,-0.4 0.6,-0.6 0.6,-1.4v-1.9z" fill="#938548"/><path d="M447.2,194.5l1,0.5l-0.3,0.6l-1.1,-0.5c-0.9,-0.6 -1,-1.2 -1,-2v-1.9h0.7v1.9c0,0.8 0.1,1 0.7,1.4z" fill="#938548"/><path d="M454.4,186c0,2.9 -2.4,5.3 -5.3,5.3c-2.9,0 -5.3,-2.4 -5.3,-5.3c0,-2.9 2.4,-5.3 5.3,-5.3c2.9,0 5.3,2.4 5.3,5.3z" fill="#498c44"/><path d="M458.9,186.5c0,3.5 -2.9,6.4 -6.4,6.4c-1.3,0 -2.6,-0.4 -3.6,-1.1c-1.1,1.1 -2.7,1.8 -4.4,1.8c-3.4,0 -6.2,-2.8 -6.2,-6.2c0,-0.1 0,-0.1 0,-0.2c-1.6,-1.1 -2.6,-3 -2.6,-5.1c0,-3 2.2,-5.5 5,-6.1c0.9,-1.4 2.4,-2.3 4.1,-2.3c0.7,0 1.4,0.2 2,0.5c0.9,-1 2.2,-1.6 3.6,-1.6c2.5,0 4.6,1.9 4.8,4.4c2.1,0.6 3.7,2.5 3.7,4.8c0,0.7 -0.2,1.5 -0.5,2.1c0.3,0.8 0.5,1.6 0.5,2.6z" fill="#7bce05"/><path d="M451,184.9v0.3v0c0,1.4 -1.2,2.5 -2.6,2.5v0c-0.5,1 -1.4,1.7 -2.6,1.7c-1.3,0 -2.4,-0.9 -2.7,-2.1c-0.4,0.1 -0.7,0.1 -1.1,0.1c-2.3,0 -4.2,-1.9 -4.2,-4.2c0,-1.9 1.2,-3.4 2.8,-4c0,-0.1 0,-0.1 0,-0.2c0,-1.7 1.4,-3.1 3.1,-3.1c1.3,0 2.4,0.8 2.9,1.9c0.4,-0.1 0.9,-0.2 1.4,-0.2c2.4,0 4.3,1.9 4.3,4.3c0,1.2 -0.5,2.3 -1.3,3z" fill="#8de00a"/></g><g><path d="M351.5,180.4v-3.4h2.3v3.4c0,0.6 -0.5,1.1 -1.1,1.1c-0.6,0 -1.1,-0.5 -1.1,-1.1z" fill="#7a5c41"/><path d="M343.4,179.1c-0.4,0 -0.7,-0.4 -0.5,-0.8l9.4,-17.6c0.2,-0.4 0.7,-0.4 0.9,0l9.4,17.6c0.2,0.3 -0.1,0.8 -0.5,0.8z" fill="#237c11"/><path d="M352.2,160.6c0.1,-0.2 0.3,-0.3 0.4,-0.3v18.8h-9.3c-0.4,0 -0.7,-0.5 -0.5,-0.8z" fill="#3fa541"/><path d="M346.3,162c-0.4,0 -0.7,-0.5 -0.5,-0.9l6.4,-12c0.2,-0.4 0.7,-0.4 0.9,0l6.4,12c0.2,0.4 -0.1,0.9 -0.5,0.9z" fill="#237c11"/><path d="M345.2,170.2c-0.5,0 -0.8,-0.5 -0.6,-1l7.6,-14.3c0.2,-0.4 0.9,-0.4 1.1,0l7.6,14.3c0.3,0.4 -0.1,1 -0.6,1z" fill="#237c11"/><path d="M352.2,154.8c0.1,-0.2 0.3,-0.3 0.5,-0.3v15.7h-7.5c-0.5,0 -0.9,-0.6 -0.6,-1z" fill="#3fa541"/><path d="M352.2,149.1c0.1,-0.2 0.2,-0.3 0.4,-0.3v13.2h-6.3c-0.4,0 -0.7,-0.5 -0.5,-0.9z" fill="#3fa541"/></g><g><path d="M341.1,154.5c0,0.6 -0.5,1 -1,1c-0.6,0 -1,-0.5 -1,-1v-3.1h2z" fill="#7a5c41"/><path d="M331.8,153.3c-0.4,0 -0.6,-0.4 -0.5,-0.8l8.4,-15.8c0.2,-0.3 0.6,-0.3 0.8,0l8.4,15.8c0.2,0.3 -0.1,0.8 -0.5,0.8z" fill="#49ad07"/><path d="M349,152.5c0.1,0.4 -0.1,0.8 -0.5,0.8h-8.4v-16.8c0.2,0 0.3,0 0.4,0.2z" fill="#359b3c"/><path d="M334.4,138c-0.4,0 -0.6,-0.4 -0.5,-0.8l5.7,-10.7c0.2,-0.3 0.6,-0.3 0.8,0l5.7,10.7c0.2,0.3 -0.1,0.8 -0.5,0.8z" fill="#49ad07"/><path d="M333.3,145.3c-0.5,0 -0.8,-0.5 -0.5,-0.9l6.8,-12.8c0.2,-0.4 0.8,-0.4 1,0l6.8,12.8c0.2,0.4 -0.1,0.9 -0.5,0.9z" fill="#49ad07"/><path d="M347.4,144.4c0.3,0.4 0,0.9 -0.5,0.9h-6.7v-14c0.1,0 0.3,0.1 0.4,0.3z" fill="#359b3c"/><path d="M346.2,137.2c0.1,0.4 -0.1,0.8 -0.5,0.8h-5.6v-11.7c0.2,0 0.3,0.1 0.4,0.2z" fill="#359b3c"/></g></g><path d="M-15.4,232.6v-34.3h500.7v34.3z" fill="#8de00a"/><path d="M-15.4,396.4v-163.8h500.7v163.8z" fill="#e2e2e2"/></g><path d="M101.4,51.1c-1.8,0 -3.5,-0.6 -4.9,-2c-2.7,-2.7 -2.7,-7 0,-9.7c1.6,-1.5 3.7,-2.2 5.7,-1.9c-0.1,-1.7 0.5,-3.3 1.7,-4.6c1.6,-1.7 4,-2.3 6.1,-1.7c1,-6 6.2,-10.6 12.5,-10.6c6.2,0 11.3,4.4 12.5,10.2c1.4,-0.6 2.9,-1 4.5,-1c5.8,0 10.6,4.7 10.6,10.6c0,5.8 -4.7,10.6 -10.6,10.6z" fill="#ffffff"/><path d="M380.4,140c-1.7,0 -3,-1.3 -3,-3c0,-1.6 1.4,-3 3,-3c0,-0.8 0.3,-1.6 0.9,-2.3c1.1,-1.2 2.8,-1.6 4.2,-0.9c0.2,-2.9 2.6,-5.2 5.6,-5.2c0.6,0 1.2,0.1 1.7,0.3c1.1,-3.4 4.3,-5.9 8.1,-5.9c4.3,0 7.9,3.3 8.4,7.5c2,-0.4 4.2,0.1 5.8,1.7c2.5,2.5 2.5,6.5 0,9c-1.3,1.3 -2.9,1.9 -4.5,1.9c-3.3,0 -21.4,0 -30.2,-0.1z" fill="#ffffff"/><g><path d="M0,293.3v-1.8h480v1.8z" fill="#72706f"/><path d="M4,294.7v-2.8h9.4v2.8z" fill="#231815"/><path d="M24.9,294.7v-2.8h9.4v2.8z" fill="#231815"/><path d="M45.8,294.7v-2.8h9.4v2.8z" fill="#231815"/><path d="M66.8,294.7v-2.8h9.4v2.8z" fill="#231815"/><path d="M87.7,294.7v-2.8h9.4v2.8z" fill="#231815"/><path d="M108.6,294.7v-2.8h9.4v2.8z" fill="#231815"/><path d="M129.6,294.7v-2.8h9.4v2.8z" fill="#231815"/><path d="M150.5,294.7v-2.8h9.4v2.8z" fill="#231815"/><path d="M171.4,294.7v-2.8h9.4v2.8z" fill="#231815"/><path d="M192.4,294.7v-2.8h9.4v2.8z" fill="#231815"/><path d="M213.3,294.7v-2.8h9.4v2.8z" fill="#231815"/><path d="M234.2,294.7v-2.8h9.4v2.8z" fill="#231815"/><path d="M255.2,294.7v-2.8h9.4v2.8z" fill="#231815"/><path d="M276.1,294.7v-2.8h9.4v2.8z" fill="#231815"/><path d="M297,294.7v-2.8h9.4v2.8z" fill="#231815"/><path d="M317.9,294.7v-2.8h9.4v2.8z" fill="#231815"/><path d="M338.9,294.7v-2.8h9.4v2.8z" fill="#231815"/><path d="M359.8,294.7v-2.8h9.4v2.8z" fill="#231815"/><path d="M380.7,294.7v-2.8h9.4v2.8z" fill="#231815"/><path d="M401.7,294.7v-2.8h9.4v2.8z" fill="#231815"/><path d="M422.6,294.7v-2.8h9.4v2.8z" fill="#231815"/><path d="M443.5,294.7v-2.8h9.4v2.8z" fill="#231815"/><path d="M464.5,294.7v-2.8h9.4v2.8z" fill="#231815"/></g><g data-paper-data="{&quot;origPos&quot;:null}" id="Layer_2"><g><g><path d="M277.69347,129.13327v-21.601h14.28989v21.601z" fill="#5f3813"/><path d="M300.06989,140.43227h0.4431v55.49794h-88.39791v-55.49794h0.55388l43.64509,-36.33398z" fill="#fcc047"/><path d="M212.11506,195.9302v-10.7451h88.39791v10.7451z" fill="#e8af2e"/><g><path d="M225.40799,196.04098v-44.19896h25.14577v44.19896z" fill="#603008"/><path d="M227.73425,165.35649v-9.74814h9.08349v9.74814z" fill="#994405"/><path d="M239.03323,165.35649v-9.74814h9.08349v9.74814z" fill="#994405"/><path d="M227.73425,177.65244v-9.74814h9.08349v9.74814z" fill="#994405"/><path d="M239.03323,177.65244v-9.74814h9.08349v9.74814z" fill="#994405"/><path d="M227.73425,190.05916v-9.74814h9.08349v9.74814z" fill="#994405"/><path d="M239.03323,190.05916v-9.74814h9.08349v9.74814z" fill="#994405"/><path d="M246.67666,174.21843c0,0.77542 -0.66464,1.44007 -1.44007,1.44007c-0.77542,0 -1.44007,-0.66464 -1.44007,-1.44007c0,-0.77542 0.66464,-1.44007 1.44007,-1.44007c0.77542,0 1.44007,0.66464 1.44007,1.44007z" fill="#e6e6e7"/><path d="M223.6356,195.9302v-44.53128h1.88317v44.53128z" fill="#3b2314"/><path d="M250.55377,196.04098v-44.19896h1.88317v44.19896z" fill="#3b2314"/><path d="M223.6356,152.50667v-1.99393h28.80132v1.99393z" fill="#3b2314"/></g><g><path d="M261.63119,177.43089v-27.02894h29.13366v27.02894z" fill="#3b2314"/><g fill="#f0f1f1"><path d="M277.25037,175.21541v-22.0441h11.07744v22.0441z"/><path d="M263.95746,175.21541v-22.0441h11.07744v22.0441z"/></g><path d="M258.86184,179.31406v-1.77239h34.5616v1.77239z" fill="#603008"/></g><path d="M260.52345,107.97539l1.55084,6.20336l-49.95923,34.22926v-9.30505l44.19896,-34.5616z" fill="#e0a246"/><path d="M207.27778,146.30703l-5.69967,-8.17914l54.70932,-38.12447l5.69967,8.17914z" fill="#3b2314"/><path d="M305.2612,146.39166l-54.70932,-38.12447l5.69967,-8.17914l54.70932,38.12447z" fill="#3b2314"/><path d="M277.69347,109.30468l14.28989,-2.54781v5.76026z" fill="#4f2b0e"/><path d="M275.03488,109.1939v-6.86801h19.60705v6.86801z" fill="#3b2314"/></g><g><path d="M296.30357,180.20025v-3.76633h29.46598v3.76633z" fill="#e6e6e7"/><path d="M296.30357,190.50226v-3.76633h29.46598v3.76633z" fill="#e6e6e7"/><path d="M298.96214,197.92415v-25.03499h5.42794v25.03499z" fill="#ffffff"/><path d="M301.62073,170.11979l2.65859,2.88013h-5.31716z" fill="#ffffff"/><path d="M308.48874,197.92415v-25.03499h5.42794v25.03499z" fill="#ffffff"/><path d="M311.2581,170.11979l2.65859,2.88013h-5.42794z" fill="#ffffff"/><path d="M318.12611,197.92415v-25.03499h5.42794v25.03499z" fill="#ffffff"/><path d="M320.78468,170.11979l2.76935,2.88013h-5.42794z" fill="#ffffff"/></g><g><path d="M186.74775,180.20025v-3.76633h29.46598v3.76633z" fill="#e6e6e7"/><path d="M186.74775,190.50226v-3.76633h29.46598v3.76633z" fill="#e6e6e7"/><path d="M208.12719,197.92415v-25.03499h5.42794v25.03499z" fill="#ffffff"/><path d="M210.78577,170.11979l2.76935,2.88013h-5.42794z" fill="#ffffff"/><path d="M198.48983,197.92415v-25.03499h5.42794v25.03499z" fill="#ffffff"/><path d="M201.25918,170.11979l2.65859,2.88013h-5.42794z" fill="#ffffff"/><path d="M188.96322,197.92415v-25.03499h5.42794v25.03499z" fill="#ffffff"/><path d="M191.62181,170.11979l2.76935,2.88013h-5.42794z" fill="#ffffff"/></g><g><path d="M268.27765,195.15478h-0.11078z" fill="#7bad1a"/><path d="M255.42783,194.49014c0.11078,0 0.11078,0 0,0c0.11078,0 0.11078,0 0,0z" fill="#7bad1a"/><path d="M335.85001,197.14872c-0.33232,0.8862 -0.33232,2.10471 -0.33232,3.43401c0,3.98788 0,8.97273 0,8.97273h-139.24333v-13.84679c0,0 1.32929,0 3.65555,0c1.10774,0 2.54781,0 3.21245,-0.33232c2.65859,0.33232 4.54175,0.33232 5.53872,-1.21852c1.10774,0.55388 1.99393,0.8862 2.99091,1.10774c0.8862,0.22154 1.88317,0.33232 2.88013,0.22154c1.10774,0 2.21549,-0.22154 2.88013,-0.99697c1.10774,0.8862 1.99393,1.10774 1.88317,-0.33232c2.32625,1.66161 3.65555,2.43703 5.42794,0.33232c0.66464,1.99393 1.88317,1.55084 4.20943,0.22154c-0.33232,1.21852 1.55084,0.66464 2.54781,-0.11078c0.77542,0.77542 0.8862,0.99697 2.10471,0.99697c1.21852,0 2.43703,0.33232 3.65555,0c1.21852,-0.33232 1.32929,-0.4431 2.54781,-1.32929c0.11078,1.21852 1.55084,0.99697 1.55084,1.10774c1.44007,0.22154 1.55084,-0.4431 2.10471,-1.10774c0,0 1.77239,1.21852 0.66464,1.21852c1.77239,0.11078 2.54781,-0.4431 2.21549,-0.66464c1.44007,0.4431 2.65859,0.8862 3.76633,0.77542c0.55388,0 0.99697,-0.11078 1.66161,-0.22154c0.55388,-0.22154 1.32929,-0.33232 2.10471,-0.77542c0.11078,0 0.11078,-0.11078 0.22154,-0.55388c0.55388,-0.22154 0.77542,1.10774 1.32929,0.33232c0,0.66464 0.4431,0.11078 0.4431,0c0.8862,0.55388 1.44007,0.22154 1.32929,-0.11078c0.66464,0.8862 1.44007,0.99697 1.77239,0.22154c1.21852,0.55388 1.77239,0.55388 1.77239,-0.4431c1.10774,0.66464 1.66161,0.55388 2.65859,-0.55388c-0.4431,0.55388 -0.66464,0.8862 -0.8862,1.10774c0,-0.11078 0,-0.11078 0,-0.11078c-0.33232,0.55388 -0.33232,0.55388 0,0.11078c0.55388,0.8862 1.55084,0.77542 3.98788,0c-1.21852,0.8862 0,0.8862 1.99393,0.33232c0,0 0,0 0.11078,0h-0.11078c-0.22154,0.11078 -0.11078,-0.4431 -0.22154,-1.55084c1.21852,1.10774 2.54781,1.44007 3.76633,1.55084c0.77542,0.11078 1.44007,0 1.99393,-0.4431c0.55388,-0.4431 0.8862,-1.21852 1.21852,-2.43703c1.21852,3.43401 2.10471,3.32323 5.6495,0.8862c-1.66161,2.32625 -0.66464,2.43703 2.76935,1.55084c-1.66161,0.77542 -0.8862,0.66464 0.66464,-0.11078c-0.4431,-0.11078 0,-0.66464 0.11078,-1.66161c0.99697,0.8862 1.88317,1.55084 2.65859,1.88317c1.55084,0.66464 2.76935,0.22154 4.7633,-1.44007c-0.55388,2.43703 0.66464,2.32625 3.32323,1.32929c-0.66464,1.10774 0.33232,1.10774 1.77239,0.77542c0.33232,0.11078 1.10774,-0.11078 1.77239,-0.55388c0.55388,-0.4431 1.10774,-0.77542 1.44007,-1.88317c1.21852,1.10774 2.32625,1.44007 3.43401,1.88317c1.10774,0.4431 2.10471,0.66464 2.76935,0.33232c1.77239,0.22154 3.10169,-0.11078 3.65555,-1.55084c0.8862,1.66161 1.32929,1.99393 0.4431,0.66464c1.21852,0.8862 2.10471,1.21852 2.76935,1.21852c0.66464,-0.11078 1.21852,-0.55388 1.66161,-1.66161c0.77542,0.66464 1.66161,1.10774 1.55084,1.21852c1.77239,0.55388 2.65859,-0.22154 1.66161,-0.66464c2.88013,0.4431 3.98788,1.10774 3.54479,-0.22154c1.88317,1.44007 2.43703,1.55084 2.76935,0.4431c1.10774,1.21852 1.99393,1.21852 4.7633,0.33232c0.55388,0.8862 2.43703,0.8862 4.98484,0.77542c0.11078,0.11078 0.8862,0.11078 1.21852,0.11078c-0.4431,0.11078 -0.4431,0.66464 0.4431,1.44007z" fill="#8de00a"/><path d="M262.29584,194.82246c-0.11078,0 -0.11078,0 0,0c-0.33232,0.4431 -0.33232,0.4431 0,0z" fill="#7bad1a"/><path d="M223.6356,193.49317c1.10774,0.8862 1.99393,1.32929 2.88013,1.66161v15.06531h-43.42355c-0.22154,-4.98484 -0.55388,-9.85892 -0.66464,-14.84377c1.21852,0.55388 1.66161,0.4431 1.66161,-0.4431c1.10774,0.66464 1.66161,0.55388 2.65859,-0.55388c-0.4431,0.55388 -0.66464,0.8862 -0.8862,1.10774c0.55388,0.8862 1.55084,0.77542 3.98788,0c-1.21852,0.8862 0,0.8862 1.99393,0.33232c-0.22154,0.11078 -0.11078,-0.4431 -0.22154,-1.55084c1.21852,1.10774 2.54781,1.44007 3.76633,1.55084c0.77542,0.11078 1.44007,0 1.99393,-0.4431c0.55388,-0.4431 0.8862,-1.21852 1.21852,-2.43703c1.21852,3.43401 2.10471,3.32323 5.6495,0.8862c-1.66161,2.32625 -0.66464,2.43703 2.76935,1.55084c-1.66161,0.77542 -0.8862,0.66464 0.66464,-0.11078c-0.4431,-0.11078 0,-0.66464 0.11078,-1.66161c0.99697,0.8862 1.88317,1.55084 2.65859,1.88317c1.55084,0.66464 2.76935,0.22154 4.7633,-1.44007c-0.55388,2.43703 0.66464,2.32625 3.32323,1.32929c-0.66464,1.10774 0.33232,1.10774 1.77239,0.77542c0.33232,0.11078 1.10774,-0.11078 1.77239,-0.55388c0.55388,-0.4431 1.10774,-0.77542 1.55084,-2.10471z" fill="#8de00a"/></g></g><g><g><path d="M182.20599,195.81944l-4.43097,-0.22154l2.54781,-37.66327l0.33232,-5.2064l0.4431,-6.42492l2.21549,0.11078l-0.22154,6.20336z" fill="#f9efe5"/><path d="M182.20599,195.81944l-0.66464,-0.11078l0.55388,-37.33095l-1.77239,-0.4431l0.33232,-5.2064l2.43703,-0.11078z" fill="#bdaa9a"/><path d="M206.3548,160.5932l2.65859,0.55388c-0.66464,3.32323 -0.33232,3.65555 -0.99697,4.3202c-0.22154,0.22154 -0.99697,0.66464 -1.77239,0.77542c-0.4431,0.11078 -0.8862,-0.11078 -1.44007,-0.22154h-0.22154h-0.11078v0.11078c-4.43097,0.11078 -12.18518,-0.4431 -20.27171,-1.32929c-0.8862,-0.11078 -1.66161,-0.22154 -2.54781,-0.33232c-3.65555,-0.4431 -7.42188,-0.8862 -10.7451,-1.32929v0c-8.08653,-1.10774 -14.28989,-2.21549 -14.95453,-2.76935c-0.33232,-0.33232 -0.55388,-1.99393 -0.55388,-4.3202c0,-0.22154 0,-0.33232 0,-0.55388c0,-0.4431 0,-0.77542 0,-1.21852c0,-0.33232 3.54479,-0.4431 4.7633,-0.66464c0.22154,-0.11078 0.33232,-0.11078 0.33232,-0.22154c0,-0.33232 0,-0.55388 0,-0.8862c-0.22154,-2.10471 -1.10774,-4.54175 -1.99393,-6.97878c-0.11078,-0.22154 -0.22154,-0.4431 -0.22154,-0.77542c-0.22154,-0.77542 -0.55388,-1.44007 -0.77542,-2.21549v0c-0.55388,-1.88317 -0.99697,-3.76633 -0.77542,-5.42794v-0.33232c0,-0.33232 0.66464,-0.4431 1.21852,-0.55388c0.22154,-0.11078 0.4431,-0.11078 0.55388,-0.22154l0.11078,-0.11078c0.55388,-3.76633 -0.55388,-6.86801 0.22154,-8.41885c0.33232,-0.55388 4.09865,0.11078 4.3202,0c0.22154,-0.11078 0.66464,-0.11078 1.21852,-0.11078c5.53872,0 26.80739,2.54781 38.88179,4.7633c2.76935,0.4431 4.98484,0.99697 6.53568,1.32929c0.8862,0.22154 -0.11078,0.4431 0.22154,0.66464c1.10774,0.8862 -0.11078,3.87711 -0.22154,8.75117l-2.54781,1.10774l1.10774,0.11078c1.32929,0.11078 2.21549,1.32929 2.10471,2.54781c-0.22154,3.10169 -0.55388,6.09258 -0.99697,9.30505l-0.8862,0.77542l-0.22154,2.65859v0.8862l-7.42188,-0.77542l5.42794,1.10774c-0.11078,0 -0.11078,0 0,0z" fill="#bdaa9a"/><path d="M207.241,161.03628c0,1.44007 -0.66464,3.98788 -0.77542,4.87407c0,0.22154 -0.11078,0.33232 -0.11078,0.33232l-1.55084,-0.11078h-0.22154h-0.11078l-20.27171,-1.66161l-2.54781,-0.22154l-10.85588,-0.8862v0c-8.08653,-1.10774 -14.28989,-2.21549 -14.95453,-2.76935c-0.33232,-0.33232 -0.55388,-1.99393 -0.55388,-4.3202c0,-0.22154 0,-0.33232 0,-0.55388c0,-0.4431 0,-0.77542 0,-1.21852c1.44007,0.11078 3.32323,0.33232 5.53872,0.55388c0.4431,0 0.77542,0.11078 1.21852,0.11078c0.33232,0 0.55388,0.11078 0.8862,0.11078c0.55388,0 1.10774,0.11078 1.66161,0.11078c0.77542,0.11078 1.66161,0.22154 2.54781,0.22154c4.54175,0.4431 9.74814,0.99697 14.84377,1.55084c0.77542,0.11078 1.55084,0.22154 2.32625,0.22154c3.76633,0.4431 7.42188,0.8862 10.7451,1.32929c1.21852,0.22154 2.43703,0.33232 3.54479,0.4431c0.33232,0 0.66464,0.11078 0.8862,0.11078c0.4431,0.11078 0.99697,0.11078 1.44007,0.22154c2.43703,0.33232 4.3202,0.66464 5.31716,0.99697v0c0.66464,0.22154 0.99697,0.4431 0.99697,0.55388z" fill="#f9efe5"/><path d="M207.90564,152.39589c-0.77542,0.4431 -0.77542,2.65859 -0.77542,4.43097c0,1.21852 -0.99697,2.21549 -2.21549,2.10471l-5.31716,-0.55388l-0.8862,-0.11078l-2.10471,-0.22154c0,0 0,0 -0.11078,0h-0.11078v0h-0.22154l-0.99697,-0.11078l-10.08046,-1.21852h-0.4431h-0.33232l-2.32625,-0.33232l-0.4431,-0.22154v0h-0.33232l-1.77239,-0.22154h-0.33232l-2.88013,-0.33232h-0.33232l-1.77239,-0.22154l-1.88317,-0.33232l-1.44007,-0.22154l-6.09258,-0.77542h-0.11078l-1.55084,-0.22154l-0.8862,0.11078l-2.10471,-0.22154l-4.7633,-0.55388c0,-4.65252 0.4431,-10.7451 1.10774,-15.9515h0.11078c1.77239,0.22154 4.09865,0.55388 6.86801,0.8862c0.33232,0 0.55388,0.11078 0.8862,0.11078c0.55388,0.11078 1.10774,0.11078 1.77239,0.22154c2.65859,0.33232 5.42794,0.77542 8.41885,1.10774c0.66464,0.11078 1.21852,0.22154 1.88317,0.22154c0.77542,0.11078 1.44007,0.22154 2.21549,0.33232c0.66464,0.11078 1.44007,0.22154 2.10471,0.33232c0.4431,0.11078 0.99697,0.11078 1.44007,0.22154c0.55388,0.11078 1.10774,0.11078 1.66161,0.22154c0.11078,0 0.22154,0 0.33232,0c0.55388,0.11078 1.21852,0.11078 1.77239,0.22154c0.33232,0 0.77542,0.11078 1.10774,0.11078c0.55388,0.11078 0.99697,0.11078 1.55084,0.22154c0.8862,0.11078 1.66161,0.22154 2.54781,0.33232c0.33232,0 0.55388,0.11078 0.8862,0.11078c1.66161,0.22154 3.32323,0.4431 4.87407,0.66464c0.22154,0 0.55388,0.11078 0.77542,0.11078c0.99697,0.11078 1.88317,0.33232 2.76935,0.4431c0.33232,0 0.66464,0.11078 0.8862,0.11078c3.76633,0.55388 6.31414,0.99697 6.42492,1.21852c0.8862,0.8862 -0.22154,6.20336 -0.22154,6.20336l-6.97878,-0.8862l-0.8862,-0.11078l-1.66161,-0.22154c0,0 0.66464,0.11078 1.66161,0.33232c0.22154,0.11078 0.55388,0.11078 0.8862,0.22154c3.32323,0.77542 8.30807,1.99393 7.42188,2.43703z" fill="#f9efe5"/><path d="M207.57332,141.54001c-0.11078,1.21852 -0.99697,2.21549 -2.10471,1.99393l-4.09865,-0.66464h-0.99697h-0.11078l-3.32323,-0.55388l-3.32323,-0.55388h-0.22154l-0.99697,-0.11078l-3.54479,-0.55388l-1.32929,-0.22154l-1.44007,-0.22154l-1.77239,-0.33232l-0.55388,-0.11078l-4.7633,-0.77542l-2.43703,-0.33232l-1.88317,-0.33232l-8.64039,-1.32929l-1.77239,-0.22154l-0.8862,-0.11078l-5.31716,-0.8862h-0.33232l-1.32929,-0.22154c0.77542,-4.3202 1.55084,-7.86497 2.43703,-9.63737l5.2064,0.8862l3.32323,0.55388v0l31.23837,4.3202c0,0 1.77239,0.22154 3.76633,0.55388c2.10471,0.33232 4.43097,0.77542 4.87407,1.21852c0.11078,0.11078 0.22154,0.4431 0.22154,0.8862c0.33232,1.66161 0.22154,4.65252 0.11078,6.75724z" fill="#f9efe5"/><path d="M196.16356,157.93461l-0.99697,-0.11078l-10.08046,-1.21852h-0.4431h-0.33232l-2.32625,-0.33232l-0.4431,-0.11078v0h-0.33232l-1.77239,-0.22154h-0.33232l-2.88013,-0.33232h-0.33232l-1.77239,-0.22154l-1.88317,-0.33232l-1.44007,-0.22154l-6.09258,-0.77542h-0.11078l-1.55084,-0.22154l-0.8862,0.11078l-2.10471,-0.22154l-4.7633,-0.55388c0,-4.65252 0.4431,-10.7451 1.10774,-15.9515h0.11078c1.77239,0.22154 4.09865,0.55388 6.86801,0.8862c0.33232,0 0.55388,0.11078 0.8862,0.11078c0.55388,0.11078 1.10774,0.11078 1.77239,0.22154c2.65859,0.33232 5.42794,0.77542 8.41885,1.10774c0.66464,0.11078 1.21852,0.22154 1.88317,0.22154c0.77542,0.11078 1.44007,0.22154 2.21549,0.33232c0.66464,0.11078 1.44007,0.22154 2.10471,0.33232c0.4431,0.11078 0.99697,0.11078 1.44007,0.22154c0.55388,0.11078 1.10774,0.11078 1.66161,0.22154c0.11078,0 0.22154,0 0.33232,0c0.55388,0.11078 1.21852,0.11078 1.77239,0.22154c0.33232,0 0.77542,0.11078 1.10774,0.11078c0.55388,0.11078 0.99697,0.11078 1.55084,0.22154c0.8862,0.11078 1.66161,0.22154 2.54781,0.33232c-0.77542,-0.11078 -1.66161,-0.11078 -2.65859,-0.22154c-0.55388,-0.11078 -1.10774,-0.11078 -1.77239,-0.11078v0c-0.33232,0 -0.55388,-0.11078 -0.8862,-0.11078c-0.55388,0 -1.21852,-0.11078 -1.77239,-0.22154c-0.11078,0 -0.22154,0 -0.33232,0c-0.55388,0 -0.99697,-0.11078 -1.55084,-0.11078c-0.66464,-0.11078 -1.32929,-0.11078 -1.99393,-0.22154c-0.66464,0 -1.32929,-0.11078 -1.88317,-0.11078c-0.66464,-0.11078 -1.32929,-0.11078 -1.99393,-0.22154c-0.66464,0 -1.32929,-0.11078 -1.88317,-0.11078c-2.99091,-0.22154 -5.87104,-0.4431 -8.30807,-0.66464c-0.66464,0 -1.21852,-0.11078 -1.77239,-0.11078c-0.33232,0 -0.66464,0 -0.8862,0c-2.88013,-0.11078 -4.87407,-0.22154 -5.09562,0c-0.4431,0.4431 -0.77542,1.88317 -0.8862,3.10169v0c-0.22154,0.99697 -0.22154,1.99393 -0.22154,1.99393l0.8862,0.11078l4.7633,0.77542l0.4431,0.11078h-0.4431l-4.43097,-0.11078h-1.21852c0,0 -1.88317,5.2064 -1.10774,6.09258c0.11078,0.11078 1.77239,0.55388 4.20943,0.99697c0.55388,0.11078 1.21852,0.22154 1.88317,0.33232c0.33232,0.11078 0.55388,0.11078 0.8862,0.11078c0.55388,0.11078 1.10774,0.22154 1.66161,0.22154c0.66464,0.11078 1.44007,0.22154 2.10471,0.33232c1.44007,0.22154 2.88013,0.4431 4.43097,0.66464c0.4431,0.11078 0.8862,0.11078 1.21852,0.22154v0c0.8862,0.11078 1.77239,0.22154 2.65859,0.4431c0.22154,0 0.55388,0.11078 0.77542,0.11078c0.66464,0.11078 1.21852,0.22154 1.88317,0.33232c0.4431,0.11078 0.8862,0.11078 1.21852,0.22154c0.66464,0.11078 1.32929,0.22154 1.88317,0.33232c0.11078,0 0.22154,0 0.22154,0c0.22154,0 0.4431,0.11078 0.77542,0.11078c0.77542,0.11078 1.44007,0.22154 2.21549,0.33232h0.11078c0,0 0,0 0.11078,0c0.11078,0 0.22154,0 0.4431,0.11078c0.66464,0.11078 1.21852,0.22154 1.88317,0.22154c3.76633,0.55388 6.75724,0.99697 8.52963,1.21852c0.4431,-0.11078 0.77542,0 0.99697,0z" fill="#ddccbf"/><path d="M189.73864,143.3124h-0.11078l-0.66464,-0.11078l-2.32625,-0.33232l-0.77542,-0.11078l-0.99697,-0.11078l-1.10774,-0.22154h-0.33232l-3.10169,-0.4431l-1.55084,-0.22154l-1.21852,-0.22154l-5.53872,-0.8862l-1.10774,-0.22154l-0.55388,-0.11078l-3.43401,-0.55388h-0.22154l-0.77542,-0.11078c0.4431,-2.76935 0.99697,-5.09562 1.55084,-6.20336l3.43401,0.55388l2.21549,0.33232l-5.31716,-0.33232l-0.66464,1.88317l3.32323,1.55084l0.55388,0.22154l0.99697,0.4431l2.10471,0.4431l6.75724,1.44007l-8.30807,-0.4431l5.2064,1.10774l2.43703,0.55388l0.77542,0.11078l2.54781,0.55388l0.4431,0.11078l1.10774,0.22154l0.99697,0.22154l0.77542,0.22154l2.32625,0.55388z" fill="#ddccbf"/></g></g></g></g></g></svg>