<?xml version="1.0" encoding="utf-8"?>
<!-- Generator: Adobe Illustrator 22.1.0, SVG Export Plug-In . SVG Version: 6.00 Build 0)  -->
<svg version="1.1" xmlns="http://www.w3.org/2000/svg" xmlns:xlink="http://www.w3.org/1999/xlink" x="0px" y="0px"
	 viewBox="0 0 165.9 116.6" style="enable-background:new 0 0 165.9 116.6;" xml:space="preserve">
<style type="text/css">
	.st0{fill:#80F0F9;}
	.st1{fill:#FFFFFF;}
	.st2{fill:#198974;}
	.st3{fill:#47AD2F;}
	.st4{fill:#7A5C41;}
	.st5{fill:#5CC13A;}
	.st6{fill:#237C11;}
	.st7{fill:#3FA541;}
	.st8{fill:#10725F;}
	.st9{fill:#8DE00A;}
	.st10{fill:#938548;}
	.st11{fill:#498C44;}
	.st12{fill:#7BCE05;}
	.st13{fill:#54CC06;}
	.st14{opacity:0.56;fill:#7CBA04;}
	.st15{fill:#876D33;}
	.st16{fill:#C4B08D;}
	.st17{fill:#56C437;}
	.st18{fill:#49AD07;}
	.st19{fill:#359B3C;}
	.st20{fill:#E2E2E2;}
	.st21{fill:#72706F;}
	.st22{fill:#231815;}
	.st23{fill:#5F3813;}
	.st24{fill:#FCC047;}
	.st25{fill:#E8AF2E;}
	.st26{fill:#603008;}
	.st27{fill:#994405;}
	.st28{fill:#E6E6E7;}
	.st29{fill:#3B2314;}
	.st30{fill:#F0F1F1;}
	.st31{fill:#E0A246;}
	.st32{fill:#4F2B0E;}
	.st33{fill:#7BAD1A;}
	.st34{fill:#97FAFF;}
	.st35{fill:#5DC5EE;}
	.st36{fill:#DE97FF;}
	.st37{fill:#AC3EE5;}
	.st38{fill:#F8CDDB;}
	.st39{fill:#F95892;}
	.st40{fill:#D5FFBD;}
	.st41{fill:#58B431;}
	.st42{fill:#F9EFE5;}
	.st43{fill:#BDAA9A;}
	.st44{fill:#DDCCBF;}
	.st45{fill:#69311A;}
	.st46{opacity:0.43;fill:url(#SVGID_1_);}
	.st47{opacity:0.43;fill:url(#SVGID_2_);}
	.st48{opacity:0.43;fill:url(#SVGID_3_);}
	.st49{opacity:0.43;fill:url(#SVGID_4_);}
	.st50{opacity:0.43;fill:url(#SVGID_5_);}
	.st51{clip-path:url(#SVGID_7_);}
	.st52{clip-path:url(#SVGID_9_);}
	.st53{clip-path:url(#SVGID_11_);}
	.st54{clip-path:url(#SVGID_13_);}
	.st55{clip-path:url(#SVGID_15_);}
	.st56{clip-path:url(#SVGID_17_);}
	.st57{clip-path:url(#SVGID_19_);}
	.st58{clip-path:url(#SVGID_21_);}
	.st59{clip-path:url(#SVGID_23_);}
	.st60{clip-path:url(#SVGID_25_);}
	.st61{clip-path:url(#SVGID_27_);}
	.st62{clip-path:url(#SVGID_29_);}
	.st63{clip-path:url(#SVGID_31_);}
	.st64{clip-path:url(#SVGID_33_);}
	.st65{clip-path:url(#SVGID_35_);}
	.st66{clip-path:url(#SVGID_37_);}
	.st67{clip-path:url(#SVGID_39_);}
	.st68{clip-path:url(#SVGID_41_);}
	.st69{clip-path:url(#SVGID_43_);}
	.st70{clip-path:url(#SVGID_45_);}
	.st71{clip-path:url(#SVGID_47_);}
	.st72{clip-path:url(#SVGID_49_);}
	.st73{clip-path:url(#SVGID_51_);}
	.st74{clip-path:url(#SVGID_53_);}
	.st75{clip-path:url(#SVGID_55_);}
	.st76{clip-path:url(#SVGID_57_);}
	.st77{clip-path:url(#SVGID_59_);}
	.st78{clip-path:url(#SVGID_61_);}
	.st79{clip-path:url(#SVGID_63_);}
</style>
<g id="Layer_1">
</g>
<g id="Layer_2">
	<g>
		<g>
			<rect x="113.8" y="21.1" class="st23" width="12.9" height="19.5"/>
			<polygon class="st24" points="94.5,18 55.1,50.8 54.6,50.8 54.6,100.9 134.4,100.9 134.4,50.8 134,50.8 			"/>
			<rect x="54.6" y="91.2" class="st25" width="79.8" height="9.7"/>
			<g>
				<rect x="66.6" y="61.1" class="st26" width="22.7" height="39.9"/>
				<rect x="68.7" y="64.5" class="st27" width="8.2" height="8.8"/>
				<rect x="78.9" y="64.5" class="st27" width="8.2" height="8.8"/>
				<rect x="68.7" y="75.6" class="st27" width="8.2" height="8.8"/>
				<rect x="78.9" y="75.6" class="st27" width="8.2" height="8.8"/>
				<rect x="68.7" y="86.8" class="st27" width="8.2" height="8.8"/>
				<rect x="78.9" y="86.8" class="st27" width="8.2" height="8.8"/>
				<path class="st28" d="M84.5,80c-0.7,0-1.3,0.6-1.3,1.3c0,0.7,0.6,1.3,1.3,1.3s1.3-0.6,1.3-1.3C85.8,80.6,85.2,80,84.5,80z"/>
				<rect x="65" y="60.7" class="st29" width="1.7" height="40.2"/>
				<rect x="89.3" y="61.1" class="st29" width="1.7" height="39.9"/>
				<rect x="65" y="59.9" class="st29" width="26" height="1.8"/>
			</g>
			<g>
				<rect x="99.3" y="59.8" class="st29" width="26.3" height="24.4"/>
				<g>
					<rect x="113.4" y="62.3" class="st30" width="10" height="19.9"/>
					<rect x="101.4" y="62.3" class="st30" width="10" height="19.9"/>
				</g>
				<rect x="96.8" y="84.3" class="st26" width="31.2" height="1.6"/>
			</g>
			<polygon class="st31" points="94.5,18.4 54.6,49.6 54.6,58 99.7,27.1 98.3,21.5 			"/>
			
				<rect x="42.3" y="30.7" transform="matrix(0.8204 -0.5717 0.5717 0.8204 -7.1662 47.7164)" class="st29" width="60.2" height="9"/>
			
				<rect x="112.1" y="5.1" transform="matrix(0.5717 -0.8204 0.8204 0.5717 21.0267 110.8146)" class="st29" width="9" height="60.2"/>
			<polygon class="st32" points="126.7,25.6 126.7,20.4 113.8,22.7 			"/>
			<rect x="111.4" y="16.4" class="st29" width="17.7" height="6.2"/>
		</g>
		<g>
			<rect x="130.6" y="83.3" class="st28" width="26.6" height="3.4"/>
			<rect x="130.6" y="92.6" class="st28" width="26.6" height="3.4"/>
			<rect x="133" y="80.1" class="st1" width="4.9" height="22.6"/>
			<polygon class="st1" points="133,80.2 137.8,80.2 135.4,77.6 			"/>
			<rect x="141.6" y="80.1" class="st1" width="4.9" height="22.6"/>
			<polygon class="st1" points="141.6,80.2 146.5,80.2 144.1,77.6 			"/>
			<rect x="150.3" y="80.1" class="st1" width="4.9" height="22.6"/>
			<polygon class="st1" points="150.3,80.2 155.2,80.2 152.7,77.6 			"/>
		</g>
		<g>
			<rect x="31.7" y="83.3" class="st28" width="26.6" height="3.4"/>
			<rect x="31.7" y="92.6" class="st28" width="26.6" height="3.4"/>
			<rect x="51" y="80.1" class="st1" width="4.9" height="22.6"/>
			<polygon class="st1" points="51,80.2 55.9,80.2 53.4,77.6 			"/>
			<rect x="42.3" y="80.1" class="st1" width="4.9" height="22.6"/>
			<polygon class="st1" points="42.3,80.2 47.2,80.2 44.8,77.6 			"/>
			<rect x="33.7" y="80.1" class="st1" width="4.9" height="22.6"/>
			<polygon class="st1" points="33.7,80.2 38.6,80.2 36.1,77.6 			"/>
		</g>
		<g>
			<path class="st33" d="M105.3,100.2c0,0-0.1,0-0.1,0C105.2,100.2,105.3,100.2,105.3,100.2z"/>
			<path class="st33" d="M93.7,99.6C93.8,99.6,93.8,99.6,93.7,99.6C93.8,99.6,93.8,99.6,93.7,99.6z"/>
			<path class="st9" d="M165.9,100.7c-0.3,0-1,0-1.1-0.1c-2.3,0.1-4,0.1-4.5-0.7c-2.5,0.8-3.3,0.8-4.3-0.3c-0.3,1-0.8,0.9-2.5-0.4
				c0.4,1.2-0.6,0.6-3.2,0.2c0.9,0.4,0.1,1.1-1.5,0.6c0.1-0.1-0.7-0.5-1.4-1.1c-0.4,1-0.9,1.4-1.5,1.5c-0.6,0-1.4-0.3-2.5-1.1
				c0.8,1.2,0.4,0.9-0.4-0.6c-0.5,1.3-1.7,1.6-3.3,1.4c-0.6,0.3-1.5,0.1-2.5-0.3c-1-0.4-2-0.7-3.1-1.7c-0.3,1-0.8,1.3-1.3,1.7
				c-0.6,0.4-1.3,0.6-1.6,0.5c-1.3,0.3-2.2,0.3-1.6-0.7c-2.4,0.9-3.5,1-3-1.2c-1.8,1.5-2.9,1.9-4.3,1.3c-0.7-0.3-1.5-0.9-2.4-1.7
				c-0.1,0.9-0.5,1.4-0.1,1.5c-1.4,0.7-2.1,0.8-0.6,0.1c-3.1,0.8-4,0.7-2.5-1.4c-3.2,2.2-4,2.3-5.1-0.8c-0.3,1.1-0.6,1.8-1.1,2.2
				c-0.5,0.4-1.1,0.5-1.8,0.4c-1.1-0.1-2.3-0.4-3.4-1.4c0.1,1,0,1.5,0.2,1.4c0,0,0.1,0,0.1,0c-0.1,0-0.1,0-0.1,0
				c-1.8,0.5-2.9,0.5-1.8-0.3c-2.2,0.7-3.1,0.8-3.6,0c-0.3,0.4-0.3,0.4,0-0.1c0,0,0,0,0,0.1c0.2-0.2,0.4-0.5,0.8-1
				c-0.9,1-1.4,1.1-2.4,0.5c0,0.9-0.5,0.9-1.6,0.4c-0.3,0.7-1,0.6-1.6-0.2c0.1,0.3-0.4,0.6-1.2,0.1c0,0.1-0.4,0.6-0.4,0
				c-0.5,0.7-0.7-0.5-1.2-0.3c-0.1,0.4-0.1,0.5-0.2,0.5c-0.7,0.4-1.4,0.5-1.9,0.7c-0.6,0.1-1,0.2-1.5,0.2c-1,0.1-2.1-0.3-3.4-0.7
				c0.3,0.2-0.4,0.7-2,0.6c1,0-0.6-1.1-0.6-1.1c-0.5,0.6-0.6,1.2-1.9,1c0-0.1-1.3,0.1-1.4-1c-1.1,0.8-1.2,0.9-2.3,1.2
				c-1.1,0.3-2.2,0-3.3,0c-1.1,0-1.2-0.2-1.9-0.9c-0.9,0.7-2.6,1.2-2.3,0.1c-2.1,1.2-3.2,1.6-3.8-0.2c-1.6,1.9-2.8,1.2-4.9-0.3
				c0.1,1.3-0.7,1.1-1.7,0.3c-0.6,0.7-1.6,0.9-2.6,0.9c-0.9,0.1-1.8,0-2.6-0.2c-0.9-0.2-1.7-0.5-2.7-1c-0.9,1.4-2.6,1.4-5,1.1
				c-0.6,0.3-1.9,0.3-2.9,0.3c-2.1,0-3.3,0-3.3,0v12.5h125.7c0,0,0-4.5,0-8.1c0-1.2,0-2.3,0.3-3.1
				C165.5,101.3,165.5,100.8,165.9,100.7z"/>
			<path class="st33" d="M99.9,99.9C99.8,99.9,99.8,99.9,99.9,99.9C99.6,100.3,99.6,100.3,99.9,99.9z"/>
			<path class="st9" d="M63.6,100.6c-0.6,0.4-1.3,0.6-1.6,0.5c-1.3,0.3-2.2,0.3-1.6-0.7c-2.4,0.9-3.5,1-3-1.2
				c-1.8,1.5-2.9,1.9-4.3,1.3c-0.7-0.3-1.5-0.9-2.4-1.7c-0.1,0.9-0.5,1.4-0.1,1.5c-1.4,0.7-2.1,0.8-0.6,0.1c-3.1,0.8-4,0.7-2.5-1.4
				c-3.2,2.2-4,2.3-5.1-0.8c-0.3,1.1-0.6,1.8-1.1,2.2c-0.5,0.4-1.1,0.5-1.8,0.4c-1.1-0.1-2.3-0.4-3.4-1.4c0.1,1,0,1.5,0.2,1.4
				c-1.8,0.5-2.9,0.5-1.8-0.3c-2.2,0.7-3.1,0.8-3.6,0c0.2-0.2,0.4-0.5,0.8-1c-0.9,1-1.4,1.1-2.4,0.5c0,0.8-0.4,0.9-1.5,0.4
				c0.1,4.5,0.4,8.9,0.6,13.4h39.2v-13.6c-0.8-0.3-1.6-0.7-2.6-1.5C64.6,99.9,64.1,100.2,63.6,100.6z"/>
		</g>
	</g>
	<g>
		<g>
			<polygon class="st42" points="27.6,100.8 23.6,100.6 25.9,66.6 26.2,61.9 26.6,56.1 28.6,56.2 28.4,61.8 			"/>
			<polygon class="st43" points="27.6,100.8 27,100.7 27.5,67 25.9,66.6 26.2,61.9 28.4,61.8 			"/>
			<path class="st43" d="M49.4,69l2.4,0.5c-0.6,3-0.3,3.3-0.9,3.9c-0.2,0.2-0.9,0.6-1.6,0.7c-0.4,0.1-0.8-0.1-1.3-0.2l-0.2,0l-0.1,0
				l0,0.1c-4,0.1-11-0.4-18.3-1.2c-0.8-0.1-1.5-0.2-2.3-0.3c-3.3-0.4-6.7-0.8-9.7-1.2l0,0c-7.3-1-12.9-2-13.5-2.5
				c-0.3-0.3-0.5-1.8-0.5-3.9c0-0.2,0-0.3,0-0.5c0-0.4,0-0.7,0-1.1c0-0.3,3.2-0.4,4.3-0.6c0.2-0.1,0.3-0.1,0.3-0.2
				c0-0.3,0-0.5,0-0.8c-0.2-1.9-1-4.1-1.8-6.3c-0.1-0.2-0.2-0.4-0.2-0.7c-0.2-0.7-0.5-1.3-0.7-2c0,0,0,0,0,0
				c-0.5-1.7-0.9-3.4-0.7-4.9l0-0.3c0-0.3,0.6-0.4,1.1-0.5c0.2-0.1,0.4-0.1,0.5-0.2c0,0,0.1-0.1,0.1-0.1c0.5-3.4-0.5-6.2,0.2-7.6
				c0.3-0.5,3.7,0.1,3.9,0c0.2-0.1,0.6-0.1,1.1-0.1c5,0,24.2,2.3,35.1,4.3c2.5,0.4,4.5,0.9,5.9,1.2c0.8,0.2-0.1,0.4,0.2,0.6
				c1,0.8-0.1,3.5-0.2,7.9l-2.3,1l1,0.1c1.2,0.1,2,1.2,1.9,2.3c-0.2,2.8-0.5,5.5-0.9,8.4l-0.8,0.7l-0.2,2.4l0,0.8L44.5,68L49.4,69
				C49.3,69,49.3,69,49.4,69z"/>
			<path class="st42" d="M50.2,69.4c0,1.3-0.6,3.6-0.7,4.4c0,0.2-0.1,0.3-0.1,0.3l-1.4-0.1l-0.2,0l-0.1,0l-18.3-1.5l-2.3-0.2
				l-9.8-0.8l0,0c-7.3-1-12.9-2-13.5-2.5c-0.3-0.3-0.5-1.8-0.5-3.9c0-0.2,0-0.3,0-0.5c0-0.4,0-0.7,0-1.1c1.3,0.1,3,0.3,5,0.5
				c0.4,0,0.7,0.1,1.1,0.1c0.3,0,0.5,0.1,0.8,0.1c0.5,0,1,0.1,1.5,0.1c0.7,0.1,1.5,0.2,2.3,0.2c4.1,0.4,8.8,0.9,13.4,1.4
				c0.7,0.1,1.4,0.2,2.1,0.2c3.4,0.4,6.7,0.8,9.7,1.2c1.1,0.2,2.2,0.3,3.2,0.4c0.3,0,0.6,0.1,0.8,0.1c0.4,0.1,0.9,0.1,1.3,0.2
				c2.2,0.3,3.9,0.6,4.8,0.9c0,0,0,0,0,0C49.9,69.1,50.2,69.3,50.2,69.4z"/>
			<path class="st42" d="M50.8,61.6c-0.7,0.4-0.7,2.4-0.7,4c0,1.1-0.9,2-2,1.9L43.3,67l-0.8-0.1l-1.9-0.2c0,0,0,0-0.1,0l-0.1,0l0,0
				l-0.2,0l-0.9-0.1l-9.1-1.1l-0.4,0l-0.3,0l-2.1-0.3L27,65c0,0,0,0,0,0l-0.3,0l-1.6-0.2l-0.3,0l-2.6-0.3l-0.3,0l-1.6-0.2L18.6,64
				l-1.3-0.2l-5.5-0.7l-0.1,0l-1.4-0.2L9.5,63l-1.9-0.2l-4.3-0.5c0-4.2,0.4-9.7,1-14.4c0,0,0.1,0,0.1,0c1.6,0.2,3.7,0.5,6.2,0.8
				c0.3,0,0.5,0.1,0.8,0.1c0.5,0.1,1,0.1,1.6,0.2c2.4,0.3,4.9,0.7,7.6,1c0.6,0.1,1.1,0.2,1.7,0.2c0.7,0.1,1.3,0.2,2,0.3
				c0.6,0.1,1.3,0.2,1.9,0.3c0.4,0.1,0.9,0.1,1.3,0.2c0.5,0.1,1,0.1,1.5,0.2c0.1,0,0.2,0,0.3,0c0.5,0.1,1.1,0.1,1.6,0.2
				c0.3,0,0.7,0.1,1,0.1c0.5,0.1,0.9,0.1,1.4,0.2c0.8,0.1,1.5,0.2,2.3,0.3c0.3,0,0.5,0.1,0.8,0.1c1.5,0.2,3,0.4,4.4,0.6
				c0.2,0,0.5,0.1,0.7,0.1c0.9,0.1,1.7,0.3,2.5,0.4c0.3,0,0.6,0.1,0.8,0.1c3.4,0.5,5.7,0.9,5.8,1.1c0.8,0.8-0.2,5.6-0.2,5.6
				l-6.3-0.8l-0.8-0.1l-1.5-0.2c0,0,0.6,0.1,1.5,0.3c0.2,0.1,0.5,0.1,0.8,0.2C47.1,60.1,51.6,61.2,50.8,61.6z"/>
			<path class="st42" d="M50.5,51.8c-0.1,1.1-0.9,2-1.9,1.8l-3.7-0.6L44,53l-0.1,0l-3-0.5l-3-0.5l-0.2,0l-0.9-0.1l-3.2-0.5l-1.2-0.2
				l-1.3-0.2l-1.6-0.3L29,50.6l-4.3-0.7l-2.2-0.3l-1.7-0.3L13,48.1l-1.6-0.2l-0.8-0.1L5.8,47L5.5,47l-1.2-0.2
				c0.7-3.9,1.4-7.1,2.2-8.7l4.7,0.8l3,0.5l0,0l28.2,3.9c0,0,1.6,0.2,3.4,0.5c1.9,0.3,4,0.7,4.4,1.1c0.1,0.1,0.2,0.4,0.2,0.8
				C50.7,47.2,50.6,49.9,50.5,51.8z"/>
			<path class="st44" d="M40.2,66.6l-0.9-0.1l-9.1-1.1l-0.4,0l-0.3,0l-2.1-0.3L27,65c0,0,0,0,0,0l-0.3,0l-1.6-0.2l-0.3,0l-2.6-0.3
				l-0.3,0l-1.6-0.2L18.6,64l-1.3-0.2l-5.5-0.7l-0.1,0l-1.4-0.2L9.5,63l-1.9-0.2l-4.3-0.5c0-4.2,0.4-9.7,1-14.4c0,0,0.1,0,0.1,0
				c1.6,0.2,3.7,0.5,6.2,0.8c0.3,0,0.5,0.1,0.8,0.1c0.5,0.1,1,0.1,1.6,0.2c2.4,0.3,4.9,0.7,7.6,1c0.6,0.1,1.1,0.2,1.7,0.2
				c0.7,0.1,1.3,0.2,2,0.3c0.6,0.1,1.3,0.2,1.9,0.3c0.4,0.1,0.9,0.1,1.3,0.2c0.5,0.1,1,0.1,1.5,0.2c0.1,0,0.2,0,0.3,0
				c0.5,0.1,1.1,0.1,1.6,0.2c0.3,0,0.7,0.1,1,0.1c0.5,0.1,0.9,0.1,1.4,0.2c0.8,0.1,1.5,0.2,2.3,0.3c-0.7-0.1-1.5-0.1-2.4-0.2
				c-0.5-0.1-1-0.1-1.6-0.1c0,0,0,0,0,0c-0.3,0-0.5-0.1-0.8-0.1c-0.5,0-1.1-0.1-1.6-0.2c-0.1,0-0.2,0-0.3,0c-0.5,0-0.9-0.1-1.4-0.1
				c-0.6-0.1-1.2-0.1-1.8-0.2c-0.6,0-1.2-0.1-1.7-0.1c-0.6-0.1-1.2-0.1-1.8-0.2c-0.6,0-1.2-0.1-1.7-0.1c-2.7-0.2-5.3-0.4-7.5-0.6
				c-0.6,0-1.1-0.1-1.6-0.1c-0.3,0-0.6,0-0.8,0c-2.6-0.1-4.4-0.2-4.6,0c-0.4,0.4-0.7,1.7-0.8,2.8c0,0,0,0,0,0C5,53.7,5,54.6,5,54.6
				l0.8,0.1l4.3,0.7l0.4,0.1l-0.4,0l-4-0.1l-1.1,0c0,0-1.7,4.7-1,5.5c0.1,0.1,1.6,0.5,3.8,0.9c0.5,0.1,1.1,0.2,1.7,0.3
				c0.3,0.1,0.5,0.1,0.8,0.1c0.5,0.1,1,0.2,1.5,0.2c0.6,0.1,1.3,0.2,1.9,0.3c1.3,0.2,2.6,0.4,4,0.6c0.4,0.1,0.8,0.1,1.1,0.2
				c0,0,0,0,0,0c0.8,0.1,1.6,0.2,2.4,0.4c0.2,0,0.5,0.1,0.7,0.1c0.6,0.1,1.1,0.2,1.7,0.3c0.4,0.1,0.8,0.1,1.1,0.2
				c0.6,0.1,1.2,0.2,1.7,0.3c0.1,0,0.2,0,0.2,0c0.2,0,0.4,0.1,0.7,0.1c0.7,0.1,1.3,0.2,2,0.3l0.1,0c0,0,0,0,0.1,0
				c0.1,0,0.2,0,0.4,0.1c0.6,0.1,1.1,0.2,1.7,0.2c3.4,0.5,6.1,0.9,7.7,1.1C39.7,66.5,40,66.6,40.2,66.6z"/>
			<path class="st44" d="M34.4,53.4l-0.1,0l-0.6-0.1L31.6,53l-0.7-0.1L30,52.8L29,52.6l-0.3,0l-2.8-0.4l-1.4-0.2l-1.1-0.2l-5-0.8
				l-1-0.2l-0.5-0.1l-3.1-0.5l-0.2,0l-0.7-0.1c0.4-2.5,0.9-4.6,1.4-5.6l3.1,0.5l2,0.3L14.6,45L14,46.7l3,1.4l0.5,0.2l0.9,0.4
				l1.9,0.4l6.1,1.3L18.9,50l4.7,1l2.2,0.5l0.7,0.1l2.3,0.5l0.4,0.1l1,0.2l0.9,0.2l0.7,0.2l2.1,0.5L34.4,53.4z"/>
		</g>
	</g>
</g>
<g id="Layer_3">
</g>
</svg>
