<?xml version="1.0" encoding="utf-8"?>
<!-- Generator: Adobe Illustrator 22.1.0, SVG Export Plug-In . SVG Version: 6.00 Build 0)  -->
<svg version="1.1" xmlns="http://www.w3.org/2000/svg" xmlns:xlink="http://www.w3.org/1999/xlink" x="0px" y="0px"
	 viewBox="0 0 480 360" style="enable-background:new 0 0 480 360;" xml:space="preserve">
<style type="text/css">
	.st0{fill:#80F0F9;}
	.st1{fill:#FFFFFF;}
	.st2{fill:#198974;}
	.st3{fill:#47AD2F;}
	.st4{fill:#7A5C41;}
	.st5{fill:#5CC13A;}
	.st6{fill:#237C11;}
	.st7{fill:#3FA541;}
	.st8{fill:#10725F;}
	.st9{fill:#8DE00A;}
	.st10{fill:#938548;}
	.st11{fill:#498C44;}
	.st12{fill:#7BCE05;}
	.st13{fill:#54CC06;}
	.st14{opacity:0.56;fill:#7CBA04;}
	.st15{fill:#876D33;}
	.st16{fill:#C4B08D;}
	.st17{fill:#56C437;}
	.st18{fill:#49AD07;}
	.st19{fill:#359B3C;}
	.st20{fill:#E2E2E2;}
	.st21{fill:#72706F;}
	.st22{fill:#231815;}
	.st23{fill:#5F3813;}
	.st24{fill:#FCC047;}
	.st25{fill:#E8AF2E;}
	.st26{fill:#603008;}
	.st27{fill:#994405;}
	.st28{fill:#E6E6E7;}
	.st29{fill:#3B2314;}
	.st30{fill:#F0F1F1;}
	.st31{fill:#E0A246;}
	.st32{fill:#4F2B0E;}
	.st33{fill:#7BAD1A;}
	.st34{fill:#97FAFF;}
	.st35{fill:#5DC5EE;}
	.st36{fill:#DE97FF;}
	.st37{fill:#AC3EE5;}
	.st38{fill:#F8CDDB;}
	.st39{fill:#F95892;}
	.st40{fill:#D5FFBD;}
	.st41{fill:#58B431;}
	.st42{fill:#F9EFE5;}
	.st43{fill:#BDAA9A;}
	.st44{fill:#DDCCBF;}
	.st45{fill:#69311A;}
	.st46{opacity:0.43;fill:url(#SVGID_1_);}
	.st47{opacity:0.43;fill:url(#SVGID_2_);}
	.st48{opacity:0.43;fill:url(#SVGID_3_);}
	.st49{opacity:0.43;fill:url(#SVGID_4_);}
	.st50{opacity:0.43;fill:url(#SVGID_5_);}
	.st51{clip-path:url(#SVGID_7_);}
	.st52{clip-path:url(#SVGID_9_);}
	.st53{clip-path:url(#SVGID_11_);}
	.st54{clip-path:url(#SVGID_13_);}
	.st55{clip-path:url(#SVGID_15_);}
	.st56{clip-path:url(#SVGID_17_);}
	.st57{clip-path:url(#SVGID_19_);}
	.st58{clip-path:url(#SVGID_21_);}
	.st59{clip-path:url(#SVGID_23_);}
	.st60{clip-path:url(#SVGID_25_);}
	.st61{clip-path:url(#SVGID_27_);}
	.st62{clip-path:url(#SVGID_29_);}
	.st63{clip-path:url(#SVGID_31_);}
	.st64{clip-path:url(#SVGID_33_);}
	.st65{clip-path:url(#SVGID_35_);}
	.st66{clip-path:url(#SVGID_37_);}
	.st67{clip-path:url(#SVGID_39_);}
	.st68{clip-path:url(#SVGID_41_);}
	.st69{clip-path:url(#SVGID_43_);}
	.st70{clip-path:url(#SVGID_45_);}
	.st71{clip-path:url(#SVGID_47_);}
	.st72{clip-path:url(#SVGID_49_);}
	.st73{clip-path:url(#SVGID_51_);}
	.st74{clip-path:url(#SVGID_53_);}
	.st75{clip-path:url(#SVGID_55_);}
	.st76{clip-path:url(#SVGID_57_);}
	.st77{clip-path:url(#SVGID_59_);}
	.st78{clip-path:url(#SVGID_61_);}
	.st79{clip-path:url(#SVGID_63_);}
	.st80{clip-path:url(#SVGID_65_);}
	.st81{fill:#FFFFFF;stroke:#FFFFFF;stroke-width:4;stroke-linecap:round;stroke-linejoin:round;stroke-miterlimit:10;}
	.st82{fill:#F4F1ED;}
	.st83{fill:#EFE2D5;}
	.st84{fill:#DDC8B6;}
	.st85{fill:#F9B9C7;}
	.st86{fill:#C1AA95;}
	.st87{clip-path:url(#SVGID_67_);}
	.st88{clip-path:url(#SVGID_69_);}
	.st89{fill:#FFFFFF;stroke:#FFFFFF;stroke-width:3;stroke-linecap:round;stroke-linejoin:round;stroke-miterlimit:10;}
	.st90{fill:#D8957B;}
	.st91{fill:#F1E3D8;}
	.st92{fill:#C3755E;}
	.st93{fill:#E6A389;}
	.st94{fill:none;stroke:#231815;stroke-width:0.25;stroke-linecap:round;stroke-miterlimit:10;}
	.st95{clip-path:url(#SVGID_71_);}
	.st96{fill:#6D362C;}
	.st97{fill:#F0CAAE;}
	.st98{fill:#8C4B38;}
	.st99{fill:#361A16;}
	.st100{fill:#44251F;}
	.st101{fill:none;stroke:#44251F;stroke-miterlimit:10;}
	.st102{fill:none;stroke:#44251F;stroke-linecap:round;stroke-linejoin:round;stroke-miterlimit:10;}
	.st103{fill:none;stroke:#6D362C;stroke-width:2;stroke-linecap:round;stroke-linejoin:round;stroke-miterlimit:10;}
	.st104{clip-path:url(#SVGID_73_);}
	.st105{opacity:0.5;fill:#FFFFFF;stroke:#FFFFFF;stroke-width:4;stroke-linecap:round;stroke-linejoin:round;stroke-miterlimit:10;}
	.st106{opacity:0.3;fill:#FFFFFF;stroke:#FFFFFF;stroke-width:4;stroke-linecap:round;stroke-linejoin:round;stroke-miterlimit:10;}
	.st107{fill:#FABFBF;}
	.st108{fill:#F7A7AA;}
	.st109{opacity:0.5;fill:#F7A7AA;}
	.st110{fill:#F37B87;}
	.st111{fill:#943436;}
	.st112{opacity:0.3;fill:#F7A7AA;}
	.st113{clip-path:url(#SVGID_75_);}
	.st114{fill:#F4E4E4;}
	.st115{fill:#FF8788;}
	.st116{fill:#261D1D;}
	.st117{fill-rule:evenodd;clip-rule:evenodd;fill:#B7EAF0;}
	.st118{fill-rule:evenodd;clip-rule:evenodd;fill:#ABDEE4;}
	.st119{fill-rule:evenodd;clip-rule:evenodd;fill:#FFA137;}
	.st120{fill-rule:evenodd;clip-rule:evenodd;fill:#C55047;}
	.st121{fill-rule:evenodd;clip-rule:evenodd;fill:#FF9528;}
	.st122{fill-rule:evenodd;clip-rule:evenodd;fill:#39474B;}
	.st123{fill-rule:evenodd;clip-rule:evenodd;fill:#546C7E;}
	.st124{fill:#C55047;}
	.st125{fill:#39474B;}
	.st126{fill-rule:evenodd;clip-rule:evenodd;fill:#677980;}
	.st127{fill-rule:evenodd;clip-rule:evenodd;fill:#664241;}
	.st128{fill-rule:evenodd;clip-rule:evenodd;fill:#5A3534;}
	.st129{fill-rule:evenodd;clip-rule:evenodd;fill:#476071;}
	.st130{fill-rule:evenodd;clip-rule:evenodd;fill:#FFCA6F;}
	.st131{fill-rule:evenodd;clip-rule:evenodd;fill:#FDFDFD;}
	.st132{fill-rule:evenodd;clip-rule:evenodd;fill:#2D2D2C;}
	.st133{fill-rule:evenodd;clip-rule:evenodd;fill:#007E75;}
	.st134{fill-rule:evenodd;clip-rule:evenodd;fill:#3E3E3E;}
	.st135{fill:#2D2D2C;}
	.st136{fill-rule:evenodd;clip-rule:evenodd;fill:#009E94;}
	.st137{fill-rule:evenodd;clip-rule:evenodd;fill:#6B7386;}
	.st138{fill-rule:evenodd;clip-rule:evenodd;fill:#5F667B;}
	.st139{fill-rule:evenodd;clip-rule:evenodd;fill:#FFCC4E;}
	.st140{fill-rule:evenodd;clip-rule:evenodd;fill:#FFC040;}
	.st141{fill:#5F667B;}
	.st142{fill-rule:evenodd;clip-rule:evenodd;fill:#454D62;}
	.st143{fill:#4A5E64;}
	.st144{fill-rule:evenodd;clip-rule:evenodd;fill:#61BCDA;}
	.st145{fill-rule:evenodd;clip-rule:evenodd;fill:#73C8E5;}
	.st146{fill-rule:evenodd;clip-rule:evenodd;fill:#A9E1F4;}
	.st147{fill:#8CA4AD;}
	.st148{fill:#677980;}
	.st149{fill-rule:evenodd;clip-rule:evenodd;fill:#787F92;}
	.st150{fill-rule:evenodd;clip-rule:evenodd;fill:#F7B432;}
	.st151{fill:#FF9528;}
	.st152{fill:#FDFDFD;}
	.st153{fill-rule:evenodd;clip-rule:evenodd;fill:#AB362D;}
	.st154{fill:#EBEBEB;}
	.st155{fill-rule:evenodd;clip-rule:evenodd;fill:#384055;}
	.st156{fill:#FFD900;}
	.st157{fill:#1F1F1F;}
	.st158{clip-path:url(#SVGID_77_);}
	.st159{clip-path:url(#SVGID_79_);}
	.st160{clip-path:url(#SVGID_81_);}
	.st161{clip-path:url(#SVGID_83_);}
	.st162{clip-path:url(#SVGID_85_);}
</style>
<g id="Layer_1">
</g>
<g id="Layer_2">
	<rect class="st0" width="480" height="221.2"/>
	<path class="st1" d="M18.2,142.3c-1.6,0-3.1-0.6-4.3-1.8c-2.4-2.4-2.4-6.2,0-8.6c1.5-1.5,3.7-2.1,5.6-1.6c0.5-4.1,3.9-7.2,8.1-7.2
		c3.6,0,6.7,2.4,7.8,5.6c0.5-0.2,1.1-0.3,1.6-0.3c2.8,0,5.2,2.2,5.4,5c1.3-0.6,3-0.3,4,0.9c0.6,0.7,0.8,1.5,0.8,2.2
		c1.6,0,2.8,1.3,2.8,2.9c0,1.6-1.3,2.9-2.9,2.9C38.8,142.3,21.4,142.3,18.2,142.3z"/>
	<rect y="225.7" class="st20" width="480" height="135.3"/>
	<g>
		<defs>
			<rect id="SVGID_62_" x="-0.4" y="40.7" width="480.4" height="184"/>
		</defs>
		<clipPath id="SVGID_1_">
			<use xlink:href="#SVGID_62_"  style="overflow:visible;"/>
		</clipPath>
		<g style="clip-path:url(#SVGID_1_);">
			<g>
				<g>
					<path class="st2" d="M96.7,133.7c-6.2-5.9-14.6-9.6-23.9-9.6c-8.5,0-16.3,3.1-22.3,8.2l-69.3,55.7c0,0-5.7,4-14.5,7.5
						c-9,3.6-21.1,6.7-29.3,6.7h247.4L96.7,133.7z"/>
				</g>
				<g>
					<path class="st3" d="M27.3,151.5c0.5,0,0.8-0.5,0.6-1L20.7,137c-0.2-0.4-0.8-0.4-1,0l-7.2,13.5c-0.2,0.4,0.1,1,0.6,1H27.3z"/>
					<g>
						<path class="st4" d="M18.9,176.5c0,0.7,0.6,1.3,1.3,1.3c0.7,0,1.3-0.6,1.3-1.3v-11.4h-2.6V176.5z"/>
						<path class="st3" d="M30.7,170.9c0.5,0,0.8-0.5,0.6-1L20.7,150c-0.2-0.4-0.8-0.4-1,0L9,169.9c-0.2,0.4,0.1,1,0.6,1H30.7z"/>
						<path class="st5" d="M19.6,150c0.1-0.2,0.3-0.3,0.5-0.3v21.2H9.6c-0.5,0-0.8-0.5-0.6-1L19.6,150z"/>
						<path class="st3" d="M28.8,160.8c0.6,0,1-0.6,0.7-1.1l-8.6-16.2c-0.3-0.5-1-0.5-1.2,0L11,159.7c-0.3,0.5,0.1,1.1,0.7,1.1H28.8
							z"/>
						<path class="st5" d="M19.6,143.5c0.1-0.2,0.3-0.3,0.6-0.4v17.7h-8.5c-0.6,0-1-0.6-0.7-1.1L19.6,143.5z"/>
					</g>
					<path class="st5" d="M19.6,137c0.1-0.2,0.3-0.3,0.5-0.3v14.8H13c-0.5,0-0.8-0.5-0.6-1L19.6,137z"/>
				</g>
				<g>
					<path class="st4" d="M68.7,135.6c0,0.6,0.5,1,1,1c0.6,0,1-0.5,1-1v-3.1h-2.1V135.6z"/>
					<path class="st6" d="M78.1,134.4c0.4,0,0.6-0.4,0.5-0.8l-8.5-16c-0.2-0.3-0.6-0.3-0.8,0l-8.5,16c-0.2,0.3,0.1,0.8,0.5,0.8H78.1
						z"/>
					<path class="st7" d="M69.2,117.6c0.1-0.2,0.2-0.2,0.4-0.2v17h-8.5c-0.4,0-0.6-0.4-0.5-0.8L69.2,117.6z"/>
					<path class="st6" d="M75.4,118.9c0.4,0,0.7-0.4,0.5-0.8l-5.8-10.9c-0.2-0.3-0.6-0.3-0.8,0l-5.8,10.9c-0.2,0.3,0.1,0.8,0.5,0.8
						H75.4z"/>
					<path class="st6" d="M76.6,126.3c0.5,0,0.8-0.5,0.6-0.9l-6.9-13c-0.2-0.4-0.8-0.4-1,0l-6.9,13c-0.2,0.4,0.1,0.9,0.6,0.9H76.6z"
						/>
					<path class="st7" d="M69.2,112.4c0.1-0.2,0.3-0.3,0.4-0.3v14.2h-6.8c-0.5,0-0.8-0.5-0.6-0.9L69.2,112.4z"/>
					<path class="st7" d="M69.2,107.2c0.1-0.1,0.2-0.2,0.4-0.2v11.9h-5.7c-0.4,0-0.7-0.4-0.5-0.8L69.2,107.2z"/>
				</g>
				<g>
					<path class="st4" d="M105.3,165.2c0,0.6,0.5,1.1,1.1,1.1s1.1-0.5,1.1-1.1V162h-2.1V165.2z"/>
					<path class="st6" d="M115.1,164c0.4,0,0.7-0.4,0.5-0.8l-8.8-16.6c-0.2-0.3-0.7-0.3-0.9,0l-8.8,16.6c-0.2,0.4,0.1,0.8,0.5,0.8
						H115.1z"/>
					<path class="st7" d="M105.9,146.6c0.1-0.2,0.3-0.3,0.4-0.3V164h-8.8c-0.4,0-0.7-0.4-0.5-0.8L105.9,146.6z"/>
					<path class="st6" d="M112.3,147.9c0.4,0,0.7-0.4,0.5-0.8l-6-11.2c-0.2-0.3-0.7-0.3-0.9,0l-6,11.2c-0.2,0.4,0.1,0.8,0.5,0.8
						H112.3z"/>
					<path class="st6" d="M113.5,155.6c0.5,0,0.8-0.5,0.6-1l-7.2-13.5c-0.2-0.4-0.8-0.4-1,0l-7.2,13.5c-0.2,0.4,0.1,1,0.6,1H113.5z"
						/>
					<path class="st7" d="M105.9,141.2c0.1-0.2,0.3-0.3,0.5-0.3v14.7h-7.1c-0.5,0-0.8-0.5-0.6-1L105.9,141.2z"/>
					<path class="st7" d="M105.9,135.9c0.1-0.2,0.2-0.2,0.4-0.2v12.3h-5.9c-0.4,0-0.7-0.4-0.5-0.8L105.9,135.9z"/>
				</g>
				<g>
					<path class="st8" d="M263.8,114.8c-7.9-7.5-18.6-12.2-30.4-12.2c-10.8,0-20.7,3.9-28.4,10.4l-88.2,70.9c0,0-7.3,5.1-18.5,9.6
						c-11.4,4.6-26.9,8.5-37.3,8.5h315L263.8,114.8z"/>
				</g>
				<g>
					<path class="st8" d="M396.7,141.7c5.6-5.3,13.1-8.6,21.4-8.6c7.6,0,14.6,2.7,20,7.3l62,49.9c0,0,5.1,3.6,13,6.7
						c8,3.2,18.9,6,26.2,6H317.7L396.7,141.7z"/>
				</g>
				<g>
					<path class="st4" d="M207.2,156.9c0,0.5,0.4,1,1,1c0.5,0,1-0.4,1-1v-3h-2V156.9z"/>
					<path class="st7" d="M216.2,155.7c0.4,0,0.6-0.4,0.4-0.7l-8.1-15.2c-0.2-0.3-0.6-0.3-0.8,0l-8.1,15.2c-0.2,0.3,0.1,0.7,0.4,0.7
						H216.2z"/>
					<path class="st7" d="M207.7,139.8c0.1-0.2,0.2-0.2,0.4-0.2v16.2H200c-0.4,0-0.6-0.4-0.4-0.7L207.7,139.8z"/>
					<path class="st7" d="M213.6,141c0.4,0,0.6-0.4,0.4-0.7l-5.5-10.4c-0.2-0.3-0.6-0.3-0.8,0l-5.5,10.4c-0.2,0.3,0.1,0.7,0.4,0.7
						H213.6z"/>
					<path class="st7" d="M214.7,148.1c0.5,0,0.7-0.5,0.5-0.9l-6.6-12.4c-0.2-0.4-0.7-0.4-0.9,0l-6.6,12.4c-0.2,0.4,0.1,0.9,0.5,0.9
						H214.7z"/>
					<path class="st7" d="M207.7,134.8c0.1-0.2,0.3-0.3,0.4-0.3v13.5h-6.5c-0.5,0-0.7-0.5-0.5-0.9L207.7,134.8z"/>
					<path class="st7" d="M207.7,129.9c0.1-0.1,0.2-0.2,0.4-0.2V141h-5.4c-0.4,0-0.6-0.4-0.4-0.7L207.7,129.9z"/>
				</g>
				<g>
					<path class="st4" d="M194.6,147.1c0,0.4,0.4,0.8,0.8,0.8c0.4,0,0.8-0.4,0.8-0.8v-2.4h-1.6V147.1z"/>
					<path class="st7" d="M201.8,146.2c0.3,0,0.5-0.3,0.4-0.6l-6.5-12.1c-0.1-0.2-0.5-0.2-0.6,0l-6.5,12.1c-0.1,0.3,0,0.6,0.4,0.6
						H201.8z"/>
					<path class="st7" d="M195,133.5c0.1-0.1,0.2-0.2,0.3-0.2v12.9h-6.4c-0.3,0-0.5-0.3-0.4-0.6L195,133.5z"/>
					<path class="st7" d="M199.7,134.4c0.3,0,0.5-0.3,0.4-0.6l-4.4-8.2c-0.1-0.2-0.5-0.2-0.6,0l-4.4,8.2c-0.1,0.3,0.1,0.6,0.4,0.6
						H199.7z"/>
					<path class="st7" d="M200.6,140.1c0.4,0,0.6-0.4,0.4-0.7l-5.2-9.8c-0.2-0.3-0.6-0.3-0.7,0l-5.2,9.8c-0.2,0.3,0.1,0.7,0.4,0.7
						H200.6z"/>
					<path class="st7" d="M195,129.5c0.1-0.1,0.2-0.2,0.3-0.2v10.8h-5.2c-0.4,0-0.6-0.4-0.4-0.7L195,129.5z"/>
					<path class="st7" d="M195,125.6c0.1-0.1,0.2-0.2,0.3-0.2v9H191c-0.3,0-0.5-0.3-0.4-0.6L195,125.6z"/>
				</g>
				<g>
					<path class="st4" d="M226,123c0,0.4,0.3,0.7,0.7,0.7c0.4,0,0.7-0.3,0.7-0.7v-2.1H226V123z"/>
					<path class="st7" d="M232.5,122.2c0.3,0,0.4-0.3,0.3-0.5l-5.8-10.9c-0.1-0.2-0.4-0.2-0.6,0l-5.8,10.9c-0.1,0.2,0,0.5,0.3,0.5
						H232.5z"/>
					<path class="st7" d="M226.4,110.8c0.1-0.1,0.2-0.2,0.3-0.2v11.6h-5.8c-0.3,0-0.4-0.3-0.3-0.5L226.4,110.8z"/>
					<path class="st7" d="M230.6,111.7c0.3,0,0.4-0.3,0.3-0.5l-3.9-7.4c-0.1-0.2-0.4-0.2-0.6,0l-3.9,7.4c-0.1,0.2,0,0.5,0.3,0.5
						H230.6z"/>
					<path class="st7" d="M231.4,116.7c0.3,0,0.5-0.3,0.4-0.6l-4.7-8.8c-0.1-0.3-0.5-0.3-0.7,0l-4.7,8.8c-0.2,0.3,0.1,0.6,0.4,0.6
						H231.4z"/>
					<path class="st7" d="M226.4,107.3c0.1-0.1,0.2-0.2,0.3-0.2v9.7h-4.6c-0.3,0-0.5-0.3-0.4-0.6L226.4,107.3z"/>
					<path class="st7" d="M226.4,103.7c0.1-0.1,0.2-0.2,0.3-0.2v8.1h-3.9c-0.3,0-0.4-0.3-0.3-0.5L226.4,103.7z"/>
				</g>
				<g>
					<path class="st4" d="M448.2,163.2c0,0.6,0.4,1,1,1c0.6,0,1-0.5,1-1v-3h-2V163.2z"/>
					<path class="st3" d="M457.4,162c0.4,0,0.6-0.4,0.4-0.7l-8.2-15.4c-0.2-0.3-0.6-0.3-0.8,0l-8.2,15.4c-0.2,0.3,0.1,0.7,0.4,0.7
						H457.4z"/>
					<path class="st5" d="M448.8,145.8c0.1-0.2,0.2-0.2,0.4-0.2V162H441c-0.4,0-0.6-0.4-0.4-0.7L448.8,145.8z"/>
					<path class="st3" d="M454.7,147c0.4,0,0.6-0.4,0.4-0.7l-5.6-10.5c-0.2-0.3-0.6-0.3-0.8,0l-5.6,10.5c-0.2,0.3,0.1,0.7,0.4,0.7
						H454.7z"/>
					<path class="st3" d="M455.9,154.2c0.5,0,0.8-0.5,0.5-0.9l-6.7-12.6c-0.2-0.4-0.7-0.4-0.9,0l-6.7,12.6c-0.2,0.4,0.1,0.9,0.5,0.9
						H455.9z"/>
					<path class="st5" d="M448.8,140.8c0.1-0.2,0.3-0.3,0.4-0.3v13.7h-6.6c-0.5,0-0.8-0.5-0.5-0.9L448.8,140.8z"/>
					<path class="st5" d="M448.8,135.8c0.1-0.1,0.2-0.2,0.4-0.2V147h-5.5c-0.4,0-0.6-0.4-0.4-0.7L448.8,135.8z"/>
				</g>
			</g>
			<g>
				<g>
					<path class="st10" d="M45.6,206.3c0,0.7,1.2,0.6,1.2-0.1l0-12.9c0-0.4-0.3-0.7-0.6-0.7c-0.3,0-0.6,0.3-0.6,0.7l0,9.7
						c0,0,0,0.1,0,0.1V206.3z"/>
					<path class="st10" d="M48.1,197.7v2.2c0,1-0.1,1.2-0.7,1.7l-1.2,0.6l0.3,0.7l1.2-0.6c1-0.7,1.1-1.4,1.1-2.3v-2.2H48.1z"/>
					<path class="st10" d="M44,201.1v-2.3h-0.8v2.3c0,0.9,0.1,1.7,1.2,2.4l1.3,0.6l0.3-0.7l-1.2-0.6C44.1,202.3,43.9,202.1,44,201.1
						z"/>
					<path class="st11" d="M53.4,192.7c0,3.5-2.8,6.3-6.3,6.3c-3.5,0-6.3-2.8-6.3-6.3c0-3.5,2.8-6.3,6.3-6.3
						C50.5,186.3,53.4,189.2,53.4,192.7z"/>
					<path class="st12" d="M58.1,190.1c0.4-0.8,0.6-1.6,0.6-2.6c0-2.7-1.9-5.1-4.4-5.7c-0.3-3-2.7-5.3-5.8-5.3
						c-1.7,0-3.2,0.7-4.3,1.9c-0.7-0.3-1.5-0.5-2.4-0.5c-2.1,0-3.9,1.1-4.8,2.8c-3.4,0.7-5.9,3.7-5.9,7.3c0,2.5,1.2,4.7,3.1,6.1
						c0,0.1,0,0.1,0,0.2c0,4.1,3.3,7.4,7.4,7.4c2,0,3.9-0.8,5.2-2.2c1.2,0.8,2.7,1.3,4.3,1.3c4.2,0,7.7-3.4,7.7-7.7
						C58.8,192.1,58.5,191.1,58.1,190.1z"/>
					<path class="st9" d="M52.2,187.8c0-2.8-2.3-5.1-5.1-5.1c-0.6,0-1.1,0.1-1.7,0.3c-0.6-1.3-1.9-2.2-3.4-2.2
						c-2.1,0-3.7,1.7-3.7,3.7c0,0.1,0,0.1,0,0.2c-2,0.7-3.4,2.6-3.4,4.7c0,2.8,2.3,5,5,5c0.4,0,0.9-0.1,1.3-0.2
						c0.4,1.4,1.7,2.5,3.3,2.5c1.4,0,2.6-0.8,3.1-2c0,0,0,0,0,0c1.7,0,3-1.3,3.1-3h0v-0.4C51.6,190.5,52.2,189.2,52.2,187.8z"/>
				</g>
				<g>
					<path class="st13" d="M263.7,157.3c-4.5-4.3-10.5-6.9-17.1-6.9c-6.1,0-11.7,2.2-16,5.9l-35.8,29.2c0,0-11,8.9-22.8,14.3
						c-6.3,2.9-16.7,6.7-22.6,6.7H327L263.7,157.3z"/>
				</g>
				<g>
					<path class="st9" d="M350.9,148.4c-5.3-5.1-12.5-8.2-20.5-8.2c-7.3,0-14,2.6-19.1,7l-49.1,40c0,0-12.8,10.4-22.8,14.2
						c-7.8,2.9-18.1,5.7-25.1,5.7h212.3L350.9,148.4z"/>
				</g>
				<g>
					<path class="st9" d="M155.8,155.7c-4.6-4.4-10.8-7.1-17.7-7.1c-6.3,0-12,2.3-16.5,6l-36.9,30.1c0,0-11.4,9.2-23.5,14.8
						c-6.5,3-17.3,6.9-23.3,6.9H221L155.8,155.7z"/>
				</g>
				<g>
					<path class="st10" d="M435.3,200.4c0,0.5,0.9,0.4,0.9,0l0-9.1c0-0.3-0.2-0.5-0.4-0.5c-0.2,0-0.4,0.2-0.4,0.5l0,6.9
						c0,0,0,0,0,0.1V200.4z"/>
					<path class="st10" d="M437.2,194.3v1.6c0,0.7-0.1,0.9-0.5,1.2l-0.9,0.4l0.2,0.5l0.9-0.4c0.7-0.5,0.8-1,0.8-1.7v-1.6H437.2z"/>
					<path class="st10" d="M434.2,196.7V195h-0.5v1.6c0,0.7,0.1,1.2,0.8,1.7l0.9,0.4l0.2-0.5l-0.9-0.4
						C434.3,197.5,434.2,197.4,434.2,196.7z"/>
					<path class="st11" d="M440.9,190.7c0,2.5-2,4.5-4.5,4.5c-2.5,0-4.5-2-4.5-4.5c0-2.5,2-4.5,4.5-4.5
						C438.9,186.2,440.9,188.2,440.9,190.7z"/>
					<path class="st3" d="M444.2,188.9c0.3-0.5,0.4-1.2,0.4-1.8c0-2-1.4-3.6-3.2-4c-0.2-2.1-1.9-3.7-4.1-3.7c-1.2,0-2.3,0.5-3,1.3
						c-0.5-0.2-1.1-0.4-1.7-0.4c-1.5,0-2.7,0.8-3.4,2c-2.4,0.5-4.2,2.6-4.2,5.2c0,1.8,0.9,3.3,2.2,4.3c0,0.1,0,0.1,0,0.2
						c0,2.9,2.3,5.2,5.2,5.2c1.5,0,2.8-0.6,3.7-1.6c0.9,0.6,1.9,0.9,3.1,0.9c3,0,5.4-2.4,5.4-5.4
						C444.7,190.3,444.5,189.6,444.2,188.9z"/>
				</g>
				<g>
					<path class="st15" d="M70.9,188.6l-2.5-2.6c-0.8-0.8-1.7-1.7-1.6-4.5v-11.3h-0.4V182c0,2.7,0.7,3.6,1.8,4.7
						c1.7,1.7,2.1,2.3,2.9,3.1v-0.9L70.9,188.6z"/>
					<rect x="70.2" y="174.3" class="st15" width="2.6" height="31.3"/>
					<path class="st15" d="M72.7,191.7L72.7,191.7c0.9-0.9,1.3-2,1.3-3.2V174h0.7v14.8c0,1.9-0.8,3.8-2.1,5.1l0,0L72.7,191.7z"/>
					<path class="st16" d="M74.8,181.6l1.8-1.8c0.5-0.5,1.2-1.2,1.2-3.2v-8.1H78v8.5c0,1.9-0.5,2.6-1.3,3.4
						c-1.2,1.2-1.5,1.7-2.1,2.2v-0.7L74.8,181.6z"/>
					<path class="st12" d="M86.4,165.4c0-4.2-2.9-7.8-6.8-8.8c-0.1-3.5-2.9-6.3-6.4-6.3c-1.6,0-3,0.6-4.1,1.5
						c-0.9-0.4-1.9-0.7-3-0.7c-3.9,0-7.1,3.2-7.1,7.1c0,0.9,0.2,1.7,0.5,2.5c-3.2,1.7-5.4,5-5.4,8.9c0,5.3,4.1,9.6,9.3,10
						c0.2,0,0.5,0,0.7,0c0.9,3.4,4,5.9,7.6,5.9c4.4,0,7.9-3.6,7.9-8.1v-0.5c1.7-0.7,2.9-2.2,3.1-4.1C85,171,86.4,168.4,86.4,165.4z"
						/>
					<path class="st9" d="M82.6,163.1c0-4.1-3.3-7.4-7.4-7.4c-0.8,0-1.7,0.1-2.4,0.4c-0.8-1.9-2.8-3.3-5-3.3c-3,0-5.5,2.4-5.5,5.5
						c0,0.1,0,0.2,0,0.3c-2.9,1-4.9,3.7-4.9,6.9c0,4.1,3.3,7.3,7.3,7.3c0.6,0,1.3-0.1,1.9-0.2c0.6,2.1,2.5,3.6,4.8,3.6
						c2,0,3.7-1.2,4.5-2.9c0,0,0,0,0.1,0c2.5,0,4.5-2,4.5-4.4h0v-0.6C81.8,167,82.6,165.2,82.6,163.1z"/>
				</g>
				<g>
					<path class="st15" d="M125.1,192.6l-2.1-2.1c-0.6-0.6-1.4-1.4-1.3-3.7v-9.4h-0.3v9.7c0,2.2,0.6,2.9,1.5,3.9
						c1.4,1.4,1.8,1.9,2.4,2.5v-0.8L125.1,192.6z"/>
					<rect x="124.5" y="180.8" class="st15" width="2.1" height="25.8"/>
					<path class="st15" d="M126.6,195.1L126.6,195.1c0.7-0.7,1.1-1.7,1.1-2.7v-11.9h0.5v12.2c0,1.6-0.6,3.1-1.7,4.2l0,0L126.6,195.1
						z"/>
					<path class="st16" d="M128.2,186.8l1.5-1.5c0.4-0.4,1-1,1-2.7V176h0.2v7c0,1.6-0.4,2.1-1.1,2.8c-1,1-1.3,1.4-1.7,1.8V187
						L128.2,186.8z"/>
					<path class="st3" d="M137.9,173.4c0-3.5-2.4-6.4-5.6-7.3c-0.1-2.9-2.4-5.2-5.3-5.2c-1.3,0-2.5,0.5-3.4,1.2
						c-0.7-0.4-1.6-0.5-2.5-0.5c-3.2,0-5.8,2.6-5.8,5.8c0,0.7,0.1,1.4,0.4,2.1c-2.6,1.4-4.4,4.1-4.4,7.3c0,4.4,3.4,7.9,7.6,8.2
						c0.2,0,0.4,0,0.6,0c0.8,2.8,3.3,4.8,6.3,4.8c3.6,0,6.5-3,6.5-6.6v-0.4c1.4-0.5,2.4-1.8,2.5-3.4
						C136.7,178.1,137.9,175.9,137.9,173.4z"/>
					<path class="st5" d="M134.7,171.6c0-3.4-2.7-6.1-6.1-6.1c-0.7,0-1.4,0.1-2,0.3c-0.7-1.6-2.3-2.7-4.1-2.7c-2.5,0-4.5,2-4.5,4.5
						c0,0.1,0,0.2,0,0.3c-2.4,0.8-4.1,3.1-4.1,5.7c0,3.3,2.7,6.1,6.1,6.1c0.5,0,1.1-0.1,1.5-0.2c0.5,1.7,2,3,3.9,3
						c1.7,0,3.1-1,3.7-2.4c0,0,0,0,0,0c2,0,3.7-1.6,3.7-3.6h0v-0.5C134,174.8,134.7,173.3,134.7,171.6z"/>
				</g>
				<g>
					<path class="st15" d="M298.6,185.7l-3-3c-0.9-0.9-2-2-1.9-5.3V164h-0.5v14c0,3.2,0.8,4.2,2.2,5.6c2,2,2.5,2.8,3.4,3.6v-1.1
						L298.6,185.7z"/>
					<rect x="297.8" y="168.8" class="st15" width="3" height="37"/>
					<path class="st15" d="M300.7,189.3L300.7,189.3c1-1,1.6-2.4,1.6-3.8v-17.1h0.8v17.5c0,2.3-0.9,4.4-2.5,6l0,0L300.7,189.3z"/>
					<path class="st16" d="M303.1,177.5l2.1-2.2c0.6-0.6,1.5-1.5,1.4-3.8v-9.6h0.4v10c0,2.3-0.6,3-1.5,4c-1.4,1.4-1.8,2-2.4,2.6
						v-0.8L303.1,177.5z"/>
					<path class="st17" d="M316.9,158.3c0-5-3.4-9.2-8.1-10.4c-0.1-4.1-3.5-7.4-7.6-7.4c-1.8,0-3.5,0.7-4.8,1.7
						c-1.1-0.5-2.3-0.8-3.5-0.8c-4.6,0-8.4,3.8-8.4,8.4c0,1,0.2,2,0.6,3c-3.8,2-6.4,5.9-6.4,10.5c0,6.2,4.8,11.3,11,11.8
						c0.3,0,0.6,0.1,0.9,0.1c1.1,4,4.7,6.9,9,6.9c5.2,0,9.4-4.3,9.4-9.5v-0.6c2-0.8,3.4-2.7,3.6-4.9
						C315.2,165,316.9,161.8,316.9,158.3z"/>
					<path class="st12" d="M312.4,155.6c0-4.8-3.9-8.8-8.8-8.8c-1,0-2,0.2-2.9,0.5c-1-2.3-3.3-3.9-5.9-3.9c-3.6,0-6.5,2.9-6.5,6.5
						c0,0.1,0,0.3,0,0.4c-3.4,1.2-5.8,4.4-5.8,8.2c0,4.8,3.9,8.7,8.7,8.7c0.8,0,1.5-0.1,2.2-0.3c0.7,2.5,2.9,4.3,5.6,4.3
						c2.4,0,4.4-1.4,5.3-3.4c0,0,0,0,0.1,0c2.9,0,5.3-2.3,5.3-5.2h0v-0.7C311.4,160.2,312.4,158,312.4,155.6z"/>
				</g>
				<g>
					<path class="st10" d="M447.8,201.4c0,0.6,1,0.5,1-0.1l0-14.7c0-0.3-0.2-0.6-0.5-0.6c-0.3,0-0.5,0.3-0.5,0.6l0,8.1
						c0,0,0,0,0,0.1V201.4z"/>
					<path class="st10" d="M450,190.2v1.9c0,0.8-0.1,1-0.6,1.4l-1,0.5l0.3,0.6l1-0.5c0.9-0.6,0.9-1.2,0.9-2v-1.9H450z"/>
					<path class="st10" d="M446.5,193.1v-1.9h-0.7v1.9c0,0.8,0.1,1.4,1,2l1.1,0.5l0.3-0.6l-1-0.5
						C446.6,194.1,446.5,193.9,446.5,193.1z"/>
					<path class="st11" d="M454.4,186c0,2.9-2.4,5.3-5.3,5.3c-2.9,0-5.3-2.4-5.3-5.3c0-2.9,2.4-5.3,5.3-5.3
						C452,180.7,454.4,183.1,454.4,186z"/>
					<path class="st12" d="M458.4,183.9c0.3-0.6,0.5-1.4,0.5-2.1c0-2.3-1.6-4.2-3.7-4.8c-0.2-2.5-2.3-4.4-4.8-4.4
						c-1.4,0-2.7,0.6-3.6,1.6c-0.6-0.3-1.3-0.5-2-0.5c-1.7,0-3.2,0.9-4.1,2.3c-2.8,0.6-5,3.1-5,6.1c0,2.1,1,4,2.6,5.1
						c0,0.1,0,0.1,0,0.2c0,3.4,2.8,6.2,6.2,6.2c1.7,0,3.3-0.7,4.4-1.8c1,0.7,2.3,1.1,3.6,1.1c3.5,0,6.4-2.9,6.4-6.4
						C458.9,185.5,458.7,184.7,458.4,183.9z"/>
					<path class="st9" d="M452.3,181.9c0-2.4-1.9-4.3-4.3-4.3c-0.5,0-1,0.1-1.4,0.2c-0.5-1.1-1.6-1.9-2.9-1.9
						c-1.7,0-3.1,1.4-3.1,3.1c0,0.1,0,0.1,0,0.2c-1.6,0.6-2.8,2.1-2.8,4c0,2.3,1.9,4.2,4.2,4.2c0.4,0,0.7,0,1.1-0.1
						c0.3,1.2,1.4,2.1,2.7,2.1c1.2,0,2.1-0.7,2.6-1.7c0,0,0,0,0,0c1.4,0,2.6-1.1,2.6-2.5h0v-0.3
						C451.8,184.2,452.3,183.1,452.3,181.9z"/>
				</g>
				<g>
					<path class="st4" d="M351.6,180.4c0,0.6,0.5,1.1,1.1,1.1c0.6,0,1.1-0.5,1.1-1.1V177h-2.3V180.4z"/>
					<path class="st6" d="M362.1,179.1c0.4,0,0.7-0.5,0.5-0.8l-9.4-17.6c-0.2-0.4-0.7-0.4-0.9,0l-9.4,17.6c-0.2,0.4,0.1,0.8,0.5,0.8
						H362.1z"/>
					<path class="st7" d="M352.2,160.6c0.1-0.2,0.3-0.3,0.4-0.3v18.8h-9.3c-0.4,0-0.7-0.5-0.5-0.8L352.2,160.6z"/>
					<path class="st6" d="M359,162c0.4,0,0.7-0.5,0.5-0.9l-6.4-12c-0.2-0.4-0.7-0.4-0.9,0l-6.4,12c-0.2,0.4,0.1,0.9,0.5,0.9H359z"/>
					<path class="st6" d="M360.3,170.2c0.5,0,0.9-0.6,0.6-1l-7.6-14.3c-0.2-0.4-0.9-0.4-1.1,0l-7.6,14.3c-0.2,0.5,0.1,1,0.6,1H360.3
						z"/>
					<path class="st7" d="M352.2,154.8c0.1-0.2,0.3-0.3,0.5-0.3v15.7h-7.5c-0.5,0-0.9-0.6-0.6-1L352.2,154.8z"/>
					<path class="st7" d="M352.2,149.1c0.1-0.2,0.2-0.3,0.4-0.3V162h-6.3c-0.4,0-0.7-0.5-0.5-0.9L352.2,149.1z"/>
				</g>
				<g>
					<path class="st4" d="M341.1,154.5c0,0.6-0.5,1-1,1c-0.6,0-1-0.5-1-1v-3.1h2V154.5z"/>
					<path class="st18" d="M331.8,153.3c-0.4,0-0.6-0.4-0.5-0.8l8.4-15.8c0.2-0.3,0.6-0.3,0.8,0l8.4,15.8c0.2,0.3-0.1,0.8-0.5,0.8
						H331.8z"/>
					<path class="st19" d="M340.5,136.7c-0.1-0.2-0.2-0.2-0.4-0.2v16.8h8.4c0.4,0,0.6-0.4,0.5-0.8L340.5,136.7z"/>
					<path class="st18" d="M334.4,138c-0.4,0-0.6-0.4-0.5-0.8l5.7-10.7c0.2-0.3,0.6-0.3,0.8,0l5.7,10.7c0.2,0.3-0.1,0.8-0.5,0.8
						H334.4z"/>
					<path class="st18" d="M333.3,145.3c-0.5,0-0.8-0.5-0.5-0.9l6.8-12.8c0.2-0.4,0.8-0.4,1,0l6.8,12.8c0.2,0.4-0.1,0.9-0.5,0.9
						H333.3z"/>
					<path class="st19" d="M340.6,131.6c-0.1-0.2-0.3-0.3-0.4-0.3v14h6.7c0.5,0,0.8-0.5,0.5-0.9L340.6,131.6z"/>
					<path class="st19" d="M340.5,126.5c-0.1-0.1-0.2-0.2-0.4-0.2V138h5.6c0.4,0,0.6-0.4,0.5-0.8L340.5,126.5z"/>
				</g>
			</g>
			<rect x="-15.4" y="198.3" class="st9" width="500.7" height="34.3"/>
			<rect x="-15.4" y="232.6" class="st20" width="500.7" height="163.8"/>
		</g>
	</g>
	<path class="st1" d="M139.5,51c5.9,0,10.6-4.8,10.6-10.6c0-5.9-4.8-10.6-10.6-10.6c-1.6,0-3.1,0.4-4.5,1
		c-1.2-5.8-6.3-10.2-12.5-10.2c-6.3,0-11.5,4.6-12.5,10.6c-2.1-0.6-4.5,0-6.1,1.7c-1.2,1.3-1.8,2.9-1.7,4.6c-2-0.3-4.1,0.4-5.7,1.9
		c-2.7,2.7-2.7,7,0,9.7c1.4,1.4,3.1,2,4.9,2L139.5,51z"/>
	<path class="st1" d="M410.6,140.1c1.6,0,3.2-0.6,4.5-1.9c2.5-2.5,2.5-6.5,0-9c-1.6-1.6-3.8-2.1-5.8-1.7c-0.5-4.2-4.1-7.5-8.4-7.5
		c-3.8,0-7,2.5-8.1,5.9c-0.5-0.2-1.1-0.3-1.7-0.3c-3,0-5.4,2.3-5.6,5.2c-1.4-0.7-3.1-0.3-4.2,0.9c-0.6,0.7-0.9,1.5-0.9,2.3
		c-1.6,0-3,1.4-3,3c0,1.7,1.3,3,3,3C389.2,140.1,407.3,140.1,410.6,140.1z"/>
	<g>
		<g>
			<polygon class="st42" points="165.7,207.8 161.7,207.6 164,173.6 164.3,168.9 164.7,163.1 166.7,163.2 166.6,168.8 			"/>
			<polygon class="st43" points="165.7,207.8 165.1,207.8 165.6,174 164,173.6 164.3,168.9 166.6,168.8 			"/>
			<path class="st43" d="M187.5,176l2.4,0.5c-0.6,3-0.3,3.3-0.9,3.9c-0.2,0.2-0.9,0.6-1.6,0.7c-0.4,0.1-0.8-0.1-1.3-0.2l-0.2,0
				l-0.1,0l0,0.1c-4,0.1-11-0.4-18.3-1.2c-0.8-0.1-1.5-0.2-2.3-0.3c-3.3-0.4-6.7-0.8-9.7-1.2l0,0c-7.3-1-12.9-2-13.5-2.5
				c-0.3-0.3-0.5-1.8-0.5-3.9c0-0.2,0-0.3,0-0.5c0-0.4,0-0.7,0-1.1c0-0.3,3.2-0.4,4.3-0.6c0.2-0.1,0.3-0.1,0.3-0.2
				c0-0.3,0-0.5,0-0.8c-0.2-1.9-1-4.1-1.8-6.3c-0.1-0.2-0.2-0.4-0.2-0.7c-0.2-0.7-0.5-1.3-0.7-2c0,0,0,0,0,0
				c-0.5-1.7-0.9-3.4-0.7-4.9l0-0.3c0-0.3,0.6-0.4,1.1-0.5c0.2-0.1,0.4-0.1,0.5-0.2c0,0,0.1-0.1,0.1-0.1c0.5-3.4-0.5-6.2,0.2-7.6
				c0.3-0.5,3.7,0.1,3.9,0c0.2-0.1,0.6-0.1,1.1-0.1c5,0,24.2,2.3,35.1,4.3c2.5,0.4,4.5,0.9,5.9,1.2c0.8,0.2-0.1,0.4,0.2,0.6
				c1,0.8-0.1,3.5-0.2,7.9l-2.3,1l1,0.1c1.2,0.1,2,1.2,1.9,2.3c-0.2,2.8-0.5,5.5-0.9,8.4l-0.8,0.7l-0.2,2.4l0,0.8l-6.3-0.6
				L187.5,176C187.5,176,187.5,176,187.5,176z"/>
			<path class="st42" d="M188.3,176.4c0,1.3-0.6,3.6-0.7,4.4c0,0.2-0.1,0.3-0.1,0.3l-1.4-0.1l-0.2,0l-0.1,0l-18.3-1.5l-2.3-0.2
				l-9.8-0.8l0,0c-7.3-1-12.9-2-13.5-2.5c-0.3-0.3-0.5-1.8-0.5-3.9c0-0.2,0-0.3,0-0.5c0-0.4,0-0.7,0-1.1c1.3,0.1,3,0.3,5,0.5
				c0.4,0,0.7,0.1,1.1,0.1c0.3,0,0.5,0.1,0.8,0.1c0.5,0,1,0.1,1.5,0.1c0.7,0.1,1.5,0.2,2.3,0.2c4.1,0.4,8.8,0.9,13.4,1.4
				c0.7,0.1,1.4,0.2,2.1,0.2c3.4,0.4,6.7,0.8,9.7,1.2c1.1,0.2,2.2,0.3,3.2,0.4c0.3,0,0.6,0.1,0.8,0.1c0.4,0.1,0.9,0.1,1.3,0.2
				c2.2,0.3,3.9,0.6,4.8,0.9c0,0,0,0,0,0C188,176.1,188.3,176.3,188.3,176.4z"/>
			<path class="st42" d="M188.9,168.6c-0.7,0.4-0.7,2.4-0.7,4c0,1.1-0.9,2-2,1.9l-4.7-0.6l-0.8-0.1l-1.9-0.2c0,0,0,0-0.1,0l-0.1,0
				l0,0l-0.2,0l-0.9-0.1l-9.1-1.1l-0.4,0l-0.3,0l-2.1-0.3l-0.4-0.1c0,0,0,0,0,0l-0.3,0l-1.6-0.2l-0.3,0l-2.6-0.3l-0.3,0l-1.6-0.2
				l-1.7-0.2l-1.3-0.2l-5.5-0.7l-0.1,0l-1.4-0.2l-0.8-0.1l-1.9-0.2l-4.3-0.5c0-4.2,0.4-9.7,1-14.4c0,0,0.1,0,0.1,0
				c1.6,0.2,3.7,0.5,6.2,0.8c0.3,0,0.5,0.1,0.8,0.1c0.5,0.1,1,0.1,1.6,0.2c2.4,0.3,4.9,0.7,7.6,1c0.6,0.1,1.1,0.2,1.7,0.2
				c0.7,0.1,1.3,0.2,2,0.3c0.6,0.1,1.3,0.2,1.9,0.3c0.4,0.1,0.9,0.1,1.3,0.2c0.5,0.1,1,0.1,1.5,0.2c0.1,0,0.2,0,0.3,0
				c0.5,0.1,1.1,0.1,1.6,0.2c0.3,0,0.7,0.1,1,0.1c0.5,0.1,0.9,0.1,1.4,0.2c0.8,0.1,1.5,0.2,2.3,0.3c0.3,0,0.5,0.1,0.8,0.1
				c1.5,0.2,3,0.4,4.4,0.6c0.2,0,0.5,0.1,0.7,0.1c0.9,0.1,1.7,0.3,2.5,0.4c0.3,0,0.6,0.1,0.8,0.1c3.4,0.5,5.7,0.9,5.8,1.1
				c0.8,0.8-0.2,5.6-0.2,5.6l-6.3-0.8l-0.8-0.1l-1.5-0.2c0,0,0.6,0.1,1.5,0.3c0.2,0.1,0.5,0.1,0.8,0.2
				C185.2,167.1,189.7,168.2,188.9,168.6z"/>
			<path class="st42" d="M188.6,158.8c-0.1,1.1-0.9,2-1.9,1.8l-3.7-0.6l-0.8-0.1l-0.1,0l-3-0.5l-3-0.5l-0.2,0l-0.9-0.1l-3.2-0.5
				l-1.2-0.2l-1.3-0.2l-1.6-0.3l-0.4-0.1l-4.3-0.7l-2.2-0.3l-1.7-0.3l-7.7-1.2l-1.6-0.2l-0.8-0.1L144,154l-0.4-0.1l-1.2-0.2
				c0.7-3.9,1.4-7.1,2.2-8.7l4.7,0.8l3,0.5l0,0l28.2,3.9c0,0,1.6,0.2,3.4,0.5c1.9,0.3,4,0.7,4.4,1.1c0.1,0.1,0.2,0.4,0.2,0.8
				C188.8,154.2,188.7,156.9,188.6,158.8z"/>
			<path class="st44" d="M178.4,173.6l-0.9-0.1l-9.1-1.1l-0.4,0l-0.3,0l-2.1-0.3l-0.4-0.1c0,0,0,0,0,0l-0.3,0l-1.6-0.2l-0.3,0
				l-2.6-0.3l-0.3,0l-1.6-0.2l-1.7-0.2l-1.3-0.2l-5.5-0.7l-0.1,0l-1.4-0.2l-0.8-0.1l-1.9-0.2l-4.3-0.5c0-4.2,0.4-9.7,1-14.4
				c0,0,0.1,0,0.1,0c1.6,0.2,3.7,0.5,6.2,0.8c0.3,0,0.5,0.1,0.8,0.1c0.5,0.1,1,0.1,1.6,0.2c2.4,0.3,4.9,0.7,7.6,1
				c0.6,0.1,1.1,0.2,1.7,0.2c0.7,0.1,1.3,0.2,2,0.3c0.6,0.1,1.3,0.2,1.9,0.3c0.4,0.1,0.9,0.1,1.3,0.2c0.5,0.1,1,0.1,1.5,0.2
				c0.1,0,0.2,0,0.3,0c0.5,0.1,1.1,0.1,1.6,0.2c0.3,0,0.7,0.1,1,0.1c0.5,0.1,0.9,0.1,1.4,0.2c0.8,0.1,1.5,0.2,2.3,0.3
				c-0.7-0.1-1.5-0.1-2.4-0.2c-0.5-0.1-1-0.1-1.6-0.1c0,0,0,0,0,0c-0.3,0-0.5-0.1-0.8-0.1c-0.5,0-1.1-0.1-1.6-0.2
				c-0.1,0-0.2,0-0.3,0c-0.5,0-0.9-0.1-1.4-0.1c-0.6-0.1-1.2-0.1-1.8-0.2c-0.6,0-1.2-0.1-1.7-0.1c-0.6-0.1-1.2-0.1-1.8-0.2
				c-0.6,0-1.2-0.1-1.7-0.1c-2.7-0.2-5.3-0.4-7.5-0.6c-0.6,0-1.1-0.1-1.6-0.1c-0.3,0-0.6,0-0.8,0c-2.6-0.1-4.4-0.2-4.6,0
				c-0.4,0.4-0.7,1.7-0.8,2.8c0,0,0,0,0,0c-0.1,1-0.1,1.9-0.1,1.9l0.8,0.1l4.3,0.7l0.4,0.1l-0.4,0l-4-0.1l-1.1,0c0,0-1.7,4.7-1,5.5
				c0.1,0.1,1.6,0.5,3.8,0.9c0.5,0.1,1.1,0.2,1.7,0.3c0.3,0.1,0.5,0.1,0.8,0.1c0.5,0.1,1,0.2,1.5,0.2c0.6,0.1,1.3,0.2,1.9,0.3
				c1.3,0.2,2.6,0.4,4,0.6c0.4,0.1,0.8,0.1,1.1,0.2c0,0,0,0,0,0c0.8,0.1,1.6,0.2,2.4,0.4c0.2,0,0.5,0.1,0.7,0.1
				c0.6,0.1,1.1,0.2,1.7,0.3c0.4,0.1,0.8,0.1,1.1,0.2c0.6,0.1,1.2,0.2,1.7,0.3c0.1,0,0.2,0,0.2,0c0.2,0,0.4,0.1,0.7,0.1
				c0.7,0.1,1.3,0.2,2,0.3l0.1,0c0,0,0,0,0.1,0c0.1,0,0.2,0,0.4,0.1c0.6,0.1,1.1,0.2,1.7,0.2c3.4,0.5,6.1,0.9,7.7,1.1
				C177.9,173.5,178.2,173.6,178.4,173.6z"/>
			<path class="st44" d="M172.6,160.4l-0.1,0l-0.6-0.1l-2.1-0.3l-0.7-0.1l-0.9-0.1l-1.1-0.2l-0.3,0l-2.8-0.4l-1.4-0.2l-1.1-0.2
				l-5-0.8l-1-0.2l-0.5-0.1l-3.1-0.5l-0.2,0l-0.7-0.1c0.4-2.5,0.9-4.6,1.4-5.6l3.1,0.5l2,0.3l-4.5-0.3l-0.6,1.7l3,1.4l0.5,0.2
				l0.9,0.4l1.9,0.4l6.1,1.3L157,157l4.7,1l2.2,0.5l0.7,0.1l2.3,0.5l0.4,0.1l1,0.2l0.9,0.2l0.7,0.2l2.1,0.5L172.6,160.4z"/>
		</g>
	</g>
	<g>
		<g>
			<rect y="291.5" class="st21" width="480" height="1.8"/>
			<rect x="4" y="291.9" class="st22" width="9.4" height="2.8"/>
			<rect x="24.9" y="291.9" class="st22" width="9.4" height="2.8"/>
			<rect x="45.8" y="291.9" class="st22" width="9.4" height="2.8"/>
			<rect x="66.8" y="291.9" class="st22" width="9.4" height="2.8"/>
			<rect x="87.7" y="291.9" class="st22" width="9.4" height="2.8"/>
			<rect x="108.6" y="291.9" class="st22" width="9.4" height="2.8"/>
			<rect x="129.6" y="291.9" class="st22" width="9.4" height="2.8"/>
			<rect x="150.5" y="291.9" class="st22" width="9.4" height="2.8"/>
			<rect x="171.4" y="291.9" class="st22" width="9.4" height="2.8"/>
			<rect x="192.4" y="291.9" class="st22" width="9.4" height="2.8"/>
			<rect x="213.3" y="291.9" class="st22" width="9.4" height="2.8"/>
			<rect x="234.2" y="291.9" class="st22" width="9.4" height="2.8"/>
			<rect x="255.2" y="291.9" class="st22" width="9.4" height="2.8"/>
			<rect x="276.1" y="291.9" class="st22" width="9.4" height="2.8"/>
			<rect x="297" y="291.9" class="st22" width="9.4" height="2.8"/>
			<rect x="317.9" y="291.9" class="st22" width="9.4" height="2.8"/>
			<rect x="338.9" y="291.9" class="st22" width="9.4" height="2.8"/>
			<rect x="359.8" y="291.9" class="st22" width="9.4" height="2.8"/>
			<rect x="380.7" y="291.9" class="st22" width="9.4" height="2.8"/>
			<rect x="401.7" y="291.9" class="st22" width="9.4" height="2.8"/>
			<rect x="422.6" y="291.9" class="st22" width="9.4" height="2.8"/>
			<rect x="443.5" y="291.9" class="st22" width="9.4" height="2.8"/>
			<rect x="464.5" y="291.9" class="st22" width="9.4" height="2.8"/>
		</g>
	</g>
	<g>
		<g>
			<path class="st89" d="M185.5,96c0.4-0.4,1-1,1-1.8c0-1.1-1.1-2.4-2.4-2.3c-1.1,0.1-1.5,0.9-1.7,1.4c-1.2-0.6-2.5-0.9-3.9-0.9
				c-1.4,0-2.7,0.3-3.9,0.9c-0.2-0.5-0.7-1.3-1.7-1.4c-1.3-0.1-2.4,1.1-2.4,2.3c0,0.8,0.6,1.4,1,1.8c-0.9,1.3-1.4,2.8-1.4,4.4
				c0,4.4,3.8,8,8.4,8c4.6,0,8.4-3.6,8.4-8C187,98.8,186.4,97.3,185.5,96z"/>
			<g>
				<path class="st96" d="M182.3,93.8c0,0,0.3-1.7,1.8-1.8c1.3-0.1,2.4,1.1,2.4,2.3c0,1.3-1.4,2.1-1.4,2.1L182.3,93.8z"/>
				<circle class="st97" cx="184.4" cy="94.2" r="0.9"/>
				<g>
					<path class="st96" d="M174.8,93.8c0,0-0.3-1.7-1.8-1.8c-1.3-0.1-2.4,1.1-2.4,2.3c0,1.3,1.4,2.1,1.4,2.1L174.8,93.8z"/>
					<circle class="st97" cx="172.8" cy="94.2" r="0.9"/>
				</g>
				<ellipse class="st98" cx="178.5" cy="100.5" rx="8.4" ry="8"/>
				<path class="st97" d="M178.5,100.1c-2.3,0-4,3.9-4,5c0,0.6,0.3,2.3,4,2.3c3.6,0,4-1.5,4-2.3
					C182.5,103.8,180.8,100.1,178.5,100.1z"/>
				<circle class="st99" cx="174.6" cy="99.9" r="0.7"/>
				<path class="st99" d="M181.1,99.9c0,0.4,0.3,0.7,0.7,0.7s0.7-0.3,0.7-0.7s-0.3-0.7-0.7-0.7S181.1,99.5,181.1,99.9z"/>
				<g>
					<path class="st1" d="M175.1,99.9c-0.4-0.1-0.5,0-0.5,0c0,0,0.1,0,0.1-0.1c0-0.1,0-0.2-0.1-0.4c0.1-0.4,0.4-0.5,0.7-0.3
						C175.5,99.4,175.5,99.8,175.1,99.9z"/>
				</g>
				<g>
					<path class="st1" d="M182.3,99.9c-0.4-0.1-0.5,0-0.5,0c0,0,0.1,0,0.1-0.1c0-0.1,0-0.2-0.1-0.4c0.1-0.4,0.4-0.5,0.7-0.2
						C182.7,99.4,182.7,99.8,182.3,99.9z"/>
				</g>
				<path class="st100" d="M179.6,102.1c0-0.4-0.6-0.5-1.1-0.5c-0.5,0-1,0.1-1.1,0.5c0,0.5,0.7,0.8,1.1,0.9
					C178.9,102.9,179.6,102.5,179.6,102.1z"/>
				<line class="st101" x1="178.5" y1="102.4" x2="178.5" y2="105.7"/>
				<path class="st102" d="M177.2,104.7c0,0,0.2,1,1.3,1s1.3-1,1.3-1"/>
				<path class="st103" d="M174.5,97.2c0,0-0.9-0.2-1.2,0.7"/>
				<path class="st103" d="M182.3,97.2c0,0,0.9-0.2,1.2,0.7"/>
			</g>
		</g>
		<path class="st132" d="M328.7,188.6c-5.1,0-2.5,0-7.6,0c-1.1,0-2,0.9-2,2c0,3.9,0,7.7,0,11.6c0,1.1,0.9,2,2,2c5.1,0,2.5,0,7.6,0
			c1.1,0,2-0.9,2-2c0-3.9,0-7.7,0-11.6C330.7,189.5,329.8,188.6,328.7,188.6L328.7,188.6z"/>
		<path class="st133" d="M328.6,190.7c-2.5,0-5,0-7.4,0c0,3.8,0,7.6,0,11.4c2.5,0,5,0,7.4,0C328.6,198.3,328.6,194.5,328.6,190.7
			L328.6,190.7z"/>
		<path class="st132" d="M313.6,188.6c-5,0-2.5,0-7.6,0c-1.1,0-2,0.9-2,2c0,3.9,0,7.7,0,11.6c0,1.1,0.9,2,2,2c5.1,0,2.5,0,7.6,0
			c1.1,0,2-0.9,2-2c0-3.9,0-7.7,0-11.6C315.6,189.5,314.7,188.6,313.6,188.6L313.6,188.6z"/>
		<path class="st133" d="M313.5,190.7c-2.5,0-4.9,0-7.4,0c0,3.8,0,7.6,0,11.4c2.5,0,5,0,7.4,0C313.5,198.3,313.5,194.5,313.5,190.7
			L313.5,190.7z"/>
		<path class="st132" d="M298.5,188.6c-5.1,0-2.5,0-7.6,0c-1.1,0-2,0.9-2,2c0,3.9,0,7.7,0,11.6c0,1.1,0.9,2,2,2c5.1,0,2.5,0,7.6,0
			c1.1,0,2-0.9,2-2c0-3.9,0-7.7,0-11.6C300.5,189.5,299.6,188.6,298.5,188.6L298.5,188.6z"/>
		<path class="st133" d="M298.4,190.7c-2.5,0-5,0-7.4,0c0,3.8,0,7.6,0,11.4c2.5,0,4.9,0,7.4,0C298.4,198.3,298.4,194.5,298.4,190.7
			L298.4,190.7z"/>
		<path class="st132" d="M283.4,188.6c-5.1,0-2.5,0-7.6,0c-1.1,0-2,0.9-2,2c0,3.9,0,7.7,0,11.6c0,1.1,0.9,2,2,2c5.1,0,2.5,0,7.6,0
			c1.1,0,2-0.9,2-2c0-3.9,0-7.7,0-11.6C285.4,189.5,284.5,188.6,283.4,188.6L283.4,188.6z"/>
		<path class="st133" d="M283.3,190.7c-2.5,0-5,0-7.4,0c0,3.8,0,7.6,0,11.4c2.5,0,5,0,7.4,0C283.3,198.3,283.3,194.5,283.3,190.7
			L283.3,190.7z"/>
		<path class="st133" d="M268.2,190.7c-2.5,0-4.9,0-7.4,0c0,3.8,0,7.6,0,11.4c2.5,0,5,0,7.4,0C268.2,198.3,268.2,194.5,268.2,190.7
			L268.2,190.7z"/>
		<path class="st134" d="M257.6,218.4H280v1.1c0,0.8-0.7,1.5-1.5,1.5h-19.4c-0.8,0-1.5-0.7-1.5-1.5V218.4z"/>
		<g>
			<path class="st135" d="M260.2,221c0,2.1,1.7,3.9,3.9,3.9c2.2,0,3.9-1.7,3.9-3.9h-3.9H260.2z"/>
			<path class="st135" d="M273.4,221h-3.9c0,2.1,1.7,3.9,3.9,3.9c2.2,0,3.9-1.7,3.9-3.9H273.4z"/>
		</g>
		<path class="st132" d="M286.1,218.4H318v0.4c0,0.4-0.3,0.7-0.7,0.7h-30.4c-0.4,0-0.7-0.3-0.7-0.7V218.4z"/>
		<polygon class="st136" points="264.4,190.7 266.5,190.7 264.5,202.1 262.4,202.1 		"/>
		<path class="st136" d="M279.5,190.7c0.7,0,1.4,0,2.1,0c-0.6,3.8-1.3,7.6-2,11.4c-0.7,0-1.4,0-2.1,0
			C278.2,198.3,278.8,194.5,279.5,190.7L279.5,190.7z"/>
		<path class="st136" d="M294.6,190.7c0.7,0,1.4,0,2.1,0c-0.6,3.8-1.3,7.6-2,11.4c-0.7,0-1.4,0-2.1,0
			C293.3,198.3,293.9,194.5,294.6,190.7L294.6,190.7z"/>
		<path class="st136" d="M309.7,190.7c0.7,0,1.4,0,2.1,0c-0.6,3.8-1.3,7.6-2,11.4c-0.7,0-1.4,0-2.1,0
			C308.4,198.3,309,194.5,309.7,190.7L309.7,190.7z"/>
		<path class="st136" d="M324.8,190.7c0.7,0,1.4,0,2.1,0c-0.7,3.8-1.3,7.6-2,11.4c-0.7,0-1.4,0-2.1,0
			C323.5,198.3,324.2,194.5,324.8,190.7L324.8,190.7z"/>
		<rect x="142.9" y="166.8" class="st137" width="193.8" height="58.1"/>
		<rect x="142.9" y="166.8" class="st138" width="193.8" height="7.4"/>
		<path class="st139" d="M136.5,131.9h206.7c1.4,0,2.6,1.1,2.6,2.5v29.7c0,1.4-1.2,2.6-2.6,2.6H136.5c-1.4,0-2.5-1.2-2.5-2.6v-29.7
			C133.9,133,135.1,131.9,136.5,131.9L136.5,131.9z"/>
		<path class="st140" d="M345.7,157v7.2c0,1.4-1.2,2.6-2.6,2.6H136.5c-1.4,0-2.5-1.2-2.5-2.6V157H345.7z"/>
		<path class="st140" d="M143.3,126.2h193c0.6,0,1.1,0.5,1.1,1v4.7H142.3v-4.7C142.3,126.6,142.7,126.2,143.3,126.2L143.3,126.2z"/>
		<g>
			<ellipse class="st141" cx="206.5" cy="199.5" rx="2.1" ry="35.8"/>
			<rect x="171.8" y="174.2" class="st141" width="3" height="50.7"/>
			<ellipse class="st141" cx="239.8" cy="199.5" rx="2.1" ry="35.9"/>
			<rect x="304.9" y="174.2" class="st141" width="3" height="50.7"/>
			<path class="st141" d="M271.6,224.9c1,0,2,0,3,0c0-16.9,0-33.8,0-50.7c-1,0-2,0-3,0C271.6,191.1,271.6,208,271.6,224.9z"/>
		</g>
		<rect x="142.9" y="189.1" class="st138" width="193.8" height="2.9"/>
		<rect x="208" y="192" class="st142" width="30.3" height="32.9"/>
		<rect x="241.3" y="192" class="st137" width="30.3" height="32.9"/>
		<rect x="241.3" y="174.2" class="st137" width="30.3" height="14.9"/>
		<rect x="208" y="174.2" class="st137" width="30.3" height="14.9"/>
		<rect x="345.7" y="135.7" class="st126" width="33.2" height="2.2"/>
		<g>
			<rect x="357.8" y="137.9" class="st143" width="1.4" height="9.3"/>
			<rect x="365.4" y="137.9" class="st143" width="1.4" height="9.3"/>
		</g>
		<path class="st126" d="M362.3,141.3c6.5,0,11.7,5.2,11.7,11.7c0,6.5-5.2,11.7-11.7,11.7c-6.5,0-11.7-5.2-11.7-11.7
			C350.6,146.5,355.8,141.3,362.3,141.3L362.3,141.3z"/>
		<path class="st144" d="M362.3,143.4c5.3,0,9.6,4.3,9.6,9.6c0,5.3-4.3,9.6-9.6,9.6s-9.6-4.3-9.6-9.6
			C352.7,147.7,357,143.4,362.3,143.4L362.3,143.4z"/>
		<path class="st145" d="M362.6,143.4c5,0.2,9.1,4.2,9.2,9.3c-0.2,4.8-4.1,8.6-8.9,8.6c-4.9,0-8.9-4-8.9-8.9
			C354,147.5,357.8,143.6,362.6,143.4L362.6,143.4z"/>
		<path class="st122" d="M362.3,151.8c0.7,0,1.2,0.5,1.2,1.2s-0.5,1.2-1.2,1.2s-1.2-0.5-1.2-1.2S361.6,151.8,362.3,151.8
			L362.3,151.8z"/>
		<path class="st122" d="M362.3,145L362.3,145c0.3,0,0.6,0.3,0.6,0.6v6.6c0,0.3-0.3,0.6-0.6,0.6l0,0c-0.3,0-0.6-0.3-0.6-0.6v-6.6
			C361.7,145.2,362,145,362.3,145L362.3,145z"/>
		<path class="st122" d="M366,156.6L366,156.6c-0.3,0.3-0.8,0.3-1.1,0l-2.4-2.4c-0.3-0.3-0.3-0.8,0-1.1l0,0c0.3-0.3,0.8-0.3,1.1,0
			l2.4,2.4C366.3,155.8,366.3,156.3,366,156.6L366,156.6z"/>
		<path class="st146" d="M363.7,144.7c3.9,0.7,6.9,4,7,8.1h-1.3v-0.2C369.4,148.9,367,145.8,363.7,144.7L363.7,144.7z"/>
		<path class="st131" d="M170.3,90h139.1c3.4,0,6.3,2.9,6.3,6.3v17.3c0,3.5-2.9,6.3-6.3,6.3H170.3c-3.5,0-6.3-2.8-6.3-6.3V96.3
			C164,92.9,166.8,90,170.3,90L170.3,90z"/>
		<path class="st139" d="M170.3,92.7h139.1c2,0,3.6,1.6,3.6,3.6v17.3c0,2-1.6,3.6-3.6,3.6H170.3c-2,0-3.6-1.6-3.6-3.6V96.3
			C166.7,94.4,168.3,92.7,170.3,92.7L170.3,92.7z"/>
		<g>
			<rect x="173" y="119.9" class="st147" width="7.1" height="6.3"/>
			<rect x="299.5" y="119.9" class="st147" width="7.1" height="6.3"/>
		</g>
		<g>
			<rect x="173" y="119.9" class="st148" width="7.1" height="3.1"/>
			<rect x="299.5" y="119.9" class="st148" width="7.1" height="3.1"/>
		</g>
		<polygon class="st149" points="205,189.1 174.7,189.1 205,174.2 		"/>
		<polygon class="st149" points="238.3,189.1 208,189.1 238.3,174.2 		"/>
		<polygon class="st149" points="271.6,189.1 241.3,189.1 271.6,174.2 		"/>
		<polygon class="st149" points="304.9,189.1 274.6,189.1 304.9,174.2 		"/>
		<polygon class="st149" points="336.7,189.1 307.9,189.1 336.7,174.2 		"/>
		<rect x="312.3" y="166.8" class="st150" width="3.7" height="58.1"/>
		<polygon class="st149" points="171.8,189.1 142.9,189.1 171.8,174.2 		"/>
		<rect x="163.5" y="166.8" class="st150" width="3.7" height="58.1"/>
		<path class="st119" d="M255.2,210.6h6.2c0.8,0,1.5,0.6,1.5,1.5v10.9c0,0.8-0.7,1.5-1.5,1.5h-6.2c-0.8,0-1.5-0.7-1.5-1.5V212
			C253.7,211.2,254.3,210.6,255.2,210.6L255.2,210.6z"/>
		<g>
			<rect x="255.8" y="211.6" class="st151" width="0.7" height="11.8"/>
			<rect x="260" y="211.6" class="st151" width="0.7" height="11.8"/>
			<path class="st151" d="M257.9,223.3c0.3,0,0.5,0,0.7,0c0-3.9,0-7.8,0-11.8c-0.2,0-0.5,0-0.7,0
				C257.9,215.5,257.9,219.4,257.9,223.3z"/>
		</g>
		<g>
			<rect x="255.5" y="224.3" class="st135" width="0.7" height="0.5"/>
			<rect x="260.2" y="224.3" class="st135" width="0.7" height="0.5"/>
		</g>
		<g>
			<rect x="256.6" y="209.1" class="st152" width="0.4" height="1.5"/>
			<rect x="259.4" y="209.1" class="st152" width="0.4" height="1.5"/>
		</g>
		<path class="st122" d="M256.5,209.1h3.6c0.3,0,0.5-0.2,0.5-0.5l0,0c0-0.3-0.2-0.5-0.5-0.5h-3.6c-0.3,0-0.5,0.2-0.5,0.5l0,0
			C256,208.9,256.2,209.1,256.5,209.1L256.5,209.1z"/>
		<path class="st153" d="M246.2,224.9h10c1.2,0,2.2-1,2.2-2.2v-2.9c0-1.2-1-2.2-2.2-2.2h-10c-1.2,0-2.2,1-2.2,2.2v2.9
			C244,223.9,245,224.9,246.2,224.9L246.2,224.9z"/>
		<path class="st120" d="M258.4,222.2v-2.4c0-1.2-1-2.2-2.2-2.2h-10c-1.2,0-2.2,1-2.2,2.2v2.4c0.4,0.6,1.1,1,1.9,1h10.6
			C257.3,223.2,258,222.8,258.4,222.2L258.4,222.2z"/>
		<g>
			<rect x="246.6" y="217.6" class="st154" width="1.4" height="7.3"/>
			<rect x="254.5" y="217.6" class="st154" width="1.4" height="7.3"/>
		</g>
		<g>
			<rect x="254.5" y="217.6" class="st1" width="1.4" height="5.6"/>
			<rect x="246.6" y="217.6" class="st1" width="1.4" height="5.6"/>
		</g>
		<path class="st125" d="M250.1,215.1h2.3c0.4,0,0.7,0.2,0.9,0.4c0.2,0.2,0.4,0.5,0.4,0.9v1.3h-0.8v-1.3c0-0.1-0.1-0.2-0.1-0.3
			c-0.1-0.1-0.2-0.1-0.3-0.1h-2.3c-0.1,0-0.2,0.1-0.3,0.1l0,0c-0.1,0.1-0.1,0.2-0.1,0.3v1.3h-0.8v-1.3c0-0.3,0.1-0.7,0.4-0.9l0,0
			C249.4,215.2,249.8,215.1,250.1,215.1L250.1,215.1z"/>
		<rect x="226.5" y="192" class="st155" width="11.8" height="32.9"/>
		<rect x="133.9" y="137.9" class="st140" width="70" height="2.5"/>
		<rect x="154.5" y="147.8" class="st140" width="37.8" height="2.5"/>
		<rect x="221" y="146.8" class="st140" width="37.8" height="2.5"/>
		<rect x="277.1" y="138.5" class="st140" width="25.7" height="2.5"/>
		<rect x="314.9" y="148.6" class="st140" width="25.7" height="2.5"/>
		<rect x="322" y="138.3" class="st140" width="12" height="2.5"/>
		<rect x="282.3" y="148.7" class="st140" width="12" height="2.5"/>
		<rect x="235.1" y="137.3" class="st140" width="12" height="2.6"/>
		<rect x="203.3" y="148.8" class="st140" width="12" height="2.5"/>
	</g>
	<g>
		<path class="st124" d="M213.2,105.3l-5.2-2.5l2.3-3.8l4.4,3.9L213.2,105.3z M218.4,105.4l7,4.2l-3.2,3.1l-5.7-5l-4.3,5.3l-3.4-3.1
			l6.6-5.6l-0.1-7.1l4.4,0.4l-0.7,7.1L218.4,105.4z M219.2,103.3l3.2-5l3.4,2.5l-4.4,4.1L219.2,103.3z"/>
		<path class="st124" d="M245.6,110.8l-5.1,0.2l0.1,2.3l-4.8,0l0.2-2l-6.7,0.3l-0.7-3.3l7.7-0.1l0.2-1.6l-6.7-0.1l1.6-5.2l-2.2,0
			l-0.3-2.7l3.4-0.1l0.5-1.7l4.1,0.7l-0.4,0.9l9.2-0.2l0.2,2.7l-10.5,0.2l-1.1,2.6l2.4-0.1l0.1-1.5l3.3,0.1l0,1.2l4.3-0.2l-0.2,3.3
			l-4-0.1l0,1.6l5.7,0L245.6,110.8z"/>
		<path class="st124" d="M256.4,108.7l0,2.8l-6.8,1.4l-0.8-3.5l3.5-0.4l0.7-5.7l3.1,0.4l-1.2,5L256.4,108.7z M248.9,100.2l1.8-0.1
			l-0.6-1.7l3.7-0.8l0.3,2.2l2.2-0.2l-0.2,2.8l-6.8,0.2L248.9,100.2z M249.1,104.5l2.4-0.8l0.6,4.1l-1.8,0.5L249.1,104.5z
			 M266.7,104.8l-0.6,8.3l-8.5,0.3l-0.8-8.3l2.4-0.1l-0.3-7.6l4.4-0.2l-0.1,2.4l3.2-0.3l0.1,3.2l-3.5-0.1l-0.2,2.4L266.7,104.8z
			 M263.5,110.3l0-2.9l-2.4,0l0,3.1L263.5,110.3z"/>
	</g>
</g>
<g id="Layer_3">
</g>
</svg>
