<?xml version="1.0" encoding="utf-8"?>
<!-- Generator: Adobe Illustrator 22.1.0, SVG Export Plug-In . SVG Version: 6.00 Build 0)  -->
<svg version="1.1" xmlns="http://www.w3.org/2000/svg" xmlns:xlink="http://www.w3.org/1999/xlink" x="0px" y="0px"
	 viewBox="0 0 100 100" style="enable-background:new 0 0 100 100;" xml:space="preserve">
<style type="text/css">
	.st0{fill:#FFFFFF;}
	.st1{fill:#FFDA00;}
	.st2{fill:#FFFFFF;stroke:#FFFF00;stroke-miterlimit:10;}
	.st3{fill:#D6D6D6;}
	.st4{fill:#80F0F9;}
	.st5{fill:#43CCDE;}
	.st6{fill:#32ABBA;}
	.st7{fill:#FF9D47;}
	.st8{fill:#4D4D4D;}
	.st9{fill:#34495E;}
	.st10{fill:#97F58F;}
	.st11{fill:#42CF25;}
	.st12{fill:#FFA6A6;}
	.st13{fill:#AB5C16;}
	.st14{fill:#FFDB8C;}
	.st15{fill:#D1D1D1;}
	.st16{fill:#72706F;}
	.st17{fill:#A05000;}
	.st18{fill:#693908;}
	.st19{fill:#C89D50;}
	.st20{fill:#4E9B34;}
	.st21{fill:#97C62F;}
	.st22{fill:#593968;}
	.st23{fill:#D5B3C3;}
	.st24{fill:#FCD22C;}
	.st25{fill:#FCDB94;}
	.st26{fill:#F3DAAE;}
	.st27{fill:#DBE1AC;}
	.st28{fill:#E4343A;}
	.st29{fill:#E3C6D3;}
	.st30{fill:#D2DB93;}
	.st31{fill:#FDE5AE;}
	.st32{fill:none;stroke:#F6D492;stroke-width:0.7714;stroke-linecap:round;stroke-linejoin:round;stroke-miterlimit:10;}
	.st33{fill:#CAB59F;}
	.st34{fill:#B41529;}
	.st35{fill:#D81F35;}
	.st36{fill:#F8BB00;}
	.st37{fill:#8DC21F;}
	.st38{fill:#951B08;}
	.st39{fill:#E6D8DF;}
	.st40{fill:#E5E5E6;}
	.st41{fill:#E5E4A9;}
	.st42{fill:#EFE9E9;}
	.st43{fill:#FBC8D1;}
	.st44{fill:#FBD4D9;}
	.st45{fill:#F9B9C7;}
	.st46{fill:#DD8CA5;}
	.st47{fill:#E8E8E8;}
	.st48{fill:#444343;}
	.st49{fill:#F4F1ED;}
	.st50{fill:#EFE2D5;}
	.st51{fill:#DDC8B6;}
	.st52{fill:#C1AA95;}
	.st53{fill:#FFCC57;}
	.st54{fill:#7E4A23;}
	.st55{fill:#FFF6B5;}
	.st56{clip-path:url(#SVGID_2_);}
	.st57{fill:#F99C15;}
	.st58{fill:#A2D063;}
	.st59{fill:#6FA536;}
	.st60{fill:#3D3D3D;}
	.st61{fill:#EFEFEF;}
	.st62{fill:#925D00;}
	.st63{fill:#F5B456;}
	.st64{fill:#E66B3E;}
	.st65{fill:#F7CC8C;}
	.st66{fill:#C77B00;}
	.st67{fill:#908F93;}
	.st68{fill:#E5C5DD;}
	.st69{fill:#6B6B6D;}
	.st70{fill:#F29700;}
	.st71{clip-path:url(#SVGID_4_);fill:#FEFEFE;}
	.st72{clip-path:url(#SVGID_4_);}
	.st73{fill:#670004;}
	.st74{fill:#B7B7BC;}
	.st75{fill:#E96D46;}
	.st76{fill:#F9EFE5;}
	.st77{fill:#BDAA9A;}
	.st78{fill:#DDCCBF;}
	.st79{fill:#4B6A76;}
	.st80{opacity:0.43;fill:url(#SVGID_5_);}
	.st81{fill:#F4E4E4;}
	.st82{fill:#FF8788;}
	.st83{fill:#261D1D;}
	.st84{opacity:0.5;}
	.st85{fill:#F7A7AA;}
	.st86{opacity:0.3;fill:#F7A7AA;}
	.st87{fill:#FABFBF;}
	.st88{opacity:0.5;fill:#F7A7AA;}
	.st89{fill:#F37B87;}
	.st90{fill:#943436;}
	.st91{fill:#F6A0A4;}
	.st92{fill:url(#SVGID_8_);}
	.st93{fill:url(#SVGID_9_);}
	.st94{fill:#E20E46;}
	.st95{fill:#EDEDED;}
	.st96{fill:#F9747E;}
	.st97{fill:#E44C5F;}
	.st98{clip-path:url(#SVGID_13_);}
	.st99{fill:#85C459;}
	.st100{clip-path:url(#SVGID_15_);fill:#FFFFFF;}
	.st101{clip-path:url(#SVGID_17_);fill:#F74F5C;}
	.st102{fill:#CCCCCC;}
	.st103{clip-path:url(#SVGID_19_);fill:#53BEE3;}
	.st104{clip-path:url(#SVGID_21_);}
	.st105{fill:#53BEE3;}
	.st106{fill:#00A1CC;}
	.st107{clip-path:url(#SVGID_23_);fill:#F74F5C;}
	.st108{fill:#534741;}
	.st109{clip-path:url(#SVGID_25_);fill:#F74F5C;}
	.st110{fill:#F74F5C;}
	.st111{fill:#706661;}
	.st112{clip-path:url(#SVGID_29_);}
	.st113{fill:#AAAAAA;}
	.st114{fill:#D82A3F;}
	.st115{clip-path:url(#SVGID_31_);}
	.st116{clip-path:url(#SVGID_33_);fill:#F74F5C;}
	.st117{clip-path:url(#SVGID_35_);fill:#F74F5C;}
	.st118{fill:#D8957B;}
	.st119{fill:#F1E3D8;}
	.st120{fill:#C3755E;}
	.st121{fill:none;stroke:#231815;stroke-width:0.25;stroke-linecap:round;stroke-miterlimit:10;}
	.st122{fill:none;stroke:#30373D;stroke-width:0.25;stroke-miterlimit:10;}
	.st123{fill:#E6A389;}
	.st124{fill:#D8957B;stroke:#FFFFFF;stroke-miterlimit:10;}
	.st125{fill:#F1E3D8;stroke:#FFFFFF;stroke-miterlimit:10;}
	.st126{fill:#C3755E;stroke:#FFFFFF;stroke-miterlimit:10;}
	.st127{fill:#E6A389;stroke:#FFFFFF;stroke-miterlimit:10;}
	.st128{stroke:#FFFFFF;stroke-miterlimit:10;}
	.st129{fill:none;stroke:#FFFFFF;stroke-linecap:round;stroke-miterlimit:10;}
	.st130{fill:#198974;}
	.st131{fill:#47AD2F;}
	.st132{fill:#7A5C41;}
	.st133{fill:#5CC13A;}
	.st134{fill:#237C11;}
	.st135{fill:#3FA541;}
	.st136{fill:#10725F;}
	.st137{fill:#8DE00A;}
	.st138{fill:#938548;}
	.st139{fill:#498C44;}
	.st140{fill:#7BCE05;}
	.st141{fill:#54CC06;}
	.st142{opacity:0.56;fill:#7CBA04;}
	.st143{fill:#876D33;}
	.st144{fill:#C4B08D;}
	.st145{fill:#56C437;}
	.st146{fill:#49AD07;}
	.st147{fill:#359B3C;}
	.st148{fill:#E2E2E2;}
	.st149{fill:#231815;}
	.st150{fill:#435780;}
	.st151{fill:#FF4960;}
	.st152{fill:#373934;}
	.st153{fill:#F6C267;}
	.st154{opacity:0.5;fill:#F99500;}
	.st155{opacity:0.2;fill:#C02529;}
	.st156{fill:#F2F0F3;}
	.st157{fill:#C02529;}
	.st158{opacity:0.41;fill:#435780;}
	.st159{opacity:0.59;fill:#C02529;}
	.st160{fill:#FCE0A4;}
	.st161{fill:#EAE27F;}
	.st162{fill:#A1A85B;}
	.st163{fill:#FCFBD2;}
	.st164{fill:#9E8A6A;}
	.st165{fill:#979C24;}
	.st166{fill:#D1C11C;}
	.st167{fill:#727235;}
	.st168{opacity:0.46;fill:#4F4E4D;}
	.st169{fill:#FFFA9C;}
	.st170{fill:none;stroke:#4D4D4D;stroke-linecap:round;stroke-linejoin:round;stroke-dasharray:5.893,5.893;}
	.st171{fill:none;stroke:#4D4D4D;stroke-linecap:round;stroke-linejoin:round;stroke-dasharray:6.0318,6.0318;}
	.st172{fill:#747F7D;}
	.st173{fill:#827E7F;}
	.st174{fill:url(#SVGID_36_);}
	.st175{fill:#B50016;}
	.st176{fill:url(#SVGID_37_);}
	.st177{fill:url(#SVGID_38_);}
	.st178{fill:#FFFFFF;stroke:#FFFFFF;stroke-linecap:round;stroke-linejoin:round;stroke-miterlimit:10;}
	.st179{fill:#F4E4E4;stroke:#FFFFFF;stroke-linecap:round;stroke-linejoin:round;stroke-miterlimit:10;}
	.st180{fill:#FF8788;stroke:#FFFFFF;stroke-linecap:round;stroke-linejoin:round;stroke-miterlimit:10;}
	.st181{fill:#261D1D;stroke:#FFFFFF;stroke-linecap:round;stroke-linejoin:round;stroke-miterlimit:10;}
	.st182{fill:#B6E9FF;}
	.st183{fill:#6D362C;}
	.st184{fill:#F0CAAE;}
	.st185{fill:#8C4B38;}
	.st186{fill:#361A16;}
	.st187{fill:#44251F;}
	.st188{fill:none;stroke:#44251F;stroke-miterlimit:10;}
	.st189{fill:none;stroke:#44251F;stroke-linecap:round;stroke-linejoin:round;stroke-miterlimit:10;}
	.st190{fill:none;stroke:#6D362C;stroke-width:2;stroke-linecap:round;stroke-linejoin:round;stroke-miterlimit:10;}
	.st191{fill:#AD5A5C;}
	.st192{fill:none;stroke:#44251F;stroke-width:1.7887;stroke-linecap:round;stroke-linejoin:round;stroke-miterlimit:10;}
	.st193{fill:#AD3D3C;}
	.st194{fill:#FEFEFE;}
	.st195{fill:#FF6D00;}
	.st196{fill:#5E2C00;}
	.st197{fill:#CDDA60;}
	.st198{fill:#F07F36;}
	.st199{fill:#D64C00;}
	.st200{fill:#F29038;}
	.st201{fill:#AA3F04;}
	.st202{fill:#D4DA50;}
	.st203{fill:#67B44B;}
	.st204{fill:#6C4000;}
	.st205{fill:#7E4E00;}
	.st206{fill:#FFCD00;}
	.st207{fill:#FFBE00;}
	.st208{fill:#5A3200;}
	.st209{fill:#5F3813;}
	.st210{fill:#FCC047;}
	.st211{fill:#E8AF2E;}
	.st212{fill:#603008;}
	.st213{fill:#994405;}
	.st214{fill:#E6E6E7;}
	.st215{fill:#3B2314;}
	.st216{fill:#F0F1F1;}
	.st217{fill:#E0A246;}
	.st218{fill:#4F2B0E;}
	.st219{fill:#7BAD1A;}
	.st220{fill:#97FAFF;}
	.st221{fill:#5DC5EE;}
	.st222{fill:#DE97FF;}
	.st223{fill:#AC3EE5;}
	.st224{fill:#F8CDDB;}
	.st225{fill:#F95892;}
	.st226{fill:#D5FFBD;}
	.st227{fill:#58B431;}
	.st228{fill:#69311A;}
	.st229{opacity:0.43;fill:url(#SVGID_39_);}
	.st230{opacity:0.43;fill:url(#SVGID_40_);}
	.st231{opacity:0.43;fill:url(#SVGID_41_);}
	.st232{opacity:0.43;fill:url(#SVGID_42_);}
	.st233{opacity:0.43;fill:url(#SVGID_43_);}
	.st234{fill:#FFEC00;}
	.st235{fill:#FFF380;}
	.st236{fill:#6D362C;stroke:#FFFFFF;stroke-miterlimit:10;}
	.st237{fill:#F0CAAE;stroke:#FFFFFF;stroke-miterlimit:10;}
	.st238{fill:#8C4B38;stroke:#FFFFFF;stroke-miterlimit:10;}
	.st239{fill:#361A16;stroke:#FFFFFF;stroke-miterlimit:10;}
	.st240{fill:#44251F;stroke:#FFFFFF;stroke-miterlimit:10;}
	.st241{fill:none;stroke:#FFFFFF;stroke-miterlimit:10;}
	.st242{fill:none;stroke:#FFFFFF;stroke-linecap:round;stroke-linejoin:round;stroke-miterlimit:10;}
	.st243{fill:#F4F1ED;stroke:#FFFFFF;stroke-linecap:round;stroke-miterlimit:10;}
	.st244{fill:#EFE2D5;stroke:#FFFFFF;stroke-linecap:round;stroke-miterlimit:10;}
	.st245{fill:#DDC8B6;stroke:#FFFFFF;stroke-linecap:round;stroke-miterlimit:10;}
	.st246{fill:#F9B9C7;stroke:#FFFFFF;stroke-linecap:round;stroke-miterlimit:10;}
	.st247{fill:#C1AA95;stroke:#FFFFFF;stroke-linecap:round;stroke-miterlimit:10;}
	.st248{stroke:#FFFFFF;stroke-linecap:round;stroke-miterlimit:10;}
	.st249{opacity:0.3;}
	.st250{fill:#FFAB24;}
	.st251{fill:#FFFFFF;stroke:#35B8EC;stroke-width:2;stroke-miterlimit:10;}
	.st252{fill:#E1F8FF;}
	.st253{fill:#00FF8B;}
	.st254{fill:#D5DDBF;}
	.st255{fill:#AFB59A;}
	.st256{fill:#65B857;}
	.st257{opacity:0.5;fill:#4A913C;}
	.st258{fill:#7CCD6C;}
	.st259{opacity:0.75;fill:#5B9B4B;}
	.st260{fill:#ECF4D9;}
	.st261{fill:#91DE80;}
	.st262{opacity:0.5;fill:#75B765;}
	.st263{fill:#D4DDBC;}
	.st264{fill:#FF4200;}
	.st265{fill:#FFA6B1;}
	.st266{fill:#C60018;}
</style>
<g id="Layer_1">
</g>
<g id="Layer_2">
	<g>
		<g>
			<circle class="st0" cx="50" cy="50" r="46"/>
			<path class="st264" d="M50,98C23.5,98,2,76.5,2,50C2,23.5,23.5,2,50,2s48,21.5,48,48C98,76.5,76.5,98,50,98z M50,6
				C25.7,6,6,25.7,6,50c0,24.3,19.8,44,44,44s44-19.8,44-44C94,25.7,74.3,6,50,6z"/>
		</g>
		<g>
			<g>
				<path class="st18" d="M63.2,38.1c0,0,3.5-16.9,10.2-21.8c0,0-3.6-4-10.6-2.2c0,0-3.7,18.2-5.7,21.4L63.2,38.1z"/>
				<path class="st19" d="M73.3,16.2c0,0-1-1.2-3.1-2c0,0-3.6,6.7-4.7,9.1c-1.5,3-7,11.3-8.4,11.9c0,0,0,0.1,0,0.1l6.1,2.7
					C63.2,38.1,66.7,21.2,73.3,16.2z"/>
			</g>
			<g>
				<path class="st28" d="M81.1,67C73.5,83.8,53.8,91.2,37,83.7c-16.8-7.6-24.2-27.3-16.6-44c5.1-11.3,11.2-16.4,22.5-16.4
					c13.5-0.1,13,7.7,18.5,10.2c6.7,3,15.2-0.2,19.9,7.5C86.1,48.9,85,58.3,81.1,67z"/>
				<path class="st265" d="M27.3,49.2c1.9-0.1,3.5-0.8,4.8-2.1c1.2-1.2,2.2-2.7,3-4.3c1.4-2.5,2.7-5.2,4.4-7.5c1.3-1.7,3-3.3,5.1-4
					c1.9-0.6,3.8-0.6,5.7-0.3c-1.6-2-3.5-4.1-9.3-4c-7.5,0.1-11.6,3.4-14.9,10.9c-1.6,3.5-2.2,7.3-1.9,10.9
					C25.2,49.1,26.2,49.3,27.3,49.2z"/>
				<path class="st266" d="M81.3,40.9c-2.6-4.2-6.3-5.2-10.2-5.7c0.3,0.6,0.6,1.3,0.9,2c1.9,4.8,5.2,19.7-5.7,31.9
					C48.9,88.6,21.6,68.2,20,66c0-0.1-0.1-0.1-0.1-0.2C23,73.5,28.9,80,37,83.7c16.8,7.6,36.5,0.1,44.1-16.6
					C85,58.3,86.1,48.9,81.3,40.9z"/>
			</g>
			<g>
				<path class="st20" d="M83.9,19.9c0,0-3.4,11.8-19,10.8C64.9,30.8,72.2,16.4,83.9,19.9z"/>
				<path class="st21" d="M64.9,30.8c15.6,0.9,19-10.8,19-10.8c0,0-0.1,0-0.1,0L64.9,30.8z"/>
			</g>
		</g>
	</g>
</g>
<g id="Layer_3">
</g>
</svg>
