<?xml version="1.0" encoding="utf-8"?>
<!-- Generator: Adobe Illustrator 22.1.0, SVG Export Plug-In . SVG Version: 6.00 Build 0)  -->
<svg version="1.1" xmlns="http://www.w3.org/2000/svg" xmlns:xlink="http://www.w3.org/1999/xlink" x="0px" y="0px"
	 viewBox="0 0 100 100" style="enable-background:new 0 0 100 100;" xml:space="preserve">
<style type="text/css">
	.st0{fill:#FFFFFF;}
	.st1{fill:#FFDA00;}
	.st2{fill:#FFFFFF;stroke:#FFFF00;stroke-miterlimit:10;}
	.st3{fill:#D6D6D6;}
	.st4{fill:#80F0F9;}
	.st5{fill:#43CCDE;}
	.st6{fill:#32ABBA;}
	.st7{fill:#FF9D47;}
	.st8{fill:#4D4D4D;}
	.st9{fill:#34495E;}
	.st10{fill:#97F58F;}
	.st11{fill:#42CF25;}
	.st12{fill:#FFA6A6;}
	.st13{fill:#AB5C16;}
	.st14{fill:#FFDB8C;}
	.st15{fill:#D1D1D1;}
	.st16{fill:#72706F;}
	.st17{fill:#A05000;}
	.st18{fill:#693908;}
	.st19{fill:#C89D50;}
	.st20{fill:#4E9B34;}
	.st21{fill:#97C62F;}
	.st22{fill:#593968;}
	.st23{fill:#D5B3C3;}
	.st24{fill:#FCD22C;}
	.st25{fill:#FCDB94;}
	.st26{fill:#F3DAAE;}
	.st27{fill:#DBE1AC;}
	.st28{fill:#E4343A;}
	.st29{fill:#E3C6D3;}
	.st30{fill:#D2DB93;}
	.st31{fill:#FDE5AE;}
	.st32{fill:none;stroke:#F6D492;stroke-width:0.7714;stroke-linecap:round;stroke-linejoin:round;stroke-miterlimit:10;}
	.st33{fill:#CAB59F;}
	.st34{fill:#B41529;}
	.st35{fill:#D81F35;}
	.st36{fill:#F8BB00;}
	.st37{fill:#8DC21F;}
	.st38{fill:#951B08;}
	.st39{fill:#E6D8DF;}
	.st40{fill:#E5E5E6;}
	.st41{fill:#E5E4A9;}
	.st42{fill:#EFE9E9;}
	.st43{fill:#FBC8D1;}
	.st44{fill:#FBD4D9;}
	.st45{fill:#F9B9C7;}
	.st46{fill:#DD8CA5;}
	.st47{fill:#E8E8E8;}
	.st48{fill:#444343;}
	.st49{fill:#F4F1ED;}
	.st50{fill:#EFE2D5;}
	.st51{fill:#DDC8B6;}
	.st52{fill:#C1AA95;}
	.st53{fill:#FFCC57;}
	.st54{fill:#7E4A23;}
	.st55{fill:#FFF6B5;}
	.st56{clip-path:url(#SVGID_2_);}
	.st57{fill:#F99C15;}
	.st58{fill:#A2D063;}
	.st59{fill:#6FA536;}
	.st60{fill:#3D3D3D;}
	.st61{fill:#EFEFEF;}
	.st62{fill:#925D00;}
	.st63{fill:#F5B456;}
	.st64{fill:#E66B3E;}
	.st65{fill:#F7CC8C;}
	.st66{fill:#C77B00;}
	.st67{fill:#908F93;}
	.st68{fill:#E5C5DD;}
	.st69{fill:#6B6B6D;}
	.st70{fill:#F29700;}
	.st71{clip-path:url(#SVGID_4_);fill:#FEFEFE;}
	.st72{clip-path:url(#SVGID_4_);}
	.st73{fill:#670004;}
	.st74{fill:#B7B7BC;}
	.st75{fill:#E96D46;}
	.st76{fill:#F9EFE5;}
	.st77{fill:#BDAA9A;}
	.st78{fill:#DDCCBF;}
	.st79{fill:#4B6A76;}
	.st80{opacity:0.43;fill:url(#SVGID_5_);}
	.st81{fill:#F4E4E4;}
	.st82{fill:#FF8788;}
	.st83{fill:#261D1D;}
	.st84{opacity:0.5;}
	.st85{fill:#F7A7AA;}
	.st86{opacity:0.3;fill:#F7A7AA;}
	.st87{fill:#FABFBF;}
	.st88{opacity:0.5;fill:#F7A7AA;}
	.st89{fill:#F37B87;}
	.st90{fill:#943436;}
	.st91{fill:#F6A0A4;}
	.st92{fill:url(#SVGID_8_);}
	.st93{fill:url(#SVGID_9_);}
	.st94{fill:#E20E46;}
	.st95{fill:#EDEDED;}
	.st96{fill:#F9747E;}
	.st97{fill:#E44C5F;}
	.st98{clip-path:url(#SVGID_13_);}
	.st99{fill:#85C459;}
	.st100{clip-path:url(#SVGID_15_);fill:#FFFFFF;}
	.st101{clip-path:url(#SVGID_17_);fill:#F74F5C;}
	.st102{fill:#CCCCCC;}
	.st103{clip-path:url(#SVGID_19_);fill:#53BEE3;}
	.st104{clip-path:url(#SVGID_21_);}
	.st105{fill:#53BEE3;}
	.st106{fill:#00A1CC;}
	.st107{clip-path:url(#SVGID_23_);fill:#F74F5C;}
	.st108{fill:#534741;}
	.st109{clip-path:url(#SVGID_25_);fill:#F74F5C;}
	.st110{fill:#F74F5C;}
	.st111{fill:#706661;}
	.st112{clip-path:url(#SVGID_29_);}
	.st113{fill:#AAAAAA;}
	.st114{fill:#D82A3F;}
	.st115{clip-path:url(#SVGID_31_);}
	.st116{clip-path:url(#SVGID_33_);fill:#F74F5C;}
	.st117{clip-path:url(#SVGID_35_);fill:#F74F5C;}
	.st118{fill:#D8957B;}
	.st119{fill:#F1E3D8;}
	.st120{fill:#C3755E;}
	.st121{fill:none;stroke:#231815;stroke-width:0.25;stroke-linecap:round;stroke-miterlimit:10;}
	.st122{fill:none;stroke:#30373D;stroke-width:0.25;stroke-miterlimit:10;}
	.st123{fill:#E6A389;}
	.st124{fill:#D8957B;stroke:#FFFFFF;stroke-miterlimit:10;}
	.st125{fill:#F1E3D8;stroke:#FFFFFF;stroke-miterlimit:10;}
	.st126{fill:#C3755E;stroke:#FFFFFF;stroke-miterlimit:10;}
	.st127{fill:#E6A389;stroke:#FFFFFF;stroke-miterlimit:10;}
	.st128{stroke:#FFFFFF;stroke-miterlimit:10;}
	.st129{fill:none;stroke:#FFFFFF;stroke-linecap:round;stroke-miterlimit:10;}
	.st130{fill:#198974;}
	.st131{fill:#47AD2F;}
	.st132{fill:#7A5C41;}
	.st133{fill:#5CC13A;}
	.st134{fill:#237C11;}
	.st135{fill:#3FA541;}
	.st136{fill:#10725F;}
	.st137{fill:#8DE00A;}
	.st138{fill:#938548;}
	.st139{fill:#498C44;}
	.st140{fill:#7BCE05;}
	.st141{fill:#54CC06;}
	.st142{opacity:0.56;fill:#7CBA04;}
	.st143{fill:#876D33;}
	.st144{fill:#C4B08D;}
	.st145{fill:#56C437;}
	.st146{fill:#49AD07;}
	.st147{fill:#359B3C;}
	.st148{fill:#E2E2E2;}
	.st149{fill:#231815;}
	.st150{fill:#435780;}
	.st151{fill:#FF4960;}
	.st152{fill:#373934;}
	.st153{fill:#F6C267;}
	.st154{opacity:0.5;fill:#F99500;}
	.st155{opacity:0.2;fill:#C02529;}
	.st156{fill:#F2F0F3;}
	.st157{fill:#C02529;}
	.st158{opacity:0.41;fill:#435780;}
	.st159{opacity:0.59;fill:#C02529;}
	.st160{fill:#FCE0A4;}
	.st161{fill:#EAE27F;}
	.st162{fill:#A1A85B;}
	.st163{fill:#FCFBD2;}
	.st164{fill:#9E8A6A;}
	.st165{fill:#979C24;}
	.st166{fill:#D1C11C;}
	.st167{fill:#727235;}
	.st168{opacity:0.46;fill:#4F4E4D;}
	.st169{fill:#FFFA9C;}
	.st170{fill:none;stroke:#4D4D4D;stroke-linecap:round;stroke-linejoin:round;stroke-dasharray:5.893,5.893;}
	.st171{fill:none;stroke:#4D4D4D;stroke-linecap:round;stroke-linejoin:round;stroke-dasharray:6.0318,6.0318;}
	.st172{fill:#747F7D;}
	.st173{fill:#827E7F;}
	.st174{fill:url(#SVGID_36_);}
	.st175{fill:#B50016;}
	.st176{fill:url(#SVGID_37_);}
	.st177{fill:url(#SVGID_38_);}
	.st178{fill:#FFFFFF;stroke:#FFFFFF;stroke-linecap:round;stroke-linejoin:round;stroke-miterlimit:10;}
	.st179{fill:#F4E4E4;stroke:#FFFFFF;stroke-linecap:round;stroke-linejoin:round;stroke-miterlimit:10;}
	.st180{fill:#FF8788;stroke:#FFFFFF;stroke-linecap:round;stroke-linejoin:round;stroke-miterlimit:10;}
	.st181{fill:#261D1D;stroke:#FFFFFF;stroke-linecap:round;stroke-linejoin:round;stroke-miterlimit:10;}
	.st182{fill:#B6E9FF;}
	.st183{fill:#6D362C;}
	.st184{fill:#F0CAAE;}
	.st185{fill:#8C4B38;}
	.st186{fill:#361A16;}
	.st187{fill:#44251F;}
	.st188{fill:none;stroke:#44251F;stroke-miterlimit:10;}
	.st189{fill:none;stroke:#44251F;stroke-linecap:round;stroke-linejoin:round;stroke-miterlimit:10;}
	.st190{fill:none;stroke:#6D362C;stroke-width:2;stroke-linecap:round;stroke-linejoin:round;stroke-miterlimit:10;}
	.st191{fill:#AD5A5C;}
	.st192{fill:none;stroke:#44251F;stroke-width:1.7887;stroke-linecap:round;stroke-linejoin:round;stroke-miterlimit:10;}
	.st193{fill:#AD3D3C;}
	.st194{fill:#FEFEFE;}
	.st195{fill:#FF6D00;}
	.st196{fill:#5E2C00;}
	.st197{fill:#CDDA60;}
	.st198{fill:#F07F36;}
	.st199{fill:#D64C00;}
	.st200{fill:#F29038;}
	.st201{fill:#AA3F04;}
	.st202{fill:#D4DA50;}
	.st203{fill:#67B44B;}
	.st204{fill:#6C4000;}
	.st205{fill:#7E4E00;}
	.st206{fill:#FFCD00;}
	.st207{fill:#FFBE00;}
	.st208{fill:#5A3200;}
	.st209{fill:#5F3813;}
	.st210{fill:#FCC047;}
	.st211{fill:#E8AF2E;}
	.st212{fill:#603008;}
	.st213{fill:#994405;}
	.st214{fill:#E6E6E7;}
	.st215{fill:#3B2314;}
	.st216{fill:#F0F1F1;}
	.st217{fill:#E0A246;}
	.st218{fill:#4F2B0E;}
	.st219{fill:#7BAD1A;}
	.st220{fill:#97FAFF;}
	.st221{fill:#5DC5EE;}
	.st222{fill:#DE97FF;}
	.st223{fill:#AC3EE5;}
	.st224{fill:#F8CDDB;}
	.st225{fill:#F95892;}
	.st226{fill:#D5FFBD;}
	.st227{fill:#58B431;}
	.st228{fill:#69311A;}
	.st229{opacity:0.43;fill:url(#SVGID_39_);}
	.st230{opacity:0.43;fill:url(#SVGID_40_);}
	.st231{opacity:0.43;fill:url(#SVGID_41_);}
	.st232{opacity:0.43;fill:url(#SVGID_42_);}
	.st233{opacity:0.43;fill:url(#SVGID_43_);}
	.st234{fill:#FFEC00;}
	.st235{fill:#FFF380;}
	.st236{fill:#6D362C;stroke:#FFFFFF;stroke-miterlimit:10;}
	.st237{fill:#F0CAAE;stroke:#FFFFFF;stroke-miterlimit:10;}
	.st238{fill:#8C4B38;stroke:#FFFFFF;stroke-miterlimit:10;}
	.st239{fill:#361A16;stroke:#FFFFFF;stroke-miterlimit:10;}
	.st240{fill:#44251F;stroke:#FFFFFF;stroke-miterlimit:10;}
	.st241{fill:none;stroke:#FFFFFF;stroke-miterlimit:10;}
	.st242{fill:none;stroke:#FFFFFF;stroke-linecap:round;stroke-linejoin:round;stroke-miterlimit:10;}
	.st243{fill:#F4F1ED;stroke:#FFFFFF;stroke-linecap:round;stroke-miterlimit:10;}
	.st244{fill:#EFE2D5;stroke:#FFFFFF;stroke-linecap:round;stroke-miterlimit:10;}
	.st245{fill:#DDC8B6;stroke:#FFFFFF;stroke-linecap:round;stroke-miterlimit:10;}
	.st246{fill:#F9B9C7;stroke:#FFFFFF;stroke-linecap:round;stroke-miterlimit:10;}
	.st247{fill:#C1AA95;stroke:#FFFFFF;stroke-linecap:round;stroke-miterlimit:10;}
	.st248{stroke:#FFFFFF;stroke-linecap:round;stroke-miterlimit:10;}
	.st249{opacity:0.3;}
	.st250{fill:#FFAB24;}
	.st251{fill:#FFFFFF;stroke:#35B8EC;stroke-width:2;stroke-miterlimit:10;}
	.st252{fill:#E1F8FF;}
	.st253{fill:#00FF8B;}
	.st254{fill:#D5DDBF;}
	.st255{fill:#AFB59A;}
	.st256{fill:#65B857;}
	.st257{opacity:0.5;fill:#4A913C;}
	.st258{fill:#7CCD6C;}
	.st259{opacity:0.75;fill:#5B9B4B;}
	.st260{fill:#ECF4D9;}
	.st261{fill:#91DE80;}
	.st262{opacity:0.5;fill:#75B765;}
	.st263{fill:#D4DDBC;}
	.st264{fill:#FF4200;}
	.st265{fill:#FFA6B1;}
	.st266{fill:#C60018;}
</style>
<g id="Layer_1">
</g>
<g id="Layer_2">
	<g>
		<circle class="st0" cx="50" cy="50" r="46"/>
		<path class="st253" d="M50,98C23.5,98,2,76.5,2,50C2,23.5,23.5,2,50,2s48,21.5,48,48C98,76.5,76.5,98,50,98z M50,6
			C25.7,6,6,25.7,6,50c0,24.3,19.8,44,44,44s44-19.8,44-44C94,25.7,74.3,6,50,6z"/>
	</g>
	<g>
		<path class="st254" d="M58.6,89.5c0,0-2.6,1.2-7.1,1.2c-4.5,0-6.9-1.2-6.9-1.2v-6.4h14V89.5z"/>
		<path class="st255" d="M58.6,86c0,0-2.2,2.1-7.1,2.1c-5.2,0-6.9-2.1-6.9-2.1v-5.5h14V86z"/>
		<path class="st256" d="M40,81.8c-1-0.6-2.1-1.2-2.4-2.5c-0.3-1.2,0-2.4-0.3-3.6c-0.2-1.2-1-2-1.4-3c-0.4-1-0.1-1.7,0.2-2.6
			c0.4-1.2,0.2-2.1-0.7-3c-0.9-0.8-2.7-1.1-3.3-2.2c-0.6-1.1,1.9-2.7,0.3-4.9c-1.4-2,3.2-1.2,2.9-3c-0.2-1.2-2.3-2.9-2.5-4.1
			c-0.2-1.2,2.4-1.9,2.6-3.1c0.3-1.7-3.1-1.9-2-4c0.6-1.2-2.8-3.1-1.2-6.6c1.2-2.7,3.5-1.3,3.8-4.5c0.2-3.2-3.8-6.5-0.3-10
			c0.9-0.9-1.9-2.2-0.5-5.1c1-2,3.9-2.2,3.8-4.4c-0.2-2.6,2.3-4.3,3.9-4.8c1.3-0.4,2.7,1.1,3.7,1.7c1.7,0.9,3.5-3.8,5.4-1.8
			c3,3.1,5.1,0.3,6,1.4c1.4,1.6,1.5,4.3,3.9,4.3c1.7,0,0.7,2.9,3.2,4.1c2.7,1.3-1.9,5.1,0.1,4.8c1.8-0.3,1.4,5.1,3.1,5.3
			c1.4,0.1-3.3,5.2-0.8,6.2c2.7,1.1,0.3,2.7,0.1,5c-0.3,2.9,2.7,4,0,7.9c-2,2.9,1.8,2.6-0.3,5.8c-1.3,2,3.7,3.2,2.9,4.7
			c-0.7,1.3-3.2,2.6-2.1,4.4c0.8,1.3-0.8,2.5-0.4,3.9c0.4,1.3,0.8,2.3,0.3,3.6c-0.6,1.4-1.6,2.5-2.1,3.9c-0.8,2.6-1,3.6-3.5,5.4
			c-1.5,1.1-1.8,1.7-3.6,1.9c-1.6,0.3-3,0.9-4.6,1.2L40,81.8z"/>
		<path class="st257" d="M67.3,55.4c2.1-3.3-1.7-2.9,0.3-5.8c2.7-3.9-0.3-5,0-7.9c0.2-2.4,2.6-4-0.1-5c-2.5-1,2.2-6.1,0.8-6.2
			c-1.7-0.1-1.4-5.6-3.1-5.3c-1.9,0.3,2.7-3.4-0.1-4.8c-2.5-1.2-1.5-4.1-3.2-4.1c-2.4,0-2.5-2.7-3.9-4.3c-0.9-1.1-3,1.7-6-1.4
			c-0.3-0.3-0.6-0.5-0.9-0.5c0,0-2.4,2.6-1.4,3.8c1,1.3,2.1,1.4,2.7,4.1c0.6,2.8-2,4.1-1.9,7.2c0.1,3.1,2.6,3.2,3,5.3
			c0.4,2.1-1.7,2.1-2.4,4.4c-0.6,2.4,0.5,2.6,1,4.4c0.6,1.8-1.3,5.3-2.4,10.5c-1.1,5.2,1.3,34,1.3,34l3.2,0.6c1.6-0.3,3-0.9,4.6-1.2
			c1.8-0.3,2.1-0.9,3.6-1.9c2.5-1.8,2.7-2.9,3.5-5.4c0.5-1.4,1.5-2.5,2.1-3.9c0.5-1.3,0.1-2.4-0.3-3.6c-0.5-1.4,1.2-2.6,0.4-3.9
			c-1.1-1.8,1.4-3.1,2.1-4.4C71,58.5,66,57.4,67.3,55.4z"/>
		<path class="st258" d="M53.5,84.3c1.6-0.3,1-0.6,2.7-0.9c1.1-0.2,2.7-0.6,3.7-1.2c0.7-0.8,3.9-0.2,4.4-1.2c1.5-2.7-1-4.1-1.4-6.7
			c-0.2-1.5,0.2-2.9,0.1-4.4c-0.1-1.4-0.9-2.2-1.9-3.1c-1-1.1-0.1-2.8-1.4-3.7c-1.8-1.2-0.1-3.4,0-4.9c0.1-1.7-2.8-1.4-2.5-3.8
			c0.4-3.8-3.8-1.2-3.2-4.7c0.7-4.7-3.7-4.2-4.7-6.9c-0.8-2.2,2.2-5.7-0.6-5.4c-2.7,0.2,2.1-4.9-3.7-5c-1.7,0-1.3-4.2-5.1-3.4
			c-1.9,0.4,0.5-5.9-2.2-4.3c-2.7,1.6-2.6-1.2-4.6,0.6c-2,1.8,3,6.3,2.8,9.5c-0.2,3.2-2.5,1.8-3.8,4.5c-1.6,3.5,1.9,5.4,1.2,6.6
			c-1.1,2.1,2.3,2.3,2,4c-0.2,1.2-2.8,1.9-2.6,3.1c0.2,1.2,2.3,2.9,2.5,4.1c0.3,1.8-4.3,1-2.9,3c1.6,2.2-1,3.8-0.3,4.9
			c0.6,1,1.2,1.7,2.1,2.5c1,0.9-0.3,2.1-0.6,3.4c-1.1,3.9,3.5,3.8,3.7,5c0.3,1.2,0,2.5,0.3,3.6c0.3,1.3,1.4,1.9,2.4,2.5L53.5,84.3z"
			/>
		<path class="st259" d="M62.9,74.3c-0.2-1.5,0.2-2.9,0.1-4.4c-0.1-1.1-0.6-1.9-1.3-2.6l0,0c0-0.1-0.5-0.5-0.5-0.5
			c-1-1.1-0.1-2.8-1.4-3.7c-1.6-1.1-0.3-3.2-0.1-4.2l0,0c0.2-0.7,0.2-1.2-0.3-1.6l0,0c-0.4-0.4-1.3-0.8-1.7-1.3c-0.8-1,0-2-0.5-3v0
			l0,0c-0.8-1.5-3.5-0.3-3-3.1c0.7-4.7-3.7-4.2-4.7-6.9c-0.8-2.2,2.2-5.7-0.6-5.4c-2.5,0.2,1.4-4.1-2.5-4.9c1.2,3-2.4,3.4-0.6,6.2
			c0.8,1.3-1.3,2-0.3,4.5c0.8,2.1-2,0.4-1.5,2.8c0.3,1.3-2.1,0.9-2-2.7c0.1-1.6-2.3-0.6-2.8-2c-0.4-1.1-2.3-1.4-3.1-0.7
			c1.5,4.9,3.1,9.4,3.8,14.7c-3.7,2.6-0.7,7.4-1.6,9.3C35.9,69,37.4,73,38.3,74c2.4,2.8-4.6,5.2,4,9.1l11.1,1.1
			c1.6-0.3,1-0.6,2.7-0.9c1.1-0.2,2.7-0.6,3.7-1.2c0.7-0.8,3.9-0.2,4.4-1.2C65.7,78.3,63.3,77,62.9,74.3z"/>
		<path class="st260" d="M45.2,84.8c-2.3-1.6-5.7-14.4-6.1-22.9c-0.4-8.8-1.1-14.6-3.2-21.4c3.4,1.4,6.3,7.8,6.2,16.2
			c-0.1,7.5,6.2,8.6,9,14.9c1.3-9.1,7.6-32,13.7-34c0,3-9.4,14.4-6.1,22.3c2.7,6.4,2.9,21.4-0.4,25C54,86.9,48.2,86.4,45.2,84.8z"/>
		<path class="st261" d="M50.1,85.6c-2,0-3.3-0.5-4.9-0.8c-1.1-0.2-2.2-0.6-3.3-1.1c-0.7-0.8-1.3-1.7-1.8-2.6
			c-1.5-2.7,1-4.1,1.4-6.7c0.2-1.5-0.2-2.9-0.1-4.4c0.1-1.4,0.9-2.2,1.9-3.1c1-1.1,0.1-2.8,1.4-3.7c1.8-1.2,0.1-3.4,0-4.9
			c-0.1-1.7,2.8-1.4,2.5-3.8c-0.4-3.8,3.8-1.2,3.2-4.7c-0.7-4.7,3.7-4.2,4.7-6.9c0.8-2.2-1.1-4.3,1.4-5.6c2.9-1.5,1.6-5.4,2.9-4.8
			c1.6,0.6,2-2.6,3.7-3c2.7-0.7,0.5-4.6,3.6-4.6c0.9,0,1.1-1,2-0.7c0.9,0.3,0.5,2.8,0.7,3.1c3.5,3.5-1.2,4.5-1,7.7
			c0.2,3.2,2.5,1.8,3.8,4.5c1.6,3.5-1.9,5.4-1.2,6.6c1.1,2.1-2.3,2.3-2,4c0.2,1.2,2.8,1.9,2.6,3.1c-0.2,1.2-2.3,2.9-2.5,4.1
			c-0.3,1.8,4.3,1,2.9,3c-1.6,2.2,1,3.8,0.3,4.9c-0.6,1-2.4,1.4-3.3,2.2c-1,0.9-1.1,1.8-0.7,3c0.3,1,0.6,1.6,0.2,2.6
			c-0.4,1.1-1.2,1.9-1.4,3c-0.3,1.2,0,2.5-0.3,3.6c-0.3,1.3-1.4,1.9-2.4,2.5C64.4,81.8,62,85.6,50.1,85.6z"/>
		<path class="st262" d="M72,60c1.4-2-3.2-1.2-2.9-3c0.2-1.2,2.3-2.9,2.5-4.1c0.2-1.2-2.4-1.9-2.6-3.1c-0.3-1.7,3.1-1.9,2-4
			c-0.6-1.2,2.8-3.1,1.2-6.6c-1.2-2.7-3.5-1.3-3.8-4.5c-0.2-3.2,4.5-4.2,1-7.7c-0.2-0.2,0.2-2.8-0.7-3.1c0,0-2.7,2.9-2.5,6.5
			c0.1,1.4-3.4,1.4-4.2,2.8c-0.9,1.7,1,5.5-1.9,6.5c-3,1-2.8,7.7-5.1,7.6c-5.7-0.1-0.4,7.3-2.4,9.3c-1.8,1.8-1.8,5.2-3.8,6
			c-2.9,1.1-1.6,3.5-4.1,4.8c-3.1,1.5,0.2,4.1-2,7.1c-1.4,1.9,1.4,4.3-0.3,6c-1.6,1.5-0.6,2.7,0.8,3.5c0.7,0.3,1.4,0.5,2,0.6
			c1.6,0.3,2.9,0.8,4.9,0.8c11.9,0,14.3-3.7,14.3-3.7c1-0.6,2.1-1.2,2.4-2.5c0.3-1.2,0-2.4,0.3-3.6c0.2-1.2,1-2,1.4-3
			c0.6-1.5-0.5-2.4-0.4-4c0.2-2.4,3.4-2.4,4.2-3.8C72.9,63.8,70.4,62.2,72,60z"/>
		<path class="st260" d="M64.2,56.4c-1.6-0.1-6.1,3.1-7.1,7.5c-1.6-7,6.2-18.7,6.2-21.2c-5.5,1.8-13.1,24-13.9,36.1
			c0-5.7-2.3-5.1,0-11.5C47.3,68,41.6,79,45,84.7c3.9,2.7,10.1,2.3,13.5,0c5.3-6.6,0.5-12.1,1.2-18.3C60.3,59.6,63.8,58.4,64.2,56.4
			z"/>
		<path class="st263" d="M50.2,84.9c1.5,0.6,6.4,0.6,7.7-3.6c1.5-4.8,0.7-10.8-1.1-14.1c0.4,3.3,0.2,10.3-1.7,13.5
			C53.1,83.9,50.2,84.9,50.2,84.9z"/>
	</g>
</g>
<g id="Layer_3">
</g>
</svg>
